<?xml version="1.0" encoding="utf-8"?>
<!-- Generator: Adobe Illustrator 23.0.0, SVG Export Plug-In . SVG Version: 6.00 Build 0)  -->
<svg version="1.1" id="Layer_1" xmlns="http://www.w3.org/2000/svg" xmlns:xlink="http://www.w3.org/1999/xlink" x="0px" y="0px"
	 viewBox="0 0 1080 1296" style="enable-background:new 0 0 1080 1296;" xml:space="preserve">
<path d="M-476.79,672.09c6.09-0.09,9.36,4.15,7.77,10.09c-0.87,3.26-2.56,5.79-6.06,6.72c-4.45,1.17-11.04-1.92-12.91-6.13
	c-0.92-2.07-0.63-4.05,0.76-5.83C-484.59,673.53-480.97,672.19-476.79,672.09z M-599.09,1174.07c-0.81-0.67-1.83-0.8-2.68-0.28
	c-1.06,0.65-2.13,1.42-2.9,2.38c-0.66,0.83-1.18,1.72-1.62,2.67c-0.22,0.34-0.43,0.68-0.63,1.03c-0.54,0.97-1.13,1.95-1.33,3.05
	c-0.1,0.29-0.18,0.58-0.24,0.88c-0.15,0.8,0,1.65,0.74,2.11c0.04,0.03,0.08,0.04,0.13,0.07c0.53,0.4,1.26,0.44,1.9,0.12
	c0.3-0.03,0.61-0.16,0.88-0.46c0.93-1,1.79-2.05,2.6-3.14c0.75-0.82,1.49-1.65,2.19-2.52c0.78-0.96,1.23-2.21,1.71-3.37
	C-597.92,1175.63-598.28,1174.73-599.09,1174.07z M-521.06,913.43c-1.54-1-3.25-1.27-5.04-1.25c-1.57,0.01-3.15,0-5.02,0
	c-0.2-1.35-0.38-2.57-0.55-3.8c-0.54-3.94-2.11-7.37-5.03-10.09c-2.42-2.25-5.07-2.49-7.93-0.88c-4.16,2.34-6.07,6.65-4.94,11.43
	c0.33,1.39,0.87,2.74,1.4,4.08c0.52,1.32,0.33,2.5-0.43,3.63c-0.36,0.53-0.71,1.07-1.07,1.59c-15.91,23.22-31.85,46.41-47.71,69.67
	c-1.62,2.37-3.53,4-6.27,4.83c-2.93,0.89-5.66,2.28-7.97,4.29c-3.2,2.78-4.2,6.33-3.14,10.41c1.07,4.11,3.74,6.59,7.93,7.37
	c2.79,0.52,5.42,0.08,7.83-1.41c1.63-1.01,3.18-2.15,4.83-3.14c1.05-0.63,2.2-1.08,3.24-1.58c1.5,1.23,2.69,2.3,3.98,3.23
	c2.41,1.74,5.13,1.95,7.74,0.75c1.7-0.78,3.31-1.98,4.63-3.32c2.29-2.34,2.25-5.15,0.31-7.84c-1.38-1.91-3.32-2.92-5.46-3.71
	c-1.28-0.47-2.93-0.28-3.88-2.22c1-2.1,2.66-4.03,4.15-6.05c11.03-14.91,22.1-29.8,33.14-44.71c3.43-4.63,6.86-9.25,10.18-13.95
	c1.4-1.98,3.03-3.11,5.54-3.17c1.74-0.04,3.5-0.42,5.19-0.87c2.94-0.78,5.03-2.76,6.48-5.35
	C-517.34,918.49-518.27,915.23-521.06,913.43z M-576.97,1168.76c-0.93-0.68-2.62-0.61-3.58,0.27c-0.81,0.74-1.67,1.6-2.07,2.58
	c-0.79,1.95-1.36,3.98-1.86,5.59c-0.73,1.76-0.95,4.14,1.23,4.38c1.37,0.15,2.1-1.28,2.71-2.27c0.16-0.26,0.3-0.54,0.46-0.81
	c1.56-2.03,2.93-4.19,3.73-6.7C-576,1170.69-575.88,1169.56-576.97,1168.76z M-586,1162.99c-0.06,0.02-0.1,0.04-0.16,0.06
	c-3.56,1-6.57,2.89-8.76,5.92c-0.29,0.41-0.32,1.32-0.06,1.72c0.27,0.4,1.12,0.71,1.61,0.6c0.38-0.09,0.76-0.17,1.13-0.26
	c0.1,0,0.2,0,0.31-0.01c3.27-0.46,7.64-1.1,9.92-3.81C-579.61,1164.37-583.42,1162.28-586,1162.99z M-546.72,1140.15
	c-2.39-0.79-4.95-1.04-7.44-1.52c-8.34,0.35-15.36,3.25-20.65,9.73c-1.38,1.69-2.36,3.77-3.27,5.79c-0.92,2.05-0.48,4.16,0.91,5.86
	c0.99,1.2,2.21,2.38,3.58,3.06c5.31,2.63,10.74,3.01,16.03-0.1c5.02-2.95,9.1-7.01,12.51-11.67c1-1.36,1.65-3.12,1.97-4.8
	C-542.45,1143.27-543.6,1141.18-546.72,1140.15z M-276.37,1053.39c-2.7,11.34-5.39,22.68-8.1,34.02c-0.82,3.42-1.73,6.81-2.53,10.23
	c-0.37,1.6-1.27,2.49-2.88,2.76c-1.1,0.19-2.22,0.39-3.26,0.79c-5.57,2.1-6.98,8.02-2.99,12.4c3.5,3.83,8.21,4.32,12.51,1.38
	c1.27-0.87,2.09-2.49,4.2-2.54c0.29,0.8,0.6,1.65,0.92,2.51c0.93,2.54,1.78,5.11,2.82,7.6c0.76,1.81,2.15,3.17,3.89,4.1
	c4.47,2.39,8.94,0.05,9.5-4.97c0.3-2.67-0.36-5.12-1.97-7.22c-1.36-1.77-2.84-3.47-4.44-5.01c-2.6-2.51-3.03-5.3-2.07-8.74
	c6.65-23.84,13.18-47.71,19.78-71.56c1.49-5.37,3.13-10.71,4.74-16.21c1.62-0.54,3.13-1.02,4.62-1.53c2.62-0.9,4.89-2.33,6.7-4.46
	c4.18-4.91,0.9-12.26-4.66-13.07c-4.35-0.64-8.24,0.36-11.79,2.84c-1.03,0.72-1.96,1.59-3.46,2.82c-0.94-1.69-1.63-2.93-2.32-4.16
	c-1.12-2-2.6-3.58-4.73-4.58c-2.48-1.16-4.65-0.77-6.65,0.96c-2.88,2.48-3.93,6.35-2.52,10.02c0.86,2.23,1.87,4.42,3.04,6.51
	c1.26,2.25,1.4,4.48,0.81,6.92C-270.3,1027.92-273.33,1040.66-276.37,1053.39z M-491.51,893.56c-2.12,1.69-4.06,3.61-6.14,5.36
	c-2.32,1.95-4.58,4.02-7.1,5.68c-4.5,2.96-9.35,3.13-14.14,0.73c-5.38-2.69-9.72-6.71-13.36-11.45c-2.99-3.89-2.94-8.34-1.9-12.83
	c0.45-1.94,1.79-3.33,3.59-4.28c2.49-1.31,5.17-1.57,7.96-1.84c3.61,0.63,7.23,1.23,10.83,1.91c2.04,0.39,4.09,0.81,6.06,1.42
	c6.98,2.18,13.91,1.55,20.79-0.38c3.07-0.86,6.09-1.92,9.1-2.98c2.15-0.76,4.31-1.16,6.58-0.92c1.8,0.19,3.4,0.85,4.77,2.05
	c2.61,2.28,2.66,5.67,0.03,7.9c-2.26,1.92-4.98,2.8-7.89,3.18c-2.38,0.3-4.75,0.63-7.12,0.97
	C-483.98,888.73-487.96,890.72-491.51,893.56z M-508.19,889.71c-1.39-3.86-5.3-6.42-10.48-6.39c-0.68,0.15-2.12,0.34-3.45,0.81
	c-1.74,0.61-2.38,2.04-1.94,3.82c1.35,5.54,7.65,9.08,13.1,7.36C-508.25,894.45-507.23,892.38-508.19,889.71z M-311.89,992.89
	c1.24,9.2,2.1,18.42,1.89,27.73c-0.5,21.64-7.52,40.67-22.22,56.75c-7.73,8.46-16.41,15.75-26.61,20.98
	c-15.4,7.9-31.74,10.34-48.89,7.88c-19.02-2.73-35.76-10.54-50.78-22.28c-8.03-6.28-14.36-14.08-19.97-22.51
	c-6.6-9.92-11.93-20.44-14.95-32.01c-2.29-8.77-2.94-17.63-0.87-26.58c2.83-12.22,9.91-20.9,21.4-25.97
	c1.74-0.77,3.82-1.27,5.03-2.56c1.42-1.52-0.12-3.65-0.24-5.52c-0.22-3.36-0.42-6.7,0.83-9.95c2.35-6.11,6.99-9.42,13.26-10.4
	c5.34-0.83,10.12,0.82,14.28,4.24c1.09,0.9,2.11,1.87,3.95,3.52c0.14-2.17,0.24-3.41,0.29-4.66c0.14-3.44,1.1-6.64,2.98-9.5
	c2.89-4.39,6.95-6.37,12.27-5.86c5.91,0.58,10.33,3.11,12.52,8.88c0.37,0.96,0.94,1.84,1.74,3.4c0.44-1.25,0.69-1.78,0.81-2.35
	c0.39-1.88,0.65-3.78,1.1-5.64c0.74-3.02,2.25-5.65,4.57-7.73c5.13-4.62,11.5-5.84,17.89-1.07c3.66,2.73,6.23,6.38,8.48,10.3
	c0.86,1.5,1.29,3.31,3.17,4.47c1.02-0.1,2.28-0.23,3.53-0.36c8.69-0.88,17.28-0.39,25.59,2.43c14.4,4.89,23.04,15.09,26.51,29.71
	C-313.2,983.04-312.55,987.98-311.89,992.89z M-416.55,1024.46c-0.07-0.93-0.04-2.87-0.41-4.73c-2.02-10.21-8.68-17.91-21.58-15.68
	c-7.63,1.32-14.17,4.94-19.69,10.21c-6.33,6.04-7.69,13.4-4.6,21.51c2.76,7.25,7.96,12.25,15.01,15.29
	c5.05,2.18,10.22,2.37,15.39,0.29c3.49-1.4,6.37-3.64,8.75-6.51C-419.01,1039.23-416.68,1032.74-416.55,1024.46z M-404.71,974.77
	c-2.47-3.5-5.85-5.86-9.8-7.4c-1.43-0.56-2.87-0.32-3.97,0.87c-3.07,3.36-4.55,7.33-3.99,11.86c0.44,3.55,4.02,4.96,6.8,2.76
	c1.1-0.87,1.98-2.03,3.04-3.14c1.87,0.43,3.25,0.94,4.66,1.02c1.47,0.08,2.84-0.55,3.64-1.91
	C-403.51,977.42-403.83,976.01-404.71,974.77z M-341.19,1002.78c-0.1-1.43-0.12-2.88-0.31-4.3c-1.6-11.76-10.8-20.38-24.11-17.96
	c-1.57,0.29-3.16,0.54-4.7,0.95c-5.46,1.45-10.62,3.57-14.81,7.49c-5.26,4.91-7.23,10.8-4.79,17.8c0.63,1.8,1.33,3.63,2.35,5.21
	c5.68,8.74,13.76,13.71,24.18,14.32c7.78,0.46,13.98-2.75,18.22-9.4C-342.43,1012.61-341.17,1007.88-341.19,1002.78z
	 M-270.5,1138.23c-1.43-2.72-3.45-4.97-5.82-6.92c-5.92-4.86-12.81-6.98-21.74-7.24c-1.51,0.26-4.38,0.55-7.13,1.3
	c-3.6,0.98-5.09,3.78-4.25,7.38c0.55,2.37,1.64,4.5,3.16,6.39c3.01,3.75,6.36,7.17,10.18,10.09c6.55,4.99,14.91,5.41,22.04,1.23
	C-269.21,1147.63-267.9,1143.2-270.5,1138.23z M-609.24,1158.34c0.01,0,0.02,0,0.04,0c1.6-0.32,3.18-0.81,4.58-1.66
	c1.21-0.73,3.18-1.49,3.64-2.96c0.44-1.39-0.59-2.62-1.99-2.7c-1.47-0.09-3.03,0.54-4.25,1.34c-1.46,0.59-2.83,1.38-4.06,2.41
	c-0.54,0.26-1.06,0.6-1.35,1.11c-0.37,0.34-0.68,0.69-0.86,1.18c-0.2,0.56,0.12,1.45,0.69,1.69
	C-611.69,1159.24-610.43,1158.84-609.24,1158.34z M-607.79,439.16c0.19,0.44,0.39,0.88,0.57,1.32
	c14.65,35.27,29.3,70.55,43.94,105.83c0.54,1.31,0.98,2.67,1.55,4.22c-0.98,0.91-1.94,1.71-2.79,2.62c-1.96,2.09-4.18,4.03-5.72,6.4
	c-4.37,6.78-2.3,13.56,4.94,17.14c0.57,0.28,1.15,0.57,1.76,0.76c8.18,2.5,12.11,0.43,15.5-5.39c0.72-1.24,1.24-2.59,1.91-3.86
	c0.35-0.66,0.82-1.26,1.38-2.09c0.81,0.69,1.4,1.19,1.98,1.71c1.07,0.95,1.99,2.19,3.23,2.8c6.41,3.15,12.32,2.63,17.18-3.27
	c5.89-7.16,5.35-13.61-1.73-19.57c-2.71-2.28-5.7-4.17-8.99-5.44c-2.89-1.11-4.56-3-5.77-5.88c-13.72-32.54-27.51-65.05-41.41-97.51
	c-2.49-5.82-1.51-5.51,1.87-8.39c2.93-2.5,5.62-5.23,7.25-8.82c2.05-4.53,1.5-8.72-1.6-12.56c-2.36-2.92-5.41-4.99-8.86-6.38
	c-2.86-1.15-5.73-1.05-8.1,1.1c-2.12,1.92-4.02,4.08-6.02,6.14c-0.74,0.76-1.46,1.54-2.31,2.45c-0.85-0.69-1.51-1.13-2.04-1.68
	c-3.06-3.15-6.8-5.25-10.68-7.2c-4.68-2.35-8.96-1.62-13.05,1.33c-4.87,3.51-6.16,7.92-3.85,13.43c2.71,6.47,7.32,11.14,13.64,14.18
	C-609.7,434.62-609.71,434.64-607.79,439.16z M-602.98,1165.91c0.26-0.56,0.31-1.22,0.34-1.36c0.07-1.74-1.19-2.57-2.28-1.97
	c-2.86,1.6-5.01,3.91-6.52,6.8c-0.21,0.41-0.24,0.92-0.29,1.39c-0.1,0.96,1.04,1.89,1.92,1.51
	C-606.77,1170.99-604.41,1168.93-602.98,1165.91z M-605.6,383.82c-3.22,1.43-4.4,3.44-3.97,6.78c0.63,4.99,3.24,8.69,6.53,9.01
	c1.25,0.12,2.59,0.06,3.78-0.28c3.86-1.09,7.79-6.46,7.89-10.55c0.08-3.36-2.21-5.88-5.84-6.4
	C-600.16,381.95-602.93,382.63-605.6,383.82z M-588.75,1156.05c-3.98,0.04-7.46,1.45-10.38,4.15c-0.7,0.64-0.22,2.17,0.71,2.29
	c1.1,0.14,2.22,0.14,3.33,0.2c2.74-0.03,5.47-0.13,7.95-1.39c0.76-0.38,1.43-1.24,1.79-2.04c0.37-0.82-0.54-2.16-1.6-2.67
	C-587.52,1156.33-588.15,1156.04-588.75,1156.05z M-576.61,1030.28c1.58-3.16,0.66-5.92-1.39-8.44c-1.97-2.43-5.17-2.91-7.71-1.04
	c-1.12,0.83-2.01,2.03-2.85,3.18c-0.74,1.01-1.26,2.18-2.21,3.85c-1.46-1.15-2.42-1.96-3.43-2.69c-3-2.17-6.36-2.92-10-2.4
	c-2.59,0.37-4.47,1.79-5.41,4.2c-1.13,2.92-0.77,5.68,1.5,8c1.95,2,4.31,3.32,7.05,3.85c1.81,0.35,2.77,1.43,3.25,3.11
	c0.13,0.46,0.32,0.9,0.45,1.37c1.54,5.55,3.11,11.09,4.6,16.64c4.11,15.28,8.19,30.58,12.28,45.86c1.16,4.32,2.22,8.68,3.5,12.97
	c0.88,2.95,0.2,5.33-1.87,7.47c-0.78,0.8-1.59,1.6-2.24,2.5c-0.93,1.29-1.83,2.62-2.56,4.04c-0.91,1.77-0.99,3.71-0.46,5.62
	c1.05,3.78,4.54,5.13,7.89,3.15c1.73-1.02,2.96-2.48,3.7-4.29c0.85-2.06,1.47-4.22,2.23-6.32c0.25-0.69,0.62-1.34,1.09-2.33
	c1.32,0.91,2.32,1.64,3.35,2.31c3.41,2.21,7.14,1.92,10.15-0.77c4.32-3.86,3.18-9.88-2.27-11.87c-0.74-0.27-1.55-0.38-2.34-0.5
	c-1.67-0.25-2.48-1.31-2.81-2.85c-0.13-0.63-0.24-1.26-0.39-1.88c-4.45-19.32-8.9-38.65-13.35-57.97c-0.9-3.89-1.75-7.8-2.76-11.67
	c-0.8-3.07-0.87-5.95,0.92-8.75C-577.82,1033.28-577.32,1031.71-576.61,1030.28z M-583.75,1149.45c-0.96-1.16-2.26-1.76-3.71-1.94
	c-3.54-0.45-6.97,0.09-10.26,1.41c-0.44,0.18-0.78,0.93-0.88,1.47c-0.06,0.3,0.41,0.85,0.77,1.05c2.73,1.54,5.77,1.56,9.29,1.81
	c0.91-0.09,2.35-0.13,3.73-0.4C-583.28,1152.54-582.75,1150.65-583.75,1149.45z M-176.44,380.81c-5.16-0.89-11.24,2.97-12.61,8.02
	c-0.86,3.16,0.82,5.32,4.3,5.36c2.54-0.28,5.22-0.55,7.66-1.94c2.76-1.58,4-4.02,4.2-7.05
	C-172.74,382.94-174.23,381.19-176.44,380.81z M-247.12,1134.78c-3.61-1.43-7.36-2.03-11.24-1.63c-1.63,0.17-3.18,0.68-4.26,1.91
	c-0.57,0.65-0.95,1.67-0.96,2.53c-0.01,1.04,0.96,1.66,1.91,1.86c1.24,0.26,2.52,0.3,3.11,0.36c4.38-0.03,7.97-0.68,11.45-1.91
	c0.74-0.26,1.46-0.89,1.19-1.79C-246.08,1135.58-246.61,1134.98-247.12,1134.78z M-619.26,369.41c2.42,1.18,4.81,1.42,7.4,0.35
	c3.15-1.3,5.91-3.15,8.61-5.16c0.84-0.63,1.81-1.08,2.76-1.63c1.36,2.7,2.38,5.23,3.82,7.5c3.33,5.25,7.6,6.91,14.54,5.88
	c2.43-0.36,4.54-1.69,5.83-3.87c2.23-3.75,3-7.78,1.52-11.97c-0.74-2.09-1.65-4.22-2.96-5.99c-1.66-2.24-1.51-4.29-0.69-6.71
	c5.99-17.55,11.93-35.11,17.85-52.68c5.61-16.66,11.17-33.35,16.78-50.01c1.73-5.15,3.57-10.26,5.28-15.42
	c0.57-1.73,1.64-2.67,3.4-2.92c0.79-0.11,1.59-0.19,2.37-0.37c3.44-0.79,6.8-1.82,9.72-3.91c2.27-1.63,4.06-3.63,4.62-6.47
	c1.51-7.58-4.32-14.93-12.04-15.31c-3.62-0.18-6.96,0.78-10.24,2.15c-1.44,0.6-2.86,1.23-4.59,1.97c-0.31-1.04-0.62-1.74-0.72-2.48
	c-0.45-3.45-2.15-6.33-4.11-9.08c-1.75-2.46-4.18-3.34-7.12-2.96c-2.93,0.38-5.56,1.53-7.86,3.33c-2.64,2.06-3.73,4.87-2.72,8.09
	c0.71,2.26,1.78,4.45,3,6.49c1.05,1.77,2.4,3.42,3.85,4.89c1.57,1.59,1.85,3.25,1.13,5.24c-0.27,0.75-0.47,1.53-0.71,2.29
	c-6.05,19.72-12.1,39.43-18.13,59.15c-5.76,18.8-11.49,37.61-17.26,56.41c-0.46,1.49-0.71,3.15-2.35,4.34
	c-0.56,0.07-1.34,0.18-2.12,0.28c-3.97,0.47-7.95,0.84-11.89,1.44c-3.65,0.56-7.17,1.65-10.37,3.57c-2.79,1.68-4.54,4.02-4.48,7.41
	c0.03,1.92-0.07,3.87,0.26,5.74C-626.05,363.66-623.63,367.28-619.26,369.41z M-197.97,355.9c-0.58,0.27-1.16,0.55-1.69,0.9
	c-2.53,1.68-5.15,3.24-7.54,5.11c-8.24,6.47-14.33,14.52-17.53,24.61c-0.83,2.62-1.26,5.29-0.97,8.03c0.35,3.3,1.94,4.81,5.27,5.15
	c2.27,0.23,4.43-0.17,6.57-0.98c2.24-0.84,4.49-1.71,6.82-2.22c5.62-1.23,9.3-4.6,11.69-9.7c3.03-6.48,4.62-13.25,4.78-20.41
	c-0.22-2.38-0.25-4.81-0.72-7.14C-192.07,355.34-194.4,354.26-197.97,355.9z M-176.43,346.45c1.91-0.15,3.39-1.68,3.22-3.35
	c-0.11-1.1-1.17-2.12-2.18-2.1c-1.78,0.04-3.2,1.57-3.16,3.42C-178.52,345.59-177.54,346.53-176.43,346.45z M-165.4,378.38
	c-1.92,0.65-3.9,2.3-4.23,4.4c-0.03,0.21-0.04,0.43-0.02,0.64c0,0.03,0,0.06,0.01,0.1c0.02,0.16,0.05,0.32,0.1,0.47
	c0.02,0.06,0.04,0.12,0.07,0.17c0.1,0.23,0.24,0.43,0.42,0.6c0.39,0.49,0.94,0.8,1.6,0.86c0.97,0.21,2.1,0.05,3.04-0.14
	c2.15-0.44,4.15-2.19,4.08-4.52C-160.41,378.26-163.29,377.67-165.4,378.38z M-164.04,371.01c1.38-0.72,1.85-2.09,1.88-3.6
	c0.02-1.17-0.85-2.16-1.97-2.28c-2.54-0.28-5.09,1.09-6.29,3.38c-1.09,2.09,0.01,3.83,3.15,3.75
	C-166.64,372.02-165.27,371.65-164.04,371.01z M-168.86,362.43c1.27,0.03,2.67-0.6,3.6-1.28c0.86-0.62,1.41-1.34,1.43-2.45
	c0.02-1.05-0.5-1.99-1.42-2.49c-1.5-0.82-3.25,0.08-4.56,1.09c-0.01,0.01-0.03,0.02-0.04,0.03c-0.28,0.22-0.54,0.44-0.77,0.65
	c-0.15,0.13-0.26,0.29-0.35,0.46c-0.74,1.03-1.12,2.44-0.11,3.45C-170.45,362.51-169.65,362.58-168.86,362.43z M-168.03,348.85
	c0.09-1.23-0.87-2.27-1.99-2.17c-2.11,0.19-3.95,1.76-4.41,3.79c-0.21,0.89,0.5,2.11,1.31,2.26
	C-170.73,353.16-168.21,351.24-168.03,348.85z M-245.36,1148.79c0.2-0.35-0.15-1.32-0.56-1.66c-3.39-2.87-7.29-4.49-11.78-4.24
	c-0.88,0.05-1.86,0.48-2.57,1.03c-1.8,1.39-1.48,3.56,0.56,4.57c2.79,1.37,5.76,1.7,8.82,1.61c1.27,0,2.56,0.14,3.8-0.06
	C-246.44,1149.95-245.68,1149.37-245.36,1148.79z M-250.38,1156.94c-2.62-3.14-5.96-5.18-9.86-6.31c-1.47-0.43-2.81-0.13-4.03,0.8
	c-1.47,1.12-1.66,2.93-0.23,4.04c1.11,0.86,2.36,1.67,3.68,2.11c2.85,0.93,5.79,1.61,8.32,2.28c0.71,0,1.02,0.01,1.34,0
	c0.98-0.06,1.68-1.22,1.25-2.09C-250.06,1157.48-250.18,1157.18-250.38,1156.94z M-268.06,1156.62c-1.15-0.38-2.19-0.24-3.1,0.57
	c-0.81,0.71-0.86,1.63-0.64,2.61c1.09,4.67,4.19,8.07,7.26,11.47c0.5,0.56,1.73,0.11,1.97-0.61c0.19-0.59,0.31-1.21,0.38-1.49
	c-0.12-3.39-0.7-6.34-2.16-9.04C-265.18,1158.56-266.27,1157.21-268.06,1156.62z M-240.28,1163.99c-0.53-0.56-1.24-0.99-1.93-1.35
	c-1.35-0.69-3.12-0.43-3.95,0.56c-0.81,0.97-0.62,2.07-0.24,3.15c0.16,0.44,0.39,0.87,0.61,1.29c1.54,2.9,3.85,5.14,6.2,7.33
	c0.71,0.98,1.78,2.14,2.98,1.79c0.47-0.14,0.95-0.54,1.05-1.05c0.1-0.53,0.02-0.98-0.16-1.44
	C-236.5,1170.4-237.58,1166.84-240.28,1163.99z M-230.95,1142.08c-0.09-0.1-0.2-0.18-0.31-0.25c-2.53-2.24-5.6-3.48-8.85-4.34
	c-0.3-0.08-0.63-0.06-0.94-0.06c-1.43-0.01-2.37,1.4-1.71,2.61c0.3,0.55,0.64,1.11,1.09,1.54c2.23,2.15,4.94,3.21,8.07,3.8
	c1.03,0.29,2.39,0.77,3.26,0.06c0.64-0.53,0.73-1.35,0.42-2.09C-230.16,1142.82-230.58,1142.51-230.95,1142.08z M-231.97,1157.2
	c-1.52-2.67-3.69-4.77-6.12-6.61c-0.37-0.28-0.84-0.44-1.29-0.59c-1.33-0.47-2.79,0.65-2.45,1.97c0.95,3.71,3.23,6.18,6.31,7.88
	c0.02,0.02,0.05,0.03,0.07,0.04c0.66,0.42,1.24,0.93,2.01,1.18c0.86,0.27,1.79-0.1,2.12-0.96c0.24-0.64,0.08-1.36-0.23-1.97
	C-231.66,1157.84-231.79,1157.51-231.97,1157.2z M-232.89,964.03c-2.55-1.6-5.32-2.96-8.16-3.96c-2.73-0.97-4.63-2.56-6.23-4.91
	c-6.37-9.4-12.85-18.72-19.29-28.07c-11.43-16.59-22.82-33.21-34.34-49.75c-1.89-2.71-2.86-5.09-1.13-8.31
	c1.3-2.42,1.29-5.26,0.84-7.99c-0.65-3.97-4.86-8-8.84-8.38c-1.06-0.1-2.33,0.05-3.22,0.57c-1.49,0.87-2.97,1.94-4.07,3.25
	c-2.5,3.01-4.05,6.48-4.26,10.48c-0.06,1.22-0.32,2.43-0.52,3.88c-1.41,0-2.51-0.02-3.6,0c-1.6,0.03-3.22-0.09-4.78,0.16
	c-5.92,0.95-8.31,6.73-4.78,11.51c1.76,2.39,3.99,4.19,6.99,4.71c2.2,0.38,4.43,0.63,6.65,0.76c1.73,0.1,3.09,0.68,4.07,2.12
	c0.36,0.53,0.77,1.02,1.15,1.53c17.18,22.9,34.36,45.79,51.53,68.7c0.75,1,1.35,2.11,2.17,3.41c-1.04,0.57-1.8,1.09-2.64,1.43
	c-1.63,0.65-3.36,1.05-4.94,1.8c-2.26,1.08-3.74,2.94-4.59,5.3c-0.51,1.43-0.45,2.8,0.14,4.2c2.68,6.38,11.06,8.63,16.49,4.4
	c1.12-0.88,2.16-1.86,3.49-3.01c3.1,1.18,5.39,2.94,7.73,4.57c1.73,1.21,3.56,2.14,5.61,2.6c5.4,1.2,11.18-1.68,12.93-6.66
	C-226.82,973.64-227.12,967.64-232.89,964.03z M-231,359.52c-5.19-7.45-10-6.69-15.14-3.6c-2.44,1.46-4.87,3.21-6.71,5.34
	c-2.32,2.67-4.54,2.84-7.59,1.59c-3.39-1.38-6.97-2.3-10.48-3.39c-24.72-7.68-49.44-15.34-74.16-23.04
	c-10.37-3.23-20.7-6.61-31.1-9.78c-2.37-0.72-3.87-1.9-4.76-4.21c-0.74-1.92-1.72-3.79-2.86-5.5c-2.33-3.52-5.72-5.47-9.89-6.11
	c-2.88-0.44-5.46,0.26-7.54,2.24c-3.84,3.63-6.01,7.96-4.34,13.33c0.75,2.4,2.04,4.64,3.16,6.92c0.41,0.83,1.02,1.56,1.61,2.43
	c-1.54,1.35-3.39,1.42-4.97,2.11c-2.47,1.1-5,2.1-7.39,3.37c-1.72,0.91-3.04,2.37-3.59,4.32c-0.99,3.5-0.91,6.95,0.76,10.27
	c1.71,3.39,4.36,5.85,7.61,7.76c2.71,1.59,5.36,1.7,8.22,0.4c3.41-1.54,6.39-3.69,8.98-6.3c2.92-2.95,5.7-6.05,8.39-9.21
	c1.32-1.55,2.61-2.08,4.59-1.38c4.36,1.56,8.77,2.97,13.17,4.43c33.98,11.25,67.98,22.44,101.93,33.77
	c6.42,2.14,5.84,0.46,7.73,8.13c0.85,3.43,2.26,6.65,4.73,9.31c2.32,2.49,5.18,3.15,8.32,2.18c2.61-0.81,4.97-2.18,6.9-4.19
	c2.04-2.13,2.84-4.57,1.86-7.47c-1.08-3.2-2.28-6.32-4.94-8.62c-0.56-0.48-0.93-1.19-1.6-2.08c1.39-0.68,2.54-1.17,3.62-1.77
	c1.94-1.08,4-2.05,5.74-3.39c2.74-2.11,3.82-5.05,3.25-8.51C-228.06,365.53-229.04,362.34-231,359.52z M-545.8,724.68
	c9.27,4.24,18.99,6.61,30.32,7.01c1.59-0.18,4.35-0.25,6.97-0.86c2.14-0.5,4.21-1.48,6.15-2.54c2.49-1.36,3.96-3.71,4.87-6.33
	c1.35-3.91-0.3-6.3-4.4-6.44c-1.27-0.04-2.56,0.07-3.82,0.28c-13.65,2.3-26.74,0.36-39.38-5.09c-1.61-0.7-3.21-1.5-4.89-1.96
	c-1.67-0.46-3.45-0.75-5.18-0.74c-2.35,0-3.48,1.65-2.87,3.88c0.78,2.84,2.34,5.24,4.4,7.32
	C-551.34,721.49-548.73,723.34-545.8,724.68z M-468.85,660.61c2.25-2.49,3.29-5.46,2.79-8.82c-0.52-3.48-2.85-5.81-6.36-6.16
	c-4.34-0.44-8.24,0.82-11.36,3.94c-2.73,2.72-2.74,6.07-0.08,8.95c2.5,2.71,5.62,4.13,9.73,4.12
	C-472.34,662.77-470.33,662.26-468.85,660.61z M-471.26,808.39c1.64,7,3.68,13.91,7.12,20.28c1.21,2.23,2.61,4.41,4.22,6.37
	c2.13,2.59,5.03,3.24,8.25,2.37c3.65-0.98,6.11-3.36,7.65-6.72c1.74-3.79,1.81-7.77,0.91-11.74c-0.77-3.42-1.69-6.83-2.77-10.16
	c-11.04-33.97-18.63-68.69-22.67-104.18c-0.23-2.02-0.92-4.05-1.77-5.91c-0.93-2.02-3.21-2.83-5.3-2.07
	c-1.16,0.42-2.27,1.16-3.19,1.99c-1.94,1.75-3.02,4.09-3.88,6.52c-2.21,6.26-2.9,12.74-2.68,19.34c0,1.12-0.06,2.24,0.01,3.35
	c1.01,15.16,2.99,30.2,6.07,45.07C-476.85,784.78-474.03,796.58-471.26,808.39z M-574.99,775.26c-2.12,0.2-3.51,1.84-3.21,3.97
	c0.15,1.08,0.59,2.15,1.04,3.16c1.32,2.95,3.27,5.48,5.48,7.81c4.72,4.96,10.47,8.37,16.85,10.71c8.95,3.27,18.25,4.58,27.76,4.55
	c10.81,0.1,21.28-2.07,31.68-4.7c1.74-0.44,3.34-1.28,4.32-2.83c1.65-2.61,2.62-5.48,2.46-8.62c-0.12-2.4-1.25-3.9-3.69-4.36
	c-1.85-0.34-3.82-0.39-5.69-0.17c-3.48,0.42-6.92,1.25-10.4,1.72c-17.78,2.4-35.06,0.33-51.81-6.08c-3.13-1.2-6.18-2.6-9.24-3.99
	C-571.22,775.63-573.02,775.07-574.99,775.26z M-560.61,829.42c3.13,3.97,7.16,6.77,11.73,8.86c6.08,2.78,12.55,3.51,19.14,3.77
	c10.12-0.45,19.94-2.4,29.4-6.05c3.87-1.49,7.64-3.23,11.46-4.85c2.03-0.86,3.61-2.29,3.96-4.47c0.35-2.17,0.48-4.46,0.23-6.63
	c-0.3-2.58-2.05-3.89-4.7-3.76c-1.73,0.09-3.48,0.48-5.13,1.01c-2.43,0.77-4.77,1.82-7.17,2.7c-14.06,5.14-28.44,7.13-43.28,4.29
	c-3.6-0.69-7.15-1.59-10.74-2.35c-1.24-0.26-2.52-0.57-3.76-0.51c-2.59,0.13-3.99,2.27-3.09,4.74
	C-562.13,827.33-561.39,828.43-560.61,829.42z M-443.34,722.88c3.01,2.78,6.74,3.46,11.71,3.77c2.42-0.5,5.93-0.98,9.27-1.97
	c10.71-3.19,20.26-8.62,28.85-15.71c1.84-1.52,3.59-3.22,5.02-5.12c1.52-2.02,2.83-4.27,3.81-6.6c0.66-1.55,0.79-3.42,0.78-5.14
	c-0.01-2.54-1.79-3.7-4.26-2.8c-1.78,0.65-3.52,1.53-5.12,2.56c-1.74,1.11-3.33,2.48-4.95,3.78c-9.74,7.87-20.74,13.15-32.9,16.01
	c-3.42,0.8-6.92,1.29-10.29,2.25C-446.97,715.49-447.64,718.91-443.34,722.88z M-418.33,828.4c4.78,0.3,9.56,0.65,15.05,1.03
	c4.41-0.32,9.54-0.47,14.6-1.11c8.75-1.11,17.27-3.16,25.24-7.12c5.93-2.96,11.23-6.71,15.35-11.99c2.08-2.67,3.79-5.55,4.81-8.78
	c1.12-3.53-0.9-5.76-4.48-4.99c-0.92,0.2-1.82,0.6-2.66,1.04c-1.27,0.67-2.49,1.44-3.71,2.18c-12.74,7.78-26.61,12.29-41.37,14.21
	c-6.51,0.84-13.04,1.14-19.61,0.65c-2.87-0.22-5.75-0.3-8.57,0.48c-2.64,0.74-3.82,2.21-3.51,4.89
	C-426.55,824.3-424.09,828.04-418.33,828.4z M-434.58,872.2c-3.2,1.36-5.62,3.67-7.06,6.79c-2.9,6.29-0.3,10.81,6.73,10.91
	c2.46,0.05,4.73-0.69,6.78-1.96c2.44-1.51,3.96-3.71,3.87-6.68c-0.09-2.97-1.18-5.59-3.31-7.69
	C-429.58,871.61-431.96,871.09-434.58,872.2z M-566.2,738.38c-1.22-0.08-2.18,0.74-2.48,1.9c-0.26,1.04-0.46,2.27-0.14,3.23
	c0.5,1.48,1.32,2.9,2.27,4.15c4.67,6.15,10.88,10.25,17.92,13.2c9.14,3.84,18.75,5.07,29.37,5.18c0.64-0.03,2.08-0.07,3.51-0.17
	c2.87-0.21,5.75-0.32,8.59-0.74c3.16-0.46,6.29-1.14,9.4-1.86c1.87-0.43,3.69-1.12,4.85-2.84c1.65-2.45,2.46-5.2,2.56-8.11
	c0.08-2.36-1.07-4.09-3.38-4.61c-1.98-0.45-4.12-0.57-6.14-0.38c-4.61,0.42-9.19,1.1-13.79,1.7c-14.83,1.92-28.96-0.3-42.33-7.11
	c-1.85-0.94-3.66-2.01-5.59-2.72C-563.02,738.66-564.64,738.48-566.2,738.38z M-177.02,359.56c-1.39,0.12-2.61,0.73-3.79,1.43
	c-0.07,0.04-0.13,0.09-0.19,0.14c-0.99,0.59-1.85,1.4-2.48,2.59c-0.87,1.65,0.19,3.21,2.11,3.13c0.76-0.04,1.48-0.15,2.17-0.36
	c2.38-0.34,5.34-1.78,5.33-4.4C-173.88,360.28-175.38,359.42-177.02,359.56z M-180.14,370.05c-1.46,0.74-2.82,1.46-3.62,2.65
	c-0.59,0.69-0.94,1.5-0.84,2.45c0.1,0.95,0.56,1.61,1.47,1.93c3.48,1.24,11.54-1.92,9.17-6.6
	C-175.3,367.83-178.16,369.04-180.14,370.05z M-439.59,848.32c-5.5-0.05-10.67,1.68-15.73,3.58c-2.04,0.77-3.25,2.49-3.46,4.78
	c-0.41,4.4,2.16,8.18,6.47,9.3c1.53,0.4,3.12,0.56,4.27,0.76c4.92-0.39,9.32-1.08,13.18-3.58c3.35-2.16,4.42-5.39,3.16-9.12
	C-432.94,850.37-435.53,848.36-439.59,848.32z M-181.48,352.18c-0.46,0.27-0.87,0.6-1.23,0.97c-0.87,0.68-1.59,1.57-2.02,2.8
	c-0.44,1.27,0.69,2.72,2,2.49c0.02,0,0.05-0.01,0.07-0.02c0.41,0,0.79-0.07,1.15-0.18c1.14-0.23,2.11-0.64,3.05-1.38
	c0.97-0.77,2.22-1.72,2.24-3.08c0.03-1.68-1.51-2.53-3-2.37c-0.71,0.07-1.38,0.3-1.98,0.64
	C-181.29,352.09-181.39,352.13-181.48,352.18z M-186.35,351.95c0.54-0.14,1.05-0.34,1.54-0.57c0.96-0.32,1.86-0.8,2.66-1.43
	c1.07-0.84,2.27-2.05,1.85-3.54c-0.19-0.66-0.72-1.23-1.4-1.4c-1.12-0.28-2.57-0.13-3.52,0.55c-0.03,0.02-0.05,0.04-0.07,0.06
	c-1.68,0.89-3.17,2.6-3.44,4.24C-188.95,351.21-187.72,352.31-186.35,351.95z M-440.37,413.46c2.62,1.16,5.32,2.26,8.09,2.93
	c2.59,0.62,3.41,1.86,3.41,4.38c0,0.96,0.08,1.92,0.1,2.88c0.56,19.66,1.13,39.31,1.69,58.97c0.38,13.1,0.75,26.21,1.14,39.31
	c0.07,2.24,0.06,4.48,0.25,6.71c0.22,2.53-0.35,4.62-2.14,6.57c-1.6,1.75-2.82,3.87-4.05,5.92c-1.5,2.5-2.38,5.22-2.55,8.16
	c-0.2,3.59,0.84,6.72,3.73,8.91c2.15,1.62,4.46,3.13,6.91,4.23c4.79,2.15,8.06,1.33,11.69-2.38c1.38-1.41,2.3-3.02,2.85-4.91
	c0.29-1,0.89-1.92,1.47-3.12c1.06,0.73,1.82,1.26,2.58,1.79c1.57,1.09,3.07,2.32,4.74,3.22c4.2,2.26,8.28,1.95,12.12-0.97
	c1.93-1.47,3.56-3.2,4.77-5.32c3.11-5.46,2-11.09-3-14.9c-2.19-1.67-4.69-2.7-7.31-3.5c-1.81-0.55-3.77-0.73-5.46-2
	c-0.14-0.73-0.37-1.5-0.41-2.28c-0.47-8.46-0.93-16.92-1.34-25.38c-0.73-15.17-1.39-30.34-2.12-45.51
	c-0.76-15.65-1.58-31.29-2.36-46.94c-0.06-1.12-0.01-2.24-0.13-3.35c-0.2-1.88,0.35-3.44,1.7-4.78c0.68-0.67,1.26-1.44,1.84-2.21
	c4.31-5.77,5.98-12.25,5.35-19.41c-0.35-3.94-2.41-6.53-5.93-8.01c-1.46-0.61-3.04-1.05-4.61-1.26c-4.06-0.52-7.58,0.57-10.27,3.86
	c-2.75,3.36-5.22,6.87-6.81,10.94c-0.45,1.15-1.02,2.25-1.69,3.73c-2-1-3.37-1.86-4.87-2.38c-2.4-0.85-4.84-1.62-7.32-2.15
	c-2.35-0.5-4.39,0.4-6.04,2.16c-2.66,2.85-4.63,6.09-5.65,9.88c-1.14,4.21-0.13,7.9,2.7,11.14
	C-445.38,410.61-443.01,412.29-440.37,413.46z M-434.34,376.21c4.5-0.4,8.28-2.3,10.52-6.46c0.59-1.09,0.8-2.38,1.25-3.77
	c-0.5-1.13-0.77-2.47-1.54-3.37c-2.37-2.77-5.44-4.42-9.13-4.5c-1.03-0.02-2.24,0.38-3.07,1c-3.07,2.26-5.11,8.96-4.02,12.62
	C-439.5,374.58-437.24,376.47-434.34,376.21z M-551.26,133.84c0.6,0.61,1.33,1.05,2.21,1.07c1.81,0.06,2.94-1.46,2.91-3.16
	c-0.02-1.42-0.4-2.93-1.35-4c-0.61-0.69-1.38-1.11-2.22-1.36c-0.43-0.15-0.89-0.25-1.4-0.28c-0.17-0.01-0.34,0-0.51,0.03
	c-0.07,0.01-0.14,0.03-0.21,0.05c-1.02,0.26-1.87,1.15-1.85,2.17C-553.65,130.54-553,132.47-551.26,133.84z M-559.6,139.8
	c0.27,2.86,0.85,5.62,3.54,7.31c1.6,1.01,3.22,0.08,3.28-2.08c0.15-2.1-0.72-4.1-2.36-5.7c-0.62-0.6-1.61-0.91-2.49-1.13
	C-558.49,138-559.68,138.95-559.6,139.8z M-559.29,134.95c0.99,0.31,2.12-0.08,2.49-0.85c1.1-2.33-0.57-5.9-3.03-6.51
	c-1.66-0.41-2.9,0.54-2.87,2.19C-562.66,132.37-561.39,134.29-559.29,134.95z M-575.02,141.3c1.1,0.06,2.1-0.91,2.1-2.06
	c0.01-1.92-1.36-3.36-3.17-3.34c-1.08,0.01-2.2,1.05-2.21,2.04C-578.3,139.67-576.82,141.2-575.02,141.3z M-571.75,144.04
	c-0.4-0.21-0.92-0.23-1.38-0.23c-0.92,0-1.95,1.08-1.74,1.91c0.64,2.53,1.63,4.85,4.28,5.94c1.29,0.54,2.68-0.48,2.54-2.41
	C-568.36,147.29-569.44,145.25-571.75,144.04z M-571.89,134.62c0.43,0.99,1.09,1.84,2.07,2.46c0.05,0.03,0.1,0.06,0.16,0.09
	c0.25,0.19,0.53,0.3,0.83,0.35c0.57,0.14,1.16,0.09,1.72-0.26c0.84-0.53,1.03-1.38,0.79-2.23c-0.03-0.39-0.1-0.77-0.23-1.1
	c-0.33-0.89-0.76-1.77-1.44-2.45c-0.99-0.98-2.64-1.49-3.77-0.42c-1.04,1-0.75,2.36-0.16,3.5
	C-571.92,134.58-571.9,134.6-571.89,134.62z M-550.21,140.1c0.04,2.46,0.86,4.69,2.34,6.63c0.46,0.6,1.22,1.01,1.92,1.36
	c1.67,0.85,3.28-0.1,3.39-1.84c0.08-2.78-0.75-5.13-2.65-7.03c-0.54-0.54-1.28-0.94-2.01-1.2
	C-548.71,137.48-550.24,138.55-550.21,140.1z M-567.97,142.83c0.59,1.3,1.27,2.58,2.1,3.73c0.96,1.33,2.75,1.77,3.79,1.14
	c0.82-0.5,1.08-2.11,0.42-3.53c-0.89-1.93-2.03-3.64-3.61-3.81C-567.5,140.2-568.56,141.53-567.97,142.83z M-449.54,937.42
	c2.93-1.05,4.73-3.19,5.53-6.14c0.58-2.14,1.05-4.31,1.81-7.48c1.22,1.54,1.86,2.4,2.55,3.22c0.92,1.09,1.76,2.31,2.85,3.2
	c4.66,3.76,11.55,1.26,12.67-4.61c0.33-1.7,0.17-3.5,0.3-5.24c0.05-0.72,0.28-1.43,0.51-2.49c1.03,0.57,1.75,0.87,2.34,1.33
	c1.63,1.28,3.14,2.71,4.81,3.95c2.65,1.97,5.62,2.99,8.98,2.58c2.98-0.36,5.42-2.4,6.05-5.32c0.62-2.87,0.46-5.7-1-8.37
	c-2.09-3.81-5.16-6.43-9.3-7.8c-4.19-1.39-8.44-1.46-12.77-0.72c-8.74,1.5-16.95,4.52-24.74,8.66c-2.09,1.11-4.02,2.6-5.83,4.14
	c-1.71,1.46-2.94,3.35-3.52,5.59c-1.04,4-0.56,7.98,0.66,11.8C-456.5,937.31-453.11,938.71-449.54,937.42z M-367.16,714.51
	c-1.75,0.66-3.4,1.74-4.9,2.9c-1.89,1.46-3.55,3.21-5.37,4.78c-8.81,7.6-18.62,13.4-29.85,16.75c-7.52,2.24-15.19,3.7-22.86,5.26
	c-3.27,0.67-6.55,1.47-9.65,2.68c-3.02,1.18-3.89,3.72-2.53,6.68c0.78,1.71,1.99,3.27,3.22,4.71c1.64,1.92,3.87,2.75,7.2,2.63
	c1.44-0.21,3.65-0.6,5.87-0.85c9.75-1.08,19.13-3.6,28.2-7.3c9.55-3.9,18.38-8.95,25.61-16.46c3.81-3.95,6.93-8.39,8.92-13.51
	c0.62-1.58,0.93-3.41,0.88-5.11C-362.5,715.11-364.75,713.6-367.16,714.51z M-345.26,746.34c-1.52,0.32-3.04,0.98-4.35,1.81
	c-1.6,1.02-3.02,2.35-4.47,3.6c-16.24,13.95-35.06,22.6-55.87,27.08c-4.83,1.04-9.77,1.6-14.63,2.49c-1.71,0.31-3.44,0.77-5.04,1.45
	c-3.17,1.36-4.04,3.77-2.78,7.05c1.97,5.1,5.5,7.46,11.03,7.37c0.48-0.01,0.96,0,2.43,0c3.15-0.39,7.27-0.84,11.38-1.42
	c13.55-1.94,26.46-5.93,38.67-12.12c6.46-3.27,12.26-7.48,17.34-12.66c4.55-4.64,7.96-9.99,9.67-16.3c0.45-1.66,0.63-3.46,0.57-5.19
	C-341.37,747.44-343.26,745.92-345.26,746.34z M-537.54,133.97c1.27,0.77,3.1,0.89,4.28-0.12c1.29-1.11,1.01-2.93,0.42-4.34
	c-0.96-2.27-3.29-5.42-6.16-4.76c-1.85,0.42-2.32,1.9-2.11,3.45C-541.07,130.49-539.42,132.83-537.54,133.97z M-406.04,868.04
	c-3.17-1.59-3.9-4.73-1.9-7.65c1.74-2.54,5.02-3.94,9.18-3.77c0.64,0.08,1.59,0.2,2.54,0.33c2.54,0.34,5.07,0.68,7.61,1.02
	c7.79,1.04,15.26,0.2,22.38-3.4c3.98-2.01,8.15-3.68,12.29-5.36c3.17-1.28,6.51-1.55,9.9-1.07c2.22,0.31,3.92,1.46,4.92,3.42
	c1.95,3.84,2.85,7.84,1.03,12c-2.67,6.1-6.5,11.39-11.66,15.6c-4.22,3.44-8.99,3.96-13.94,1.65c-1.88-0.88-3.65-1.98-5.42-3.06
	c-2.59-1.59-5.09-3.31-7.7-4.87c-5.25-3.14-10.94-4.35-17.02-3.74c-1.59,0.16-3.18,0.37-4.77,0.46
	C-401.21,869.73-403.72,869.21-406.04,868.04z M-362.89,866.84c-0.06,2.55,1.58,4.14,4.14,4.18c5.3,0.08,10.52-4.53,11.19-9.88
	c0.28-2.2-0.85-3.69-3.05-4.04c-4.53-0.72-10.04,2.28-11.71,6.49C-362.71,864.59-362.87,865.74-362.89,866.84z M-538.56,141.32
	c-0.38,3.3,0.42,6.38,2.25,9.11c1.49,2.22,3.78,3.41,6.37,3.91c1.95,0.38,3.84-1.01,4.22-2.98c0.11-0.57,0.13-1.17,0.24-2.45
	c-0.02-0.24-0.04-0.49-0.07-0.73c-0.37-1.5-0.77-3.66-1.58-5.67c-1.25-3.1-3.85-4.57-7.16-4.74
	C-536.69,137.65-538.29,138.95-538.56,141.32z M-522.93,577.25c3.78-0.44,6.52-2.41,8.5-5.57c0.85-1.35,1.7-2.71,2.63-4.01
	c1.71-2.38,3.86-4.2,6.59-5.39c5.21-2.28,10.03-1.47,14.42,1.87c1.63,1.24,2.91,2.94,4.33,4.45c1.32,1.39,2.49,2.95,3.95,4.16
	c4.19,3.47,9.59,3.14,13.39-0.77c1.1-1.13,1.97-2.51,2.87-3.82c0.91-1.31,1.68-2.72,2.61-4.02c5.66-7.86,16.26-8.27,22.54-1.76
	c1.22,1.26,2.37,2.6,3.51,3.94c2.65,3.14,6.02,4.63,10.12,4.57c1.44-0.02,2.88,0.03,4.32,0c4.51-0.08,8.44,1.54,12,4.18
	c4.47,3.31,7.68,7.65,10.06,12.62c3.72,7.75,5.51,15.98,5.74,24.55c0.12,4.63,0.11,9.25-1.27,13.78
	c-2.26,7.38-7.04,11.95-14.53,13.79c-7.75,1.91-15.57,1.7-23.35,0.59c-8.22-1.17-16.41-2.61-24.54-4.28
	c-8.04-1.65-15.83-1.41-23.61,1.27c-7.25,2.5-14.53,4.91-21.88,7.09c-7.21,2.14-14.57,3.7-22.16,3.58
	c-2.22-0.04-4.46-0.35-6.64-0.81c-6.84-1.42-11.3-5.68-13.75-12.1c-2.14-5.59-3-11.41-2.98-17.38c0-0.64,0-1.28,0-2.46
	c-0.31-7.6,1.25-15.36,4.72-22.72c1.51-3.21,3.45-6.13,5.96-8.64c3.37-3.38,7.25-5.73,12.15-6.07
	C-525.77,577.8-524.36,577.42-522.93,577.25z M-448.74,596.57c-1.48,0.55-2.93,1.29-4.22,2.2c-4.6,3.21-6.43,9.03-4.71,14.4
	c2.02,6.29,6.36,10.12,12.54,12.08c5.1,1.61,10.34,1.78,15.62,1.48c2.71,0,5.43,0.14,8.13-0.03c4.72-0.3,7.61-2.68,8.99-7.24
	c2.08-6.88,0.53-13.26-2.97-19.26c-2.6-4.45-6.53-6.89-11.78-6.96C-434.52,593.13-441.77,593.97-448.74,596.57z M-459.43,589
	c4.44-0.01,8.45-1.49,11.68-4.65c0.78-0.76,1.38-1.77,1.83-2.77c1.02-2.26,0.39-4.43-1.63-5.91c-2.14-1.56-4.6-2.12-7.14-2.03
	c-4.85-0.36-9.59,4.08-10.09,9.06C-465.16,586.53-463.27,589.01-459.43,589z M-501.24,588.5c2.66,1.88,5.75,2.6,9.11,2.72
	c2.46-0.02,5.11-0.09,6.55-2.71c1.6-2.91,0.26-5.51-1.3-7.98c-0.25-0.4-0.59-0.75-0.92-1.09c-3.22-3.29-7.65-3.96-12.3-1.88
	C-505.74,580.1-506.28,584.94-501.24,588.5z M-519.98,599.36c-5.41,0.67-9.18,3.38-11.51,8.2c-1.62,3.35-2.32,6.94-2.41,9.17
	c-0.06,4.55,0.57,7.53,1.7,10.35c1.91,4.79,5.47,6.83,10.58,6.32c2.86-0.29,5.72-0.52,8.57-0.91c5.23-0.72,10.39-1.71,15.14-4.19
	c3.8-1.99,6.78-4.76,8.49-8.75c3.76-8.79,0.16-16.84-8.66-19.32c-1.07-0.3-2.17-0.54-3.27-0.69
	C-507.57,598.69-513.75,598.59-519.98,599.36z M-530.63,162.27c-9.07-6.11-19.06-8.67-29.96-7.47c-0.93,0.1-1.89,0.37-2.72,0.79
	c-1.59,0.79-2.29,2.33-1.81,4c0.35,1.22,0.83,2.43,1.47,3.52c1.6,2.76,3.18,5.54,5,8.15c6.1,8.75,14.09,15.13,24.21,18.67
	c1.93,0.68,4.01,0.96,5.07,1.21c5.23,0.01,7.57-2.18,7.69-6.4c0.03-1.1-0.19-2.23-0.46-3.3c-1-3.86-2.13-7.67-3.08-11.54
	C-526.05,166.62-527.9,164.11-530.63,162.27z"/>
<path d="M-1219.61,453.52c1.45-5.06,5.16-8.34,10.32-8.54c3.49-0.13,7.08-0.03,10.48,0.68c2.75,0.57,4.97,0.07,7.33-1.07
	c9.51-4.55,19.04-9.08,28.6-13.53c18.4-8.57,36.82-17.09,55.23-25.64c2.03-0.94,4.02-1.97,6.06-2.89c1.9-0.85,3.02-2.1,3.26-4.31
	c0.2-1.88,0.71-3.79,1.4-5.56c1.83-4.69,5.83-7.33,10.78-7.33c3.75,0,6.02,1.55,7.27,5.05c1.76,4.94,1.19,9.76-0.91,14.45
	c-0.45,1.01-1.04,1.96-1.71,3.2c0.78,0.58,1.46,1.16,2.21,1.63c1.89,1.18,3.9,2.18,5.69,3.49c1.59,1.16,2.45,2.95,2.79,4.89
	c0.46,2.59-0.95,5.47-3.46,6.83c-3.53,1.91-7.22,2.56-11.06,0.91c-1.61-0.69-3.25-1.37-4.76-2.26c-1.83-1.07-3.49-1.09-5.44-0.23
	c-7.02,3.1-14.08,6.1-21.16,9.07c-20.33,8.54-40.68,17.05-61.02,25.58c-1.45,0.61-3.04,0.98-4.28,2.49
	c0.38,0.66,0.68,1.37,1.15,1.94c0.91,1.11,1.96,2.11,2.87,3.22c1.35,1.65,2.07,3.59,2.26,5.71c0.41,4.41-1.91,7.38-6.33,8.07
	c-0.94,0.15-1.91,0.14-2.87,0.2c-4.52,0.27-8.05-1.03-10.15-6.91c-0.48-1.34-0.98-2.67-1.57-4.28c-3.53-0.4-6.54-0.11-9.56,0.2
	c-3.5,0.36-6.67-0.47-9.44-2.66C-1219.5,462.87-1220.97,458.26-1219.61,453.52z M-1076.19,273.65c-0.33-8.62-0.93-17.25-0.9-25.88
	c0.05-13.19,1.94-26.13,6.66-38.54c3.5-9.21,8.4-17.56,15.01-24.91c10.76-11.97,23.35-21.32,38.56-26.86
	c13.15-4.79,26.63-6.42,40.56-4.3c23.98,3.65,44,14.8,60.96,31.82c3.4,3.41,6.06,7.42,8.55,11.54
	c8.06,13.34,14.04,27.56,18.65,42.45c5.92,19.1-3.03,44.25-26.48,53.02c-3.72,1.39-7.68,2.11-11.53,3.14
	c-0.61,0.16-1.34,0.13-1.82,0.47c-0.44,0.31-0.88,1.04-0.82,1.52c0.09,0.75,0.62,1.44,0.93,2.17c0.93,2.2,2.05,4.35,2.73,6.64
	c1.3,4.36,1.16,8.61-2.36,12.03c-3.58,3.48-7.78,4.81-12.75,3.39c-4.14-1.18-7.52-3.44-10.32-6.65c-0.8-0.92-1.64-1.81-3.21-3.55
	c-0.3,2.56-0.42,3.98-0.65,5.37c-0.76,4.74-2.87,8.8-6.39,12.05c-3.3,3.05-6.92,4.08-11.44,2.46c-5.24-1.88-8.7-5.19-10.39-10.42
	c-0.39-1.21-0.64-2.48-1.08-3.67c-0.19-0.51-0.71-0.89-1.48-1.79c-0.41,1.42-0.7,2.26-0.88,3.12c-0.98,4.63-2.99,8.76-5.97,12.42
	c-3.93,4.82-9.4,6.03-15.05,3.41c-4.13-1.92-6.85-5.14-8.59-9.27c-1.56-3.71-2.31-7.63-2.91-11.59c-0.16-1.08-0.43-2.15-0.62-3.1
	c-1.91-1.07-3.66-0.42-5.35-0.24c-8.04,0.85-15.96,0.17-23.76-1.9c-4.67-1.24-9.03-3.2-12.99-6.01c-5.5-3.9-9.46-9.02-11.88-15.31
	C-1074.81,282.48-1076.02,278.18-1076.19,273.65z M-969.27,233.87c0.13,1.19,0.18,2.97,0.54,4.68c2.12,9.99,8.44,16.69,20.57,15.49
	c8.07-0.8,15.09-4.11,21.19-9.26c6.89-5.82,8.91-14.08,5.81-22.57c-2.84-7.76-8.11-13.32-15.73-16.49
	c-4.04-1.68-8.24-2.26-12.65-1.11c-4.84,1.26-8.75,3.84-11.95,7.55C-966.72,218.23-969.15,225.35-969.27,233.87z M-984.02,277.4
	c-0.02,4.71,1.66,6.28,5.89,5.74c2.06-0.26,4.14-0.55,6.11-1.16c3.35-1.03,6.68-2.16,9.89-3.54c2.17-0.93,2.69-2.45,2.09-4.72
	c-0.24-0.91-0.63-1.82-1.12-2.62c-2.34-3.79-5.6-6.52-9.78-8.09c-4.16-1.57-6.96-0.67-9.51,3.03
	C-982.88,269.59-983.68,273.64-984.02,277.4z M-1047.72,260.58c2.5,10.67,10.14,16.75,21.9,16.57c1.5-0.16,3.92-0.24,6.27-0.7
	c5.7-1.12,11.11-3.03,15.7-6.76c6.49-5.27,8.58-12.46,5.47-20.19c-4.42-11-12.84-17.23-24.32-19.49
	c-7.15-1.41-16.45,1.13-21.53,9.39C-1048.26,245.93-1049.5,253.01-1047.72,260.58z M-1168.77,666.12c0.72,0.36,1.59,0.58,2.13-0.21
	c0.31-0.47,0.55-1.28,0.36-1.75c-1.45-3.51-2.7-7.13-5.22-10.07c-0.71-0.83-1.61-1.51-2.5-2.17c-0.35-0.26-0.88-0.27-1.66-0.49
	c-0.61,0.75-1.51,1.48-1.89,2.41c-0.63,1.54-0.23,3.15,0.6,4.56C-1174.96,661.75-1172.26,664.37-1168.77,666.12z M-1028.82,580.56
	c1.69-0.41,3.39-1.02,4.92-1.84c2.38-1.29,4.64-2.81,6.92-4.29c7.96-5.18,16.35-9.41,25.65-11.57c4.99-1.16,10.04-1.96,15.18-2.01
	c2.58-0.02,5.12-0.28,7.48-1.41c2.28-1.09,2.94-2.87,1.88-5.14c-1.34-2.86-3.55-4.84-6.37-6.25c-3.27-1.64-6.76-1.77-10.74-1.81
	c-5.09-0.25-10.36,1.03-15.44,3.07c-7.13,2.86-14.05,6.2-20.47,10.43c-2.65,1.74-5.11,3.84-7.42,6.03
	c-2.46,2.33-4.19,5.24-5.12,8.54c-0.26,0.91-0.47,1.87-0.5,2.81C-1032.94,579.5-1031.12,581.12-1028.82,580.56z M-1179.64,658.31
	c-1.25-1.76-3.1-1.6-4.29,0.25c-0.49,0.76-0.67,1.73-0.99,2.58c0.84,5.09,3.41,8.94,7.51,11.79c0.39,0.27,1.33,0.2,1.74-0.1
	c0.41-0.31,0.75-1.14,0.65-1.65c-0.55-2.64-1.08-5.31-1.94-7.86C-1177.58,661.55-1178.55,659.84-1179.64,658.31z M-1046.82,552.22
	c1.5-0.41,2.93-1.26,4.25-2.12c1.87-1.22,3.62-2.63,5.42-3.96c6.86-5.07,14.29-9.1,22.33-11.89c7.41-2.57,15.04-4.32,22.85-5.15
	c4.44-0.47,8.91-0.78,13.37-1.06c3.05-0.19,6.07-0.55,8.91-1.68c3.04-1.21,4.05-3.49,2.97-6.56c-0.47-1.34-1.17-2.63-1.9-3.85
	c-1.96-3.28-4.85-4.98-8.73-4.89c-1.76,0.04-3.51,0.01-5.27,0.01c-12.8,0.05-25.02,3.06-36.87,7.59
	c-7.18,2.75-13.98,6.29-19.97,11.22c-4.61,3.8-8.53,8.17-11.32,13.49c-0.59,1.12-1.13,2.31-1.43,3.53
	C-1053.16,550.72-1050.63,553.26-1046.82,552.22z M-839.28,452.05c-3.97-5.23-9.23-8.75-15.31-11.1
	c-7.43-2.88-15.18-3.58-21.63-3.55c-7.67,0.31-13.88,0.84-19.92,2.45c-4.93,1.32-9.8,2.87-14.65,4.46c-1.97,0.65-3.9,1.6-4.83,3.67
	c-1.06,2.36-1.61,4.86-1.41,7.46c0.22,2.91,1.69,4.43,4.64,4.36c2.21-0.06,4.46-0.42,6.58-1.04c6.61-1.93,13.28-3.38,20.15-4.08
	c8.51-0.87,16.9-0.14,25.26,1.36c5.36,0.96,10.54,2.53,15.62,4.48c1.61,0.62,3.39,1.04,5.11,1.1c2.54,0.08,4.17-2.27,3.22-4.61
	C-837.14,455.26-838.13,453.56-839.28,452.05z M-829.91,510.64c2.74,0.82,5.17-1.41,4.79-4.27c-0.21-1.56-0.73-3.12-1.38-4.56
	c-1.66-3.66-3.96-6.91-6.76-9.81c-5.67-5.89-12.57-9.77-20.19-12.46c-10.66-3.77-21.75-4.9-34.75-5.26
	c-4.28,0.38-10.32,0.89-16.35,1.48c-1.58,0.16-3.15,0.54-4.7,0.88c-1.63,0.36-2.93,1.28-3.85,2.66c-1.52,2.29-2.61,4.76-2.81,7.54
	c-0.25,3.46,0.95,5.19,4.3,5.74c2.03,0.33,4.13,0.34,6.19,0.29c3.51-0.08,7.01-0.36,10.52-0.49c13.24-0.49,26.08,1.67,38.58,5.94
	c7.12,2.43,13.88,5.65,20.35,9.51C-834.06,508.98-832.02,510.02-829.91,510.64z M-1027.38,662.36c-0.29-6.78,0.91-13.36,2.8-19.84
	c0.86-2.93,2.06-5.7,3.74-8.27c3.69-5.61,8.97-8.5,15.57-9.09c5.16-0.46,10.2,0.43,15.18,1.7c7.16,1.81,13.94,4.64,20.67,7.62
	c5.4,2.39,10.82,4.76,16.24,7.13c5.23,2.29,10.71,3.16,16.39,2.77c4.15-0.28,8.31-0.44,12.43-0.98c8.91-1.17,17.85-1.25,26.81-1.04
	c4.19,0.1,8.28,0.75,12.3,1.83c1.99,0.54,3.97,1.27,5.82,2.17c6.43,3.15,9.95,8.5,10.63,15.48c1.24,12.58-1.29,24.5-7.15,35.69
	c-2.63,5.02-6.18,9.32-10.81,12.66c-4.73,3.41-9.92,5.07-15.79,4.22c-0.95-0.14-1.91-0.17-2.86-0.3c-4.44-0.6-8.17,0.75-11.31,3.95
	c-1.45,1.48-2.97,2.94-4.65,4.13c-7.5,5.32-16.74,3.51-21.69-4.23c-1.03-1.61-1.75-3.41-2.71-5.07c-0.88-1.52-1.72-3.1-2.86-4.4
	c-3.35-3.81-8.8-4.52-13.05-1.75c-1.33,0.87-2.48,2.01-3.66,3.08c-1.3,1.18-2.5,2.48-3.82,3.64c-6.15,5.39-15.94,4.31-20.96-0.98
	c-1.3-1.38-2.36-3.01-3.4-4.61c-0.78-1.2-1.37-2.53-2.04-3.8c-1.68-3.18-4.36-5.03-7.81-5.83c-1.56-0.36-3.12-0.69-4.68-1.02
	c-5.3-1.1-9.24-4.19-12.35-8.48c-4.35-6.01-6.27-12.88-6.96-20.15C-1027.54,666.53-1027.38,664.44-1027.38,662.36z M-925.64,685.35
	c7.23,3.58,14.99,5.43,23.07,5.91c4.9,0.29,8.71-1.73,11.66-5.46c4.38-5.53,6.04-11.89,5.42-18.88c-0.47-5.3-3.47-8.65-8.66-9.32
	c-5.39-0.69-10.79-1.27-16.44-1.93c-2.97,0.4-6.18,0.6-9.28,1.29c-5.06,1.13-9.04,3.98-11.64,8.54
	C-935.94,673.28-933.67,681.38-925.64,685.35z M-942.65,699.93c0.98,5.4,5.18,8.66,11.79,8.69c0.68-0.12,2.31-0.2,3.78-0.73
	c3.79-1.37,4.84-4.42,2.96-8.04c-2.3-4.42-9.74-8.17-14.56-7.36c-1.91,0.32-3.28,1.42-3.75,3.23
	C-942.78,697.07-942.9,698.58-942.65,699.93z M-965.53,688.29c-1.97-1.16-4.14-1.57-6.46-1.71c-2.01,0.43-4.09,0.66-6,1.36
	c-1.59,0.58-3.17,1.51-4.41,2.66c-2.47,2.29-2.36,5.13,0,7.52c1.98,1.99,4.49,2.98,7.14,3.58c5.25,1.2,11.19-2.86,12.11-8.17
	C-962.74,691.21-963.51,689.48-965.53,688.29z M-1009.52,664.8c1.68,6.15,5.52,10,11.91,10.96c5.05,0.76,10.13,1.31,15.14,1.95
	c2.96-0.36,5.86-0.48,8.65-1.11c7.02-1.58,11.22-8.13,10.02-15.18c-0.91-5.33-3.55-9.54-8.04-12.53c-1.59-1.06-3.27-2.02-5-2.81
	c-6.6-3.02-13.64-4.51-20.79-5.4c-5.11-0.63-8.15,1.2-10.37,5.9C-1010.77,652.44-1011.23,658.54-1009.52,664.8z M-846.56,545.97
	c1.27,0.66,2.6,1.27,3.98,1.61c2.43,0.59,4.5-1.05,4.59-3.56c0.03-0.93-0.14-1.94-0.51-2.79c-0.63-1.45-1.39-2.88-2.28-4.19
	c-4.8-7.08-11.36-12.05-19.03-15.63c-11.21-5.24-23.16-7.05-36.68-7.51c-3.67,0.34-8.6,0.79-13.53,1.26
	c-2.2,0.21-3.98,1.22-5.17,3.08c-1.39,2.17-2.38,4.53-2.58,7.14c-0.25,3.32,1.03,5.19,4.38,5.72c2.51,0.39,5.09,0.43,7.63,0.43
	c4.95-0.01,9.91-0.3,14.86-0.22c14.72,0.25,28.4,4.04,40.7,12.35C-849.01,544.47-847.83,545.31-846.56,545.97z M-861.28,576.08
	c1.6,0.68,3.29,1.25,5,1.59c2.42,0.48,4.11-1.11,3.73-3.59c-0.26-1.7-0.84-3.41-1.59-4.96c-1.4-2.92-3.65-5.2-6.16-7.23
	c-3.51-2.84-7.49-4.85-11.62-6.58c-7.84-3.27-15.87-5.83-25.56-6.08c-0.98,0.06-3.08,0.03-5.11,0.36
	c-4.99,0.83-9.01,3.11-11.05,8.06c-1.57,3.81-0.55,5.89,3.41,6.56c1.56,0.26,3.18,0.27,4.76,0.2c13.87-0.6,26.93,2.29,39.11,9.04
	C-864.71,574.37-863.04,575.33-861.28,576.08z M-925.08,536.18c-0.53-10.28-0.6-18.13-1.41-25.91c-1.59-15.25-3.5-30.47-5.47-45.68
	c-0.76-5.85-1.96-11.68-4.06-17.23c-1.13-2.97-2.51-5.88-4.09-8.64c-1.97-3.43-5.17-4.62-9.02-3.88c-5.06,0.97-8.19,4.18-9.62,8.97
	c-0.86,2.9-1.29,5.95-0.79,9.01c0.55,3.31,1.09,6.62,1.74,9.9c1.06,5.33,2.35,10.61,3.27,15.96c1.66,9.6,3.2,19.22,4.64,28.86
	c2.15,14.39,3.64,28.85,4.27,43.4c0.32,7.5,0.61,15.01,0.98,22.51c0.08,1.58,0.22,3.23,0.76,4.69c1.01,2.74,3.42,3.84,6.2,2.97
	c1.03-0.32,2.01-0.95,2.88-1.62c2.07-1.61,3.37-3.84,4.45-6.16c2.46-5.26,3.98-10.82,4.35-16.6
	C-925.54,549.07-925.32,541.41-925.08,536.18z M-731.43,306.47c2.08,2.19,4.16,4.39,6.38,6.45c0.91,0.85,2.11,1.43,3.25,1.97
	c1.41,0.65,2.75,0.38,3.52-0.52c0.04-0.05,0.07-0.1,0.11-0.14c1.19-0.95,1.05-3.02,0.44-4.38c-0.65-1.41-1.85-2.52-3.27-3.1
	c-0.6-0.55-1.27-1.04-2.02-1.46c-2.11-1.17-5.18-2.33-7.62-2.15c-0.85,0.06-1.32,0.69-1.42,1.35c-0.13,0.4-0.09,0.85,0.13,1.22
	C-731.83,305.98-731.64,306.24-731.43,306.47z M-1070.59,513.09c-0.31,3.35,1.95,5.29,5.11,4.25c2.08-0.68,4.1-1.8,5.91-3.07
	c6.17-4.33,12.59-8.23,19.39-11.46c13.39-6.36,27.48-10.41,42.2-12.13c5.07-0.6,10.2-0.79,15.3-1.14c2.4-0.16,4.78-0.37,7-1.44
	c1.77-0.86,2.68-2.2,2.6-4.68c-0.02-0.13,0.01-0.8-0.19-1.4c-2.12-6.2-4.94-9.07-10.7-9.33c-0.8-0.04-1.6-0.04-2.4-0.08
	c-5.93-0.27-11.81,0.19-17.71,0.85c-9.88,1.11-19.59,3.03-29.05,6.07c-8.89,2.86-17.22,6.87-24.43,12.94
	c-5.09,4.28-9.27,9.28-11.72,15.54C-1069.91,509.64-1070.43,511.37-1070.59,513.09z M-708.38,310.42c0.41,0.21,0.94,0.4,1.38,0.33
	c0.74-0.11,1.74-0.22,2.1-0.71c0.36-0.49,0.34-1.62,0.02-2.2c-1.83-3.24-4.31-5.92-7.54-7.83c-0.52-0.31-1.19-0.39-1.33-0.44
	c-1.62-0.05-2.44,1.17-1.98,2.41C-714.36,305.71-711.95,308.58-708.38,310.42z M-735.26,337.81c0.26,0.55,0.7,0.92,1.23,1.18
	c0.07,0.07,0.15,0.13,0.22,0.19c1.84,1.5,3.62,3.1,5.59,4.4c1.56,1.03,3.33,1.81,5.11,2.43c1.93,0.68,3.36-0.6,3.39-2.7
	c0.02-1.96-1.05-3.26-2.51-4.32c-1.45-1.05-3.02-1.75-4.69-2.27c-1.78-0.88-3.66-1.44-5.73-1.51c-0.86-0.13-1.7-0.05-2.36,0.63
	c-0.37,0.37-0.47,0.8-0.41,1.2C-735.43,337.29-735.37,337.56-735.26,337.81z M-705.19,315.66c-0.26,1.73-0.3,3.48-0.42,5.23
	c-0.06,2.89,0.02,5.75,1.3,8.44c0.88,1.86,2.84,2.4,4.28,0.96c0.73-0.73,1.34-1.85,1.47-2.86c0.58-4.67-0.92-8.8-3.77-12.46
	c-0.32-0.4-1.16-0.69-1.65-0.58C-704.48,314.51-705.12,315.16-705.19,315.66z M-677.9,321.84c-0.53,0.08-1.03,0.47-1.43,0.87
	c-2.7,2.75-4.95,5.84-6.53,9.37c-0.45,1.02-0.92,2.04-1.21,3.11c-0.42,1.57,0.64,2.83,2.26,2.94c1.97,0.13,3.34-0.86,4.44-2.34
	c2.05-2.75,3.07-5.9,3.89-9.27c0.02-0.05,0.05-0.11,0.07-0.16c0.31-0.82,0.69-1.69,0.69-2.58
	C-675.72,322.44-676.86,321.6-677.9,321.84z M-680.22,317.41c0.51,0.41,1.6,0.58,2.16,0.32c0.55-0.26,1.14-1.25,1.08-1.86
	c-0.42-4.21-1.87-8.02-4.94-11.04c-0.37-0.36-1.23-0.59-1.67-0.41c-0.45,0.18-0.75,0.91-0.96,1.46c-0.17,0.42-0.12,0.94-0.18,1.52
	C-684.41,311.19-683.44,314.83-680.22,317.41z M-692.58,316.41c-0.08,0.14-0.16,0.28-0.22,0.42c-1.74,4.35-2.63,8.85-2.56,13.54
	c0,0.32,0.05,0.64,0.11,0.95c0.4,2.12,2.63,3.02,4.4,1.74c1.22-0.88,1.94-2.13,2.15-3.6c0.22-1.57,0.31-3.17,0.46-4.8
	c-0.21-1.88-0.35-3.79-0.66-5.67c-0.15-0.92-0.57-1.82-1-2.66C-690.49,315.18-691.91,315.25-692.58,316.41z M-889.33,371.4
	c3.96-2.63,8.33-3.23,12.81-1.5c1.62,0.62,3.17,1.56,4.55,2.62c4.07,3.15,7.55,6.89,10.4,11.19c2.63,3.97,3.17,8.2,1.8,12.82
	c-1.09,3.68-3.38,5.66-7.12,6.08c-1.11,0.12-2.23,0.17-3.34,0.26c-4.24-0.03-8.18-1.38-12.14-2.65c-4.25-1.37-8.52-2.69-12.79-4.01
	c-3.12-0.96-6.31-0.9-9.5-0.46c-5.22,0.73-10.41,1.63-15.51,3.04c-1.81,0.5-3.77,0.7-5.66,0.65c-2.49-0.07-4.62-1.25-6.27-3.12
	c-2.29-2.58-1.95-6,0.9-7.89c1.3-0.86,2.84-1.53,4.37-1.84c2.18-0.45,4.44-0.71,6.66-0.67c8.56,0.17,15.95-2.62,22.41-8.2
	C-895.11,375.43-892.25,373.34-889.33,371.4z M-886.38,385.88c0.98,4.8,5.5,8.13,11.33,8.1c0.28-0.02,0.92-0.03,1.55-0.12
	c3.05-0.41,4.11-1.99,3.39-4.98c-1.32-5.44-7.28-9.28-12.84-8.26C-885.64,381.1-886.95,383.11-886.38,385.88z M-713.07,318.93
	c-0.12-0.1-0.29-0.13-0.43-0.19c-0.67-0.31-1.8,0.17-1.92,0.88c-0.1,0.61-0.21,1.27-0.11,1.87c0.42,2.5,0.79,5.01,1.42,7.46
	c0.39,1.5,1.1,2.98,1.92,4.31c1.48,2.42,3.89,2.22,5.09-0.34c0.33-0.7,0.44-1.5,0.62-2.14
	C-707.23,325.9-709.32,321.96-713.07,318.93z M-963.75,397.68c4.59-0.71,9.63-5.59,10.47-10.09c0.57-3.06-0.43-5.23-3.08-6.89
	c-1.84-1.16-3.86-1.42-6.79-1.37c-0.13,0.01-1.09,0-2.03,0.16c-4.12,0.7-6.97,3.31-7.65,6.9c-0.69,3.66,1.43,8.54,4.48,10.44
	C-966.91,397.72-965.37,397.93-963.75,397.68z M-933.16,336.67c-0.65-3.15-3.06-4.84-6.3-4.74c-3.55,0.1-6.11,1.88-7.58,5
	c-0.88,1.86-1.26,3.94-1.89,5.92c-0.23,0.73-0.35,1.6-1.73,1.64c-0.33-0.5-0.76-1.12-1.16-1.76c-0.76-1.22-1.37-2.55-2.26-3.66
	c-2.49-3.08-5.71-3.92-9.45-2.74c-3.11,0.98-4.64,3.3-5.31,6.25c-0.45,2.01-0.59,4.09-0.98,7.02c-1.15-0.79-1.83-1.13-2.35-1.64
	c-1.49-1.45-2.88-3-4.38-4.44c-1.88-1.82-4.15-2.99-6.68-3.62c-4.77-1.19-9.16,1.63-9.95,6.47c-0.39,2.39-0.22,4.76,0.81,7.05
	c2.49,5.52,6.7,8.97,12.6,10.03c3.28,0.59,6.69,0.82,10.02,0.67c9.21-0.4,17.96-2.96,26.44-6.42c2.32-0.95,4.44-2.52,6.45-4.07
	c1.92-1.49,3.24-3.56,3.77-5.99C-932.31,343.99-932.42,340.29-933.16,336.67z M-1009.57,438.1c-3.03,0-6.08-0.17-9.1,0.03
	c-8.65,0.58-17.12,2.05-25.12,5.59c-7.29,3.23-13.59,7.75-17.96,14.58c-0.94,1.47-1.76,3.06-2.31,4.71
	c-0.73,2.18,0.79,4.22,3.1,4.39c0.78,0.06,1.62-0.02,2.36-0.27c1.8-0.62,3.62-1.26,5.33-2.09c18.45-8.93,37.95-11.9,58.25-10.2
	c3.02,0.25,6.01,0.85,9.03,1.07c2.21,0.17,4.47,0.21,6.66-0.1c1.81-0.26,3.13-1.45,3.42-3.5c0.82-5.77-2.35-10.31-8-11.67
	C-992.35,438.6-1000.91,437.79-1009.57,438.1z M-928.78,593.87c-2.45-2.99-5.66-4.6-9.54-4.7c-2.12-0.05-4.15,0.39-5.66,2.04
	c-2.25,2.45-3.45,5.34-3.25,8.7c0.17,2.78,1.57,4.84,4.17,5.89c1.3,0.53,2.74,0.74,3.28,0.88c3.98,0.06,7.58-1.07,9.84-2.8
	C-926.46,601.21-925.98,597.29-928.78,593.87z M-999.12,396.71c2.02,0.35,4.12,0.82,5.92,1.76c4.03,2.11,4.28,6.56,0.67,9.41
	c-2.52,1.98-5.43,2.7-8.58,2.04c-3.6-0.75-7.17-1.62-10.76-2.42c-7.82-1.75-15.5-1.55-23.12,1.26c-4.64,1.71-9.42,3.07-14.18,4.41
	c-2.96,0.83-5.99,0.83-8.99-0.14c-2.64-0.86-4.46-2.48-5.16-5.19c-0.48-1.85-0.83-3.72-1.03-4.66c0.08-3.96,1.13-6.64,2.78-9.04
	c2.92-4.24,6.36-8.03,10.49-11.12c1.27-0.95,2.71-1.7,4.14-2.39c3.2-1.54,6.52-1.65,9.74-0.15c2.02,0.93,3.98,2.06,5.78,3.36
	c2.99,2.14,5.81,4.51,8.73,6.75c5.4,4.13,11.49,6.19,18.31,6.01C-1002.63,396.53-1000.84,396.41-999.12,396.71z M-1041.4,391.03
	c-4.62-0.29-9.45,2.51-11.17,6.72c-2.04,5.01-0.35,6.78,4.68,7.02c5.04-0.03,9.61-3.37,10.77-7.89
	C-1036.24,393.54-1037.92,391.24-1041.4,391.03z M-959.4,422.58c0.64,0.02,1.28,0,1.92,0l0.04,0.26c4.26-0.69,8.55-1.22,12.76-2.13
	c4.03-0.87,5.83-3.86,5.13-7.87c-0.77-4.49-2.88-6.72-7.35-7.76c-0.93-0.22-1.88-0.43-2.83-0.53c-4.69-0.48-9.26,0.08-13.62,1.91
	c-1.97,0.82-3.7,2.02-4.22,4.26C-969.18,417.53-965.47,422.36-959.4,422.58z M-952.02,622.3c-2.1,6.5,1.3,11.22,8.62,11.13
	c2.41-0.24,5.21-0.8,7.64-2.52c4.23-2.99,4.63-7.2,1.03-10.99c-1.57-1.65-3.5-2.67-5.62-3.51
	C-944.92,614.59-950.11,616.37-952.02,622.3z M-1163.71,652.34c1.84-0.3,3.43-0.45,4.94-0.86c0.66-0.18,1.4-0.82,1.67-1.44
	c0.36-0.84-0.4-1.51-1.12-1.83c-2.89-1.29-5.78-2.62-8.76-3.67c-1.29-0.46-2.81-0.39-4.23-0.36c-1.4,0.03-2.19,1.15-2.13,2.59
	c0.1,2.23,1.5,3.52,3.38,4.14C-1167.88,651.6-1165.67,651.91-1163.71,652.34z M-699.59,304.23c0.68,2.95,1.69,5.52,3.93,7.54
	c1.01,0.91,2.28,1.12,3.03,0.55c0.24-0.19,0.43-0.4,0.56-0.63c0.39-0.46,0.64-1.1,0.64-1.88c0.01-1.75-0.83-3.71-1.88-5.24
	c-0.52-1.21-1.16-2.33-1.99-3.38c-0.79-1.01-1.85-2.45-3.01-3.03c-0.76-0.38-1.57-0.17-2.05,0.54c-0.48,0.7-0.45,1.67-0.18,2.57
	C-700.37,302.27-700.01,303.27-699.59,304.23z M-953.46,1137.8c-0.83-0.5-2.03-0.32-2.58,0.45c-1.51,2.09-1.83,4.36-0.76,6.73
	c0.72,1.59,2.51,2.63,3.81,2.25c1.62-0.47,2.02-1.86,2.27-3.32c0.05-0.31,0.06-0.63,0.09-1.07
	C-950.67,1140.74-951.51,1138.96-953.46,1137.8z M-943.66,1141.15c-0.97-0.69-2.24-0.51-2.89,0.47c-1.14,1.71-1.14,3.57-0.54,5.42
	c0.42,1.31,2.1,2.39,3.27,2.31c1.2-0.08,2.06-1.35,2.17-3.22c0.01-0.16,0-0.31,0-0.39C-941.52,1143.8-942.1,1142.26-943.66,1141.15z
	 M-952.2,1123.44c-1.25-0.93-3.05-0.53-3.58,0.91c-0.97,2.63-0.91,5.3,0.11,7.9c0.49,1.25,1.52,1.99,2.89,2.2
	c0.95,0.14,2.09-0.39,2.28-1.28c0.27-1.23,0.38-2.49,0.51-3.47c-0.08-1.24-0.09-2.2-0.22-3.14
	C-950.4,1125.24-951.14,1124.23-952.2,1123.44z M-942.83,1127.97c-1.06-0.91-2.61-0.58-3.18,0.71c-0.95,2.15-1,4.37-0.13,6.52
	c0.33,0.83,1.02,1.59,1.73,2.17c1.07,0.87,2.71,0.35,3.1-0.97c0.32-1.05,0.41-2.17,0.6-3.27
	C-940.7,1131.09-941.24,1129.33-942.83,1127.97z M-983.51,1028.48c-0.1,0.07-0.18,0.15-0.26,0.24c-0.22,0.16-0.43,0.35-0.61,0.59
	c-1.51,1.97-1.39,4.12-0.56,6.28c0.24,0.62,0.58,1.18,1.04,1.58c0.47,0.47,1.08,0.81,1.85,0.93c1.7,0.26,3.19-0.93,3.66-2.54
	c0.51-1.75,0.07-3.77-0.8-5.33C-980.03,1028.73-981.79,1027.21-983.51,1028.48z M-966.63,1133.47c-0.59-0.28-1.67-0.25-2.17,0.12
	c-2.54,1.91-2.29,6.93,0.34,8.71c1.63,1.11,3.55,0.48,4.17-1.42c0.24-0.74,0.35-1.53,0.44-1.93
	C-963.8,1136.31-964.76,1134.37-966.63,1133.47z M-935.55,1138.36c0.62,0.33,1.58,0.46,2.19,0.21c0.31-0.12,0.55-0.41,0.78-0.75
	c0.45-0.94,0.22-2.14,0.11-3.21c-0.26-1-0.53-1.97-0.89-2.9c-0.5-1.29-2.1-1.99-3.1-1.56c-1.23,0.52-1.42,1.68-1.33,2.79
	c0.1,1.25,0.3,2.52,0.71,3.69C-936.82,1137.32-936.19,1138.02-935.55,1138.36z M-932.2,1122.94c1.81,0,2.89-1.17,3.2-2.98
	c0.11-0.63,0.11-1.27,0.17-2.04c-0.52-4.82-1.57-9.66-3.05-14.39c-2.94-9.39-8.12-17.34-15.64-23.68c-1.81-1.52-3.89-2.86-6.06-3.79
	c-3.44-1.49-6.36-0.29-8.1,2.93c-1,1.86-1.44,3.87-1.54,5.99c-0.13,2.71-0.09,5.48-0.64,8.11c-1.12,5.33,0.43,9.8,3.76,13.82
	c6.07,7.33,13.67,12.47,22.72,15.38C-935.75,1122.8-933.94,1122.94-932.2,1122.94z M-965.01,1112.2c-2.25-1.35-4.35-0.73-5.64,1.61
	c-1.51,2.75-1.78,5.75-1.55,8.82c0.21,2.75,1.64,4.77,3.9,6.24c3.5,2.28,6.67,1.16,7.74-2.82c0.37-1.37,0.44-2.82,0.49-3.12
	C-959.7,1117.57-961.4,1114.36-965.01,1112.2z M-1164.05,684.63c0.58,0.16,1.26,0.09,1.87,0.01c0.97-0.14,1.65-1.4,1.15-2.19
	c-2.42-3.87-5.97-6.04-10.69-6.95c-0.64,0.4-1.65,0.71-2.1,1.39c-0.59,0.89,0.05,1.86,0.77,2.53
	C-1170.45,681.82-1167.51,683.7-1164.05,684.63z M-681.24,374.33c-1.65-2.29-3.98-3.13-6.73-2.76c-1.93,0.26-3.77,0.91-5.2,2.28
	c-1.84,1.76-3.57,3.64-5.32,5.5c-0.73,0.78-1.4,1.61-2.01,2.32c-0.46-0.14-0.68-0.14-0.73-0.24c-0.7-1.24-1.36-2.52-2.07-3.75
	c-2.81-4.89-7.65-6.39-12.73-3.95c-4.35,2.09-5.8,6.85-3.1,10.85c0.96,1.42,2.38,2.56,3.71,3.68c0.84,0.71,1.92,1.14,2.88,1.71
	c0.89,0.54,1.35,1.35,1.29,2.39c-0.06,0.96-0.13,1.92-0.28,2.86c-1.1,7.27-2.21,14.54-3.35,21.8c-1.16,7.42-2.39,14.84-3.54,22.26
	c-2.05,13.27-4.11,26.54-6.04,39.83c-0.35,2.4-1.5,3.71-3.63,4.54c-2.23,0.87-4.42,1.84-6.59,2.84c-4.03,1.87-5.85,5.32-6.43,9.49
	c-0.63,4.53,2.04,7.43,6.6,7.34c0.79-0.02,1.59-0.17,2.37-0.32c3.06-0.59,5.68-2.06,8.14-3.92c0.71-0.54,1.57-0.87,2.65-1.45
	c0.63,1.45,1.12,2.59,1.62,3.73c1.35,3.1,2.93,6.06,5.65,8.22c4.06,3.23,8.16,2.79,12.02,0.41c2.41-1.49,3.24-3.89,2.61-6.65
	c-0.81-3.57-2.89-6.37-5.44-8.87c-1.12-1.1-2.31-2.13-3.46-3.18c0.54-4.03,0.99-7.83,1.58-11.61c2.14-13.74,4.37-27.47,6.47-41.22
	c2.06-13.43,4.08-26.87,5.98-40.32c0.53-3.78,2.37-6.08,5.94-7.3c1.95-0.67,3.85-1.57,5.63-2.62c3.82-2.25,5.63-4.61,3.38-10.55
	C-679.83,376.48-680.5,375.36-681.24,374.33z M-747.79,476.24c-2.77-4.28-7.02-5.12-11.07-1.95c-1.47,1.15-2.59,2.8-3.67,4.35
	c-0.89,1.29-1.49,2.78-2.57,4.85c-1.26-1.05-2.17-1.66-2.9-2.44c-20.47-21.79-40.91-43.62-61.43-65.38
	c-1.82-1.93-2.72-3.8-2.04-6.42c0.27-1.06,0.2-2.23,0.17-3.34c-0.1-3.98-2.09-6.99-5.11-9.34c-2.28-1.77-4.76-1.63-7.2-0.27
	c-1.6,0.89-2.81,2.23-3.34,3.94c-0.65,2.12-1.01,4.34-1.5,6.51c-0.2,0.88-0.42,1.75-0.67,2.76c-1.69-0.19-3.1-0.44-4.51-0.49
	c-4.14-0.16-7.95,0.78-11.01,3.78c-1.54,1.51-2.51,3.29-2.43,5.54c0.21,5.95,4.92,10.18,10.85,9.62c1.41-0.13,2.81-0.59,4.18-0.99
	c1.52-0.44,3.01-0.97,4.65-1.51c1.01,0.86,2.02,1.62,2.93,2.49c5.88,5.65,11.74,11.32,17.61,16.98
	c17.85,17.19,35.67,34.42,53.6,51.54c2.41,2.3,3.55,4.55,3.01,7.96c-0.41,2.63-0.15,5.41,0.08,8.1c0.31,3.53,2.45,5.78,5.64,7.12
	c6.83,2.87,14.84-0.74,17.68-7.92c0.87-2.2,0.88-4.32,0.06-6.53c-0.92-2.48-2.53-4.41-4.39-6.2c-0.89-0.85-2.22-1.39-2.25-3.17
	c1.18-1.03,2.54-2.13,3.8-3.33C-744.6,487.73-744.78,480.88-747.79,476.24z M-980.09,1019.62c0.63-4.51-0.73-8.49-3.8-11.79
	c-1.47-1.58-3.47-1.57-5.16-0.18c-2.47,2.03-3.69,4.7-3.66,9.02c0.41,1.25,0.89,3.61,1.93,5.7c1.7,3.41,4.99,3.92,7.92,1.56
	C-981.44,1022.8-980.34,1021.41-980.09,1019.62z M-790.69,868.83c-2.45-1.76-5.11-3.35-7.89-4.46c-2.45-0.98-4.09-2.36-4.94-4.79
	c-0.16-0.45-0.43-0.86-0.63-1.29c-14.23-30.41-28.47-60.82-42.7-91.23c-2.91-6.23-5.86-12.44-8.74-18.68
	c-1.08-2.35-0.93-2.87,0.88-4.61c0.92-0.89,1.91-1.71,2.8-2.63c2.12-2.2,3.93-4.62,4.99-7.54c1.76-4.86,0.66-9.15-3.32-12.5
	c-2.92-2.46-6.38-3.59-10.12-3.93c-3.81-0.35-6.99,1.01-9.22,4.06c-1.39,1.91-2.33,4.16-3.46,6.26c-0.51,0.95-0.99,1.91-1.68,3.26
	c-1.31-1.21-2.29-2.2-3.36-3.08c-4.6-3.76-12.96-5.42-18.52,1.11c-1.33,1.57-2.49,3.35-3.42,5.19c-2.69,5.3-1.96,9.7,2.2,14.01
	c1.1,1.14,2.31,2.27,3.66,3.08c2.74,1.63,5.51,3.3,8.45,4.47c3.01,1.2,4.95,2.98,6.36,5.95c15.78,33.23,31.68,66.39,47.54,99.58
	c0.54,1.14,0.96,2.33,1.37,3.35c-0.66,2.04-2.36,2.85-3.6,4.05c-2.64,2.59-5.18,5.26-6.67,8.7c-1.83,4.22-1.92,8.46,0.89,12.3
	c2.83,3.87,6.76,6.25,11.34,7.62c2.69,0.8,5.15,0.32,7.14-1.57c2.07-1.97,3.93-4.17,5.84-6.31c0.82-0.92,1.54-1.93,2.16-2.71
	c0.54,0,0.73-0.06,0.84,0.01c0.52,0.35,1.07,0.69,1.53,1.11c3.32,3.11,7.26,5.15,11.36,7.03c5.73,2.62,10.64,1.18,15.19-3.44
	c3.24-3.3,3.95-7.18,2.12-11.48C-784.15,875.36-786.84,871.58-790.69,868.83z M-924.75,1141.02c-0.61-0.61-1.52-0.9-2.39-0.7
	c-1.18,0.27-1.95,1.33-2.04,2.51c-0.16,2.1,1.31,4.84,3.68,4.66c2.87-0.21,2.7-3.9,1.47-5.68
	C-924.23,1141.52-924.47,1141.25-924.75,1141.02z M-819.34,915.6c2.27,1.43,4.79,1.6,7.34,1.7c0.48,0,0.96,0.02,1.43,0
	c4.06-0.17,5.82-1.68,6.33-5.65c0.2-1.57,0.25-3.18,0.13-4.76c-0.36-4.83-4.15-7.71-8.91-6.71c-3.38,0.71-6.21,2.44-8.29,5.25
	C-824.09,909.21-823.3,913.1-819.34,915.6z M-933.52,1142.19c-1.14-0.69-2.37-0.31-2.82,0.95c-0.02,0.05-0.03,0.1-0.05,0.15
	c-0.99,1.91-0.21,4.91,1.47,6.06c1.09,0.74,2.54,0.78,3.34-0.39c0.32-0.47,0.43-0.99,0.41-1.51
	C-930.93,1145.63-931.76,1143.06-933.52,1142.19z M-925.8,1137.74c1.25-0.37,1.4-1.55,1.36-2.71c-0.08-2.23-0.21-4.43-2.34-5.85
	c-1.12-0.75-2.73-0.23-3.05,1.03c-0.59,2.27-0.1,4.37,1.2,6.27C-927.97,1137.45-926.96,1138.08-925.8,1137.74z M-812.6,933.47
	c-2.82,0.52-5.55,1.47-8.35,2.13c-0.67,0.16-1.43-0.06-2.21-0.12c0-1.91,0.18-3.52-0.03-5.08c-1.08-8.04-3.76-12.14-12.04-14.06
	c-3.35-0.78-6.33,0.2-8.76,2.67c-2.93,2.97-4.61,6.53-4.56,10.74c0.03,1.9,0.14,3.87,0.68,5.68c0.81,2.76,0.1,4.81-1.67,7.01
	c-11.24,13.93-22.32,28-33.53,41.96c-14.91,18.57-29.89,37.09-44.85,55.62c-4.01,4.97-3.1,4.69-9.15,3.67
	c-3.86-0.65-7.66-0.46-11.39,0.65c-4.18,1.24-6.9,4.01-7.65,8.36c-1.26,7.37,3.34,14.21,10.64,15.88c3.12,0.71,6.3,1.08,9.52,0.54
	c1.22-0.2,2.52-0.7,3.72,0.4c0.05,0.4,0.28,0.93,0.13,1.31c-1.44,3.69-0.45,7.27,0.47,10.82c0.92,3.58,3.08,5.38,6.82,5.66
	c2.21,0.16,4.49,0.11,6.68-0.22c3.84-0.57,6.21-3.24,6.59-7.13c0.37-3.72,0.19-7.53-1.57-10.78c-2.33-4.3-1.25-7.56,1.88-10.68
	c0.22-0.22,0.39-0.5,0.59-0.76c20.83-27.54,41.66-55.07,62.48-82.61c4.15-5.48,8.35-10.92,12.41-16.47c1.36-1.86,2.82-2.26,4.95-1.6
	c2.89,0.9,5.84,1.67,8.8,2.29c4.71,0.99,9.48,1.39,14.3,0.81c3.48-0.42,5.87-2.2,7.4-5.34c1.6-3.27,2.08-6.69,1.81-10.26
	C-799.1,936.68-804.92,932.05-812.6,933.47z M-678.91,348.39c-0.84-0.72-1.82-1.3-2.78-1.86c-5.37-3.11-11.14-4.76-17.39-4.64
	c-1.43,0.09-2.89,0.08-4.3,0.3c-5.48,0.85-10.54,2.72-14.49,6.79c-2.94,3.03-3.36,7.01-1.32,10.58c3.39,5.93,11.62,10.24,18.3,9.21
	c7.22-1.11,13.77-4.1,19.66-8.35c1.62-1.17,2.96-2.95,3.92-4.72C-675.85,352.98-676.56,350.39-678.91,348.39z M-1189.09,658.6
	c-0.77-1.96-2.64-2.16-4.18-0.67c-1.26,1.21-1.63,2.72-1.5,4.35c0.34,4.36,1.79,8.35,4.21,11.98c0.47,0.71,1.24,1.14,2.03,0.76
	c0.47-0.23,0.94-0.9,1.02-1.43c0.21-1.4,0.21-2.84,0.3-4.46c-0.14-1.71-0.16-3.63-0.48-5.5
	C-1187.98,661.92-1188.46,660.22-1189.09,658.6z M-1199.68,676.17c-0.41-0.2-0.91-0.22-1.11-0.27c-1.31,0.01-2.25,1.37-1.82,2.46
	c1.57,3.92,3.94,7.24,7.59,9.47c0.54,0.33,1.55,0.23,2.17-0.06c0.37-0.17,0.67-1.15,0.55-1.65
	C-1193.32,681.75-1195.53,678.22-1199.68,676.17z M-1179.01,689.21c0.51,0.33,1.55,0.18,2.15-0.13c0.37-0.19,0.63-1.16,0.51-1.68
	c-1.05-4.35-3.31-7.84-7.39-9.95c-0.4-0.21-0.91-0.21-1.21-0.28c-1.16,0.01-2.03,1.4-1.61,2.56
	C-1185.11,683.73-1182.56,686.91-1179.01,689.21z M-1173.57,824.09c-3.59,0.35-5.97,2.58-6.17,6.17c-0.11,2.03,0.23,4.15,0.72,6.14
	c0.88,3.55,2.89,4.91,6.63,4.9c3.03-0.01,6.69-1.03,8.66-2.41c3.77-2.64,4.45-6.37,1.55-9.88
	C-1165.1,825.47-1168.9,823.64-1173.57,824.09z M-1180.29,810.57c1.94,3.02,4.63,4.84,8.27,5c3.35,0.15,6.7,0.31,10.05,0.22
	c2.2-0.06,4.38-0.56,7.21-0.96c0.31,1.77,0.47,3.18,0.82,4.55c0.71,2.78,1.37,5.58,2.33,8.27c0.65,1.84,2,3.25,4.01,3.85
	c5.13,1.53,10.13,1.01,14.97-1.11c2.43-1.06,4.12-2.99,5.22-5.4c0.94-2.05,1.44-4.2,1.55-6.48c0.2-4.06-0.36-8.05-1.75-11.79
	c-1.92-5.15-0.67-5.44,2.7-7.79c0.79-0.55,1.57-1.1,2.36-1.65c25.72-18.17,51.44-36.34,77.15-54.51c3.52-2.49,7.09-4.93,10.56-7.49
	c1.64-1.21,3.32-1.67,5.36-1.52c2.7,0.2,5.43,0.15,8.14,0.13c2.61-0.02,5.06-0.79,7.36-1.93c3.32-1.65,5.85-4.18,6.23-7.96
	c0.33-3.31,0.28-6.71-0.13-10.01c-0.41-3.38-2.45-5.96-5.79-7.01c-2.57-0.81-5.25-1.39-8-0.41c-1.15,0.41-2.4,0.54-3.48,0.77
	c-1.19-1.43-0.51-2.69-0.29-3.89c0.53-2.91,0.2-5.73-0.61-8.53c-0.65-2.25-1.97-4.02-4-5.19c-3.1-1.79-6.44-2.82-10.06-2.63
	c-6.66,0.34-11.01,4.63-11.33,11.29c-0.08,1.74,0.12,3.52,0.43,5.23c0.31,1.72,0.75,3.46,1.42,5.07c1.3,3.14,0.87,4-1.97,5.93
	c-1.32,0.9-2.57,1.9-3.86,2.84c-14.16,10.42-28.32,20.85-42.5,31.24c-17.02,12.47-34.06,24.9-51.11,37.33
	c-4.84,3.53-4.67,3.17-9.21,2.59c-6.73-0.85-13,0.83-18.79,4.35c-7.35,4.48-7.3,10.31-4.02,16.4
	C-1180.83,809.78-1180.55,810.17-1180.29,810.57z M-1202.42,618.69c1.65-2.33,2.9-4.94,4.29-7.45c0.44-0.8,0.79-1.65,1.13-2.37
	c0.46,0.03,0.67-0.02,0.76,0.07c1.01,0.98,2.01,1.99,3.01,2.99c4.13,4.12,9.47,4.28,13.72,0.42c3.33-3.03,3.68-7.31,0.65-10.65
	c-1.04-1.14-2.5-1.95-3.87-2.71c-1.08-0.6-2.34-0.9-3.76-1.43c-0.23-1.61-0.53-3.17-0.66-4.74c-0.66-8.12-1.28-16.25-1.9-24.38
	c-0.82-10.84-1.64-21.67-2.44-32.51c-0.7-9.56-1.34-19.13-2.1-28.69c-0.18-2.21,0.3-4.05,1.61-5.82c1.51-2.06,2.78-4.3,4.31-6.35
	c2.49-3.35,1.32-8.54-1.58-11.39c-0.96-0.94-2.08-1.42-3.41-1.55c-3.17-0.31-5.58,1.06-7.54,3.38c-1.1,1.3-2.12,2.68-3.49,4.43
	c-1.32-1.53-2.11-2.54-2.99-3.45c-2.76-2.88-6.16-4.56-10.13-4.92c-3.21-0.29-6.01,0.61-7.98,3.38c-2.05,2.9-2.27,5.89-0.47,8.99
	c1.85,3.17,4.59,5.36,7.95,6.63c2.11,0.8,3.01,2.19,3.26,4.26c0.1,0.79,0.26,1.58,0.34,2.37c0.6,5.56,1.18,11.12,1.78,16.68
	c0.57,5.24,1.16,10.48,1.75,15.72c1.25,11.11,2.48,22.23,3.75,33.34c0.8,6.98,1.44,14,2.56,20.93c0.78,4.82-0.2,8.44-4.61,10.97
	c-2.22,1.27-4.11,3.06-5.5,5.27c-1.71,2.72-2.3,5.61-1.01,8.68c1.01,2.4,3.04,3.68,5.66,3.64
	C-1206.38,622.38-1204.04,620.98-1202.42,618.69z M-1202.23,671.7c2.13-3.41,3.35-7.18,4.14-11.1c0.22-1.08,0.28-2.21,0.26-3.32
	c-0.03-1.61-1.3-2.53-2.92-2.28c-2.21,0.34-3.3,1.94-3.84,3.8c-0.7,2.43-1.04,4.96-1.55,7.49c0.3,1.74,0.52,3.47,0.95,5.14
	c0.12,0.46,0.88,1,1.39,1.04C-1203.29,672.52-1202.5,672.14-1202.23,671.7z M-1159.13,674.94c2.59,1.32,5.35,2.05,8.28,2.02
	c0.8,0,1.6,0.05,2.39-0.01c0.97-0.08,2.08-0.28,2.11-1.45c0.02-0.65-0.48-1.58-1.04-1.94c-2.41-1.55-4.86-3.08-7.43-4.32
	c-1.39-0.67-3.05-0.9-4.61-1.02c-1.84-0.15-2.89,1.29-2.57,3.13C-1161.7,673.09-1160.59,674.2-1159.13,674.94z M-1182.02,645.45
	c2.35-1.33,4.61-2.88,6.7-4.59c1.34-1.09,2.45-2.54,3.39-4c2.92-4.56,2.29-9.02-2.06-12.27c-6.48-4.83-13.55-6.4-21.13-2.56
	c-5.48,2.78-10.16,6.67-14.21,11.26c-1.33,1.51-2.35,3.46-2.99,5.38c-1.3,3.85,0.07,6.5,3.75,8.12c3.75,1.65,7.76,1.76,11.41,2.12
	C-1191.67,648.68-1186.59,648.02-1182.02,645.45z M-994.28,1002.33c2.2-4.19,2.48-8.48,0.99-12.99c-0.9-2.72-1.42-5.56-2.22-8.32
	c-0.44-1.52-0.94-3.08-1.72-4.44c-2.1-3.65-5.37-4.42-8.94-2.21c-0.94,0.58-1.86,1.29-2.59,2.12c-1.68,1.92-3.37,3.85-4.83,5.93
	c-6.7,9.48-9.29,20.2-9.6,31.67c0.25,2.37,0.3,4.79,0.8,7.11c0.59,2.7,2.35,3.8,5,2.96c2.4-0.76,4.8-1.84,6.88-3.25
	C-1003.47,1016.17-998.21,1009.81-994.28,1002.33z M-1002.89,1031.09c-0.15-1.63-0.95-4.33-2.85-4.3c-0.33-0.08-0.69-0.06-1.07,0.15
	c-0.06,0.03-0.1,0.07-0.15,0.1c-0.13,0.07-0.24,0.15-0.35,0.23c-1.98,1.38-2.09,3.47-1.74,5.88c0.28,2,1.25,4.88,3.9,4.15
	C-1002.78,1036.64-1002.71,1033.03-1002.89,1031.09z M-1014.1,1043.2c-1,0.91-1.38,2.07-1.43,3.52c0.05,0.33,0.08,0.81,0.19,1.27
	c0.23,0.96,0.68,1.77,1.74,2.02c0.92,0.22,2.22-0.54,2.65-1.57c0.65-1.52,0.63-3.07,0.03-4.6
	C-1011.4,1042.62-1013.11,1042.3-1014.1,1043.2z M-1002.52,1039.52c-0.07-0.02-0.14-0.03-0.21-0.04c-0.13-0.02-0.24-0.06-0.37-0.07
	c-0.46-0.03-0.81,0.11-1.05,0.36c-0.28,0.17-0.55,0.39-0.76,0.68c-1.11,1.52-1.29,3.14-0.7,4.91c0.22,0.65,0.5,1.17,0.83,1.57
	c0.03,0.05,0.07,0.08,0.1,0.13c0.02,0.03,0.05,0.07,0.08,0.1c0.02,0.02,0.04,0.04,0.06,0.06c0.1,0.1,0.2,0.19,0.33,0.26
	c0.07,0.04,0.13,0.05,0.2,0.08c0.14,0.07,0.29,0.13,0.45,0.17c0.73,0.2,1.41,0.08,2.16-0.31c0.14-0.07,0.25-0.17,0.34-0.28
	c0.85-0.68,1.33-1.87,1.31-3.21C-999.78,1041.91-1000.54,1039.98-1002.52,1039.52z M-996.29,1031.32c0.36-0.31,0.72-0.65,0.97-1.04
	c1.64-2.54,1.16-7.21-0.95-9.38c-0.79-0.81-2.13-0.78-3.02,0.04c-1.26,1.16-1.72,2.64-1.65,5.3c0.27,0.9,0.7,2.76,1.4,4.52
	C-999.03,1032.04-997.35,1032.24-996.29,1031.32z M-1020.76,1042.78c-1.53,0.2-2.63,1.66-2.55,3.38c0.07,1.4,1.06,2.49,2.28,2.49
	c1.59,0.01,2.88-1.42,2.79-3.08C-1018.34,1043.91-1019.51,1042.61-1020.76,1042.78z M-1011.59,1037.85
	c0.42-1.07,0.78-2.41,0.64-3.56c-0.13-1.05-0.55-2.68-1.42-3.37c-1.67-1.34-2.94,0.01-3.58,1.64c-0.86,1.56-1.11,3.55-0.69,5.19
	C-1015.9,1040.66-1012.62,1040.45-1011.59,1037.85z M-1018.3,970.97c3.31-0.56,6.03-2.28,7.29-5.55c1.97-5.08,2.35-10.27,0.37-15.46
	c-1.45-3.79-4.15-5.89-8.31-6.14c-4.09-0.25-8.08,0.4-11.69,2.11c-3.41,1.62-5.77,0.78-8.03-1.73c-0.21-0.24-0.47-0.43-0.71-0.65
	c-23.36-20.89-46.73-41.77-70.09-62.66c-7.27-6.5-14.48-13.07-21.81-19.51c-1.96-1.73-2.94-3.53-2.7-6.24
	c0.2-2.19-0.08-4.48-0.49-6.66c-0.85-4.53-3.54-7.83-7.6-9.91c-1.23-0.63-2.75-0.98-4.13-0.96c-5.83,0.11-11.88,5.56-12.45,11.34
	c-0.26,2.67,0.09,5.41,0.18,8.11c0.02,0.75,0.09,1.51,0.13,2.13c-0.53,0.3-0.8,0.6-1.07,0.59c-0.95-0.02-1.89-0.15-2.84-0.22
	c-2.86-0.21-5.74-0.7-8.58-0.57c-4.92,0.22-8.45,2.27-9.94,8.69c-1.46,6.28,0.8,11.63,5.03,16.22c1.24,1.35,2.96,2.02,4.76,1.95
	c2.86-0.1,5.77-0.17,8.55-0.73c4.71-0.96,9.17-2.81,13.47-4.96c5.01-2.5,4.9-2.51,9.1,1.38c29.54,27.4,59.09,54.79,88.62,82.2
	c6.63,6.15,5.66,3.91,4.33,12.16c-0.28,1.72-0.41,3.51-0.29,5.25c0.12,1.73,0.46,3.5,1.02,5.14c1.08,3.18,3.39,5.04,6.79,5.12
	c2.22,0.05,4.51,0,6.67-0.46c4.16-0.89,6.3-3.54,6.52-7.77c0.18-3.35,0.3-6.72-1.41-9.83c-0.2-0.37-0.08-0.91-0.13-1.66
	c0.95-0.14,1.83-0.33,2.72-0.38C-1022.75,971.19-1020.48,971.34-1018.3,970.97z M-1021.02,1039.67c0.88-0.46,1.29-1.27,1.47-2.16
	c0.61-1.68,0.57-3.43-0.05-5.13c-0.22-0.61-1.05-1.29-1.67-1.37c-0.1-0.01-0.22-0.01-0.33,0c-0.1,0-0.19,0.01-0.3,0.02
	c-2.96,0.54-3.47,5.17-2.4,7.42C-1023.71,1039.7-1022.31,1040.35-1021.02,1039.67z M-992.23,1036.16c-0.5-0.99-1.24-1.53-2.01-1.65
	c-0.23-0.06-0.5-0.07-0.79,0.01c-3.64,1.02-3.99,6.17-2.28,8.98c0.77,1.27,2.32,2.1,3.77,1.63c1.78-0.32,2.7-2.39,2.83-4.11
	c0.13-1.76-0.47-3.4-1.47-4.78C-992.2,1036.22-992.21,1036.19-992.23,1036.16z"/>
</svg>
