<svg id="Layer_1" data-name="Layer 1" xmlns="http://www.w3.org/2000/svg" viewBox="0 0 1066.16 1061.65"><title>a2</title><path d="M-476.79,672.09c6.09-.09,9.36,4.15,7.77,10.09-.87,3.27-2.56,5.8-6.07,6.72-4.44,1.17-11-1.92-12.9-6.13a5.4,5.4,0,0,1,.76-5.84C-484.59,673.53-481,672.19-476.79,672.09Zm-122.3,502a2.28,2.28,0,0,0-2.68-.29,11.19,11.19,0,0,0-2.9,2.39,12.56,12.56,0,0,0-1.61,2.67c-.23.34-.44.68-.64,1a10.25,10.25,0,0,0-1.32,3,5.46,5.46,0,0,0-.24.88,2,2,0,0,0,.74,2.12l.12.06a1.82,1.82,0,0,0,1.91.12,1.34,1.34,0,0,0,.88-.45,39,39,0,0,0,2.6-3.14c.75-.82,1.49-1.66,2.19-2.52a13.36,13.36,0,0,0,1.71-3.37A2.1,2.1,0,0,0-599.09,1174.07Zm78-260.64a8.76,8.76,0,0,0-5-1.25c-1.57,0-3.15,0-5,0-.2-1.35-.39-2.57-.55-3.79a16.33,16.33,0,0,0-5-10.1,6.21,6.21,0,0,0-7.93-.88,10,10,0,0,0-4.94,11.43,29.76,29.76,0,0,0,1.4,4.08,3.71,3.71,0,0,1-.44,3.64l-1.06,1.59q-23.88,34.82-47.71,69.67a11.33,11.33,0,0,1-6.27,4.83,21.43,21.43,0,0,0-8,4.29,9.68,9.68,0,0,0-3.14,10.41,9.41,9.41,0,0,0,7.93,7.37,10.73,10.73,0,0,0,7.84-1.41c1.63-1,3.18-2.15,4.82-3.13,1-.63,2.2-1.09,3.25-1.59,1.5,1.23,2.68,2.3,4,3.23a7.39,7.39,0,0,0,7.74.75,16,16,0,0,0,4.63-3.32c2.29-2.35,2.25-5.15.31-7.84a11,11,0,0,0-5.46-3.71c-1.28-.48-2.92-.29-3.88-2.22a40,40,0,0,1,4.15-6.05q16.56-22.38,33.14-44.72c3.43-4.62,6.86-9.25,10.18-14a6.54,6.54,0,0,1,5.54-3.17,23,23,0,0,0,5.18-.86,10.44,10.44,0,0,0,6.48-5.36A5.82,5.82,0,0,0-521.06,913.43ZM-577,1168.76a3,3,0,0,0-3.58.27,7.81,7.81,0,0,0-2.07,2.57c-.79,2-1.37,4-1.86,5.59-.74,1.76-1,4.14,1.23,4.38,1.37.15,2.1-1.28,2.71-2.27.17-.26.31-.53.46-.8a21.91,21.91,0,0,0,3.73-6.7C-576,1170.69-575.88,1169.56-577,1168.76Zm-9-5.77-.16.06a15.71,15.71,0,0,0-8.76,5.92,1.9,1.9,0,0,0-.06,1.72,1.91,1.91,0,0,0,1.61.6l1.14-.27a1,1,0,0,0,.3,0c3.27-.46,7.64-1.1,9.92-3.8S-583.42,1162.28-586,1163Zm39.28-22.84a59.43,59.43,0,0,0-7.44-1.52c-8.35.34-15.36,3.25-20.65,9.72a25.9,25.9,0,0,0-3.27,5.79,5.46,5.46,0,0,0,.91,5.86,11.67,11.67,0,0,0,3.59,3.06c5.31,2.63,10.74,3,16-.1A41.73,41.73,0,0,0-545,1151.29a12.26,12.26,0,0,0,2-4.8C-542.45,1143.27-543.6,1141.18-546.72,1140.15Zm270.35-86.76q-4,17-8.1,34c-.82,3.42-1.73,6.81-2.53,10.23a3.28,3.28,0,0,1-2.88,2.77,18,18,0,0,0-3.26.78c-5.57,2.11-7,8-3,12.4,3.5,3.83,8.21,4.32,12.5,1.38,1.28-.88,2.09-2.49,4.2-2.54.29.8.6,1.65.92,2.51.93,2.54,1.78,5.11,2.82,7.6a8.29,8.29,0,0,0,3.89,4.1c4.47,2.39,8.94,0,9.5-5a9.79,9.79,0,0,0-2-7.22,44.92,44.92,0,0,0-4.44-5c-2.6-2.51-3-5.3-2.07-8.74,6.65-23.83,13.18-47.7,19.78-71.55,1.49-5.38,3.13-10.71,4.74-16.21,1.63-.54,3.13-1,4.63-1.53a15.13,15.13,0,0,0,6.69-4.46c4.18-4.91.9-12.26-4.66-13.08a15.87,15.87,0,0,0-11.79,2.84c-1,.72-2,1.59-3.45,2.82-.95-1.69-1.63-2.93-2.32-4.16a10.51,10.51,0,0,0-4.74-4.58,5.7,5.7,0,0,0-6.65,1,8.81,8.81,0,0,0-2.52,10,49.34,49.34,0,0,0,3,6.51,9,9,0,0,1,.81,6.92Q-271.84,1034.28-276.37,1053.39ZM-491.51,893.56c-2.12,1.69-4.06,3.61-6.14,5.35a78.36,78.36,0,0,1-7.09,5.68,13.46,13.46,0,0,1-14.14.73,38.86,38.86,0,0,1-13.36-11.44c-3-3.89-2.94-8.34-1.9-12.83a6.54,6.54,0,0,1,3.59-4.28c2.49-1.31,5.17-1.57,8-1.84,3.61.63,7.23,1.23,10.83,1.91a54.6,54.6,0,0,1,6.07,1.43c7,2.18,13.9,1.55,20.78-.38,3.08-.87,6.1-1.92,9.11-3a14.8,14.8,0,0,1,6.58-.92,8.39,8.39,0,0,1,4.77,2c2.61,2.29,2.66,5.67,0,7.9a14.67,14.67,0,0,1-7.89,3.18c-2.37.3-4.75.63-7.12,1A24.81,24.81,0,0,0-491.51,893.56Zm-16.68-3.85c-1.4-3.85-5.3-6.42-10.48-6.39a25.49,25.49,0,0,0-3.45.81,2.93,2.93,0,0,0-1.94,3.82,10.59,10.59,0,0,0,13.1,7.36C-508.25,894.45-507.23,892.38-508.19,889.71Zm196.3,103.18a177.2,177.2,0,0,1,1.9,27.73c-.5,21.64-7.53,40.67-22.23,56.75-7.73,8.46-16.4,15.75-26.61,21-15.4,7.9-31.74,10.35-48.89,7.88-19-2.74-35.76-10.54-50.78-22.28-8-6.28-14.36-14.09-20-22.52-6.6-9.92-11.93-20.44-14.95-32-2.3-8.77-2.95-17.63-.87-26.58,2.83-12.22,9.91-20.89,21.4-26,1.74-.76,3.82-1.27,5-2.56,1.42-1.52-.12-3.65-.24-5.52-.22-3.36-.42-6.7.82-9.95,2.36-6.11,7-9.42,13.26-10.39,5.34-.84,10.12.81,14.28,4.24,1.08.89,2.1,1.87,3.94,3.52.14-2.17.24-3.42.29-4.66a18.44,18.44,0,0,1,3-9.5,12.3,12.3,0,0,1,12.27-5.86c5.92.58,10.33,3.12,12.53,8.89.36,1,.94,1.84,1.74,3.39a23.26,23.26,0,0,0,.81-2.35c.39-1.87.65-3.78,1.1-5.64a15.07,15.07,0,0,1,4.57-7.73c5.14-4.62,11.5-5.84,17.9-1.07,3.65,2.72,6.23,6.38,8.48,10.29.86,1.5,1.29,3.31,3.17,4.48l3.53-.36c8.69-.88,17.28-.39,25.59,2.43,14.4,4.89,23,15.09,26.51,29.71C-313.2,983-312.55,988-311.89,992.89Zm-104.66,31.57a33.33,33.33,0,0,0-.4-4.73c-2-10.22-8.68-17.92-21.58-15.68a37.44,37.44,0,0,0-19.7,10.2c-6.33,6-7.69,13.4-4.6,21.52a26.6,26.6,0,0,0,15,15.29,19.37,19.37,0,0,0,15.39.29,21.75,21.75,0,0,0,8.75-6.5C-419,1039.23-416.68,1032.74-416.55,1024.46Zm11.84-49.69a21,21,0,0,0-9.8-7.41,3.43,3.43,0,0,0-4,.87,14.41,14.41,0,0,0-4,11.87,4.05,4.05,0,0,0,6.8,2.75,31.44,31.44,0,0,0,3-3.14,31.15,31.15,0,0,0,4.65,1,3.85,3.85,0,0,0,3.64-1.91A3.53,3.53,0,0,0-404.71,974.77Zm63.52,28c-.1-1.43-.12-2.87-.31-4.29-1.6-11.76-10.8-20.39-24.11-18-1.58.29-3.16.54-4.7,1-5.46,1.45-10.62,3.57-14.81,7.49-5.26,4.91-7.24,10.8-4.79,17.8a24.26,24.26,0,0,0,2.36,5.21c5.68,8.74,13.76,13.71,24.17,14.32,7.78.46,14-2.75,18.22-9.4A25.55,25.55,0,0,0-341.19,1002.78Zm70.69,135.45a22.37,22.37,0,0,0-5.82-6.91c-5.92-4.87-12.81-7-21.74-7.24a67.78,67.78,0,0,0-7.12,1.29c-3.6,1-5.09,3.79-4.25,7.38a15.84,15.84,0,0,0,3.15,6.39,58.61,58.61,0,0,0,10.19,10.09,19.37,19.37,0,0,0,22,1.24C-269.21,1147.63-267.9,1143.2-270.5,1138.23Zm-338.74,20.11h0a14.36,14.36,0,0,0,4.59-1.66c1.21-.73,3.18-1.5,3.64-3a2.08,2.08,0,0,0-2-2.7,7.2,7.2,0,0,0-4.25,1.34,15.2,15.2,0,0,0-4.06,2.4,2.87,2.87,0,0,0-1.35,1.12,2.94,2.94,0,0,0-.86,1.18,1.5,1.5,0,0,0,.69,1.69A4.53,4.53,0,0,0-609.24,1158.34Zm1.45-719.18c.18.44.38.88.57,1.32q22,52.9,43.94,105.83c.55,1.31,1,2.67,1.55,4.22-1,.91-1.94,1.71-2.79,2.62-2,2.09-4.18,4-5.71,6.4-4.37,6.78-2.31,13.57,4.94,17.15a12.46,12.46,0,0,0,1.76.76c8.17,2.49,12.11.43,15.5-5.4.72-1.23,1.24-2.59,1.91-3.86.35-.66.82-1.26,1.38-2.09l2,1.71c1.07.95,2,2.19,3.23,2.8,6.41,3.15,12.32,2.63,17.18-3.27,5.89-7.16,5.35-13.61-1.73-19.58a32,32,0,0,0-9-5.44,9.73,9.73,0,0,1-5.77-5.88q-20.58-48.81-41.41-97.51c-2.49-5.82-1.51-5.51,1.87-8.39,2.92-2.5,5.61-5.23,7.24-8.83a11.26,11.26,0,0,0-1.6-12.56,21.48,21.48,0,0,0-8.86-6.37c-2.86-1.15-5.73-1.05-8.11,1.1-2.12,1.91-4,4.07-6,6.14-.74.76-1.46,1.54-2.31,2.44a24.21,24.21,0,0,1-2-1.68,38.29,38.29,0,0,0-10.68-7.19c-4.68-2.35-9-1.62-13,1.33-4.87,3.5-6.17,7.92-3.85,13.43A26.87,26.87,0,0,0-614,432.54C-609.7,434.62-609.71,434.64-607.79,439.16Zm4.81,726.75a4.79,4.79,0,0,0,.34-1.36c.07-1.74-1.19-2.58-2.28-2a16.19,16.19,0,0,0-6.52,6.8,4,4,0,0,0-.29,1.4,1.52,1.52,0,0,0,1.92,1.51A12.8,12.8,0,0,0-603,1165.91Zm-2.62-782.09c-3.22,1.43-4.39,3.44-4,6.78.63,5,3.24,8.69,6.52,9a10.5,10.5,0,0,0,3.79-.28c3.86-1.09,7.79-6.46,7.88-10.55.08-3.36-2.2-5.88-5.84-6.4A15,15,0,0,0-605.6,383.82Zm16.85,772.23a15.11,15.11,0,0,0-10.39,4.15,1.44,1.44,0,0,0,.71,2.29c1.1.15,2.22.15,3.33.21,2.74,0,5.47-.13,8-1.39a4.43,4.43,0,0,0,1.8-2c.37-.81-.54-2.16-1.6-2.67A4.32,4.32,0,0,0-588.75,1156.05Zm12.14-125.77c1.57-3.16.65-5.91-1.39-8.44a5.47,5.47,0,0,0-7.71-1,14,14,0,0,0-2.85,3.18,42.83,42.83,0,0,0-2.21,3.85c-1.46-1.15-2.41-2-3.43-2.69a13.27,13.27,0,0,0-10-2.41,6.45,6.45,0,0,0-5.41,4.21,7,7,0,0,0,1.5,8,13.19,13.19,0,0,0,7.06,3.85,4,4,0,0,1,3.25,3.1c.13.47.32.91.45,1.37,1.54,5.55,3.11,11.09,4.6,16.64q6.16,22.93,12.28,45.87c1.16,4.32,2.22,8.68,3.51,13a7,7,0,0,1-1.87,7.47,24,24,0,0,0-2.24,2.5,33.51,33.51,0,0,0-2.56,4,7.55,7.55,0,0,0-.46,5.62c1.05,3.78,4.54,5.13,7.89,3.14a8.71,8.71,0,0,0,3.7-4.28c.85-2.07,1.47-4.22,2.23-6.32.25-.7.62-1.34,1.09-2.33,1.32.91,2.32,1.63,3.35,2.3a8,8,0,0,0,10.15-.76c4.31-3.86,3.17-9.88-2.27-11.88a11.45,11.45,0,0,0-2.34-.49,3.22,3.22,0,0,1-2.81-2.86c-.13-.62-.24-1.25-.38-1.88q-6.67-29-13.36-58c-.9-3.89-1.74-7.8-2.75-11.67-.81-3.07-.88-5.94.92-8.75A45.28,45.28,0,0,0-576.61,1030.28Zm-7.14,119.17a5.56,5.56,0,0,0-3.71-1.94,20.34,20.34,0,0,0-10.26,1.41c-.44.17-.78.93-.88,1.47,0,.3.41.84.77,1,2.73,1.53,5.77,1.55,9.29,1.81a36.92,36.92,0,0,0,3.74-.41A2.07,2.07,0,0,0-583.75,1149.45Zm407.31-768.64c-5.16-.9-11.24,3-12.61,8-.85,3.16.82,5.32,4.3,5.36,2.54-.29,5.22-.55,7.66-1.95a8.2,8.2,0,0,0,4.2-7.05A4.08,4.08,0,0,0-176.44,380.81Zm-70.68,754a23.68,23.68,0,0,0-11.24-1.64,6.28,6.28,0,0,0-4.26,1.92,4.19,4.19,0,0,0-1,2.53c0,1,1,1.66,1.91,1.86a25.71,25.71,0,0,0,3.11.36,33.67,33.67,0,0,0,11.45-1.91c.74-.26,1.46-.88,1.19-1.79A2.31,2.31,0,0,0-247.12,1134.78ZM-619.26,369.41a8.53,8.53,0,0,0,7.4.35,40.37,40.37,0,0,0,8.61-5.16,29.49,29.49,0,0,1,2.76-1.63c1.36,2.7,2.38,5.23,3.82,7.5,3.33,5.24,7.6,6.91,14.54,5.87a8,8,0,0,0,5.83-3.87c2.23-3.74,3-7.78,1.52-12a22.7,22.7,0,0,0-3-6c-1.66-2.24-1.51-4.3-.69-6.72q9-26.31,17.85-52.68,8.43-25,16.78-50c1.73-5.15,3.58-10.26,5.29-15.42a3.88,3.88,0,0,1,3.4-2.92c.79-.11,1.59-.19,2.37-.37a26.21,26.21,0,0,0,9.72-3.9,10.49,10.49,0,0,0,4.63-6.47,13,13,0,0,0-12-15.31,23.43,23.43,0,0,0-10.24,2.14c-1.43.6-2.86,1.23-4.59,2a19,19,0,0,1-.72-2.47c-.45-3.46-2.14-6.33-4.11-9.08a7,7,0,0,0-7.12-3,15.93,15.93,0,0,0-7.86,3.33c-2.64,2.06-3.74,4.87-2.72,8.09a30.76,30.76,0,0,0,3,6.49,25.92,25.92,0,0,0,3.85,4.89,4.56,4.56,0,0,1,1.13,5.24c-.28.75-.48,1.53-.71,2.29q-9.08,29.58-18.14,59.15-8.62,28.2-17.26,56.41c-.46,1.49-.7,3.15-2.35,4.34l-2.12.28c-4,.47-8,.83-11.89,1.44a28.09,28.09,0,0,0-10.37,3.58c-2.79,1.67-4.54,4-4.48,7.41a35.34,35.34,0,0,0,.26,5.74A13.57,13.57,0,0,0-619.26,369.41ZM-198,355.9a13,13,0,0,0-1.69.9c-2.53,1.68-5.15,3.24-7.53,5.11-8.25,6.47-14.33,14.52-17.53,24.61a19.24,19.24,0,0,0-1,8c.35,3.3,1.94,4.81,5.27,5.15a14.25,14.25,0,0,0,6.57-1A49.8,49.8,0,0,1-207,396.5c5.61-1.22,9.3-4.59,11.69-9.7a50.32,50.32,0,0,0,4.77-20.4,67.43,67.43,0,0,0-.72-7.14C-192.07,355.34-194.4,354.26-198,355.9Zm21.54-9.45a3.28,3.28,0,0,0,3.22-3.35,2.41,2.41,0,0,0-2.17-2.11,3.3,3.3,0,0,0-3.17,3.42A2.05,2.05,0,0,0-176.43,346.45Zm11,31.93c-1.92.65-3.9,2.3-4.24,4.4a3.35,3.35,0,0,0,0,.63.38.38,0,0,1,0,.1,2.46,2.46,0,0,0,.1.47c0,.06.05.11.07.17a1.81,1.81,0,0,0,.42.6,2.27,2.27,0,0,0,1.6.86,7.59,7.59,0,0,0,3-.14c2.15-.43,4.15-2.19,4.09-4.51C-160.41,378.26-163.29,377.67-165.4,378.38ZM-164,371a3.84,3.84,0,0,0,1.88-3.61,2.23,2.23,0,0,0-2-2.28,6.41,6.41,0,0,0-6.29,3.38c-1.09,2.09,0,3.84,3.15,3.75A23.26,23.26,0,0,0-164,371Zm-4.82-8.58a6.43,6.43,0,0,0,3.61-1.27,3,3,0,0,0,1.43-2.45,2.75,2.75,0,0,0-1.42-2.5c-1.5-.82-3.25.08-4.56,1.09l0,0c-.28.22-.54.44-.77.65a1.56,1.56,0,0,0-.35.46c-.74,1-1.12,2.44-.11,3.44A2.32,2.32,0,0,0-168.86,362.43Zm.83-13.58a2,2,0,0,0-2-2.18,5,5,0,0,0-4.41,3.79,2,2,0,0,0,1.31,2.26A4.47,4.47,0,0,0-168,348.85Zm-77.33,799.94a1.86,1.86,0,0,0-.56-1.66,16.38,16.38,0,0,0-11.78-4.24,5,5,0,0,0-2.57,1c-1.81,1.39-1.48,3.57.56,4.57a18.45,18.45,0,0,0,8.82,1.62,25.31,25.31,0,0,0,3.8-.06A2.73,2.73,0,0,0-245.36,1148.79Zm-5,8.15a19.57,19.57,0,0,0-9.86-6.31,4.33,4.33,0,0,0-4,.8c-1.47,1.11-1.66,2.93-.23,4a12.62,12.62,0,0,0,3.68,2.1c2.85.94,5.79,1.61,8.32,2.29.71,0,1,0,1.34,0a1.51,1.51,0,0,0,1.24-2.09A4.11,4.11,0,0,0-250.38,1156.94Zm-17.68-.32a3,3,0,0,0-3.1.56,2.46,2.46,0,0,0-.64,2.62c1.08,4.66,4.18,8.06,7.26,11.46.5.56,1.73.12,2-.61s.31-1.21.38-1.49a20,20,0,0,0-2.16-9A6.61,6.61,0,0,0-268.06,1156.62Zm27.78,7.37a7.28,7.28,0,0,0-1.93-1.35,3.37,3.37,0,0,0-3.95.56,3,3,0,0,0-.24,3.15,10.13,10.13,0,0,0,.61,1.29,28.73,28.73,0,0,0,6.2,7.33c.71,1,1.79,2.14,3,1.79a1.49,1.49,0,0,0,1.05-1,2.52,2.52,0,0,0-.17-1.45C-236.5,1170.4-237.58,1166.84-240.28,1164Zm9.33-21.91a1.26,1.26,0,0,0-.31-.25,21.11,21.11,0,0,0-8.84-4.33,3.74,3.74,0,0,0-1-.06,1.8,1.8,0,0,0-1.71,2.61,6.22,6.22,0,0,0,1.09,1.54,15.11,15.11,0,0,0,8.07,3.8c1,.29,2.39.77,3.26,0a1.72,1.72,0,0,0,.41-2.08A5,5,0,0,0-230.95,1142.08Zm-1,15.12a22.19,22.19,0,0,0-6.12-6.61,4.74,4.74,0,0,0-1.29-.59,1.81,1.81,0,0,0-2.45,2,12.16,12.16,0,0,0,6.31,7.88l.07.05a8.59,8.59,0,0,0,2,1.17,1.68,1.68,0,0,0,2.12-1,2.49,2.49,0,0,0-.23-2A5.91,5.91,0,0,0-232,1157.2ZM-232.89,964a41.84,41.84,0,0,0-8.16-4,12.07,12.07,0,0,1-6.22-4.91c-6.37-9.4-12.85-18.73-19.29-28.07-11.43-16.6-22.82-33.22-34.34-49.75-1.88-2.71-2.86-5.09-1.13-8.32a12.47,12.47,0,0,0,.84-8c-.66-4-4.86-8-8.85-8.37a5.6,5.6,0,0,0-3.22.57,15.31,15.31,0,0,0-4.07,3.25A17.57,17.57,0,0,0-321.59,867c-.07,1.22-.32,2.43-.52,3.88-1.41,0-2.51,0-3.6,0a34.51,34.51,0,0,0-4.78.16c-5.93,1-8.31,6.73-4.79,11.52a11,11,0,0,0,7,4.71,59.62,59.62,0,0,0,6.65.76,4.89,4.89,0,0,1,4.07,2.12c.36.53.77,1,1.15,1.54q25.77,34.33,51.53,68.7c.75,1,1.35,2.11,2.17,3.4a25.84,25.84,0,0,1-2.64,1.43c-1.63.65-3.36,1.05-4.94,1.8a8.94,8.94,0,0,0-4.58,5.31,5.56,5.56,0,0,0,.13,4.2,10.91,10.91,0,0,0,16.49,4.39c1.12-.87,2.16-1.85,3.49-3a34.82,34.82,0,0,1,7.73,4.57,15.66,15.66,0,0,0,5.62,2.6c5.4,1.21,11.18-1.67,12.93-6.66C-226.82,973.64-227.12,967.64-232.89,964ZM-231,359.52c-5.2-7.45-10-6.69-15.14-3.6a27.52,27.52,0,0,0-6.72,5.34c-2.31,2.67-4.54,2.83-7.59,1.59-3.39-1.38-7-2.3-10.48-3.39q-37.08-11.54-74.16-23c-10.37-3.24-20.7-6.62-31.1-9.78a6.62,6.62,0,0,1-4.76-4.21,29,29,0,0,0-2.86-5.5,13.78,13.78,0,0,0-9.89-6.1,8.6,8.6,0,0,0-7.54,2.23c-3.84,3.63-6,8-4.35,13.33a49.64,49.64,0,0,0,3.17,6.93,22.13,22.13,0,0,0,1.61,2.43c-1.54,1.35-3.4,1.41-5,2.11-2.48,1.1-5,2.1-7.39,3.36a7,7,0,0,0-3.59,4.33,13.68,13.68,0,0,0,.76,10.26,18.9,18.9,0,0,0,7.61,7.76,8.34,8.34,0,0,0,8.23.41,30.32,30.32,0,0,0,9-6.31c2.92-2.94,5.69-6,8.39-9.2,1.32-1.55,2.61-2.08,4.58-1.38,4.37,1.56,8.78,3,13.18,4.43q51,16.88,101.93,33.77c6.42,2.15,5.83.46,7.73,8.13a20.41,20.41,0,0,0,4.73,9.31,7.6,7.6,0,0,0,8.32,2.18,16,16,0,0,0,6.9-4.19,6.94,6.94,0,0,0,1.86-7.47c-1.09-3.2-2.28-6.32-4.94-8.62a14.12,14.12,0,0,1-1.6-2.09c1.39-.67,2.53-1.17,3.61-1.77a44.51,44.51,0,0,0,5.75-3.39,8.41,8.41,0,0,0,3.24-8.51A22.53,22.53,0,0,0-231,359.52ZM-545.8,724.68a77.49,77.49,0,0,0,30.32,7,54.23,54.23,0,0,0,7-.86,25.22,25.22,0,0,0,6.16-2.55,10.94,10.94,0,0,0,4.87-6.33c1.35-3.91-.3-6.3-4.4-6.44a18.8,18.8,0,0,0-3.82.28,68.71,68.71,0,0,1-39.38-5.09,37.79,37.79,0,0,0-4.89-2,19.41,19.41,0,0,0-5.18-.74c-2.36,0-3.49,1.65-2.87,3.88a16.61,16.61,0,0,0,4.4,7.32A26.62,26.62,0,0,0-545.8,724.68Zm76.95-64.07a10.39,10.39,0,0,0,2.8-8.81,6.86,6.86,0,0,0-6.36-6.16,13.51,13.51,0,0,0-11.36,3.94c-2.73,2.73-2.74,6.07-.08,8.95a12.46,12.46,0,0,0,9.72,4.13A6.42,6.42,0,0,0-468.85,660.61Zm-2.41,147.78c1.64,7,3.68,13.91,7.12,20.29a40.33,40.33,0,0,0,4.22,6.36c2.12,2.59,5,3.24,8.25,2.37a11.47,11.47,0,0,0,7.64-6.72,18,18,0,0,0,.92-11.74c-.77-3.42-1.69-6.82-2.78-10.16a530.32,530.32,0,0,1-22.67-104.18,19.57,19.57,0,0,0-1.77-5.91,4.13,4.13,0,0,0-5.29-2.07,10.24,10.24,0,0,0-3.2,2,15.34,15.34,0,0,0-3.88,6.52,52.31,52.31,0,0,0-2.68,19.34c0,1.12-.07,2.24,0,3.36a331.83,331.83,0,0,0,6.06,45.06C-476.85,784.78-474,796.58-471.26,808.39ZM-575,775.26a3.37,3.37,0,0,0-3.2,4,11.72,11.72,0,0,0,1,3.16,28.11,28.11,0,0,0,5.48,7.81,43.25,43.25,0,0,0,16.84,10.7,79.52,79.52,0,0,0,27.76,4.56c10.81.1,21.28-2.07,31.68-4.7a6.88,6.88,0,0,0,4.32-2.84,14.55,14.55,0,0,0,2.46-8.61c-.12-2.41-1.25-3.91-3.69-4.36a18.72,18.72,0,0,0-5.69-.17c-3.49.42-6.92,1.25-10.4,1.72a103.93,103.93,0,0,1-51.81-6.08c-3.13-1.19-6.18-2.6-9.23-4A10.79,10.79,0,0,0-575,775.26Zm14.38,54.16a30.9,30.9,0,0,0,11.72,8.86c6.08,2.78,12.56,3.51,19.14,3.77a92.53,92.53,0,0,0,29.4-6c3.87-1.5,7.64-3.23,11.46-4.85a6,6,0,0,0,4-4.47,24.56,24.56,0,0,0,.23-6.63c-.31-2.58-2.05-3.9-4.71-3.76a20.53,20.53,0,0,0-5.13,1c-2.43.78-4.77,1.82-7.17,2.7-14.05,5.15-28.43,7.13-43.28,4.29-3.59-.69-7.15-1.59-10.74-2.35a14.59,14.59,0,0,0-3.75-.5,3.32,3.32,0,0,0-3.09,4.73A12.32,12.32,0,0,0-560.61,829.42Zm117.27-106.54c3,2.77,6.74,3.46,11.71,3.77,2.42-.51,5.92-1,9.27-2A81.79,81.79,0,0,0-393.51,709a30.77,30.77,0,0,0,5-5.12,31.17,31.17,0,0,0,3.8-6.6,13.2,13.2,0,0,0,.79-5.14c0-2.54-1.79-3.7-4.27-2.79a26.87,26.87,0,0,0-5.12,2.55,56.26,56.26,0,0,0-4.94,3.79,81.23,81.23,0,0,1-32.9,16c-3.42.81-6.92,1.29-10.29,2.26C-447,715.49-447.64,718.91-443.34,722.88Zm25,105.52c4.79.3,9.57.66,15.05,1,4.41-.32,9.54-.47,14.6-1.11a78.21,78.21,0,0,0,25.24-7.12,43.32,43.32,0,0,0,15.34-12,28.39,28.39,0,0,0,4.82-8.77c1.11-3.53-.9-5.76-4.48-5a10.81,10.81,0,0,0-2.66,1c-1.27.67-2.49,1.44-3.71,2.18a103.86,103.86,0,0,1-41.37,14.21,96.64,96.64,0,0,1-19.61.65,24.48,24.48,0,0,0-8.57.48c-2.64.74-3.82,2.2-3.5,4.89C-426.55,824.3-424.09,828-418.33,828.4Zm-16.25,43.8a13.28,13.28,0,0,0-7.06,6.79c-2.9,6.29-.3,10.81,6.73,10.91a12.35,12.35,0,0,0,6.78-1.95,7.35,7.35,0,0,0,3.87-6.69,10.93,10.93,0,0,0-3.31-7.68A6,6,0,0,0-434.58,872.2ZM-566.2,738.38a2.38,2.38,0,0,0-2.47,1.9,6.15,6.15,0,0,0-.14,3.23,15,15,0,0,0,2.28,4.15c4.67,6.15,10.88,10.25,17.92,13.2,9.14,3.84,18.75,5.07,29.36,5.19.64,0,2.08-.07,3.52-.18,2.86-.21,5.75-.32,8.59-.74,3.15-.46,6.28-1.13,9.39-1.85a7.45,7.45,0,0,0,4.85-2.84,15.23,15.23,0,0,0,2.57-8.12,4.17,4.17,0,0,0-3.38-4.6,20.17,20.17,0,0,0-6.15-.39c-4.6.42-9.19,1.11-13.78,1.7A71,71,0,0,1-556,741.92a52.52,52.52,0,0,0-5.6-2.72A16.37,16.37,0,0,0-566.2,738.38ZM-177,359.56a9.26,9.26,0,0,0-3.79,1.43.94.94,0,0,0-.19.14,6.47,6.47,0,0,0-2.48,2.59c-.87,1.65.19,3.21,2.11,3.13a9.56,9.56,0,0,0,2.17-.36c2.38-.34,5.35-1.78,5.33-4.4C-173.88,360.28-175.38,359.42-177,359.56Zm-3.12,10.49a9.13,9.13,0,0,0-3.62,2.65,3.15,3.15,0,0,0-.84,2.45,2.13,2.13,0,0,0,1.47,1.93c3.48,1.24,11.54-1.92,9.17-6.61C-175.3,367.83-178.16,369-180.14,370.05ZM-439.59,848.32c-5.5,0-10.67,1.68-15.73,3.59a5.34,5.34,0,0,0-3.47,4.77,8.54,8.54,0,0,0,6.48,9.31c1.53.4,3.12.56,4.27.76,4.92-.39,9.31-1.08,13.18-3.58a7.3,7.3,0,0,0,3.16-9.12A7.75,7.75,0,0,0-439.59,848.32Zm258.11-496.14a5.85,5.85,0,0,0-1.23,1,5.91,5.91,0,0,0-2,2.8,1.91,1.91,0,0,0,2,2.49l.07,0a3.9,3.9,0,0,0,1.15-.18,6.93,6.93,0,0,0,3.05-1.38c1-.77,2.22-1.72,2.24-3.08a2.5,2.5,0,0,0-3-2.37,5.07,5.07,0,0,0-2,.64Zm-4.87-.23a8.88,8.88,0,0,0,1.54-.58,8.68,8.68,0,0,0,2.66-1.43c1.07-.84,2.27-2.05,1.84-3.53a2,2,0,0,0-1.39-1.4,4.52,4.52,0,0,0-3.52.55s-.05,0-.07.05a6.65,6.65,0,0,0-3.44,4.24A1.87,1.87,0,0,0-186.35,352Zm-254,61.51a48.27,48.27,0,0,0,8.09,2.92c2.59.62,3.41,1.86,3.41,4.38,0,1,.07,1.92.1,2.88q.84,29.48,1.69,59,.57,19.65,1.14,39.31c.06,2.24.06,4.48.25,6.71a8,8,0,0,1-2.14,6.57,36.24,36.24,0,0,0-4,5.93,17.63,17.63,0,0,0-2.56,8.16c-.2,3.58.84,6.72,3.73,8.9a36.11,36.11,0,0,0,6.91,4.24c4.79,2.15,8.06,1.33,11.69-2.38a11.51,11.51,0,0,0,2.86-4.91,23.36,23.36,0,0,1,1.46-3.12l2.59,1.79a52,52,0,0,0,4.74,3.22,10.46,10.46,0,0,0,12.12-1,17.69,17.69,0,0,0,4.77-5.31c3.11-5.47,2-11.1-3-14.9a22.75,22.75,0,0,0-7.31-3.5c-1.81-.55-3.77-.73-5.47-2a17.89,17.89,0,0,1-.41-2.27c-.46-8.46-.93-16.92-1.34-25.39-.72-15.17-1.38-30.34-2.12-45.51-.76-15.65-1.58-31.29-2.36-46.94-.06-1.12,0-2.25-.13-3.36a5.53,5.53,0,0,1,1.7-4.78,19.52,19.52,0,0,0,1.83-2.21,27.28,27.28,0,0,0,5.35-19.4,9,9,0,0,0-5.92-8,18,18,0,0,0-4.61-1.26,10.67,10.67,0,0,0-10.27,3.86A41,41,0,0,0-424.43,386c-.45,1.15-1,2.26-1.69,3.73a52.53,52.53,0,0,0-4.87-2.38,58.93,58.93,0,0,0-7.32-2.15,6.22,6.22,0,0,0-6,2.16,23.4,23.4,0,0,0-5.65,9.89,11.48,11.48,0,0,0,2.7,11.14A19.74,19.74,0,0,0-440.37,413.46Zm6-37.25c4.5-.4,8.28-2.3,10.52-6.46a24.13,24.13,0,0,0,1.25-3.77,13.22,13.22,0,0,0-1.55-3.38,12,12,0,0,0-9.13-4.49,5.31,5.31,0,0,0-3.07,1c-3.07,2.26-5.11,8.95-4,12.62C-439.5,374.58-437.24,376.47-434.34,376.21ZM-551.26,133.84a3.18,3.18,0,0,0,2.21,1.07,2.9,2.9,0,0,0,2.91-3.16,6.21,6.21,0,0,0-1.35-4,4.58,4.58,0,0,0-2.22-1.36,4.47,4.47,0,0,0-1.4-.28,2.19,2.19,0,0,0-.51,0l-.21,0a2.35,2.35,0,0,0-1.86,2.18A6.71,6.71,0,0,0-551.26,133.84Zm-8.34,6c.26,2.86.85,5.63,3.54,7.31,1.6,1,3.22.09,3.29-2.08a7.22,7.22,0,0,0-2.36-5.69,5.37,5.37,0,0,0-2.49-1.13A1.78,1.78,0,0,0-559.6,139.8Zm.31-4.85a2.1,2.1,0,0,0,2.49-.86c1.09-2.33-.57-5.9-3-6.51a2.13,2.13,0,0,0-2.87,2.19C-562.66,132.37-561.39,134.29-559.29,135ZM-575,141.3a2.07,2.07,0,0,0,2.1-2.06,3.16,3.16,0,0,0-3.17-3.34,2.36,2.36,0,0,0-2.21,2A3.48,3.48,0,0,0-575,141.3Zm3.27,2.74a3,3,0,0,0-1.38-.23c-.93,0-2,1.07-1.74,1.91.64,2.53,1.63,4.84,4.28,5.94,1.29.54,2.68-.48,2.54-2.41A7,7,0,0,0-571.75,144Zm-.14-9.42a5.35,5.35,0,0,0,2.07,2.46.83.83,0,0,0,.16.09,1.75,1.75,0,0,0,.82.35,2.12,2.12,0,0,0,1.72-.25,1.87,1.87,0,0,0,.79-2.23,4.38,4.38,0,0,0-.23-1.11,6.55,6.55,0,0,0-1.44-2.44c-1-1-2.64-1.5-3.77-.43s-.75,2.37-.16,3.5Zm21.68,5.48a11.08,11.08,0,0,0,2.34,6.64,5.36,5.36,0,0,0,1.92,1.36,2.21,2.21,0,0,0,3.39-1.85,9.14,9.14,0,0,0-2.65-7,5.39,5.39,0,0,0-2-1.2A2.2,2.2,0,0,0-550.21,140.1ZM-568,142.83a22.13,22.13,0,0,0,2.1,3.74,3.08,3.08,0,0,0,3.79,1.13c.83-.5,1.08-2.11.42-3.53-.89-1.92-2-3.63-3.61-3.81C-567.5,140.2-568.56,141.53-568,142.83Zm118.43,794.59a8.51,8.51,0,0,0,5.53-6.14c.58-2.14,1-4.31,1.8-7.48,1.22,1.55,1.87,2.4,2.55,3.22a23.66,23.66,0,0,0,2.86,3.2,7.83,7.83,0,0,0,12.67-4.62,47.87,47.87,0,0,0,.3-5.24,23.65,23.65,0,0,1,.51-2.5,21.05,21.05,0,0,1,2.34,1.33c1.63,1.29,3.14,2.71,4.81,3.95a12.19,12.19,0,0,0,9,2.58,6.89,6.89,0,0,0,6.05-5.33,11.69,11.69,0,0,0-1-8.36,16,16,0,0,0-9.3-7.8,26,26,0,0,0-12.77-.72,81.61,81.61,0,0,0-24.74,8.66,33.28,33.28,0,0,0-5.83,4.13,10.85,10.85,0,0,0-3.52,5.6,21.05,21.05,0,0,0,.65,11.8C-456.5,937.31-453.11,938.71-449.54,937.42Zm82.38-222.91a19.79,19.79,0,0,0-4.9,2.9c-1.89,1.46-3.55,3.21-5.36,4.78a81,81,0,0,1-29.86,16.75c-7.51,2.24-15.19,3.7-22.85,5.26a57,57,0,0,0-9.65,2.68c-3,1.18-3.89,3.71-2.53,6.68a20.81,20.81,0,0,0,3.22,4.71c1.65,1.92,3.88,2.74,7.2,2.63,1.44-.21,3.65-.61,5.87-.85a104.48,104.48,0,0,0,28.19-7.31c9.55-3.9,18.38-8.94,25.61-16.46a40.74,40.74,0,0,0,8.92-13.5,13.33,13.33,0,0,0,.88-5.11A3.37,3.37,0,0,0-367.16,714.51Zm21.9,31.83a13.67,13.67,0,0,0-4.36,1.81,42.42,42.42,0,0,0-4.47,3.6c-16.23,14-35.05,22.6-55.86,27.08-4.84,1-9.77,1.6-14.64,2.49a23.57,23.57,0,0,0-5,1.45c-3.17,1.36-4.05,3.77-2.78,7.05,2,5.1,5.49,7.46,11,7.37.48,0,1,0,2.43,0,3.14-.39,7.27-.83,11.38-1.42a123.68,123.68,0,0,0,38.67-12.12A65.7,65.7,0,0,0-351.54,771a37.07,37.07,0,0,0,9.67-16.3,17.79,17.79,0,0,0,.57-5.19A3.31,3.31,0,0,0-345.26,746.34ZM-537.54,134a3.78,3.78,0,0,0,4.28-.12c1.28-1.11,1-2.94.41-4.34-1-2.27-3.29-5.42-6.16-4.76-1.84.43-2.31,1.9-2.11,3.46A7.52,7.52,0,0,0-537.54,134ZM-406,868c-3.17-1.58-3.9-4.72-1.9-7.64,1.74-2.55,5-3.95,9.18-3.77l2.54.32,7.61,1a37.33,37.33,0,0,0,22.38-3.4c4-2,8.15-3.68,12.29-5.36a18.87,18.87,0,0,1,9.9-1.07,6.2,6.2,0,0,1,4.92,3.42c1.95,3.84,2.85,7.84,1,12a41,41,0,0,1-11.66,15.6,12.42,12.42,0,0,1-13.94,1.64,53.68,53.68,0,0,1-5.42-3.06c-2.59-1.59-5.09-3.31-7.7-4.87a27.08,27.08,0,0,0-17-3.74c-1.59.16-3.18.37-4.77.46A14.6,14.6,0,0,1-406,868Zm43.15-1.2a3.86,3.86,0,0,0,4.14,4.18c5.3.08,10.52-4.53,11.2-9.89a3.35,3.35,0,0,0-3.05-4c-4.54-.72-10,2.28-11.71,6.49A9.45,9.45,0,0,0-362.89,866.84ZM-538.56,141.32a13.29,13.29,0,0,0,2.25,9.11,9.51,9.51,0,0,0,6.37,3.91,3.67,3.67,0,0,0,4.22-3c.11-.57.13-1.17.24-2.44,0-.25,0-.49-.07-.73a38.85,38.85,0,0,0-1.58-5.68c-1.25-3.1-3.85-4.56-7.15-4.73A3.74,3.74,0,0,0-538.56,141.32Zm15.63,435.93a11.12,11.12,0,0,0,8.5-5.57c.85-1.35,1.7-2.71,2.63-4a15.77,15.77,0,0,1,6.59-5.39c5.22-2.28,10-1.48,14.43,1.87a38.81,38.81,0,0,1,4.33,4.45,50.22,50.22,0,0,0,3.95,4.16,9.51,9.51,0,0,0,13.4-.78,29.21,29.21,0,0,0,2.87-3.81c.91-1.32,1.68-2.73,2.61-4a14.53,14.53,0,0,1,22.54-1.76c1.22,1.26,2.37,2.59,3.51,3.93a12.32,12.32,0,0,0,10.11,4.57c1.44,0,2.88,0,4.32,0a19.23,19.23,0,0,1,12,4.18,33.3,33.3,0,0,1,10.07,12.62,59.85,59.85,0,0,1,5.73,24.56c.12,4.63.12,9.25-1.27,13.78-2.26,7.38-7,11.94-14.53,13.79-7.74,1.91-15.57,1.7-23.34.59q-12.33-1.77-24.54-4.28a43.68,43.68,0,0,0-23.61,1.27c-7.25,2.5-14.53,4.91-21.88,7.09s-14.57,3.7-22.15,3.58a36.29,36.29,0,0,1-6.64-.81c-6.84-1.42-11.29-5.67-13.75-12.1a47.66,47.66,0,0,1-3-17.38v-2.46a48.56,48.56,0,0,1,4.72-22.72,30.5,30.5,0,0,1,6-8.65c3.37-3.37,7.25-5.72,12.16-6.06C-525.77,577.8-524.36,577.42-522.93,577.25Zm74.19,19.32a19.26,19.26,0,0,0-4.22,2.2,12.7,12.7,0,0,0-4.7,14.4c2,6.29,6.36,10.12,12.54,12.07a42.92,42.92,0,0,0,15.62,1.49c2.71,0,5.43.14,8.13,0,4.72-.3,7.61-2.68,9-7.24,2.08-6.88.53-13.26-3-19.26a13.15,13.15,0,0,0-11.78-7A58.63,58.63,0,0,0-448.74,596.57ZM-459.43,589a16.24,16.24,0,0,0,11.68-4.64,9.09,9.09,0,0,0,1.83-2.77,4.58,4.58,0,0,0-1.63-5.91,11.14,11.14,0,0,0-7.14-2c-4.85-.36-9.59,4.08-10.09,9.06C-465.16,586.53-463.27,589-459.43,589Zm-41.81-.5a16.33,16.33,0,0,0,9.11,2.73c2.46,0,5.11-.1,6.55-2.71,1.6-2.91.26-5.51-1.3-8a6.81,6.81,0,0,0-.92-1.09c-3.23-3.29-7.65-4-12.3-1.88C-505.74,580.1-506.28,584.94-501.24,588.5ZM-520,599.36a13.85,13.85,0,0,0-11.52,8.19,24.77,24.77,0,0,0-2.4,9.17,25.43,25.43,0,0,0,1.69,10.36c1.92,4.78,5.47,6.83,10.58,6.32,2.86-.29,5.72-.52,8.57-.91,5.22-.72,10.39-1.71,15.13-4.19a17.67,17.67,0,0,0,8.49-8.75c3.76-8.79.16-16.84-8.66-19.32a24.4,24.4,0,0,0-3.27-.7A72,72,0,0,0-520,599.36Zm-10.65-437.09a43.6,43.6,0,0,0-30-7.47,8.4,8.4,0,0,0-2.73.79,3.3,3.3,0,0,0-1.81,4,15.87,15.87,0,0,0,1.46,3.51c1.6,2.76,3.19,5.54,5,8.15a48.65,48.65,0,0,0,24.21,18.68,39.33,39.33,0,0,0,5.06,1.2c5.24,0,7.57-2.17,7.69-6.4a12.34,12.34,0,0,0-.46-3.3c-1-3.85-2.13-7.67-3.09-11.54A12.52,12.52,0,0,0-530.63,162.27Z" transform="translate(1226.49 -124.66)"/><path d="M-1219.61,453.52c1.45-5.07,5.15-8.35,10.32-8.55a43.71,43.71,0,0,1,10.48.68,10.87,10.87,0,0,0,7.34-1.07q14.27-6.82,28.6-13.53,27.6-12.87,55.23-25.64c2-.94,4-2,6.06-2.89a4.91,4.91,0,0,0,3.26-4.31,21.92,21.92,0,0,1,1.4-5.56,11.1,11.1,0,0,1,10.78-7.32c3.75,0,6,1.55,7.27,5.05,1.77,4.94,1.19,9.75-.91,14.45-.45,1-1,2-1.7,3.2.77.58,1.45,1.17,2.2,1.63,1.89,1.18,3.9,2.18,5.69,3.49a7.45,7.45,0,0,1,2.79,4.89,6.69,6.69,0,0,1-3.46,6.83c-3.53,1.91-7.22,2.56-11.06.91a41.44,41.44,0,0,1-4.76-2.26,5.47,5.47,0,0,0-5.44-.23q-10.53,4.65-21.16,9.08-30.49,12.81-61,25.58c-1.45.61-3,1-4.28,2.49a13.22,13.22,0,0,0,1.15,1.94c.91,1.12,2,2.12,2.86,3.23a10.29,10.29,0,0,1,2.27,5.71c.41,4.41-1.91,7.38-6.33,8.07-.94.14-1.91.14-2.87.2-4.52.26-8-1-10.15-6.92-.47-1.34-1-2.67-1.57-4.27a42.89,42.89,0,0,0-9.55.19,12.59,12.59,0,0,1-9.44-2.66A11.3,11.3,0,0,1-1219.61,453.52Zm143.42-179.87c-.33-8.63-.93-17.25-.9-25.88a108.88,108.88,0,0,1,6.66-38.54,78.59,78.59,0,0,1,15-24.91c10.76-12,23.35-21.32,38.56-26.86a81,81,0,0,1,40.55-4.3c24,3.64,44,14.8,61,31.82a59.58,59.58,0,0,1,8.54,11.53A191,191,0,0,1-888.14,239c5.92,19.1-3,44.24-26.48,53-3.72,1.39-7.68,2.12-11.54,3.14a5.6,5.6,0,0,0-1.81.47,2,2,0,0,0-.82,1.53,9,9,0,0,0,.93,2.16,66.68,66.68,0,0,1,2.73,6.64c1.3,4.36,1.17,8.61-2.35,12s-7.78,4.81-12.75,3.39a21.11,21.11,0,0,1-10.32-6.65c-.81-.92-1.65-1.81-3.22-3.54-.3,2.56-.42,4-.64,5.37a20.47,20.47,0,0,1-6.39,12.06c-3.3,3-6.92,4.08-11.45,2.45-5.24-1.88-8.69-5.18-10.38-10.42-.39-1.21-.64-2.48-1.08-3.67-.19-.5-.71-.89-1.48-1.79-.41,1.42-.71,2.26-.89,3.12a28.67,28.67,0,0,1-6,12.41c-3.94,4.83-9.4,6-15.05,3.41a16.93,16.93,0,0,1-8.59-9.27,48.17,48.17,0,0,1-2.91-11.59c-.16-1.08-.43-2.14-.62-3.1-1.91-1.08-3.66-.42-5.36-.24a65.41,65.41,0,0,1-23.76-1.9,40,40,0,0,1-13-6,32.86,32.86,0,0,1-11.88-15.3A40.6,40.6,0,0,1-1076.19,273.65Zm106.92-39.78a43.51,43.51,0,0,0,.54,4.68c2.12,10,8.43,16.69,20.57,15.49A38.23,38.23,0,0,0-927,244.78c6.89-5.83,8.91-14.08,5.81-22.57a27.38,27.38,0,0,0-15.74-16.49,19.38,19.38,0,0,0-12.65-1.1,23.19,23.19,0,0,0-12,7.55C-966.72,218.23-969.15,225.35-969.27,233.87ZM-984,277.4c0,4.71,1.66,6.28,5.88,5.75A36.82,36.82,0,0,0-972,282a97.71,97.71,0,0,0,9.89-3.54c2.17-.93,2.69-2.44,2.1-4.72a10,10,0,0,0-1.12-2.62,19.12,19.12,0,0,0-9.78-8.09c-4.16-1.57-7-.67-9.51,3A23.28,23.28,0,0,0-984,277.4Zm-63.7-16.82c2.49,10.67,10.13,16.75,21.89,16.57a61.23,61.23,0,0,0,6.27-.71c5.7-1.12,11.11-3,15.7-6.76,6.49-5.27,8.58-12.46,5.47-20.19-4.41-11-12.83-17.23-24.32-19.49a20.72,20.72,0,0,0-21.53,9.39A27.2,27.2,0,0,0-1047.72,260.58Zm-121,405.54c.73.36,1.59.58,2.13-.21a2.22,2.22,0,0,0,.36-1.75c-1.45-3.5-2.71-7.13-5.23-10.07a14.69,14.69,0,0,0-2.49-2.16,6.11,6.11,0,0,0-1.67-.5,11,11,0,0,0-1.88,2.41,5.09,5.09,0,0,0,.6,4.56A19.64,19.64,0,0,0-1168.77,666.12Zm140-85.56a20.77,20.77,0,0,0,4.91-1.85c2.39-1.29,4.65-2.81,6.92-4.29,8-5.18,16.35-9.41,25.65-11.57a70.61,70.61,0,0,1,15.18-2,17.42,17.42,0,0,0,7.48-1.4c2.28-1.09,2.94-2.87,1.88-5.14a13.2,13.2,0,0,0-6.37-6.25c-3.27-1.64-6.76-1.77-10.74-1.81a37.18,37.18,0,0,0-15.44,3.07,114.31,114.31,0,0,0-20.47,10.43,54.15,54.15,0,0,0-7.41,6,18.55,18.55,0,0,0-5.13,8.55,12.28,12.28,0,0,0-.5,2.81A3.19,3.19,0,0,0-1028.82,580.56Zm-150.82,77.75c-1.25-1.76-3.11-1.6-4.3.24a13.18,13.18,0,0,0-1,2.58,17.26,17.26,0,0,0,7.5,11.8,1.89,1.89,0,0,0,1.74-.1,2,2,0,0,0,.64-1.65,65.19,65.19,0,0,0-1.94-7.85A19.66,19.66,0,0,0-1179.64,658.31Zm132.82-106.09a15.66,15.66,0,0,0,4.25-2.12c1.87-1.22,3.62-2.63,5.42-4a83.85,83.85,0,0,1,22.33-11.89A102.64,102.64,0,0,1-992,529.1c4.44-.47,8.9-.78,13.37-1.06a28.59,28.59,0,0,0,8.9-1.68c3-1.21,4.05-3.49,3-6.56a21.27,21.27,0,0,0-1.9-3.86,9.35,9.35,0,0,0-8.73-4.89c-1.75,0-3.51,0-5.27,0-12.8.05-25,3.06-36.87,7.59a70.89,70.89,0,0,0-20,11.22,43.91,43.91,0,0,0-11.31,13.5,15.88,15.88,0,0,0-1.44,3.53C-1053.16,550.72-1050.63,553.26-1046.82,552.22Zm207.54-100.17A34.06,34.06,0,0,0-854.59,441a59.4,59.4,0,0,0-21.63-3.55c-7.66.31-13.88.83-19.92,2.45-4.93,1.31-9.8,2.87-14.65,4.46-2,.65-3.9,1.59-4.82,3.67a15.22,15.22,0,0,0-1.41,7.46c.22,2.91,1.69,4.43,4.64,4.36a26.27,26.27,0,0,0,6.58-1.05,112.29,112.29,0,0,1,20.15-4.07A90.27,90.27,0,0,1-860.39,456a85.18,85.18,0,0,1,15.62,4.48,15.86,15.86,0,0,0,5.11,1.1,3.27,3.27,0,0,0,3.22-4.61A21.46,21.46,0,0,0-839.28,452.05Zm9.37,58.59a3.75,3.75,0,0,0,4.79-4.27,16.61,16.61,0,0,0-1.38-4.55,34.79,34.79,0,0,0-6.76-9.81c-5.66-5.89-12.57-9.77-20.18-12.47-10.66-3.77-21.75-4.9-34.75-5.26-4.28.38-10.32.89-16.35,1.48a39.87,39.87,0,0,0-4.71.89,6.1,6.1,0,0,0-3.84,2.65,15.63,15.63,0,0,0-2.81,7.54c-.26,3.46.94,5.19,4.3,5.75a34.57,34.57,0,0,0,6.19.29c3.51-.08,7-.36,10.53-.49a106.32,106.32,0,0,1,38.57,5.94A108.32,108.32,0,0,1-836,507.84,26.55,26.55,0,0,0-829.91,510.64Zm-197.47,151.72a61,61,0,0,1,2.81-19.84,30.63,30.63,0,0,1,3.74-8.26,19.71,19.71,0,0,1,15.57-9.09,45,45,0,0,1,15.18,1.69,131.4,131.4,0,0,1,20.67,7.63q8.1,3.59,16.23,7.13a34.4,34.4,0,0,0,16.39,2.77c4.15-.28,8.31-.44,12.43-1a174,174,0,0,1,26.81-1,51.52,51.52,0,0,1,12.3,1.83,31.56,31.56,0,0,1,5.82,2.17,18.34,18.34,0,0,1,10.64,15.48,62.4,62.4,0,0,1-7.15,35.69,36,36,0,0,1-10.81,12.66c-4.73,3.41-9.92,5.07-15.79,4.21-1-.14-1.92-.17-2.87-.3a12.67,12.67,0,0,0-11.31,3.95,35.68,35.68,0,0,1-4.65,4.13c-7.5,5.33-16.74,3.51-21.68-4.23-1-1.61-1.75-3.41-2.71-5.07a26.63,26.63,0,0,0-2.87-4.4,9.91,9.91,0,0,0-13-1.75,29.7,29.7,0,0,0-3.66,3.08c-1.3,1.18-2.5,2.48-3.82,3.64-6.15,5.39-15.94,4.3-21-1a33,33,0,0,1-3.4-4.61c-.78-1.2-1.36-2.53-2-3.8a11.23,11.23,0,0,0-7.81-5.83c-1.55-.36-3.12-.69-4.68-1-5.3-1.11-9.24-4.19-12.35-8.48-4.35-6-6.27-12.88-7-20.15C-1027.54,666.53-1027.38,664.44-1027.38,662.36Zm101.74,23a59.25,59.25,0,0,0,23.07,5.91,13.26,13.26,0,0,0,11.66-5.46,25.68,25.68,0,0,0,5.42-18.88c-.47-5.29-3.47-8.65-8.66-9.32-5.39-.69-10.79-1.27-16.44-1.93-3,.4-6.18.6-9.28,1.29a17.25,17.25,0,0,0-11.63,8.55C-935.94,673.28-933.67,681.38-925.64,685.35Zm-17,14.58c1,5.4,5.18,8.67,11.79,8.69a19.06,19.06,0,0,0,3.78-.73c3.79-1.37,4.84-4.42,3-8-2.3-4.41-9.74-8.17-14.55-7.35a4.32,4.32,0,0,0-3.75,3.23A9.94,9.94,0,0,0-942.65,699.93Zm-22.88-11.64a14.07,14.07,0,0,0-6.46-1.71,44.26,44.26,0,0,0-6,1.36,13.34,13.34,0,0,0-4.41,2.66c-2.47,2.29-2.37,5.13,0,7.52a14.15,14.15,0,0,0,7.14,3.58c5.25,1.19,11.2-2.86,12.12-8.18A4.63,4.63,0,0,0-965.53,688.29Zm-44-23.49c1.68,6.15,5.52,10,11.91,11,5.05.76,10.13,1.31,15.14,2a87,87,0,0,0,8.64-1.11,13,13,0,0,0,10-15.18,18.1,18.1,0,0,0-8-12.53,36.59,36.59,0,0,0-5-2.81,70.32,70.32,0,0,0-20.79-5.4c-5.11-.63-8.15,1.2-10.37,5.9A25.67,25.67,0,0,0-1009.52,664.8Zm163-118.83a17.65,17.65,0,0,0,4,1.6A3.61,3.61,0,0,0-838,544a6.65,6.65,0,0,0-.51-2.79,25.33,25.33,0,0,0-2.28-4.19c-4.8-7.08-11.37-12-19-15.63-11.22-5.23-23.16-7-36.69-7.51-3.66.34-8.59.79-13.52,1.26a6.6,6.6,0,0,0-5.17,3.08,15.42,15.42,0,0,0-2.58,7.14c-.25,3.33,1,5.2,4.39,5.72a49.71,49.71,0,0,0,7.63.43c5,0,9.91-.3,14.86-.22,14.72.25,28.4,4,40.69,12.35A37.91,37.91,0,0,0-846.56,546Zm-14.72,30.11a25.87,25.87,0,0,0,5,1.59,3,3,0,0,0,3.73-3.58,17.91,17.91,0,0,0-1.59-5,21.37,21.37,0,0,0-6.15-7.22,46.42,46.42,0,0,0-11.63-6.58c-7.84-3.27-15.87-5.83-25.56-6.09a44.16,44.16,0,0,0-5.11.37c-5,.83-9,3.1-11,8.06-1.57,3.8-.55,5.89,3.4,6.55a23,23,0,0,0,4.77.2,72.58,72.58,0,0,1,39.1,9A57.1,57.1,0,0,0-861.28,576.08Zm-63.8-39.9c-.54-10.27-.61-18.13-1.42-25.91C-928.09,495-930,479.8-932,464.59A75.69,75.69,0,0,0-936,447.36a60.34,60.34,0,0,0-4.09-8.64c-2-3.43-5.17-4.61-9-3.87-5.07,1-8.2,4.18-9.62,9a20.18,20.18,0,0,0-.79,9c.55,3.31,1.09,6.62,1.74,9.9,1.05,5.33,2.35,10.61,3.27,16q2.49,14.4,4.64,28.86a415,415,0,0,1,4.26,43.4c.33,7.5.61,15,1,22.51a16.31,16.31,0,0,0,.76,4.68,4.66,4.66,0,0,0,6.2,3,9.56,9.56,0,0,0,2.88-1.62,16.09,16.09,0,0,0,4.45-6.17,45.93,45.93,0,0,0,4.35-16.6C-925.54,549.07-925.32,541.41-925.08,536.18Zm193.65-229.71c2.09,2.18,4.17,4.39,6.38,6.44a12.33,12.33,0,0,0,3.25,2,2.88,2.88,0,0,0,3.52-.52l.11-.15c1.19-.95,1-3,.44-4.37a6.14,6.14,0,0,0-3.28-3.1,10.75,10.75,0,0,0-2-1.46c-2.1-1.18-5.18-2.33-7.62-2.15a1.52,1.52,0,0,0-1.42,1.35,1.53,1.53,0,0,0,.13,1.22A2.58,2.58,0,0,0-731.43,306.47Zm-339.16,206.62c-.32,3.36,1.95,5.29,5.11,4.26a23.57,23.57,0,0,0,5.91-3.07,134.08,134.08,0,0,1,19.38-11.46A134.12,134.12,0,0,1-998,490.68c5.07-.59,10.19-.78,15.3-1.13a18.73,18.73,0,0,0,7-1.45c1.77-.85,2.68-2.19,2.59-4.68a5,5,0,0,0-.19-1.4c-2.12-6.19-4.93-9.07-10.7-9.33-.8,0-1.6,0-2.4-.08a111.44,111.44,0,0,0-17.7.86,148.23,148.23,0,0,0-29.06,6.07c-8.89,2.86-17.22,6.87-24.42,12.94-5.09,4.28-9.27,9.28-11.72,15.54A19.13,19.13,0,0,0-1070.59,513.09Zm362.21-202.67a2.44,2.44,0,0,0,1.37.33c.75-.11,1.74-.22,2.1-.71a2.46,2.46,0,0,0,0-2.2,20.76,20.76,0,0,0-7.54-7.83,4.63,4.63,0,0,0-1.33-.44c-1.62-.05-2.44,1.17-2,2.41A15,15,0,0,0-708.38,310.42Zm-26.88,27.39A2.56,2.56,0,0,0-734,339l.23.19a67.54,67.54,0,0,0,5.59,4.4,23.65,23.65,0,0,0,5.1,2.43c1.93.67,3.36-.6,3.39-2.7a5.1,5.1,0,0,0-2.52-4.32,15.9,15.9,0,0,0-4.69-2.27,14,14,0,0,0-5.72-1.52,2.56,2.56,0,0,0-2.37.63,1.36,1.36,0,0,0-.41,1.2A2,2,0,0,0-735.26,337.81Zm30.07-22.15c-.26,1.72-.3,3.48-.42,5.23-.07,2.89,0,5.75,1.29,8.43.89,1.86,2.84,2.4,4.28,1a5.3,5.3,0,0,0,1.47-2.86A16.43,16.43,0,0,0-702.34,315a1.94,1.94,0,0,0-1.65-.58A1.9,1.9,0,0,0-705.19,315.66Zm27.29,6.18a2.74,2.74,0,0,0-1.43.87,32,32,0,0,0-6.53,9.37,21.06,21.06,0,0,0-1.21,3.11,2.3,2.3,0,0,0,2.27,2.94,4.94,4.94,0,0,0,4.44-2.34,24.75,24.75,0,0,0,3.89-9.28c0-.05.05-.1.07-.16a7.31,7.31,0,0,0,.68-2.58A1.86,1.86,0,0,0-677.9,321.84Zm-2.32-4.43a2.49,2.49,0,0,0,2.16.32,2.31,2.31,0,0,0,1.08-1.86,17.38,17.38,0,0,0-4.94-11,2,2,0,0,0-1.67-.42c-.45.18-.74.91-1,1.46a6.15,6.15,0,0,0-.18,1.52C-684.41,311.19-683.44,314.83-680.22,317.41Zm-12.36-1a2.78,2.78,0,0,0-.22.42,34.72,34.72,0,0,0-2.57,13.54,6,6,0,0,0,.12.95,2.72,2.72,0,0,0,4.39,1.74,5.24,5.24,0,0,0,2.16-3.6c.22-1.57.31-3.17.46-4.8-.21-1.87-.35-3.79-.66-5.67a10,10,0,0,0-1-2.66A1.47,1.47,0,0,0-692.58,316.41Zm-196.75,55a13.45,13.45,0,0,1,12.81-1.5,18.25,18.25,0,0,1,4.55,2.62,46.92,46.92,0,0,1,10.4,11.19,14.55,14.55,0,0,1,1.8,12.82c-1.09,3.68-3.38,5.66-7.12,6.07-1.11.13-2.23.18-3.34.26-4.24,0-8.18-1.38-12.14-2.65q-6.37-2.06-12.79-4a21.67,21.67,0,0,0-9.51-.45,118.87,118.87,0,0,0-15.5,3,19.66,19.66,0,0,1-5.66.65,8.64,8.64,0,0,1-6.27-3.12,5,5,0,0,1,.9-7.89,12.66,12.66,0,0,1,4.37-1.83,29.79,29.79,0,0,1,6.65-.67,32.2,32.2,0,0,0,22.42-8.2A83.8,83.8,0,0,1-889.33,371.4Zm3,14.48c1,4.8,5.5,8.13,11.33,8.09.28,0,.92,0,1.55-.12,3-.41,4.11-2,3.39-5a11.5,11.5,0,0,0-12.84-8.26C-885.64,381.1-886.95,383.11-886.38,385.88Zm173.31-66.95a1.4,1.4,0,0,0-.43-.19,1.49,1.49,0,0,0-1.91.88,5.63,5.63,0,0,0-.11,1.87c.42,2.5.79,5,1.42,7.46a16.62,16.62,0,0,0,1.92,4.31c1.48,2.41,3.89,2.22,5.09-.34a14,14,0,0,0,.61-2.14A18.06,18.06,0,0,0-713.07,318.93Zm-250.68,78.75c4.59-.71,9.63-5.59,10.47-10.1a6.05,6.05,0,0,0-3.08-6.88c-1.84-1.16-3.86-1.43-6.79-1.37a14.74,14.74,0,0,0-2,.16c-4.11.7-7,3.3-7.64,6.9s1.42,8.54,4.48,10.44A6.5,6.5,0,0,0-963.75,397.68Zm30.59-61c-.65-3.15-3.06-4.84-6.3-4.74a8.18,8.18,0,0,0-7.58,5,46.77,46.77,0,0,0-1.89,5.91c-.23.74-.35,1.61-1.73,1.64-.33-.5-.76-1.12-1.16-1.75a32.38,32.38,0,0,0-2.26-3.66,8.09,8.09,0,0,0-9.44-2.74c-3.11,1-4.65,3.3-5.31,6.25-.45,2-.59,4.09-1,7a21.57,21.57,0,0,1-2.36-1.64c-1.49-1.45-2.88-3-4.37-4.44a14.45,14.45,0,0,0-6.68-3.62,7.84,7.84,0,0,0-9.95,6.46,12,12,0,0,0,.8,7.05,16.45,16.45,0,0,0,12.6,10,46.08,46.08,0,0,0,10,.67c9.21-.4,18-3,26.44-6.42a28.59,28.59,0,0,0,6.45-4.07,10.21,10.21,0,0,0,3.76-6A26.5,26.5,0,0,0-933.16,336.67Zm-76.41,101.43c-3,0-6.08-.17-9.1,0-8.65.58-17.13,2.05-25.12,5.59-7.29,3.24-13.59,7.76-18,14.58a21.66,21.66,0,0,0-2.31,4.71,3.33,3.33,0,0,0,3.1,4.39,6,6,0,0,0,2.35-.27,47.19,47.19,0,0,0,5.33-2.1c18.46-8.92,37.95-11.9,58.26-10.2,3,.25,6,.85,9,1.07a30.87,30.87,0,0,0,6.66-.1,3.86,3.86,0,0,0,3.42-3.5c.82-5.77-2.35-10.31-8-11.67A94.73,94.73,0,0,0-1009.57,438.1Zm80.79,155.77a12.28,12.28,0,0,0-9.54-4.7,7,7,0,0,0-5.67,2,11.49,11.49,0,0,0-3.25,8.7,6.38,6.38,0,0,0,4.17,5.89,21.24,21.24,0,0,0,3.28.87,16.21,16.21,0,0,0,9.84-2.8C-926.46,601.21-926,597.29-928.78,593.87Zm-70.34-197.16a19.89,19.89,0,0,1,5.91,1.75c4,2.11,4.29,6.57.67,9.41a10.09,10.09,0,0,1-8.58,2c-3.6-.75-7.17-1.62-10.76-2.43a40,40,0,0,0-23.12,1.26c-4.64,1.71-9.42,3.07-14.18,4.41a15.31,15.31,0,0,1-9-.14,7.15,7.15,0,0,1-5.16-5.18c-.48-1.85-.83-3.73-1-4.67a15.51,15.51,0,0,1,2.77-9A47.36,47.36,0,0,1-1051.1,383a25,25,0,0,1,4.14-2.38,11,11,0,0,1,9.75-.16,35.52,35.52,0,0,1,5.78,3.36c3,2.14,5.8,4.51,8.73,6.75a28.1,28.1,0,0,0,18.31,6A27.24,27.24,0,0,1-999.12,396.71ZM-1041.4,391a11.59,11.59,0,0,0-11.17,6.72c-2,5-.35,6.77,4.69,7,5,0,9.6-3.38,10.77-7.89C-1036.24,393.54-1037.92,391.24-1041.4,391Zm82,31.55c.64,0,1.27,0,1.91,0l0,.27c4.26-.7,8.55-1.23,12.76-2.13,4-.87,5.83-3.86,5.14-7.87-.78-4.49-2.88-6.72-7.35-7.75a22.74,22.74,0,0,0-2.83-.53,27.47,27.47,0,0,0-13.62,1.91c-2,.82-3.69,2-4.22,4.26C-969.18,417.53-965.47,422.36-959.4,422.58ZM-952,622.3c-2.1,6.5,1.3,11.22,8.62,11.13a15.75,15.75,0,0,0,7.64-2.52c4.23-3,4.63-7.2,1-11a15.19,15.19,0,0,0-5.62-3.51C-944.92,614.59-950.11,616.37-952,622.3Zm-211.69,30c1.84-.3,3.42-.45,4.94-.86a2.86,2.86,0,0,0,1.66-1.45c.36-.83-.4-1.51-1.12-1.82-2.89-1.29-5.78-2.62-8.76-3.67a12.17,12.17,0,0,0-4.23-.36,2.22,2.22,0,0,0-2.13,2.59,4.4,4.4,0,0,0,3.38,4.14A61.23,61.23,0,0,0-1163.71,652.34Zm464.12-348.11c.67,2.95,1.69,5.52,3.92,7.54a2.45,2.45,0,0,0,3,.55,2.07,2.07,0,0,0,.56-.63,2.89,2.89,0,0,0,.65-1.87,9.89,9.89,0,0,0-1.88-5.24,14.58,14.58,0,0,0-2-3.38,10.86,10.86,0,0,0-3-3,1.54,1.54,0,0,0-2.05.53,3.08,3.08,0,0,0-.19,2.57A13.46,13.46,0,0,0-699.59,304.23ZM-953.46,1137.8a2,2,0,0,0-2.57.44,6.38,6.38,0,0,0-.76,6.73c.71,1.59,2.51,2.63,3.81,2.25,1.62-.47,2-1.86,2.27-3.32.05-.31.05-.63.09-1.07A5.66,5.66,0,0,0-953.46,1137.8Zm9.8,3.35a2,2,0,0,0-2.89.46,6,6,0,0,0-.54,5.43,3.71,3.71,0,0,0,3.26,2.31c1.2-.09,2.06-1.36,2.17-3.22,0-.16,0-.32,0-.39A4.77,4.77,0,0,0-943.66,1141.15Zm-8.54-17.71a2.32,2.32,0,0,0-3.59.91,10.83,10.83,0,0,0,.12,7.9,3.46,3.46,0,0,0,2.89,2.2,2,2,0,0,0,2.28-1.28c.27-1.23.38-2.49.51-3.47-.08-1.24-.09-2.2-.22-3.13A4.67,4.67,0,0,0-952.2,1123.44Zm9.37,4.53a2,2,0,0,0-3.18.71,8.17,8.17,0,0,0-.14,6.52,6,6,0,0,0,1.73,2.18,2,2,0,0,0,3.11-1,29.44,29.44,0,0,0,.6-3.27A6.3,6.3,0,0,0-942.83,1128Zm-40.68-99.49a2.05,2.05,0,0,0-.26.24,3.09,3.09,0,0,0-.61.59c-1.51,2-1.39,4.13-.56,6.29a3.91,3.91,0,0,0,1,1.58,3.32,3.32,0,0,0,1.86.92,3.38,3.38,0,0,0,3.66-2.53,7.26,7.26,0,0,0-.8-5.33C-980,1028.73-981.79,1027.21-983.51,1028.48Zm16.88,105a2.53,2.53,0,0,0-2.17.12c-2.54,1.9-2.29,6.92.34,8.71a2.63,2.63,0,0,0,4.17-1.42,16.38,16.38,0,0,0,.44-1.93C-963.8,1136.31-964.76,1134.37-966.63,1133.47Zm31.08,4.89a2.88,2.88,0,0,0,2.2.21,1.91,1.91,0,0,0,.78-.75,6.16,6.16,0,0,0,.11-3.2,24.4,24.4,0,0,0-.88-2.9,2.6,2.6,0,0,0-3.1-1.56,2.47,2.47,0,0,0-1.33,2.79,14.79,14.79,0,0,0,.71,3.69A3.43,3.43,0,0,0-935.55,1138.36Zm3.35-15.42c1.81,0,2.89-1.17,3.2-3,.1-.63.11-1.27.17-2a76.59,76.59,0,0,0-3-14.39,49.81,49.81,0,0,0-15.65-23.68,24.81,24.81,0,0,0-6.06-3.8c-3.44-1.49-6.36-.29-8.1,2.94a13.75,13.75,0,0,0-1.54,6,52.11,52.11,0,0,1-.64,8.12c-1.12,5.33.43,9.8,3.76,13.82a48.14,48.14,0,0,0,22.72,15.38A17.36,17.36,0,0,0-932.2,1122.94ZM-965,1112.2c-2.25-1.35-4.36-.73-5.64,1.61a15.35,15.35,0,0,0-1.54,8.82,7.91,7.91,0,0,0,3.9,6.24c3.5,2.28,6.67,1.16,7.74-2.82a20.9,20.9,0,0,0,.49-3.13C-959.7,1117.57-961.4,1114.36-965,1112.2Zm-199-427.57a4.9,4.9,0,0,0,1.87,0,1.57,1.57,0,0,0,1.15-2.19c-2.42-3.87-6-6-10.69-6.94-.64.4-1.65.7-2.1,1.38-.58.89,0,1.86.77,2.53A21.4,21.4,0,0,0-1164,684.63Zm482.81-310.3a6.67,6.67,0,0,0-6.73-2.76,9.06,9.06,0,0,0-5.2,2.28c-1.84,1.76-3.57,3.64-5.32,5.5-.73.77-1.4,1.61-2,2.32-.46-.14-.68-.14-.73-.24-.7-1.24-1.36-2.51-2.07-3.75-2.81-4.9-7.65-6.39-12.73-4-4.35,2.09-5.8,6.85-3.1,10.85a19.25,19.25,0,0,0,3.7,3.68,22.36,22.36,0,0,0,2.88,1.72,2.49,2.49,0,0,1,1.29,2.39c-.06,1-.14,1.92-.28,2.87-1.11,7.26-2.21,14.53-3.35,21.8-1.16,7.42-2.39,14.83-3.54,22.26-2.05,13.27-4.11,26.54-6,39.83a5.19,5.19,0,0,1-3.63,4.54c-2.23.87-4.42,1.83-6.59,2.84-4,1.87-5.86,5.32-6.44,9.49-.63,4.53,2,7.43,6.6,7.34a14.67,14.67,0,0,0,2.37-.32,19.63,19.63,0,0,0,8.14-3.92,21.81,21.81,0,0,1,2.65-1.45l1.61,3.73c1.36,3.1,2.94,6.06,5.65,8.22,4.07,3.22,8.16,2.78,12,.4a5.78,5.78,0,0,0,2.61-6.65,18.15,18.15,0,0,0-5.43-8.87c-1.12-1.1-2.31-2.13-3.46-3.18.54-4,1-7.83,1.58-11.61,2.13-13.74,4.36-27.47,6.47-41.22,2.06-13.43,4.08-26.87,6-40.32a8.17,8.17,0,0,1,5.94-7.3,31.32,31.32,0,0,0,5.63-2.62c3.82-2.26,5.64-4.61,3.38-10.56A14.92,14.92,0,0,0-681.24,374.33Zm-66.55,101.91c-2.77-4.28-7-5.11-11.07-1.95a19.58,19.58,0,0,0-3.66,4.36,47,47,0,0,0-2.57,4.84,35.12,35.12,0,0,1-2.9-2.44q-30.72-32.68-61.43-65.37c-1.82-1.94-2.71-3.8-2-6.43a12.37,12.37,0,0,0,.17-3.34c-.1-4-2.09-7-5.11-9.34-2.28-1.77-4.76-1.63-7.2-.27a6.86,6.86,0,0,0-3.34,3.94c-.65,2.12-1,4.34-1.5,6.51-.2.88-.43,1.75-.67,2.76-1.69-.2-3.1-.44-4.51-.5-4.15-.16-7.95.78-11,3.78a7.18,7.18,0,0,0-2.43,5.54A9.72,9.72,0,0,0-856.2,428a22.86,22.86,0,0,0,4.18-1c1.52-.44,3-1,4.66-1.51,1,.86,2,1.62,2.93,2.49q8.82,8.47,17.61,17,26.77,25.8,53.6,51.54c2.41,2.3,3.55,4.55,3,8a33.88,33.88,0,0,0,.08,8.11c.31,3.53,2.45,5.78,5.64,7.12,6.83,2.87,14.84-.74,17.68-7.92a8.78,8.78,0,0,0,.06-6.53,16.63,16.63,0,0,0-4.4-6.2c-.88-.86-2.22-1.39-2.24-3.18,1.18-1,2.54-2.13,3.79-3.33A12.68,12.68,0,0,0-747.79,476.24Zm-232.3,543.38a13.87,13.87,0,0,0-3.8-11.79,3.54,3.54,0,0,0-5.16-.18c-2.47,2-3.69,4.7-3.66,9a36.37,36.37,0,0,0,1.93,5.7c1.7,3.41,5,3.93,7.93,1.56A6.8,6.8,0,0,0-980.09,1019.62Zm189.4-150.79a37.24,37.24,0,0,0-7.89-4.46,7.75,7.75,0,0,1-4.93-4.8,14,14,0,0,0-.64-1.29q-21.35-45.62-42.7-91.23c-2.91-6.23-5.85-12.44-8.73-18.68-1.09-2.35-.94-2.88.87-4.62.93-.88,1.91-1.71,2.8-2.63a21.42,21.42,0,0,0,5-7.54c1.75-4.86.65-9.15-3.32-12.5a17.82,17.82,0,0,0-10.13-3.92,9.73,9.73,0,0,0-9.22,4.06,53.44,53.44,0,0,0-3.46,6.26c-.51.95-1,1.91-1.68,3.26-1.31-1.21-2.29-2.2-3.36-3.08-4.6-3.76-13-5.42-18.52,1.11A26.32,26.32,0,0,0-900,734c-2.69,5.29-2,9.7,2.2,14a17.92,17.92,0,0,0,3.66,3.08,58.87,58.87,0,0,0,8.45,4.47,11.09,11.09,0,0,1,6.36,6q23.65,49.83,47.54,99.58c.54,1.13,1,2.33,1.37,3.34-.66,2-2.36,2.85-3.59,4.06-2.65,2.59-5.19,5.26-6.68,8.7-1.83,4.22-1.92,8.46.9,12.3a20.89,20.89,0,0,0,11.33,7.62,6.93,6.93,0,0,0,7.15-1.57c2.07-2,3.93-4.17,5.84-6.31.82-.91,1.54-1.92,2.16-2.7.54,0,.73-.06.84,0a12.2,12.2,0,0,1,1.53,1.11,40.89,40.89,0,0,0,11.36,7c5.73,2.62,10.64,1.18,15.19-3.44a9.79,9.79,0,0,0,2.12-11.49A25,25,0,0,0-790.69,868.83ZM-924.75,1141a2.59,2.59,0,0,0-2.39-.7,2.7,2.7,0,0,0-2,2.5c-.16,2.1,1.3,4.84,3.67,4.67,2.88-.22,2.7-3.9,1.48-5.68A4.2,4.2,0,0,0-924.75,1141ZM-819.34,915.6c2.27,1.42,4.79,1.6,7.35,1.69.47,0,1,0,1.43,0,4.06-.18,5.82-1.68,6.33-5.65a23,23,0,0,0,.14-4.76c-.37-4.83-4.15-7.71-8.91-6.71a13.46,13.46,0,0,0-8.29,5.25C-824.09,909.21-823.3,913.1-819.34,915.6Zm-114.18,226.59a1.81,1.81,0,0,0-2.82,1s0,.1,0,.15a5.19,5.19,0,0,0,1.47,6.06,2.31,2.31,0,0,0,3.34-.39,2.45,2.45,0,0,0,.41-1.51C-930.93,1145.63-931.76,1143.06-933.52,1142.19Zm7.72-4.45c1.25-.37,1.4-1.55,1.36-2.71-.07-2.23-.21-4.43-2.34-5.84a2,2,0,0,0-3.05,1,7.41,7.41,0,0,0,1.2,6.27A2.55,2.55,0,0,0-925.8,1137.74Zm113.2-204.27c-2.82.53-5.56,1.47-8.35,2.13a7.74,7.74,0,0,1-2.22-.12,40.52,40.52,0,0,0,0-5.08c-1.08-8-3.76-12.13-12-14.06A8.91,8.91,0,0,0-844,919a14.57,14.57,0,0,0-4.56,10.73,21.14,21.14,0,0,0,.68,5.68c.81,2.76.09,4.81-1.67,7-11.24,13.93-22.33,28-33.54,42q-22.36,27.86-44.85,55.63c-4,5-3.09,4.69-9.14,3.66a25,25,0,0,0-11.39.65c-4.19,1.25-6.91,4-7.65,8.36a13.77,13.77,0,0,0,10.64,15.88,24.21,24.21,0,0,0,9.52.54c1.21-.2,2.51-.69,3.72.4,0,.4.27.93.12,1.31-1.44,3.69-.45,7.28.47,10.83s3.08,5.38,6.82,5.65a30.55,30.55,0,0,0,6.69-.22c3.84-.57,6.2-3.24,6.59-7.12.37-3.72.19-7.53-1.57-10.78-2.33-4.3-1.25-7.57,1.88-10.69a6.34,6.34,0,0,0,.58-.76l62.49-82.61c4.15-5.48,8.35-10.92,12.41-16.46a3.92,3.92,0,0,1,5-1.6c2.89.89,5.83,1.67,8.8,2.29a43.48,43.48,0,0,0,14.3.81,8.93,8.93,0,0,0,7.4-5.34,19.56,19.56,0,0,0,1.81-10.26C-799.1,936.68-804.92,932.05-812.6,933.47Zm133.69-585.08a18.21,18.21,0,0,0-2.78-1.86,32.88,32.88,0,0,0-17.39-4.64c-1.43.1-2.88.09-4.3.3-5.48.85-10.53,2.72-14.49,6.8a8.49,8.49,0,0,0-1.32,10.57c3.39,5.94,11.62,10.24,18.3,9.22a45.13,45.13,0,0,0,19.66-8.36,14.15,14.15,0,0,0,3.92-4.72C-675.85,353-676.56,350.39-678.91,348.39ZM-1189.09,658.6c-.78-2-2.64-2.16-4.19-.66a5.18,5.18,0,0,0-1.5,4.34,24.71,24.71,0,0,0,4.22,12,1.58,1.58,0,0,0,2,.75,2.18,2.18,0,0,0,1-1.43c.21-1.4.2-2.84.3-4.46-.14-1.71-.17-3.63-.48-5.49A25.9,25.9,0,0,0-1189.09,658.6Zm-10.59,17.57a4.28,4.28,0,0,0-1.1-.27,1.91,1.91,0,0,0-1.82,2.46,18.7,18.7,0,0,0,7.59,9.46,2.69,2.69,0,0,0,2.17-.05,1.89,1.89,0,0,0,.55-1.66C-1193.32,681.75-1195.53,678.22-1199.68,676.17Zm20.67,13a2.58,2.58,0,0,0,2.16-.13,1.88,1.88,0,0,0,.5-1.68c-1.05-4.34-3.31-7.84-7.38-9.95a4.25,4.25,0,0,0-1.21-.27,1.92,1.92,0,0,0-1.61,2.55A18.56,18.56,0,0,0-1179,689.21Zm5.44,134.88c-3.6.35-6,2.58-6.17,6.17a20.91,20.91,0,0,0,.72,6.13c.88,3.56,2.89,4.92,6.63,4.9a17,17,0,0,0,8.65-2.41c3.77-2.64,4.45-6.37,1.56-9.88A12.61,12.61,0,0,0-1173.57,824.09Zm-6.72-13.52a10,10,0,0,0,8.26,5c3.35.15,6.71.31,10,.22a72,72,0,0,0,7.21-1c.32,1.77.48,3.18.82,4.55.71,2.77,1.38,5.58,2.33,8.27a6,6,0,0,0,4,3.85,21.17,21.17,0,0,0,15-1.11,10.33,10.33,0,0,0,5.23-5.4,17.45,17.45,0,0,0,1.55-6.49,29.52,29.52,0,0,0-1.75-11.78c-1.93-5.16-.68-5.44,2.69-7.8l2.36-1.65,77.15-54.51c3.53-2.49,7.09-4.93,10.56-7.49a7.58,7.58,0,0,1,5.36-1.52c2.71.2,5.43.15,8.14.13A16.77,16.77,0,0,0-1014,732c3.32-1.64,5.85-4.18,6.23-8a45.37,45.37,0,0,0-.13-10,8.07,8.07,0,0,0-5.79-7c-2.58-.81-5.26-1.39-8-.41a26.3,26.3,0,0,1-3.48.76c-1.19-1.42-.51-2.69-.29-3.89a18.39,18.39,0,0,0-.62-8.53,8.5,8.5,0,0,0-4-5.18,18,18,0,0,0-10.06-2.64c-6.66.34-11,4.63-11.33,11.29a23.05,23.05,0,0,0,.43,5.23,24.62,24.62,0,0,0,1.42,5.07c1.29,3.14.86,4-2,5.93-1.32.9-2.58,1.89-3.86,2.84q-21.25,15.63-42.5,31.24Q-1123.46,767.37-1149,786c-4.84,3.53-4.67,3.17-9.2,2.59A28.52,28.52,0,0,0-1177,793c-7.35,4.47-7.3,10.31-4,16.39C-1180.83,809.78-1180.55,810.17-1180.29,810.57Zm-22.13-191.88a80.44,80.44,0,0,0,4.29-7.45c.44-.79.79-1.64,1.13-2.37.46,0,.68,0,.76.07,1,1,2,2,3,3,4.13,4.12,9.47,4.28,13.72.42,3.33-3,3.68-7.31.65-10.65a15,15,0,0,0-3.87-2.71,29.08,29.08,0,0,0-3.77-1.43c-.23-1.61-.53-3.17-.66-4.74q-1-12.18-1.9-24.38-1.23-16.24-2.44-32.51c-.71-9.56-1.34-19.13-2.1-28.69a8.16,8.16,0,0,1,1.61-5.82c1.51-2.06,2.78-4.3,4.3-6.35,2.49-3.35,1.32-8.54-1.58-11.39a5.39,5.39,0,0,0-3.4-1.55c-3.17-.31-5.58,1.06-7.54,3.38-1.11,1.3-2.12,2.68-3.49,4.43-1.32-1.54-2.11-2.54-3-3.45a15.6,15.6,0,0,0-10.13-4.92c-3.21-.29-6,.6-8,3.38a7.71,7.71,0,0,0-.47,9,15.19,15.19,0,0,0,7.94,6.63,4.69,4.69,0,0,1,3.27,4.26c.09.79.25,1.58.34,2.37.6,5.56,1.18,11.13,1.78,16.69q.86,7.86,1.75,15.72,1.88,16.67,3.75,33.34c.8,7,1.44,14,2.56,20.93.79,4.82-.19,8.44-4.61,11a15.67,15.67,0,0,0-5.5,5.27,9,9,0,0,0-1,8.67,5.7,5.7,0,0,0,5.66,3.64A8.36,8.36,0,0,0-1202.42,618.69Zm.19,53a33.21,33.21,0,0,0,4.15-11.1,14.74,14.74,0,0,0,.25-3.32,2.33,2.33,0,0,0-2.92-2.28c-2.2.34-3.3,1.94-3.83,3.8-.7,2.43-1.05,5-1.55,7.5.3,1.74.51,3.47,1,5.14a1.89,1.89,0,0,0,1.39,1A2,2,0,0,0-1202.23,671.7Zm43.1,3.24a17.54,17.54,0,0,0,8.28,2c.8,0,1.6,0,2.39,0,1-.08,2.08-.28,2.11-1.45a2.61,2.61,0,0,0-1-1.94,69.73,69.73,0,0,0-7.43-4.32,13.28,13.28,0,0,0-4.61-1c-1.84-.16-2.88,1.29-2.57,3.12A4.89,4.89,0,0,0-1159.13,674.94ZM-1182,645.45a47.84,47.84,0,0,0,6.7-4.59,17.17,17.17,0,0,0,3.39-4c2.93-4.55,2.3-9-2.06-12.27-6.48-4.83-13.56-6.4-21.13-2.56a48.09,48.09,0,0,0-14.2,11.26,15.87,15.87,0,0,0-3,5.39c-1.3,3.85.07,6.49,3.75,8.11s7.77,1.76,11.41,2.13C-1191.67,648.68-1186.59,648-1182,645.45Zm187.74,356.88a16,16,0,0,0,1-13c-.9-2.72-1.42-5.56-2.22-8.32a20.74,20.74,0,0,0-1.72-4.44c-2.1-3.65-5.37-4.42-8.94-2.21a11.78,11.78,0,0,0-2.59,2.12,72.22,72.22,0,0,0-4.83,5.93c-6.7,9.48-9.29,20.2-9.6,31.68a64.25,64.25,0,0,0,.81,7.1c.58,2.71,2.34,3.8,5,3a26.78,26.78,0,0,0,6.88-3.25A49.79,49.79,0,0,0-994.28,1002.33Zm-8.61,28.76c-.15-1.63-1-4.34-2.85-4.31a1.44,1.44,0,0,0-1.07.15l-.15.1a3,3,0,0,0-.35.23c-2,1.39-2.09,3.47-1.74,5.89.28,2,1.24,4.87,3.9,4.15C-1002.78,1036.64-1002.71,1033-1002.89,1031.09Zm-11.21,12.11a4.6,4.6,0,0,0-1.43,3.52c0,.34.08.81.19,1.27a2.38,2.38,0,0,0,1.73,2,2.65,2.65,0,0,0,2.66-1.57,5.88,5.88,0,0,0,0-4.6A2,2,0,0,0-1014.1,1043.2Zm11.58-3.68-.21,0c-.12,0-.24-.06-.37-.07a1.27,1.27,0,0,0-1,.35,2.7,2.7,0,0,0-.76.68,5.1,5.1,0,0,0-.7,4.91,4.79,4.79,0,0,0,.83,1.58l.1.12a.39.39,0,0,0,.08.1l.05.06a1.64,1.64,0,0,0,.33.26l.21.08a1.79,1.79,0,0,0,.44.16,2.83,2.83,0,0,0,2.16-.3,1.2,1.2,0,0,0,.35-.28,4,4,0,0,0,1.31-3.2C-999.78,1041.91-1000.54,1040-1002.52,1039.52Zm6.23-8.2a5.62,5.62,0,0,0,1-1c1.64-2.54,1.16-7.21-.95-9.38a2.17,2.17,0,0,0-3,0c-1.26,1.17-1.72,2.64-1.65,5.3.27.9.71,2.76,1.4,4.52A2,2,0,0,0-996.29,1031.32Zm-24.47,11.46a3.12,3.12,0,0,0-2.55,3.38,2.47,2.47,0,0,0,2.28,2.5,2.88,2.88,0,0,0,2.79-3.09C-1018.34,1043.91-1019.51,1042.61-1020.76,1042.78Zm9.17-4.93a7.75,7.75,0,0,0,.63-3.55,5.55,5.55,0,0,0-1.42-3.38c-1.67-1.33-2.94,0-3.57,1.64a7.35,7.35,0,0,0-.69,5.2C-1015.9,1040.66-1012.62,1040.45-1011.59,1037.85ZM-1018.3,971c3.32-.57,6-2.28,7.3-5.56a20.91,20.91,0,0,0,.37-15.46,8.81,8.81,0,0,0-8.31-6.14,23.73,23.73,0,0,0-11.69,2.11c-3.4,1.62-5.76.78-8-1.73-.22-.24-.47-.43-.71-.65l-70.09-62.65c-7.27-6.5-14.48-13.07-21.8-19.51a6.81,6.81,0,0,1-2.7-6.24,24.93,24.93,0,0,0-.5-6.66,13.64,13.64,0,0,0-7.59-9.91,9,9,0,0,0-4.13-1c-5.82.11-11.87,5.56-12.45,11.34a63,63,0,0,0,.19,8.12c0,.75.09,1.5.13,2.12-.53.31-.8.6-1.07.59-1,0-1.89-.15-2.84-.22a75.22,75.22,0,0,0-8.58-.57c-4.93.23-8.45,2.28-10,8.69s.81,11.63,5,16.22a6.11,6.11,0,0,0,4.76,2,51.76,51.76,0,0,0,8.55-.74,54.27,54.27,0,0,0,13.47-5c5-2.5,4.9-2.51,9.1,1.39q44.31,41.1,88.62,82.2c6.62,6.15,5.65,3.9,4.32,12.15a23.73,23.73,0,0,0-.28,5.25,20.38,20.38,0,0,0,1,5.14,6.93,6.93,0,0,0,6.79,5.13,29.72,29.72,0,0,0,6.67-.46c4.16-.9,6.29-3.54,6.52-7.77.18-3.35.3-6.72-1.41-9.83-.21-.37-.09-.91-.13-1.66,1-.13,1.83-.32,2.72-.38A61.6,61.6,0,0,0-1018.3,971Zm-2.72,68.7a2.93,2.93,0,0,0,1.47-2.16,7.36,7.36,0,0,0-.05-5.13,2.49,2.49,0,0,0-1.67-1.37h-.34l-.29,0c-3,.53-3.47,5.17-2.4,7.42A2.38,2.38,0,0,0-1021,1039.67Zm28.79-3.51a2.81,2.81,0,0,0-2-1.65,1.52,1.52,0,0,0-.79,0c-3.64,1-4,6.17-2.28,9a3.38,3.38,0,0,0,3.77,1.64c1.78-.32,2.7-2.39,2.83-4.11a7.17,7.17,0,0,0-1.48-4.78A.36.36,0,0,0-992.23,1036.16Z" transform="translate(1226.49 -124.66)"/></svg>