<?xml version="1.0" encoding="utf-8"?>
<!-- Generator: Adobe Illustrator 24.3.0, SVG Export Plug-In . SVG Version: 6.00 Build 0)  -->
<svg version="1.1" id="Layer_1" xmlns="http://www.w3.org/2000/svg" xmlns:xlink="http://www.w3.org/1999/xlink" x="0px" y="0px"
	 viewBox="0 0 500 500" style="enable-background:new 0 0 500 500;" xml:space="preserve">
<g>
	<path d="M197.3,139.8c3,1.7,6.3,1.8,9.6,2.2c2.5,0.3,4.8,1,5.9,3.7c0.5,1.3,2.1,1.5,3.2,0.4c0.8-0.8,1.7-1.3,2.6-1.8
		c0.4-0.3,1-0.6,1.4-0.3c2.2,1.5,4.6,0.4,6.9,0.8c1.8,0.3,4.2,2.1,4.6,3.8c0.3,1.2-0.2,1.7-1.5,1.5c-2.3-0.4-4.7-1.1-6.9-1.1
		c-3.3,0-6.7,0.7-9.2,3.3c-0.4,0.4-0.6,0.8-0.3,1.3c0.8,1.5,0.3,2.9-0.7,4c-3,3.3-4,7.3-5.3,11.4c-1.6,5.4-4.6,10.2-7,15.3
		c-2.4,4.8-5,9.5-6.6,14.7c-0.5,1.6-0.8,3.3-1.2,4.9c-0.2,1.1,0.1,1.4,1.1,0.9c1.6-0.7,3.1-1.7,4.5-2.7c1.8-1.3,3.6-2.6,5.7-3.5
		c-0.6,0.7-1.4,1.3-2.2,1.9c-2.3,1.7-4.8,3-6.8,5.1c-1.2,1.3-2.5,2.1-4.3,1.2c-0.5-0.2-0.9-0.1-1.4,0.1c-3.3,0.8-5.4,3.6-5.4,7
		c0,0.5-0.1,1.1,0.5,1.4c0.7,0.4,1.1-0.1,1.6-0.5c1-1,1.9-2.2,3.2-2.8c1.6-0.7,3.2-1.6,4.8-2.5c5.8-3.2,11.3-6.9,17.5-9.4
		c0.5-0.2,1-0.7,1.4-1.1c1-1.1,2.1-1.9,3.3-2.8c2.5-2,5.4-3.3,7.6-5.7c0.4-0.4,1.3-0.8,0-1.2c-0.5-0.2-0.7-0.5-0.5-1
		c0.2-0.5,0.6-0.9,1.2-1c0.5-0.1,0.9,0,1,0.6c0.2,1.1,0.7,0.7,1.2,0.3c1.6-1.3,3.3-2.7,4.9-4c0.4-0.3,1.1-0.7,0.5-1.3
		c-0.5-0.5-1,0.1-1.4,0.5c-0.8,0.8-1.5,1.8-2.6,2.4c-0.2-0.7,0.3-0.9,0.4-1.3c1-2.3,3.6-3,4.6-5.3c0.3-0.7,0.6-1.3,1.5-1.3
		c0.4,0,0.6-0.3,0.5-0.8c-0.4-1.6,0.1-2.9,1-4.2c0.2-0.3,0.5-0.7,0.3-1.2c-0.3-0.5-0.8-0.5-1.3-0.5c-1.7,0.1-2.7,1.2-3.2,2.8
		c-0.7,2.1-1.6,4.1-3.2,5.6c-7.6,7.1-16,13.4-24.8,18.9c4.8-3.7,9.5-7.4,14.3-11c3.7-2.8,7-5.9,9.9-9.5c1.2-1.5,1.8-3.3,2.6-4.9
		c0.8-1.5,1.7-3,3.4-3.6c0.7-0.3,1.4-0.4,2.1-0.1c1.7,0.7,2.2-0.8,3-1.6c0.5-0.5-0.2-0.7-0.6-0.7c-1.1,0-2.2,0-3.3,0
		c-1.4-0.1-2.7-0.5-2.7-2.3c0-1.8,1.2-2.2,2.6-2.4c2.4-0.4,4.5,0.7,6.6,1.4c0.6,0.2,1.2,0.5,1.9,0.9c-1.6,0.5-2.8-0.4-4.1-0.3
		c-1.3,0-2.7,0-4,0c-0.4,0-0.9,0.1-0.9,0.6c0,0.7,0.5,0.7,1,0.8c0.2,0,0.5,0,0.7,0c5.3-0.7,10,1.1,14.5,3.6c0.3,0.2,0.6,0.4,0.9,0.6
		c0.6,0.4,1.3,0.6,1.6-0.3c0.3-0.7-0.2-1.1-0.9-1.3c-2.5-0.9-5-1.9-7.6-3c2.1,0.2,3.3-1.4,4.8-2.4c1.5-1,3.1-1.9,4.8-2.5
		c0.4-0.1,0.9-0.1,0.9-0.7c0.1-0.5-0.4-0.7-0.7-0.9c-2.1-1.4-2.1-2.3,0.2-3.5c1.2-0.7,2-1.4,0.8-2.8c-0.2-0.3-0.5-0.7-0.4-1
		c0.3-2.5-1.4-3.8-3.1-4.8c-1.8-1.1-2.7-2.4-2.5-4.6c0.1-0.7-0.1-1.4-0.1-2.2c0.1-2.2-0.4-3.8-2.9-4.4c-1.6-0.4-2.6-1.9-3.3-3.4
		c-1.1-2.4-2.3-4.7-2.7-7.4c-0.3-2.1-1.4-4.1-1.6-6.3c-0.4-5.5,0.3-10.9,2.3-16c1.7-4.2,4.8-6.8,8.9-8.4c-0.2,0.2-0.4,0.5-0.6,0.7
		c-4.9,3.3-7.8,7.9-9,13.5c-1.1,5.2-1.6,10.4,1.1,15.4c0.6,1.2,1.2,2.2,0.6,3.5c-0.2,0.4-0.2,1.1,0.4,1.2c1.1,0.2,2.1-0.4,3.1-0.8
		c0.7-0.3,0.3-0.9,0.2-1.4c-0.1-0.4-0.1-0.8,0.2-1.2c0.3-0.3,0.6-0.2,0.8,0c1,1,2.7,1.5,3,3.2c0.3,1.4,1.2,1.7,2.5,1.2
		c1.4-0.4,2.7-1.1,4.2-1.2c1.1-0.1,2.1,0,2,1.6c-0.1,0.5,0,1,0.5,1c2,0.4,1.8,1.4,1.1,2.9c-0.7,1.6-0.1,2.3,1.6,2
		c0.4-0.1,0.7-0.2,1,0.1c0.6,0.6,1.2,1.2,2,0.5c0.8-0.7,0.9-1.7,0.7-2.7c-0.1-0.6-0.6-1.1,0-1.7c0.1-0.1,0.4-0.1,0.5,0
		c0.6,0.5,0.3,1.1,0.3,1.7c0,0.2,0,0.5,0,0.7c0,2.1,0,2.2,2,1.4c0.2-0.1,0.5-0.1,0.7-0.1c0.9,0.2,1.4-0.2,1.4-1.1
		c0-0.8-0.3-1.5-1.4-1.1c-0.5,0.2-0.8-0.1-1-0.5c-0.3-0.6,0.3-0.9,0.7-1.1c0.3-0.2,0.7-0.3,1-0.3c2.8-0.1,5.1-2.1,8-2.2
		c-0.3-0.5-0.5-0.8-0.7-1.1c-0.6-0.8-0.9-1.7,0.1-2.4c1-0.7,1.5,0.2,2,0.9c0.5,0.6,1,1.2,1.9,1.2c0.5,0,0.9,0.4,1,0.9
		c0.1,0.5,0.2,1.1,0.9,0.8c0.6-0.2,1.1-0.7,0.8-1.4c-0.2-0.8-0.3-1.5,0.2-2.2c0.3-0.4,1.2-0.7,0.6-1.5c-0.5-0.6-1.2-0.8-1.9-0.7
		c-1.5,0.4-1.7-0.5-1.5-1.6c0.2-1.4,0.4-2.9,0.9-4.2c0.6-1.5,0.9-3-0.5-4.3c-0.3-0.3-0.6-0.8-0.4-1.1c0.7-1.1,0.1-2.2,0.1-3.3
		c0-0.5,0.1-1.1,0.2-1.6c0.1-0.4,0.3-1,0.9-0.9c0.5,0.1,0.4,0.7,0.3,1.1c0,0.7-0.1,1.4-0.1,2.2c0,0.8,0.5,1.1,1.1,1.1
		c0.9,0,0.7-0.7,0.7-1.2c-0.2-2.3-0.6-4.5-1.6-6.6c-5.2-11.3-19.1-15.9-30.1-9.9c-0.8,0.5-1.7,1-2.7,0.5
		c14.8-9.8,30.4-2.3,34.6,12.2c1.3,4.7,1.2,9.4,0.3,14.2c-0.2,0.8-0.3,1.5,0.5,2.1c0.4,0.3,0.7,0.8,0.6,1.3
		c-0.7,2.8-0.9,5.9-3.5,7.9c-0.2,0.2-0.6,0.3-0.7,0.5c-1.9,4.1-6.2,7.2-5.5,12.5c0.2,1.7-0.9,3.1-2.1,4.3c-1.8,1.9-4,3.5-6.1,5.1
		c-1.6,1.2-1.7,1.5-0.1,2.7c0.7,0.6,0.6,1.2,0.7,1.9c0.1,1.2,0.7,1.7,1.9,1.2c2.8-1.2,5.7-2.4,8.6-3.3c0.7-0.2,1.2-0.7,1.5-1.4
		c1-2.5,3.1-3.8,5.7-4.2c1.6-0.3,2.9,0.3,3.4,1.9c0.3,1.1,1,1.6,2.1,1.5c0.4,0,0.8,0,1.1,0.1c4,2.1,8.1,0.9,12-0.3
		c8.9-2.7,18-5.2,26.5-9.1c1.1-0.5,1.9-1.1,2.6-2.1c1.5-2.4,5.6-3.6,8.2-2.5c1.6,0.6,4,3.9,3.9,5.4c0,0.4,0.2,0.9-0.4,1.1
		c-0.4,0.1-0.6-0.3-0.9-0.5c-0.7-0.6-0.7-2.1-2.1-1.9c-1,0.2-1.5,1.2-2.2,1.8c-0.4,0.3-0.8,0.7-1.2,0.7c-2.2,0.4-2.5,2-2.3,3.7
		c1.2,8.3-0.9,16.2-2.9,24.1c-2.5,9.6-5.3,19.2-7.9,28.8c-0.4,1.4-0.7,2.8-0.9,4.2c-0.1,0.6,0.1,1.3,0.6,1.6
		c0.6,0.4,0.5-0.4,0.7-0.7c0,0,0.1-0.1,0.1-0.1c2.1,0.9,1.5-1.3,2.3-2c0.2-0.1,0.3-0.4,0.2-0.6c-0.8-5.1-0.4-7.7,2.2-12.7
		c1.5-2.8,2.5-5.6,2.3-8.8c0-0.1,0-0.2,0-0.4c0.2-0.8-0.1-2.1,1-2.1c0.8,0,0.2,1.2,0.5,1.9c0,0.1,0.1,0.2,0.2,0.3
		c0.6,0,0.6-0.5,0.7-0.9c0.9-4,1.7-7.9,2.5-11.9c0.1-0.6,0.5-1.3-0.7-1.6c-0.8-0.2-0.6-1.4-0.7-2.2c0-0.1,0.2-0.3,0.4-0.3
		c0.1,0,0.3,0.2,0.4,0.3c0.3,0.4-0.1,1.3,0.8,1.1c0.4-0.1,0.5-0.5,0.5-0.9c0-0.7,0.5-1.7-0.3-2c-2.9-1-0.4-1.4,0.4-2.1
		c-1.6-1-1.2-2-0.3-3.3c1-1.3,0.5-3.2,0.8-4.8c0.1-0.6,0-1.3,0.5-1.9c0.2-0.3,0.6-0.7,0.8-0.3c1,2.1,1.2,0.1,1.6-0.3
		c1-1.1,1.9-2.3,2.9-3.6c0.5,0.8,0.4,1.5,0.1,2.1c-3.6,7.1-5.1,14.8-6.2,22.6c-0.9,6.1-2.9,11.8-4.7,17.7c-1.3,4.3-2.2,8.6-1.7,13.2
		c0.2,1.8,0.2,3.6-1.2,5.1c-0.5,0.6-0.3,1.1,0.2,1.6c1.6,1.9,2.4,4,1.4,6.5c-0.1,0.4-0.2,0.8,0.1,1c1.2,1.1,1.3,2.9,2.3,4
		c2.1,2.2,2.8,5.1,4.2,7.6c0.8,1.3,2,2.1,3.1,3c1,0.8,2.6,1.5,2.5,2.9c-0.1,1.5-0.3,3-0.1,4.7c-1.2-2.6-3.7-3.5-5.6-5
		c-0.3-0.2-0.6-0.5-0.7-0.8c-0.4-2.5-2.3-3.9-3.9-5.5c-1-0.9-1.6-2.1-1.9-3.5c-0.2-0.8-0.3-1.5-0.7-2.2c-0.3-0.6-0.6-1.6-1.5-1.3
		c-0.9,0.3-0.4,1.2-0.2,1.9c0,0.2,0.2,0.4,0.3,0.7c1,2.6,1.8,5.1,2.6,7.8c0.6,2.1,0.9,4.3,2.1,6.3c0.6,1,0.7,2.3,0.7,3.5
		c0,2.1,1.1,4.1,0.9,6.2c-0.1,0.8,0,1.8-0.9,2c-0.9,0.2-1.4-0.7-1.7-1.4c-1-2.2-2.3-4.2-2.3-6.9c0.1-1.5-0.5-3.1-1.6-4.3
		c-0.3-0.4-0.6-0.8-0.5-1.3c0.4-2.6-0.9-4.7-1.8-6.9c-0.3-0.7-0.5-1.3-0.5-2.1c0-0.9,0-1.8-0.1-2.7c-0.1-0.7,0-1.8-0.9-1.7
		c-1,0-0.7,1.1-0.6,1.7c0,1.7,0.6,3.3,1,5c0.1,0.5,0.5,1.2,0.3,1.6c-1.3,3.2,0.6,5.9,1.2,8.7c0.6,3.2,0.8,6.5,2.1,9.5
		c0.4,1,0.2,2.3-0.3,3.3c-0.3,0.6-0.6,1.1-1.3,1.1c-0.8,0-1.2-0.6-1.4-1.3c-0.5-2-1.1-4.1-1.5-6.1c-0.3-1.7-0.7-3.3-1.5-4.8
		c-0.1-0.2-0.3-0.4-0.3-0.6c0.7-4.6-2.8-8.9-1.1-13.6c0.1-0.3,0.1-0.7,0-1.1c-0.1-0.4-0.3-0.9-0.8-0.9c-0.6,0-0.6,0.6-0.6,1
		c0,2.6,0.1,5.1,0.2,7.7c0,0.7,0,1.3-0.5,1.8c-2.1,1.9-2.3,4.3-1.8,6.9c0.5,2.7,0.6,5.4,2,7.9c0.6,1.1-0.9,4.7-2.1,5.3
		c-0.9,0.5-1.6-0.1-1.5-0.9c0.3-2.2-0.5-4-1.3-5.9c-0.4-0.9-0.4-1.9,0.1-2.9c0.9,0.5,0.9,1.5,1.3,2.2c0.2,0.4,0.6,0.9,1.1,0.6
		c0.7-0.4,0.1-0.7-0.1-1.1c-0.8-1.4-0.5-3.1-1.2-4.5c-0.4-0.9-0.5-2.1-1.7-0.5c-0.4,0.5-0.8,0.1-0.9-0.3c-0.5-1-0.9-2-0.4-3.1
		c0.6-1.5,1.4-2.8,2.7-4.1c0.2,1.5-0.7,2.4-1,3.5c-0.1,0.6-0.7,1.1-0.1,1.7c0.3,0.3,0.8,0.2,1.2,0.1c0.8-0.3,0.4-0.9,0.4-1.5
		c0-1.7,0.7-3.1,1.9-4.3c0.3-0.3,0.6-0.5,0.4-0.9c-0.2-0.4-0.5-0.6-1-0.7c-2-0.1-2.6-1.1-1.9-3.1c0.4-1.3,0.9-2.5,1.3-3.7
		c0.1-0.4,0.5-0.9-0.1-1.1c-0.6-0.3-0.8,0.3-1,0.8c-1.6,3.6-2.4,7.5-3.5,11.2c-0.3,1-0.7,2-0.9,3c-0.3,2.3-2,3.3-3.7,4.3
		c-0.6,0.3-1.1,0.4-1.7-0.1c-0.5-0.5-0.3-1.1,0-1.6c0.5-0.6,0.9-1.3,1.4-1.9c0.6-0.7,1.1-1.5,0.8-2.5c-0.1-0.2-0.1-0.5,0-0.7
		c2.1-3.1,1.3-7.2,3.2-10.4c0.1-0.1,0.2-0.2,0.2-0.3c-0.1-2.6,1.4-4.4,2.7-6.4c0.8-1.3,0.6-3.3,1.4-4.8c0.2-0.3,0.1-0.9,0.5-0.9
		c3.4,0.1,1.6-3.1,2.8-4.4c-0.7,0.9-1.4,1.8-2.3,3c0-0.6-0.2-0.9-0.1-1.1c1.5-2.2,1.2-5.1,2.9-7.2c0.2-0.3,0.3-0.8,0.4-1.2
		c1-7.1,2.6-14.1,4.2-21.1c1.6-7.2,3.2-14.4,4.3-21.7c0.4-3.1,0.4-6.2,1.5-9.3c0.6-1.6-0.9-1.2-1.7-0.9c-3.5,1.1-7,2.3-10.5,3.6
		c-8.2,3.1-16.3,6.7-24.3,10.4c-1,0.5-1.6,1-1.4,2.2c0.1,0.8-0.2,1.6-0.8,1.9c-2.6,0.9-1.8,3.7-3.1,5.3c-0.4,0.6,0.1,1.3,0.6,1.8
		c1.7,2,2,4.1,0.7,6.3c-0.4,0.7-0.4,1.2,0.1,1.8c1.9,2.2,2.6,4.6,1.5,7.4c-0.3,0.7,0,1.2,0.4,1.6c1.7,1.7,1.9,3.7,1.5,5.9
		c-0.5,2.1-0.3,4,1.5,5.6c1,0.9,1.3,2.2,0.9,3.5c-0.3,1.4-0.1,2.7,0,4.1c0.1,3.5,0.4,7.2-1,10.5c-3.4,8.2-9.6,10.8-18.3,8
		c-4.5-1.4-7.8-4.6-10.4-8.4c-0.2-0.3-0.4-0.6-0.6-0.9c-0.3-0.4-0.6-0.7-1.1-0.3c-0.4,0.2-0.3,0.6-0.2,1c0.5,0.9,0.4,1.7,0.2,2.6
		c-0.4,1.3,0.6,1.8,1.7,1.9c0.7,0,1.5-0.1,1.6,0.7c0.1,0.7-0.5,1.2-1,1.6c-0.4,0.3-0.8,0.6-1.3,0.7c-1.7,0.4-2.5,1.3-2.6,3.1
		c-0.1,1,0,1.5,0.9,2c1.3,0.6,1.3,1.9-0.1,2.5c-1.5,0.6-2.1,1.5-2.8,2.9c-0.8,1.7-0.3,2.2,1.2,2.5c0.9,0.2,1.7,0.6,1.7,1.6
		c0,0.9-0.9,1-1.6,1.3c-0.9,0.4-2.2,0.6-2.3,1.5c-0.2,1.5-1,3-0.9,4.5c0,0.7,0.4,0.8,1,0.9c1.5,0.2,1.9,1.2,1,2.4
		c-0.6,0.8-1.4,1.5-2.2,2.1c-1.2,0.8-1.5,1.8-1.3,3.1c0.2,1.1,0.4,2,1.8,1.1c0.4-0.3,0.9-0.3,1.3,0.1c0.4,0.4,0.4,1,0.3,1.5
		c-0.3,1-1.1,1.7-1.8,2.5c-0.3,0.3-0.6,0.7-0.3,1.1c0.3,0.4,0.7,0.4,1.1,0.4c4.1-0.3,6.8-2.3,8-6.4c0.9-3.1,2.8-4.8,5.9-5.4
		c0.4-0.1,0.8-0.2,1.2-0.2c6.7-1.4,11.6,0.9,15,7c1.4,2.5,1.3,3.3-0.7,5.3c-0.9,0.9-1.3,2-1.7,3.2c-0.5,1.2-0.8,2.4-1.4,3.5
		c-1.2,2.2-0.5,4.4,0.4,6.3c0.7,1.5,1,2.6,0.1,4c-0.3,0.5-0.6,1,0,1.4c0.6,0.4,1.1-0.1,1.5-0.6c0.5-0.7,0.9-1.4,1.3-2.1
		c1.4-2.1,2.8-2.5,4.9-1.6c2.3,1,3.4,2.9,2.8,5c-0.4,1.4-0.9,2.8-1.6,4c-1.5,2.6-2,5.4-1.5,8.4c1.6,9.6,2.1,19.3,4.4,28.8
		c0.8,3.3,1.6,6.6,2.3,9.9c0.5,1.9,1.4,3.6,2.5,5.2c0.8,1.1,1.5,2.2,2.1,3.4c1.5,2.7,1.5,5.5-0.5,8c-1.2,1.5-1.9,3.1-2.2,4.9
		c-0.1,0.6-0.2,1.4-0.6,1.9c-2.7,3.1-4.7,6.8-8.5,8.9c-3.6,2.1-6.1,5.3-8.4,8.7c-2,2.9-3.9,6-5.7,9c-1.3,2.1-2.5,4.1-4.1,5.9
		c-1.9,2.2-2.9,4.7-2.7,7.6c0.8,12.4-0.1,24.9,1.1,37.3c0.3,3.4,2.4,5.8,4.1,8.5c0.1,0.1,0.3,0.3,0.4,0.3c2.3-0.2,2.8,2.2,4.4,3.1
		c0.7,0.4,1.2,1.1,2.1,1.3c1.2,0.4,1.3,1.2,0.3,2c-1,0.9-2.1,1.4-3.4,1.4c-0.8,0.1-1.3,0.4-0.6,1.1c2.7,3.1,4.9,6.6,8.3,9.1
		c1.3,1,2.8,1.6,4.6,1.9c1.5,0.2,2.9,1.6,4.2,2.6c1.2,0.9,2.4,1.9,4,1.7c0.6-0.1,1,0.2,1.3,0.8c1.5,2.6,3.5,4.6,6.7,4.8
		c0.5,0,1,0.2,1.1,0.7c0.2,0.7,0,1.3-0.5,1.8c-0.9,1-2.2,1.3-3.4,1.4c-1.8,0.3-3.6,0.4-5.1,1.9c-1.3,1.3-3.3,0.9-5,1.2
		c-1.5,0.3-3,0.6-4.2,1.5c-0.1,0.1-0.2,0.2-0.3,0.2c-3.9,0.3-7.4,3.5-11.6,1.8c-1.3-0.5-2.7-0.9-4-1.7c-0.6-0.4-1.2-0.8-1.3-1.5
		c0-2.7-2.2-3.4-4-4.5c-0.8-0.5-0.5-1.3-1-1.8c-2-2.3-3.2-5.2-5.8-7.1c-1.4-1-2.8-1.3-4.4-0.9c-3.3,0.8-5.1,0.2-6.5-1.9
		c-1.7-2.5-1.7-6.3-0.1-8.6c1.1-1.6,2.7-2.5,4.4-3.5c1.1-0.7,2.2-1.3,3.2-2.1c1.4-1.2,1.2-2.1-0.4-2.9c-2.1-1-4.3-1.9-6.4-3
		c-2-1.1-3.5-2.6-3.7-5c-0.1-0.5-0.1-1.1-0.8-1.1c-2.4,0-3.6-1.6-4.7-3.2c-1.1-1.5-2.3-2.5-4.3-2.5c-0.9,0-1.9-0.3-2.9-0.5
		c-4.3-0.8-6.2-3.9-4.9-8.2c0.8-2.8,2.5-4.9,5.1-6.2c1.3-0.6,2.7-0.9,4-0.2c1.2,0.6,2,0.3,3-0.4c3-2,4.9-4.8,6.5-7.9
		c1.7-3.3,3.4-6.7,5.1-10c0.3-0.5,0.4-1,0.3-1.6c-0.2-2.5,0-5.1,0.1-7.6c0.3-4.4-0.1-8.7-1.1-13c-0.7-3.2-1-6.3,0-9.6
		c0.5-1.6-0.1-3.6,1-5.3c0.3-0.4-0.2-0.7-0.7-0.9c-2.3-0.7-3.2-2.7-2.9-4.7c1.1-8.1-2.5-14.4-7.4-20.1c-6.7-7.9-12.8-16.2-18.6-24.7
		c-0.7-1-1.6-1.7-2.8-2.2c-2.4-0.9-4.1-2.7-5.7-4.7c-2-2.4-3.9-4.8-6.7-6.3c-1.2-0.7-1.9-1.9-1.8-3.3c0.1-2.4,0-4.8-0.5-7.2
		c-0.3-1.5-0.1-3.1,1.5-3.9c1.6-0.8,3-0.4,4.5,1.1c0.6,0.6,1.1,1.1,1.7,1.6c0.3,0.2,0.6,0.4,1,0c0.2-0.2,0.3-0.6,0.1-0.8
		c-2.4-2.5-1-5.2-0.3-7.8c0.2-0.7,0.4-1.4-0.5-1.6c-2.2-0.5-3.4-2.2-4.3-3.9c-1.8-3.2-3.6-6.4-4-10.2c-0.5-5,1.6-8.6,6.4-10.2
		c2.8-1,5.8-1.2,8.7-1.7c2-0.3,3.9-1,5.9-0.8c4.3,0.2,6.7,2.8,6.3,7c-0.1,1.3-0.4,2.5-0.4,3.8c0,1.6,1.2,2.7,2.8,2.6
		c0.6,0,1-0.3,0.7-0.9c-1.3-2.2,0.4-4,1.2-5.6c0.7-1.3,0.9-2.4,0.4-3.7c-0.3-0.9-0.7-1.8-1-2.7c-0.4-1.3,0-2.1,1.1-2.9
		c2.4-1.6,4.2-5,3.3-7.3c-0.5-1.3,0.1-2,0.9-3c1.6-2.2,2.7-4.7,3.1-7.4c0.1-0.8,0.3-1.5,0.7-2.2c0.9-1.4,1.7-2.8,0.7-4.7
		c-0.5-0.9,0-2,1.1-2.4c1.6-0.7,1.2-2,1.4-3.2c0.1-1.3,0.3-2.4-1.4-2.8c-0.6-0.2-1-0.8-1-1.6c0-0.8,0.6-1.2,1.3-1.4
		c0.8-0.2,1.3-0.6,1.4-1.4c0.1-0.5,0.5-1.1,0-1.5c-0.4-0.4-0.9-0.1-1.4,0c-4.2,1-8,2.7-11.6,5c-1.2,0.8-1.8,1.6-1.6,3.2
		c0.3,2.9-1,5.2-3.6,6.6c-2.2,1.1-4.4,1.2-6.5-0.3c-0.9-0.7-1.8-1.5-1.8-2.8c0-0.7-0.5-1-0.9-1.4c-1.4-1.2-2.1-2.6-1.1-4.5
		c0.3-0.5,0.3-1,0-1.6c-1.2-2.2-0.6-4.2,0.5-6.2c0.3-0.5,0.6-1,0.2-1.5c-2.2-2.5-1.1-5,0.2-7.4c0.9-1.6,1.5-2.7,0.4-4.5
		c-1.1-1.8-0.1-3.7,1-5.2c0.9-1.2,1.4-2.3,1.1-3.9c-0.4-1.9,0.8-3.4,2.1-4.8c0.3-0.4,1.1-0.8,0.7-1.3c-0.5-0.7-1.1,0.1-1.5,0.5
		c-4.7,3.4-9.1,7.1-13.4,11.1c-7.1,6.6-15.1,12-23.4,16.9c-1.9,1.1-3.6,2.4-5,4.1c-2.4,2.7-7.6,3.1-10.5,0.7
		c-1.4-1.2-2.1-2.7-1.8-4.5c0.1-1-0.2-1.7-0.8-2.4c-2.6-2.9-2.5-4.6-0.1-7.7c3.5-4.5,5.6-9.7,7.7-14.9c2.8-7.4,5.8-14.7,9.8-21.5
		c1.9-3.2,3.2-6.6,2.7-10.5c-0.2-1.4,0.3-2.8-0.2-4.4c-0.8-2.6-2.5-3.4-4.6-4c-2.2-0.6-4.4-1.2-6.6-1.9c-2-0.6-4.3-0.7-6.4-1.4
		c-1.3-0.5-2.8,0.4-4.2,0.8c-1.8,0.5-3.7,0.5-5.5,0c-0.8-0.2-1.6-0.5-1.6-1.5c0-0.9,0.7-1.5,1.5-1.6c2.1-0.5,4.2-1.1,6.4-1.2
		c1.7-0.1,3.3-0.9,5-0.7c0.6,0.1,0.8-0.4,0.8-1c-0.2-1.3-0.3-2.7-1.6-3.5c-0.7-0.5-1.3-1-1.5-1.9c-0.8-3.8-3.7-6.3-5.8-9.2
		c-0.5-0.7-1.7-1.1-1-2.2c0.7-1.1,1.6-0.2,2.4-0.1c2.4,0.5,3.7,2,4.9,3.9c1,1.7,2.2,3.3,3.4,4.9c0.3,0.5,0.5,1.2,1.5,1.1
		c-0.8-3.2,0.9-6.1,0.7-9.4c-0.1-2.1,0.2-4.9,2.6-6.4c0.3-0.1,0.2-0.8,0.3-1.2c0.3-0.7,0.8-1.2,1.5-1.1c0.7,0,0.9,0.7,1.1,1.3
		c0.1,0.3,0.2,0.8,0.1,1.1c-1,2.7-0.4,5.6-0.9,8.4c-0.4,2.3-0.4,4.6-0.7,7.1c1-0.3,1.3-1.1,1.4-1.7c0.2-2.5,1.6-4.1,3.4-5.6
		c0.9-0.7,1.6-1.6,2.2-2.7c1.4-2.7,4.1-3.5,6.6-4.6c1-0.4,1.9,0.6,1.6,1.7c-0.2,0.6-0.5,1.1-0.9,1.6c-3.5,3.7-6.3,7.8-9.1,12.1
		c-2.1,3.1-2.1,4.1,0.5,6.7C196.7,139,197.2,139.2,197.3,139.8c-1.3-0.3-2.1-1.4-3.2-2c-0.3-0.2-0.7-0.7-1.1-0.2
		c-0.4,0.4,0,0.8,0.3,1c1.9,1.4,3.9,2.6,6.3,3.8C199,141,197.8,140.7,197.3,139.8z M257.1,295.9c-0.3,3.8-2.7,5.6-5.8,6.6
		c-3.6,1.2-7.3,1.2-11-0.1c-2.2-0.8-4-1.9-5-4.1c-0.4-1-1.3-0.9-2.1-1.3c-0.6-0.2-1.1-0.1-1.4,0.5c-0.3,0.7,0,1.1,0.6,1.4
		c2.7,1.4,3.9,3.8,4.6,6.6c1,3.9,1.8,7.7,4.2,11.1c6.7,9.4,14.4,17.8,22.2,26.2c1,1.1,2.4,1.8,4,1.9c5.1,0.5,7,2.5,7.7,7.6
		c0.2,1.4,0.6,2.7,1.5,3.8c2.6,2.8,2.8,5.9,1.5,9.2c-0.4,1.1-0.9,2.4-0.3,3.5c1.3,2.6,1.3,5.2,1.1,8c0,0.4-0.2,0.9,0.4,1.1
		c0.4,0.1,0.6-0.4,0.7-0.7c1.9-3.5,3.6-7.1,3.3-11.3c-0.1-0.8,0-1.7,0.1-2.5c0.3-3.8,1.5-5.1,5.3-5.5c0.8-0.1,1.1-0.4,1-1.1
		c-0.5-2.6,0.4-5,1.3-7.4c1.3-3.3,1.9-6.7,1.8-10.3c-0.2-5-0.8-9.9-1.4-14.8c-1-7.8-1-15.7-3.3-23.3c-0.6-1.8-1-3.7-2.1-5.4
		c-1.9-2.9-4.7-2.9-6.4,0.1c-3.2,5.6-8.9,7.6-15.1,5.2C261.6,300.1,259.1,298.5,257.1,295.9z M243.3,322.8c0,1,0.4,1.8,1,2.6
		c0.9,1.2,1.8,2.4,2.7,3.6c0.2,0.3,0.7,0.7,0.2,1.1c-0.3,0.2-0.7-0.1-0.9-0.3c-1.2-1.1-2.2-2.4-3.1-3.8c-1.6-2.5-2.7-5.4-5.1-7.4
		c-0.7-0.6-1.1-1.5-0.1-2.3c0.5-0.4,0.2-0.8,0-1.3c-1.7-2.9-3-6.1-5.5-8.5c-0.8-0.7-1.7-1.9-1.3-2.8c1-2-0.3-2.6-1.6-3.4
		c-0.5-0.3-1-0.9-1.4-1.4c-0.3-0.3-0.5-0.8-0.1-1.1c1.7-1.6,1.2-3.3,0.4-5.1c-0.4-1,0.2-1.9,0.9-2.3c0.9-0.5,1,0.5,1.2,1.1
		c0.1,0.4,0.4,0.6,0.8,0.5c1.7-0.6,2.2,0.4,2.3,1.8c0,0.5,0.1,0.9,0.6,0.9c0.5,0.1,0.8-0.2,1.1-0.5c0.8-1,0.5-2,0-2.9
		c-1.3-2.3-3.4-3.9-5.8-5c-1.1-0.5-2.3-0.7-3.5-0.6c-0.9,0.1-1.7,0.4-1.9,1.4c-0.2,1,0.5,1.3,1.3,1.6c1.5,0.6,1.7,1.8,1.2,3.1
		c-0.7,2.1-2.2,2.7-4.3,1.7c-1.4-0.6-2.6-1.7-4.2-2.2c-0.8-0.2-1.4-0.1-2,0.5c-0.6,0.7-0.2,1.2,0.2,1.7c0.7,0.9,0.8,1.8,0.4,2.9
		c-0.3,0.9-0.5,1.9-0.6,2.8c-0.2,1,0.1,1.9,1.2,2.3c1.9,0.7,3.2,2.1,4.3,3.7c1.6,2.5,3.6,4.5,6.1,6.1c3,1.9,5.4,4.4,7.5,7.3
		c1.8,2.6,3.5,5.4,5.5,7.9c4.5,5.8,9.1,11.4,13.7,17.1c3.2,4.1,5.2,8.6,5.5,13.9c0.1,1.5,0.3,2.9,0.8,4.3c0.4,1.1,1.1,2,2.1,2.6
		c0.8,0.4,1.5,0.4,2.2-0.2c0.7-0.5,0.2-1,0-1.6c-0.5-1.3-0.4-2.7,0.1-3.9c0.7-1.8,1.4-3.6,1.8-5.5c0.3-1.3,1.3-2,2.7-1.9
		c0.6,0,1.2,0.2,1.8,0.3c1.6,0.2,2-0.2,1.4-1.7c-1-2.6-5.5-4.3-7.6-2.4c-1.7,1.4-2.4,0.3-3-0.5c-1.4-1.8-2.8-3.7-3.5-6
		c-0.5-1.6-2.2-2.7-3.3-3.9c-0.1-0.1-0.4-0.2-0.5-0.1c-0.7,0.9-1.3,0.6-1.9-0.1c-0.5-0.6-1-1.2-1.4-1.9c-0.2-0.3-0.3-0.6,0.1-0.8
		c1.4-0.6,0.3-1.1,0-1.6c-2.3-3.1-4.7-6.1-7.1-9.2C244.3,323.4,244.2,322.8,243.3,322.8z M292,311.2c-0.6,0.7-0.5,1.4-0.4,2.2
		c0.7,9.5,2.2,18.9,3,28.4c0,0.4,0,1,0.4,1.1c2.4,0.9,1.2,2.6,1,4.1c-0.1,0.7-0.6,1.2-0.2,2.1c0.7,1.3-0.5,1.8-1.4,1.9
		c-0.9,0.1-1.8-0.3-2.2,0.9c-0.4,0.9-0.9,1.7-0.9,2.7c0,0.9,0.2,1.7,1.2,2c1,0.3,1.5-0.1,2-1c1.6-3,4.2-4.6,7.4-5.4
		c2.5-0.6,4.3,0.2,5.6,2.4c0.2,0.3,0.2,0.8,0.7,0.7c0.5-0.1,0.6-0.5,0.7-1c0.1-0.7,0-1.3-0.3-1.9c-0.7-1.7-2-2.9-3.6-3.7
		c-1.5-0.8-2.1-1.8-1.5-3.5c0.2-0.7,0.3-1.4-0.1-2.1c-1.9-3.4-2.5-7.1-3.1-10.9c-0.6-3.9-0.8-7.8-2.1-11.6c-1.8-5-2.3-10.2-3.7-15.3
		c-1-3.4,0.6-7.1-1.1-10.4c-0.1-0.1,0-0.4,0-0.5c0.1-0.7,0-1.8,0.9-1.7c0.8,0,0.3,1.1,0.4,1.7c0,0.2,0,0.4,0,0.5
		c0.1,0.4,0.1,0.9,0.6,1c0.5,0.2,0.8-0.2,1.1-0.5c0.7-1,1.6-2,2.1-3.1c0.9-1.7,0.2-4.3-1.3-5.4c-1.2-0.9-2.4-0.7-3.2,0.6
		c-0.6,1-1,2-1.6,3c-0.4,0.7-1.2,1.8-1.9,1.4c-1.8-1.1-2.9-0.2-4.2,0.7c-0.1,0.1-0.2,0-0.4,0c-0.4,0.1-0.9-0.1-1,0.5
		c-0.1,0.5,0.4,0.7,0.8,0.9c1.4,0.9,2.5,2.3,4.1,2.9c1.1,0.4,1.6,1.6,1.7,2.8c0.2,1.6,0.3,3.1,0.4,4.7c0.7,6,2.2,11.9,2.6,17.9
		c0.1,1.6,0.4,3.1-0.3,4.7C292.8,320.5,293.1,315.7,292,311.2z M270.3,413.9c0,7,0,14,0,21c0,2.4,0.5,4.7,1.2,6.9
		c0.9,2.6,2,5,2.5,7.8c0.6,3.8,0.7,3.8,4.5,4.5c0.4,0.1,0.8,0.1,1.3,0.2c1.4,0.2,1.8-0.5,1.7-1.8c-0.2-1.6-1.1-2.9-2-4.2
		c-1.7-2.3-3.8-4.5-4.4-7.5c-0.2-0.8-0.5-1.5,0.3-2.3c0.7-0.7,0.9-1.8-0.7-2.1c-0.6-0.1-0.8-0.4-0.6-0.8c0.7-2,0-4.2,1.1-6.2
		c0.7-1.2,0-2.7,0-4.1c0-0.5-0.4-0.5-0.8-0.4c-0.4,0.1-0.7,0-0.9-0.4c-0.1-0.5,0.1-1,0.4-1.1c1.5-0.6,1.3-1.9,1.2-3
		c0-1.6-0.1-3.3-0.1-4.9c0-0.7-0.1-1.3-0.8-1.6c-1.3-0.7-1.3-1.6-0.1-2.3c0.8-0.5,1-1.2,0.9-2c0-1.2,0-2.4,0-3.6
		c0-2.1,0.6-4.3,0-6.1c-1-2.8-0.6-5.7-1-8.5c-0.2-1.5,0.1-3,0.4-4.5c0.1-0.5,0.2-1.2,1-1c1.5,0.3,1.5,0.4,1.3-1.2
		c-0.3-2.4-0.8-4.8-1.2-7.1c-0.1-0.9-0.2-1.8,0.8-2.5c1.3-1,0.7-2.6,0.2-3.7c-0.6-1.3-1.4,0.1-2.1,0.3c-3.3,1.3-7.1,0.1-8.1-2.6
		c-0.2-0.6,0-1.7-1-1.7c-1,0-1.8,0.7-2.3,1.6c-0.5,0.9-0.5,1.7,0.9,1.7c1.4,0.1,2.1,1,2.5,2.2c0.8,2.5,1.2,2.7,4,2.5
		c0.5,0,0.6,0.3,0.7,0.7c0.5,2.6,2.7,5.1,0.2,7.8c-0.1,0.1-0.1,0.2-0.1,0.3c0.2,3.9-1.2,7.6-0.9,11.5
		C270.6,401.7,270.4,407.8,270.3,413.9z M280.5,257.9c-1.9,0-4.2,0.3-6,2.1c-0.9,0.9-2,2.3-1.3,3.3c1.7,2.3-0.3,2.9-1.5,3.6
		c-1.5,0.9-3.3,1.5-4.9,2.2c-0.7,0.3-1.6,0.6-1.7,1.5c-0.2,2,0.9,3.7,1.4,5.5c0,0.2,0.5,0.3,0.8,0.3c1,0,2-0.1,3.1-0.2
		c0.4,0,1-0.1,1-0.6c0.1-0.6-0.5-0.6-0.9-0.7c-1.9-0.5-2.3-1.3-1-2.8c1.4-1.6,3.5-2.4,5.3-3.4c0.8-0.5,0.9,0.3,0.9,1
		c0,1.3-0.1,2.7,0.7,3.7c1.8,2.5,1.9,2.5-0.3,4.4c-0.3,0.3-0.6,0.6-0.4,1.1c0.2,0.4,0.6,0.5,0.9,0.3c1.2-1.1,2.9-0.6,4.3-1.3
		c0.7-0.4,1.7-1.1,2.3,0.2c0.6,1.3-0.4,1.8-1.4,2.3c-0.7,0.3-1.5,0.6-2.2,0.9c-2,1-4.2,2-5.1,4.1c-1.2,2.7-3.3,3.5-5.8,3.9
		c-2.2,0.4-4.4,0.7-6.6,1.1c-1.1,0.2-1.8,0.8-2.2,1.9c-0.6,2,0.8,4.5,2.8,5.1c0.4,0.1,0.9,0.1,1.1-0.3c0.3-0.4,0-0.8-0.2-1.1
		c-1.6-2.2-1.4-3,1.2-4c2.4-1,4.9-1.2,7.5-1.3c1.3,0,1.9-0.6,2.5-1.7c0.9-1.8,1.5-4.1,4.3-3.9c0.3,0,0.6-0.4,0.9-0.6
		c1.8-1.6,3.8-2.8,6.1-3.4c0.7-0.2,1.3-0.5,1.1-1.4c-0.4-2,0.5-3.5,1.5-5c1.2-1.7,2.2-3.5,2.1-5.6c0-0.7,0.3-1.3,0.7-1.8
		c1.6-1.9,1.6-2.6-0.3-4.1c-1.3-1-2.9-1.7-3.9-2.9C285.7,258.1,283.5,257.9,280.5,257.9z M287,226.3c1-0.3,1.9-0.7,2.9-1.1
		c3.6-1.4,6.8-3.2,8.1-7.2c0.1-0.4,0.4-0.9-0.1-1.1c-0.5-0.3-0.8,0.2-1,0.6c-2.3,4-5.9,5.8-10.2,6.3c-2.7,0.3-5.6,0.6-8.1-1
		c-0.6-0.4-1.6-0.7-1.4-1.6c0.2-1,1.2-0.7,2-0.7c5.4-0.2,10.4-1.3,14.9-4.5c0.4-0.3,1.2-0.6,1-1.1c-0.7-1.5,0.4-1.8,1.2-2.3
		c0.5-0.4,1.1-0.8,1.4-1.4c0.2-0.5,0.5-1.1-0.1-1.5c-0.5-0.3-0.9,0.1-1.2,0.5c-2.5,4.4-6.9,5.8-11.3,7.2c-2.7,0.8-5.2,1.8-8.3,1.1
		c-4.8-1.2-8.7-3.9-12.4-6.9c-2.8-2.2-5.5-4.5-8.7-6.2c-0.7-0.4-1.3-0.5-1.9,0.2c-0.6,0.8-0.2,1.3,0.5,1.8c0.3,0.2,0.5,0.3,0.7,0.5
		c0.4,0.4,0.4,0.9-0.2,0.9c-1.7,0-3.3,0.9-5,0.8c-3.1-0.2-4.9,0.9-5.4,3.9c-0.1,0.4-0.2,0.9,0.1,1.2c0.4,0.3,0.8,0,1.2-0.2
		c2.9-1.4,6-2.3,9.1-3.1c0.9-0.2,1.9-0.3,2.6-1.2c0.3-0.5,0.7-0.3,1.1,0c4.5,3.2,8.9,6.5,11.5,11.6c1.4,2.7,3.1,5,5.4,7
		c3.9,3.3,8.5,4.1,13.4,3.5c0.5-0.1,1.7-0.2,1.1-0.9c-1.4-1.6,0.3-1.4,0.8-1.6c1.9-0.9,3.9-1.4,5.4-2.9c0.4-0.4,1.1-0.8,0.7-1.3
		c-0.4-0.6-0.9,0.1-1.4,0.3c-2.3,1.3-4.5,2.6-7,3.3c-3.3,0.9-6.4,0.7-9-1.8c-0.4-0.4-1.3-0.8-0.8-1.6c0.4-0.7,1.3-0.5,1.8-0.2
		c0.7,0.3,2.3,0.1,1.9,1.3c-0.4,1.3,0.3,1.2,1,1.3c3.2,0.7,6.1-0.2,9-1.3c0.5-0.2,1.1-0.7,0.8-1.2c-0.4-0.7-0.9-0.1-1.4,0.1
		C290,226.3,288.6,227.2,287,226.3z M262.5,280.2c0,2,0,3.9-0.8,5.6c-0.5,1.2-1.4,2-2.8,2c-1.3,0-1.9-0.9-2.2-2
		c-0.4-1.3-1.3-2-2.5-2.3c-1.4-0.3-2.4-1.1-3.3-2.1c-0.7-0.7-1.4-1.5-2.2-2.2c-1.5-1.3-1.8-1.2-2.8,0.5c-1.1,2-2.4,3.9-5.2,3.2
		c-0.9-0.2-1,0.4-1,1.1c0,3.1,1.9,5.5,5,6.3c2,0.5,4,0.4,5.9,0.7c1.9,0.3,3.9,0.5,5.2,2.2c0.7,0.9,1,0.3,1.2-0.4
		c0.5-1.7,1.8-2.6,3.3-3.1c1.7-0.6,3.4-1,5.1-1.4c2.3-0.6,4.2-1.7,6-3.3c1.7-1.5,1.9-4.3,0.7-6.4c-1.2-2-2.8-1.3-4.5-0.7
		c-0.5,0.2-1,0.4-1.6,0.5c-0.7,0.2-1.4,0.2-2.1-0.2c-0.4-0.3-0.8-1-1.4-0.5c-0.4,0.3-0.1,0.9-0.1,1.4
		C262.5,279.4,262.5,279.9,262.5,280.2z M263.9,154.6c0.6,0,1.2-0.1,1.8-0.2c0.4-0.1,0.9-0.2,1.2-0.4c4.1-2.8,8.6-5.2,8.8-11.1
		c0-0.2,0.1-0.5,0.2-0.7c0.4-2.5,1.2-4.8,2.3-7c0.6-1.2-0.4-1.8-1-2.2c-0.8-0.5-1.1,0.5-1.3,1.1c-0.5,1.1-0.8,2.3-0.9,3.5
		c-0.1,0.9,0.5,2.5-1.5,1.6c-0.4-0.2-0.7,0.3-1,0.6c-1,0.9-2.1,1.8-3,2.9c-2.2,2.4-7.8,1.5-9.1-1c-0.7-1.4-1.5-3.3-3.3-3.3
		c-2.1,0-2.3-1.1-2.4-2.6c-0.1-1.5-0.3-2.9-0.7-4.3c-0.2-0.5-0.5-1-1.1-1.1c-0.6-0.1-0.9,0.3-1.2,0.7c-0.3,0.4-0.1,1.2-0.8,1.1
		c-0.7-0.1-0.5-0.8-0.7-1.3c-0.2-0.7-0.3-1.6-1.4-1.2c-0.9,0.3-1.2,1.2-0.8,2.1c0.3,0.6,0.7,1.2,1.2,1.6c1.8,1.6,2.5,3.7,2.4,6
		c-0.1,2.6,0.2,4.7,2.6,6.4c1.7,1.3,2.4,3.6,3.6,5.4C259.3,153.5,261.3,154.6,263.9,154.6z M290.3,158.7c-1.1,0-1.7-0.3-2.2,0.3
		c-1.4,1.8-1.5,4.8-0.3,6.7c0.3,0.4,0.5,0.9,1.1,0.8c0.6-0.1,0.2-0.7,0.3-1.1c0-0.3,0.2-0.6,0.5-0.7c2-1.2,3.6-0.4,3.9,1.9
		c0,0.4,0.1,0.7,0.6,0.7c1.1,0,2.6-1.6,2.4-2.7c-0.1-0.8,0.4-0.9,0.9-1c1.7-0.4,3.4-0.8,5.1-1.3c3.5-1.1,6.9-2.1,10.2-3.6
		c1.7-0.8,2.9-2.1,4.8-2.6c4.6-1.3,9.2-2.9,13.8-4.4c0.5-0.2,1.3-0.3,1.2-0.9c-0.2-1.6,1-1.9,1.8-2.7c1.4-1.5,2.7-3.1,5-3.1
		c0.9,0,1.1-1.4,2-1.3c0.8,0,1.4,0,1.1-1c-0.3-0.9-1-1.1-1.7-0.7c-1.6,0.8-3.3,1.4-4.6,2.8c-2.2,2.3-4.3,5.1-8.2,4.1
		c-0.2,0-0.4,0-0.5,0.1c-5,2.3-10.5,3.2-15.7,5c-4.3,1.5-8.5,3.3-13.1,3.5c-1.8,0.1-3.8,0.3-5.2-1.3c-0.4-0.4-0.9-0.5-1.3-0.2
		c-0.4,0.3-0.8,0.6-0.6,1.2C292.1,158.7,290.9,158.7,290.3,158.7z M252.6,183.8c0.6-0.7,0.2-2.6,2-1.2c0.7,0.5,0.7-0.3,0.8-0.6
		c0.8-2.9,1.8-5.8,3.1-8.5c0.8-1.7,0.5-3.2-0.3-4.8c-0.3-0.5-0.5-0.9-1.1-0.7c-0.5,0.1-1,0.5-0.9,1c0.4,2-1,2.7-2.5,3.1
		c-1.1,0.3-1.7,1-1.9,2.1c-0.2,1.2-0.4,2.4-0.6,3.6c-0.1,1.2-0.4,2.3-1.1,3.2c-1.2,1.6-1.6,3.4-1.7,5.3c-0.1,3.3,0,6.5-0.1,9.8
		c-0.1,3.7-1.7,7.6,0.8,11.2c0.1,0.1,0,0.2,0.1,0.4c0.1,0.6,0.3,1.1,1,1.1c0.6,0.1,1.1-0.3,1.3-0.8c0.5-1,0.8-2,1-3.1
		c1.1-5.4,0.3-11,1.3-16.4c0.2-1.2,0.5-2.5-0.9-3.4C252.8,184.8,252.8,184.2,252.6,183.8z M298.6,368.2c-0.8,0-1.7,0.1-2.4,0
		c-1.1-0.2-2.2-0.9-3.3,0.2c-0.4,0.4-1.2,0.2-1.5-0.5c-0.3-0.6,0.1-1.1,0.6-1.5c1-0.7,0.8-3.7-0.4-4.1c-1.1-0.4-1.9-1-2.6-1.9
		c-0.7-0.8-1.6-0.8-2.5-0.5c-0.9,0.3-1.3,1.1-1.3,2c0,1,0,1.9,0.2,2.9c0.5,2.3,0,4.3-1,6.3c-1.7,3.5-3.4,7.1-5.1,10.6
		c-1.4,2.8-2,5.8-2.2,8.9c0,0.4-0.1,0.9,0.4,1.1c0.4,0.1,0.7-0.2,0.9-0.5c2.6-3.3,5.2-6.7,7.7-10c0.5-0.6,0.7-1.3,0.1-2.2
		c-0.8-1.1,0.1-1.5,0.9-1.4c1.3,0,1.9,0,0.9-1.5c-0.6-0.9,0.4-3.3,1.2-4c0.9-0.7,1.2,0.4,1.9,0.6
		C292.3,368.6,296.7,370.8,298.6,368.2z M179,205.2c0,1.6,0.5,3,1.7,4c0.5,0.5,1.1,0.5,1.7,0.2c0.6-0.3,0.6-0.8,0.4-1.4
		c-0.4-1-0.3-1.9,1.1-2.1c0.2,0,0.6-0.2,0.6-0.3c0.6-2.6,2.7-4.6,3.4-7.2c0.7-2.7,1.4-5.4,2.3-8c2.8-9.1,6.3-18,11.4-26.1
		c1.6-2.5,3.5-4.9,5.1-7.5c1.5-2.6,0.4-4.5-2.6-4.7c-0.7,0-1.6-0.3-1.9,0.6c-0.3,0.7-0.2,1.6,0.5,2.3c1.5,1.6,1.1,3.3-0.9,4.3
		c-0.1,0.1-0.3,0.2-0.4,0.3c-1,2.3-2.8,4.2-3.4,6.7c-0.3,1.3-0.8,2.7-1.7,3.8c-0.6,0.7-0.8,1.4-0.7,2.3c0.1,1.7-0.9,3.1-2.2,3.9
		c-1,0.6-1.4,1.4-1.9,2.2c-1.6,2.2-0.4,5.3-2.5,7.3c1.1,1.6-1,2.5-0.7,4.1c0.2,1.2-0.2,2.5-1.7,3.1c-0.5,0.2-0.5,0.6-0.3,1.1
		c0.5,0.9,0,1.4-0.8,1.6c-0.9,0.2-1.5,1.1-1.2,1.6c0.8,1.3,0.1,1.8-0.8,2.5c-0.6,0.6-1.2,1.1-2,1.5C180,202,179.1,203.3,179,205.2z
		 M272.3,452c0-0.7-0.1-1.4-0.4-2.1c-0.8-2-1.7-3.9-2.3-5.9c-1.6-5.3-2.2-10.9-2.8-16.4c-1-9.4-2-18.8-2.2-28.3
		c-0.1-5.8,0.2-11.6,0.6-17.4c0-0.5-0.2-1.5,0.7-1.3c1.3,0.3,1-0.6,0.9-1.1c-0.4-1.9-1.2-3.7-2.4-5.2c-0.4-0.5-0.8-1.2-1.6-1
		c-0.8,0.2-1,1-1.1,1.7c-0.2,1.9-0.1,3.9,0.4,5.7c1,3.8,1.4,7.6,1.2,11.5c-0.2,4-0.1,8,0.1,11.9c0.5,10,1.9,19.9,3.1,29.9
		c0.5,4.1,0.8,8.3,2.1,12.3c0.7,2.2,0.7,4.2,0,6.4c-0.5,1.5-1,3-0.9,4.6c0,0.9,0,2.1,1.1,2.2c1,0,1-1.3,1.4-2.1
		c0.2-0.4-0.1-0.8-0.4-1.2c-0.5-0.9-0.1-1.5,0.7-1.7C272.2,454.4,272.4,453.3,272.3,452z M288.9,209.6c2.1-1.2,4.1-1.7,5.2-3.6
		c-0.9-0.6-1.4,0.9-2.3,0.1c0.5-1.1,1.8-1.4,2.4-2.3c0.3-0.4,1.2-0.9,0.5-1.5c-0.6-0.6-1.1,0.1-1.4,0.6c-1.4,1.8-3.2,3-5.3,3.5
		c-4.5,1.1-9.1,0.9-13.7,0.3c-3.8-0.5-7-2.4-10.3-4.2c-2.5-1.3-5-2.4-7.8-2.6c-0.6,0-1.3-0.1-1.5,0.6c-0.2,0.8,0.4,1.2,1,1.4
		c1.7,0.5,3.2,1.6,4.8,2c1.5,0.4,2.3,1.1,3.3,2.1c3.4,3.6,8,3.9,12.5,4.4c3.1,0.3,6.1,0.2,9.2-0.2c0.5-0.1,1.1-0.4,1.4,0.3
		c0.8,1.8,2.7,2.1,4.2,2.8c0.9,0.4,1.8-0.3,2.2-1.1c0.4-0.9-0.5-1.2-1-1.7C291.4,209.8,290.2,210,288.9,209.6z M216.5,267.6
		c0.2,3.7,2.1,7.9,5.2,11.5c1,1.1,1.7,0.9,2.1-0.6c0.4-1.5,0-3-0.5-4.4c-0.6-1.5-1.2-3-1.7-4.6c-0.6-1.9,0.6-3.7,0.5-5.6
		c0-0.5,0.6-1.2,1.3-1.4c0.8-0.2,0.6,0.7,0.9,1.1c0.6,0.8,1.5,1.3,2.3,1.1c0.9-0.2,0.2-1.1,0.2-1.7c0-1.2,0.6-0.9,1.3-0.6
		c1.3,0.7,2.1-0.5,2.4-1.1c0.3-0.8-0.9-0.5-1.4-0.7c-0.4-0.2-1.1-0.2-1-0.8c0.1-0.6,0.7-0.5,1.2-0.6c0.4,0,0.8,0,1,0.2
		c1.4,1.2,2.7-0.1,4.1-0.1c0.4,0,0.7-0.4,0.7-0.9c0-0.3-0.3-0.7-0.5-0.6c-1.5,0.6-2.9-0.4-4.4-0.2c-2.5,0.3-4.9,0.7-7.3,1.2
		C218.6,259.8,216.5,262.3,216.5,267.6z M243.2,207.2c0.1,0.1,0.2,0.2,0.3,0.4c-1.6,1.7-3.1,3.6-5,4.9c-1.6,1-3.2,1.9-5.2,1
		c-1-0.4-1.9,0-2.5,0.9c-0.6,0.8-0.8,1.7-0.4,2.7c0.5,1.1,1.4,1.2,2.4,1.2c2.2-0.1,3.8-1.2,5.4-2.6c0.7-0.6,1.5-2.2,2.3-1.5
		c0.8,0.7-0.3,2-0.7,2.9c-1.9,4-4.5,5.3-8.6,4.4c-0.3-0.1-0.7-0.2-0.8,0.2c-0.1,0.2,0,0.6,0.1,0.8c0.9,1.2,2.2,1.5,3.6,1.2
		c1.6-0.3,3-0.8,4.3-1.8c0.9-0.7,1.4-0.4,1.5,0.7c0.2,2.4-1.5,4.1-4.4,4.5c-0.4,0.1-1-0.2-1,0.5c0,0.5,0.5,0.6,0.9,0.8
		c1.5,0.5,4.9-1.2,5.2-2.8c0.5-2.6,0.9-5.2,1.4-7.8c0.8-4,1.8-7.9,5-10.8c1.3-1.2-2.1-1.6-0.5-2.9c-0.1-0.1-0.2-0.3-0.4-0.3
		c-0.4-0.1-0.7,0.1-1,0.3c-1,0.7-2,1.3-3,2.1c-1.7,1.3-3.2,2.7-5,3.8c-0.8,0.5-2.7,0.8-1.9,2c0.6,1,1.9-0.4,2.7-1
		C239.7,209.9,241.4,208.5,243.2,207.2z M268.4,366.1c0,0.6,0,1,0,1.3c0.1,3.1,1.7,4.1,4.5,2.8c5.1-2.3,6.2-10,2-13.4
		c-0.3-0.3-0.6-0.6-0.9-0.9c-1.4-1.7-2.3-1.7-3.8-0.1c-0.8,0.9-1.7,1.7-2.8,2.2c-1.6,0.7-1.9,2.1-0.7,3.4
		C268.1,362.8,268.7,364.4,268.4,366.1z M298.1,366.1c3.6,0,6.3-2.1,7.1-5.7c0.3-1.4,0.6-2.7,0.9-4.1c0.2-1,0.1-2-0.3-3
		c-0.3-0.7-0.8-1.3-1.6-1.1c-1.9,0.3-3.9,0.3-5.6,1.2c-1.4,0.7-2.4,1.9-1.7,3.3c1.1,2.4-0.2,3.7-1.7,5.1c-1.6,1.5-1.4,2.7,0.6,3.7
		C296.4,365.9,297.2,366.1,298.1,366.1z M279.2,201.1c3.7-1.2,8.2-1.5,12-4c1.5-1,2.4-2.5,2.7-4.3c0.1-0.7,0.3-1.4-0.4-1.8
		c-0.8-0.5-1.2,0.2-1.7,0.7c-1.2,1.4-2.6,2.5-4.3,3.3c-4.7,2.3-9.7,2.7-14.8,2.2c-5.6-0.5-11.1-1.8-16.4-3.6
		c-0.6-0.2-1.4-0.6-1.6,0.4c-0.2,0.9,0.1,1.5,1.1,1.7c1.5,0.3,3,0.6,4.4,1.1c2.6,0.9,5.2,2,7.8,2.8c1.7,0.5,3.6,0.2,5.4,0.1
		C275,199.6,276.8,200.9,279.2,201.1z M291.7,179.4c-1.6,4.7-5.2,6.3-9.3,7.3c-0.8,0.2-1.6,0.3-1.9,1.2c-0.4,1-1,0.9-1.7,0.3
		c-0.8-0.8-1.8-0.8-2.8-0.8c-5.9,0.2-11.8-0.1-17.7-0.9c-1-0.1-2.4-1.1-2.8,0.4c-0.4,1.6,1.4,1.5,2.3,1.8c6.3,1.8,12.7,2.5,19.2,2
		c4.1-0.3,8-1.2,11.5-3.3c0.4-0.3,1.3-0.8,0.9-1.1c-1.7-1.5,0.1-1.9,0.7-2.2C292,183,292.5,181.7,291.7,179.4z M241.2,295.6
		c2.6-0.3,5.3-0.7,7.9-1.1c0.6-0.1,1.6,0.6,1.7-0.6c0.1-1.2-0.8-1.4-1.7-1.6c-1.8-0.3-3.6-0.6-5.3-1.1c-1.6-0.4-3.3-1-4.2-2.6
		c-2.2-3.9-5.8-5.6-10.1-6.1c-0.7-0.1-1.2-0.1-1.4-1c-0.3-1.2-1.3-1.4-2.1-0.4c-0.5,0.6-0.8,1.4-0.5,2.2c0.3,0.9,1.1,0.9,1.9,1.1
		c5.2,1,9.5,3.3,10.7,8.8C238.5,295.2,239.2,295.9,241.2,295.6z M262.4,412.3C262.5,412.3,262.5,412.3,262.4,412.3
		c-0.1-1.1-0.2-2.3-0.4-3.4c0-0.3-0.1-0.6-0.4-0.7c-0.5-0.1-0.6,0.3-0.7,0.6c-0.6,1.3-1,2.7-1.7,4c-2.2,4.1-5.2,7.6-8.7,10.8
		c-1.9,1.8-1.7,4.4,0.5,5.4c0.5,0.2,1,0.4,1.3,0c0.5-0.6-0.1-0.8-0.5-1.1c-0.4-0.3-0.7-0.7-0.5-1.3c0.2-0.6,0.7-0.5,1.2-0.5
		c0.6,0,1.2-0.1,1.7-0.5c4.6-3,6.8-7.7,8.2-12.7C262.5,412.7,262.4,412.5,262.4,412.3z M203.8,163.3c-6.8,9.4-10.2,20.3-13.2,31.3
		C196.8,184.9,201.4,174.6,203.8,163.3z M188.5,203.5c1.5-0.4,2.5-1.3,3.2-2.7c1.6-3.8,3.3-7.5,5-11.2c4.4-9.3,8.9-18.5,11.6-28.4
		c0.2-0.6,0.7-1.3,0.1-1.7c-0.7-0.5-1.1,0.5-1.5,0.9c-0.7,0.5-0.8,1.3-1,2.1c-0.4,1.6-0.8,3.3-1.3,4.9c-3.2,10.7-8.2,20.4-13.9,30
		c-0.9,1.6-1.8,3.1-2.7,4.7C187.5,202.7,187.4,203.3,188.5,203.5z M261.2,168.7c0.6-0.1,1.1-0.4,1.5-0.9c1.3-1.5,3-2.4,4.8-3.1
		c4.8-2,9.5-4,14.3-6c2.1-0.9,4.3-1.4,6.7-1.5c0.6,0,1.3,0.1,1.5-0.6c0.2-0.6,0.1-1.2-0.3-1.7c-0.5-0.6-1.1-0.6-1.8-0.3
		c-0.7,0.3-1.5,0.6-2.2,0.9c-6.9,2.6-14,5-20.5,8.6c-1.6,0.9-3.1,1.9-4.6,2.9c-0.4,0.2-0.6,0.6-0.4,1.1
		C260.4,168.5,260.8,168.7,261.2,168.7z M233.5,210.4c0.9,0.1,1.7-0.2,2.4-0.8c3.1-2.5,6.2-4.9,9.3-7.4c0.4-0.3,1.2-0.7,0.9-1.4
		c-0.4-0.7-1.1-0.1-1.6,0.1c-2.5,0.7-4.3,2.6-6.6,3.7c-1.1,0.5-2.2,1-3.3,0.3c-1.3-0.8-2.3-0.4-3.2,0.6c-1,0.9-1.7,2-1.1,3.4
		C230.9,210.1,232.1,210.4,233.5,210.4z M238.6,191.7c2.7-0.1,5.3-0.4,7.8-1.5c0.9-0.4,1.1-1.1,0.9-1.9c-0.2-1.1-1-0.5-1.6-0.4
		c-1.7,0.3-3.5,0.4-5.2,0.2c-1.2-0.1-2.3-0.5-2.2-2.1c0.1-0.7-0.3-0.9-1-0.8c-1.7,0.3-3.7,2.6-3.6,4.1c0.1,1.4,1.4,2.2,3.6,2.4
		C237.7,191.7,238.1,191.7,238.6,191.7z M278.9,167.3c-4.2,2.8-8.8,2.6-13.1,3.6c-1.4,0.3-2.8,0.7-4.1,1.4c-0.3,0.2-0.7,0.3-0.6,0.8
		c0.1,0.3,0.5,0.4,0.8,0.4c5.2,0.2,10.4,0.2,15.3-1.8c0.9-0.4,1.8-0.9,2.3-2.1c-1.3,0.2-2.1,1.3-3.4,1
		C276.6,169.2,278.7,169.3,278.9,167.3z M245.1,434.7c-0.5-2.5,0.5-4.7,1.3-6.9c0.1-0.3,0.2-0.6,0.2-0.9c0.2-0.9,0.2-1.8-0.7-2.4
		c-0.9-0.6-1.8-0.7-2.7-0.2c-2.9,1.4-4.3,7.6-2.3,10.1c0.2,0.2,0.4,0.5,0.6,0.7c0.2,0.2,0.5,0.4,0.8,0.2c0.3-0.2,0.1-0.6,0-0.8
		c-0.3-0.8-0.6-1.6-0.9-2.4c-0.1-0.4-0.3-1,0.4-1.2c0.5-0.1,0.7,0.4,0.9,0.7C243.4,432.6,243.8,433.9,245.1,434.7z M253.8,259.8
		c-1-0.6-1.9-0.1-2.6-0.4c-0.5-0.3-1.3-0.5-1.1-1.2c0.2-0.8,0.9-0.6,1.5-0.5c0.5,0.1,1,0.3,1.6,0.4c0.9,0.2,1.4-0.3,1.9-1
		c0.5-0.7,0.5-1.3,0-2c-0.8-1.2-1-2.1,1-2.2c0.7,0,1.1-0.6,1.2-1.2c0-0.7-0.7-0.7-1.2-0.8c-1.5-0.3-3-0.4-4.5-0.4
		c-0.6,0-1.3,0.1-1.4,0.9c-0.2,1.8-1.3,3.2-2,4.8c-0.5,1-0.7,2.1,0.1,3.1C249.1,260.2,252.4,260.5,253.8,259.8z M253.1,270.4
		c2.1,0.3,1.3-1.6,1.9-2.4c0.5-0.7-0.6-0.7-1.1-0.7c-0.9,0-1.5-0.5-1.8-1.3c-0.2-0.6-0.2-1.2,0.3-1.7c0.7-0.7,1.3-0.3,1.9,0.2
		c0.4,0.3,0.8,0.2,1.1-0.2c0.3-0.4,0.1-0.8-0.1-1.2c-0.4-0.6-1-0.5-1.7-0.4c-1.4,0.2-2.8,0.3-4.1,0c-2-0.5-2.1-0.4-2.1,1.7
		c0,1.9,0.3,3.9-0.8,5.6c-0.2,0.3-0.2,0.8,0.2,0.9c1.1,0.4,2.4,1.1,3.4,0.2C251.1,270.2,252,269.7,253.1,270.4z M284.9,172.5
		c-2,2.7-4.9,3.7-7.9,4.6c-1.5,0.5-3.1,0.8-4.7,1.1c-1.4,0.2-1.1,1.4-1.1,2.1c0,0.8,1,0.5,1.5,0.4c3.5-0.6,7-1.2,10.2-2.9
		C285.8,176.2,285.9,176,284.9,172.5z M231.7,197.3c0.2,1.2,0.6,2.5,1.9,2.9c1.2,0.4,2.4,0.2,3.2-0.9c0.3-0.4,0.5-0.7,1-0.5
		c1.2,0.7,2.1,0,3-0.5c1.5-0.8,3-1.6,4.4-2.5c0.6-0.4,1.9-0.3,1.5-1.4c-0.3-0.9-1.4-0.3-2.1-0.2c-0.4,0.1-0.7,0.2-1,0.4
		c-1.7,0.8-3.4,1.6-5.1,2.3c-1.5,0.6-2.8,0.6-3.7-1c-0.4-0.7-1-1.1-1.8-0.8C232.1,195.5,231.8,196.3,231.7,197.3z M285.9,283.2
		c-3,0-6.3,2.9-6.5,5.7c-0.1,1.2,0.1,2.3,1.5,2.7c1.3,0.3,2.2-0.4,2.8-1.5c0.1-0.3,0.2-0.6,0.3-0.8c0.5-1.6,1.2-3.1,2.7-4.1
		c0.5-0.3,1.1-0.8,0.7-1.5C287.2,283.1,286.5,283.3,285.9,283.2z M278.2,211.6c-0.5,0-1.1,0-1.6,0c-0.2,0-0.5,0.2-0.6,0.3
		c-0.1,0.2,0.1,0.4,0.3,0.6c1.7,1.1,2.9,2.7,4.3,4.1c0.6,0.6,1.2,0.8,1.9,0.5c1.1-0.4,2.3-0.8,3.4-1.2c0.5-0.2,1.2-0.3,1.3-0.9
		c0.1-0.8-0.6-0.9-1.1-1.2C283.7,212.3,281,211.7,278.2,211.6z M326.8,198.9c3.1-8.7,4.7-17.7,5.8-26.8
		C330.2,181,327.5,189.7,326.8,198.9z M245.6,182.5c0.9,0,1.7-0.2,2.5-0.5c0.5-0.2,0.8-0.6,0.7-1.1c-0.1-0.5-0.6-0.5-1-0.4
		c-0.9,0.1-1.7-0.1-2.5-0.3c-2.5-0.7-3.1-2.1-2.1-4.5c0.4-0.9-0.1-0.9-0.7-0.9c-1.6,0.1-2.6,0.9-3.2,2.3c-0.6,1.3-0.1,2.5,0.9,3.4
		C241.6,182,243.6,182.3,245.6,182.5z M258.6,241.3c-2-0.3-3.4-0.3-4.9-0.2c-0.5,0-0.9,0.3-0.9,0.8c0,1.5-0.9,2.6-1.4,3.9
		c-0.5,1.4,0,2,1.5,2c1.2,0,2.4-0.1,3.6,0.1c1,0.2,1.6-0.3,1-1.4c-0.4-0.7-0.6-1.2,0.1-1.8c0.3-0.3,0.3-0.7,0-1
		C256.1,242.7,257.3,242.2,258.6,241.3z M278.9,477.7c0-0.8-0.4-1.1-0.8-1.1c-1.8,0-2.2-1.4-2.7-2.7c-0.6-1.6-1-3.2-2-4.6
		c-0.5-0.7-1.1-1.3-2-1.2c-0.9,0.1-1.3,0.5-0.8,1.5c1.7,3.3,3.3,6.7,5.3,9.8c0.3,0.4,0.5,1.3,1.1,0.8
		C277.8,479.4,278.3,478.4,278.9,477.7z M262.8,181.4c0,0,0,0.1,0,0.1c1.9-0.1,3.8-0.3,5.8-0.4c1.3,0,1.5-1,1.4-1.9
		c-0.1-1-1-0.5-1.6-0.4c-3,0.4-6,0.7-8.9-0.7c-0.2-0.1-0.5-0.2-0.7-0.1c-1.8,0.1-1.2,1.7-1.4,2.6c-0.2,1.1,0.6,1.1,1.4,1.1
		C260.2,181.6,261.5,181.5,262.8,181.4z M272.1,201.6c-0.6,0.2-1.7-0.7-2,0.6c-0.3,1.3,0.6,1.6,1.8,1.8c1.9,0.3,3.7,0.9,5.6,1.4
		c1.9,0.5,3.7,0.9,5.7,1c0.4,0,0.9,0.1,1.1-0.4c0.1-0.5-0.3-0.7-0.7-0.9C279.9,203.5,276.2,201.9,272.1,201.6z M276.4,465.5
		c-0.7,0-1.4,0-1.8,0.7c-0.2,0.5,0.1,0.8,0.5,1c1.5,0.9,1.8,2.4,2,4c0.1,1.2,0.2,2.5,2.1,2.1c0.5-0.1,0.9,0.5,1.3,0.9
		c0.6,0.8,1.1,1.6,1.7,2.3c0.4,0.5,0.9,0.8,1.6,0.5c0.5-0.2,0.8-0.6,0.9-1.1c0.2-0.7-0.5-0.8-0.9-1.1c-2.4-2.2-5.2-4.2-5.4-7.9
		C278.3,465.6,277.3,465.5,276.4,465.5z M280.6,463.7c0-0.8-0.5-1.1-1.1-1.4c-1-0.5-2-0.9-3-1.4c-4.1-1.8-7.7-0.3-9.3,4
		c-0.2,0.7-0.4,1.3,0.3,1.8c0.7,0.5,1.3,0.1,1.8-0.3c0.9-0.7,1.3-1.7,1.8-2.7c1.6-2.5,3.7-2.9,6.1-1.3c0.7,0.5,1.4,1.1,2.2,1.6
		C280.2,464.6,280.5,464.4,280.6,463.7z M259.2,463.7c0,1.1,0.1,2.4,0.8,3.6c0.2,0.3,0.2,0.8,0.7,0.6c0.4-0.1,0.3-0.5,0.3-0.8
		c-0.1-2.5,1.2-4.3,2.7-6.1c0.7-0.8,1.4-1.5,2.1-2.3c0.2-0.3,0.5-0.6,0.3-1c-0.3-0.4-0.6-0.1-1,0c-0.8,0.3-1.6,0.6-2.3,0.9
		C259.9,459.7,259.2,460.6,259.2,463.7z M261.3,436.5c-0.1-1.5-0.5-3-1.7-4c-0.8-0.7-1.6-0.6-2.5,0c-0.8,0.6-0.8,1.3-0.3,2.1
		c0.7,1.1,0.6,2.4,1,3.6c0.2,0.7,0.1,1.6,1.1,1.6c0.9,0,1.5-0.5,1.9-1.2C261.2,438,261.2,437.3,261.3,436.5z M265.1,433.9
		c-0.5-3.1-0.9-6.3-1.4-9.4c-0.1-0.6-0.4-0.8-1-0.3c-1.5,1.5-1.9,4.1-1,6.1c0.4,0.8,0.6,1.7,1,2.5c0.3,0.6,0.7,1.1,1.1,1.7
		c0.2,0.3,0.5,0.5,0.9,0.4C265.1,434.6,265.1,434.2,265.1,433.9z M271.7,292.2c-2.1-0.1-3.9,0.4-5.7,0.8c-0.4,0.1-0.9,0.2-1,0.7
		c-0.1,0.6,0.4,0.9,0.8,1.1c2.5,1.2,5,1.1,7.5,0.1c0.7-0.3,1-0.8,0.9-1.6c-0.1-0.7-0.7-1-1.3-1C272.4,292.2,271.9,292.2,271.7,292.2
		z M266.9,450.2c-0.1-0.8-0.7-1.1-1.3-1.3c-2.6-1.1-5.1-2.1-6.4-4.9c-0.4-0.8-1.3-0.7-2-0.2c-0.6,0.5-0.5,1,0,1.6
		c2.3,2.6,5.1,4.6,8.4,5.7C266.3,451.3,266.9,451.1,266.9,450.2z M285.3,223.4c2.1-0.5,4.7-1.1,6.9-2.6c0.4-0.3,0.7-0.7,0.5-1.2
		c-0.3-0.6-0.8-0.7-1.4-0.5c-0.6,0.2-1.2,0.6-1.8,0.8c-2.3,0.9-4.7,1.5-7.2,1.7c-0.4,0-0.9,0-1,0.6c-0.1,0.6,0.5,0.6,0.9,0.7
		C283.1,223.2,283.9,223.5,285.3,223.4z M284.1,467c0.3,1.4,0.8,3.1,2.4,3.8c2.1,0.9,3.9,2.1,5.4,3.6c0.4,0.4,0.9,0.4,1.3,0.1
		c0.5-0.3,0.9-0.7,0.9-1.3c0-0.7-0.6-0.9-1.1-1c-3.3-1-6.4-2.2-7.3-6.2c-0.1-0.4-0.5-0.7-1-0.5C284.3,465.8,284.1,466.3,284.1,467z
		 M280.1,460.7c0.2,0,0.4,0,0.5,0c0.6-0.1,1.5,0,1.6-0.9c0.1-0.8-0.7-0.7-1.1-0.9c-0.4-0.2-0.7-0.5-0.9-0.9
		c-1.1-2.2-3.7-2.5-5.3-0.6c-0.5,0.6-0.6,1.1,0.1,1.5C276.6,459.8,278.2,460.7,280.1,460.7z M260.9,237.6c-1.1-0.7-1.8-0.5-2.5-0.6
		c-0.7-0.2-1.8-0.2-1.6-1.2c0.3-1.2,1.1-0.3,1.7-0.1c0.5,0.2,0.9,0.3,1.3-0.2c0.3-0.5,0.1-0.9-0.2-1.3c-0.3-0.3-0.7-0.6-0.9-1.1
		c-0.5-1.3-1.4-1.5-2.3-0.5c-1.1,1.2-1.2,2.7-1.5,4.2c-0.1,0.7,0.5,0.9,0.9,1.2C257.4,238.9,258.9,238.1,260.9,237.6z M289.8,474.5
		c-0.1-0.4-0.5-0.4-0.8-0.4c-1.4,0.1-2.5-0.6-3.5-1.6c-1.4-1.3-2.1-3.1-2.8-4.8c-0.2-0.5-0.3-1.2-1-1.1c-0.7,0.1-0.9,0.8-1.1,1.3
		c-0.2,0.6,0.1,1,0.3,1.5c1.3,3.1,4.7,3.9,6.8,6.3C288.1,476.4,289.9,475.3,289.8,474.5z M297.7,470.9c0-0.8-0.6-0.9-1.1-1
		c-2.7-0.5-5.2-1.1-6.2-4.2c-0.2-0.7-1-0.9-1.7-0.5c-0.7,0.4-0.7,1.1-0.3,1.7c0.3,0.4,0.7,0.8,1.1,1.2c1.8,2.2,4.4,2.9,7,3.8
		C297.2,472.3,297.5,471.5,297.7,470.9z M310.4,481.2c0.7-0.1,1.3-0.1,2-0.2c0.4-0.1,0.9-0.3,0.9-0.8c0-0.6-0.5-0.6-0.9-0.6
		c-1.5-0.1-2.6-0.9-3.7-1.8c-0.6-0.5-1.2-1.1-2-1.1c-0.6,0-1.3,0-1.6,0.6c-0.4,0.9-0.2,1.8,0.1,2.6c0.2,0.6,0.8,0,1.2-0.1
		c0.7-0.1,1.2,0.2,1.6,0.6C308.8,481,309.5,481.3,310.4,481.2z M247.5,298.9c-0.5,0-1,0-1.4-0.1c-1-0.1-1.6,0.4-1.7,1.4
		c-0.1,1.1,0.7,1.2,1.5,1.3c2.2,0.2,4.3-0.2,6.2-1.4c0.5-0.3,1-0.6,0.7-1.2c-0.3-0.7-0.9-1.1-1.6-0.6
		C250,299,248.7,298.9,247.5,298.9z M289,488.1c0.6-0.1,1.5,0.2,1.7-0.6c0.1-0.8-0.9-0.8-1.4-1c-1.1-0.4-2.2-0.8-2.6-2
		c-0.3-0.9-0.6-1.6-1.6-1.5c-1.1,0.1-1.8,0.6-2.2,1.6c-0.3,0.7-0.2,1.4,0.8,1.3c0.8,0,1.7,0.1,2.1,0.7
		C286.5,487.9,287.8,487.9,289,488.1z M268.6,395.5c-0.2,0.1-0.4,0.2-0.5,0.3c-1.9,2.8-1.9,6-1.6,9.2c0,0.6,0.4,0.7,0.9,0.4
		c1-0.7,2.5-5.2,1.7-5.8c-1.6-1.1-0.7-2.1-0.2-3.2C269,396.1,268.9,395.8,268.6,395.5z M201,122.4c-0.1-0.6-0.5-1.1-0.9-1.4
		c-0.4-0.3-0.8-0.1-1.1,0.3c-1,1.7-2.3,3.1-3.7,4.4c-0.6,0.6-0.3,1.2,0.1,1.8c0.4,0.5,0.9,0.9,1.3,0.5c1.5-1.7,2.9-3.5,4.3-5.3
		C201,122.5,201,122.5,201,122.4z M197,144.8c0.6-0.3,1.6,0.1,1.7-0.8c0-0.7-0.9-0.5-1.4-0.7c-2.7-1.1-5.6-1.8-7.8-3.8
		c-0.5-0.4-1-0.7-1.6-0.5c-0.4,0.2-0.6,0.6-0.6,1c0.1,0.7,0.6,1,1.2,1.2c2.4,1,4.9,2.1,7.3,3.1C196.1,144.5,196.5,144.6,197,144.8z
		 M289.1,483.7c0,0.7,0.1,1.5,0.9,1.8c0.9,0.4,1-0.4,1.4-1c0.6-0.9,1.1-0.4,1.5,0.2c0.4,0.7,0.9,1.3,1.7,1.5
		c0.6,0.2,1.4,0.3,1.8-0.4c0.5-0.9-0.4-1.1-1-1.4c-1.1-0.7-2.5-1-3.4-2.1c-0.5-0.6-0.9-1.2-1.8-0.8
		C289.4,482,289.2,482.8,289.1,483.7z M283.7,481.4c-0.9-0.7-0.9-2-1.9-2.8c-0.1-0.1-0.2-0.1-0.3-0.1c-0.9,0-1.8,0.2-2.4,1
		c-1.3,2,1.8,2.3,1.5,4c-0.1,0.3,0.3,0.7,0.7,0.7C281.6,484.2,283.7,482,283.7,481.4z M274.9,194.3c1.3,0,1.6-0.4,1.2-1.3
		c-0.2-0.8-0.8-1.2-1.6-1.3c-1.6-0.3-3.2-0.3-4.8-0.3c-0.3,0-0.7,0.1-0.8,0.3c-0.3,0.4,0.2,0.6,0.4,0.9
		C270.9,194.5,273.3,193.5,274.9,194.3z M190.4,121.3c0.1-0.4-0.1-1-1-1c-0.9-0.1-1.5,0.3-1.5,1.3c0,1.5,0.1,3-0.3,4.5
		c-0.2,0.7-0.8,1.5,0.3,1.8c1,0.3,1.6-0.5,1.7-1.4C190,124.9,190.1,123.3,190.4,121.3z M202.5,150.7c1.4,0.2,2.4-0.4,2.5-2.1
		c0.1-1.5-1-1.8-2.1-1.9c-1.5-0.1-2.7,1.1-2.7,2.5C200.2,150.8,201.3,150.7,202.5,150.7z M246.8,170.2c0,1.6,1.6,3.4,3.1,3.5
		c1,0.1,1.8-0.9,1.3-1.8c-0.4-0.8-0.9-1.5-1.5-2.2c-0.6-0.7-1.4-1-2.3-0.8C246.9,169.1,246.9,169.7,246.8,170.2z M282.9,201.7
		c0,0.2-0.1,0.3-0.1,0.5c1.6,0.6,3.2,1.3,4.8,1.9c0.7,0.3,1.5,0.5,2.3,0.3c0.4-0.1,0.8-0.4,0.8-0.9c0-0.4-0.3-0.7-0.6-0.8
		C287.8,201.3,285.4,201,282.9,201.7z M189.4,130.5c0.1-1-0.4-1.4-1.2-1.5c-0.6,0-1.2,0.3-1,0.9c0.4,1.7-0.2,3.3-0.2,5
		c0,0.6,0.1,1.4,0.8,1.4c0.8,0,1.4-0.6,1.3-1.4C189,133.4,189,131.9,189.4,130.5z M336,158.6c-0.1-0.8-0.1-1.6-0.2-2.3
		c0-0.4-0.1-0.9-0.6-1c-0.5,0-0.6,0.5-0.7,0.9c-0.3,2.3-0.5,4.6-0.7,7c0,0.4,0,0.9,0.6,1c0.4,0,0.6-0.3,0.7-0.7
		C335.9,162,336.1,160.3,336,158.6z M290.8,190c-0.2-0.8,0.1-1.8-1.1-1.9c-0.7-0.1-3.9,2.1-3.7,2.5c0.6,1.3,2.1,1.3,3.2,1.5
		C290.7,192.4,290.6,191,290.8,190z M207,147.8c0.4,1.4-0.5,3.5,1.8,3.7c1.3,0.1,1.7-1.3,1.7-2.5c0-1.4-1-2.4-2.4-2.4
		C207.4,146.7,206.9,146.9,207,147.8z M194.9,128.7c-0.9,0.1-1.4,0.7-1.8,1.4c-0.5,1.1-1,2.3-1.5,3.5c-0.2,0.6-0.9,1.3,0.1,1.7
		c0.8,0.3,1.5-0.1,1.8-1c0.4-1.5,0.6-3.2,2.2-4.2c0.3-0.2,0.4-0.6,0.2-1C195.6,128.8,195.3,128.7,194.9,128.7z M271.2,182.7
		c-1-0.2-2-0.1-2.1,1.3c-0.1,1.4,1.2,1.1,2,1.3c0.6,0.2,1.3,0.2,1.9,0.4c0.9,0.2,1.2-0.2,1.1-1C274.1,182.8,272.8,182.7,271.2,182.7
		z M267.5,386.8c-0.9,0.5-0.9,1.3-0.9,1.9c-0.2,1.9-0.3,3.8-0.5,5.8c0,0.4-0.2,0.8,0.2,1c0.5,0.2,0.7-0.3,1-0.6
		C268.9,392.2,268.3,389.6,267.5,386.8z M259.1,264.6c-0.4-0.1-0.9-0.2-1.1,0.3c-0.4,1.1,0.1,2,0.6,2.9c0.3,0.5,0.8,0.6,1.2,0.3
		c1.1-0.7,2.1-1.6,2.8-2.8c0.2-0.3,0.3-0.6,0.1-0.8c-0.2-0.3-0.5-0.1-0.8,0C261,265,260.1,265,259.1,264.6z M302.2,483.9
		c-2.2-0.6-3.7-1.7-5.1-2.8c-0.6-0.5-1.3-0.5-2,0.1c-0.4,0.3-0.6,0.8-0.4,1.3c0.3,0.8,1,0.7,1.7,0.5c0.8-0.2,1.4,0.2,1.8,0.8
		C299.4,485.3,300.6,484.8,302.2,483.9z M205.8,144.8c-0.1-1.2-1.6-2.4-3.2-2.3c-0.8,0-1.7,0.1-1.6,1.2c0,1.1,2.1,2.3,3.8,2.3
		C205.6,146,205.8,145.5,205.8,144.8z M241.3,193.5c-0.1-0.6-0.5-0.8-1-1c-1.3-0.3-3.4,0.6-4.1,1.8c-0.2,0.4-0.5,0.9-0.1,1.3
		c0.4,0.4,0.8,0.5,1.3,0.3c1.2-0.6,2.3-1.2,3.5-1.9C241.1,193.9,241.2,193.7,241.3,193.5z M235.9,203c0.5,0,0.7,0.1,0.8,0
		c3.1-1.9,6.2-3.9,9.8-4.9c0.4-0.1,0.8-0.5,0.6-0.9c-0.2-0.6-0.7-0.3-1.1-0.1c-2.4,1.1-4.8,2.2-7.1,3.4
		C237.8,201,236.7,201.6,235.9,203z M303.6,475.7c0.7-0.2,1.5,0,1.6-0.8c0.1-0.9-0.8-0.5-1.2-0.6c-1.6-0.3-2.9-1-4-2.2
		c-0.4-0.4-0.7-0.9-1.3-0.4c-0.6,0.5-0.5,1.1-0.1,1.6c0.3,0.4,0.6,0.8,1,1C300.9,474.9,302.4,474.8,303.6,475.7z M263.7,255.8
		c-1.3-0.2-2.1,0.4-3,0.3c-2-0.2-2.4,0.3-2.2,2.3c0.1,1,0.5,1.4,1.4,0.9C261.4,258.5,262.3,257.1,263.7,255.8z M326.7,223.5
		c-1.3,1.1-1.5,2.2-1.2,3.4c0.5,1.8,0.5,3.5,0.6,5.4c0,0.5,0.1,1.1,0.2,1.6c0.1,0.4,0.4,0.8,0.9,0.6c0.5-0.2,0.6-0.7,0.2-1
		c-0.7-0.6-0.4-1.4-0.5-2.2C326.9,228.8,326.5,226.3,326.7,223.5z M267.8,422c0.2,0,0.5,0,0.7,0.1c0-3.1,0-6.2,0-9.4
		C267,415.7,267.6,418.9,267.8,422z M294.9,479c-0.2-0.2-0.4-0.5-0.6-0.4c-1.6,0.1-2.2-1.2-3.2-2c-0.4-0.3-0.9-0.7-1.4-0.2
		c-0.5,0.4-0.2,1,0,1.5c0.7,1.3,2.3,1.6,3.4,2.5C293.6,480.6,294.4,479.8,294.9,479z M327.6,218.5c0.1,0,0.4-0.1,0.3-0.2
		c-0.3-1.2,0.9-1.7,1.1-2.7c0.1-0.7-0.1-1.3-0.7-1.7c-0.3-0.2-0.7-0.2-1,0.1c-0.5,0.7-1.1,1.4-1.5,2.2
		C325.4,217.1,326.5,218.5,327.6,218.5z M330.8,216.2c0,0.9-0.1,1.8,0.7,2.2c1,0.4,0.7-1.1,1.4-1.3c0.1,0,0.2-0.2,0.2-0.3
		c0.7-1,0.2-2-0.2-2.9c-0.2-0.4-0.6-1-1.1-0.7c-0.9,0.4-0.7,1.4-0.9,2.2C330.8,215.7,330.8,216,330.8,216.2z M289.8,480.5
		c-0.1-0.1-0.1-0.3-0.2-0.4c-1.2-0.5-1.8-1.5-2.3-2.6c-0.3-0.7-1-0.4-1.6,0c-0.6,0.4-1,0.9-0.6,1.6c0.3,0.5,0.3,1.4,1.1,1
		c1-0.5,1.4-0.1,1.9,0.7c0.3,0.4,0.7,0.5,1.1,0.3C289.4,481,289.7,480.9,289.8,480.5z M305.4,483.1c0-0.1,0-0.3-0.1-0.3
		c-1.4-1.1-2.8-2.3-4.2-3.4c-0.5-0.4-1.2-0.3-1.6,0.3c-0.4,0.7,0.2,1.1,0.8,1.4c1.3,0.6,2.7,1,3.5,2.4c0.2,0.4,0.9,0.4,1.3,0.2
		C305.3,483.5,305.5,483.4,305.4,483.1z M264.4,169.9c1.9-0.4,3.7-0.9,5.1-2.3c0.3-0.3,0.9-0.7,0.6-1.2c-0.4-0.5-0.8,0-1.2,0.3
		c-0.4,0.3-0.7,0.9-1.2,0.7c-1.9-1.1-2.4,0.8-3.6,1.4c-0.2,0.1-0.5,0.4-0.4,0.7C263.8,170,264.1,169.9,264.4,169.9z M179.2,125.3
		c-0.6,0.1-1.2,0.5-1.2,1.2c0,0.8,0.4,1.8,1.2,1.8c1.5,0.2,2.4,0.9,2.9,2.2c0.1,0.3,0.4,0.7,0.8,0.5c0.4-0.2,0.2-0.7-0.1-0.9
		c-1.2-1.1-1.7-2.6-2.6-3.9C180.1,125.8,179.9,125.3,179.2,125.3z M334.5,222.1c-0.3,0-0.6,0.1-0.7,0.4c-0.2,0.4-0.1,0.7,0.2,1
		c1.1,1.1,2,2.4,2.3,4c0.1,0.6,0.6,1,1.2,0.7c0.7-0.3,0.8-0.9,0.2-1.5c-1-1.1-1.6-2.4-2.2-3.7C335.3,222.5,335,222.1,334.5,222.1z
		 M237.4,218.8c-0.1-0.6-0.3-1-0.9-0.7c-1.1,0.4-2.1,0.9-3.1,1.5c-0.6,0.4-0.9,1.2-0.1,1.7c1,0.5,1.8-0.3,2.7-0.6
		C236.6,220.2,237.3,219.7,237.4,218.8z M180.8,142.4c0.6,0,1.2,0.3,1.7-0.3c0.2-0.3,0.2-0.7-0.1-1c-0.5-0.6-1.2-0.4-1.9-0.2
		c-1,0.2-2,0.3-3,0.3c-0.8,0-1.1,0.5-0.9,1.2c0.1,0.7,0.6,0.8,1.2,0.5C178.7,142.5,179.8,142.4,180.8,142.4z M254.3,162
		c-2,0.6-3.6,1.7-5.1,3c-0.3,0.3-0.3,0.7,0,1c0.4,0.4,1,0.5,1.3,0.1c1-1.5,2.5-2.4,4.1-3.2c0.2-0.1,0.3-0.4,0.3-0.6
		C254.8,162,254.5,162,254.3,162z M270.1,384.9c-0.1-0.8-0.3-2.1-0.5-3.3c-0.1-0.4-0.3-0.9-0.8-0.8c-0.5,0.1-0.4,0.5-0.4,0.9
		c-0.1,1.5,0.3,3,0.6,4.5c0.1,0.5,0,1.3,0.7,1.3c0.7-0.1,0.5-0.8,0.5-1.4C270.1,385.8,270.1,385.5,270.1,384.9z M321.8,227.6
		c0,0.4-0.2,1,0.4,1.1c0.6,0.1,1.2-0.5,1.2-1.1c0-0.6-0.2-1.3-0.4-1.9c-0.2-0.6-0.4-1.1,0.1-1.7c0.3-0.3,1.1-0.5,0.6-1.2
		c-0.3-0.3-0.7-0.5-1.2-0.3c-0.8,0.2-0.8,0.8-0.8,1.4C321.9,225.1,322,226.4,321.8,227.6z M337,244.6c-0.4-1-0.6-2.3-0.8-3.6
		c-0.1-0.6-0.6-0.7-1.1-0.6c-0.6,0.1-0.6,0.6-0.5,1.1c0.3,1.1,0.9,2.2,0.8,3.5c-0.1,0.5,0.1,1.2,0.8,1.1
		C336.7,246.1,337,245.5,337,244.6z M328.8,241.1c-0.2-1.3-0.1-2.7-0.7-3.9c-0.2-0.4-0.4-1-1-0.7c-0.6,0.2-0.5,0.8-0.4,1.2
		c0.3,1.2,0.8,2.2,0.7,3.5c0,0.6-0.2,1.4,0.7,1.4C329.1,242.6,328.6,241.6,328.8,241.1z M265.9,246c-0.6-0.9-1.6-0.4-2.2-1
		c-0.5-0.5-1.1-0.6-1.5,0c-0.5,0.7-1,1.6-0.7,2.5c0.1,0.4,0.6,0.4,0.9,0.2C263.4,246.9,264.7,246.5,265.9,246z M264.5,238.7
		c0.6-0.4,2.2,0.2,2.1-0.9c-0.1-0.9-1.4-1.6-2.4-1.8c-0.9-0.2-1.1,0.7-1.1,1.5C263,238.3,263.5,238.7,264.5,238.7z M320.7,221.6
		c-0.1-0.4,0.1-0.9-0.4-1c-0.4-0.1-0.5,0.3-0.5,0.6c0,1.8-1,3-2.2,4.2c-0.5,0.5-0.6,1.1-0.3,1.8c0.2,0.3,0.4,0.6,0.8,0.5
		c0.4-0.1,0.4-0.4,0.3-0.7c-0.2-1.1,0.6-1.8,1-2.6C320,223.5,320.7,222.7,320.7,221.6z M333.3,234.2c-0.1-0.6,0.4-1.4-0.4-1.8
		c-0.1-0.1-0.5,0-0.6,0.1c-0.5,0.7-0.1,1.4,0.3,2c0.5,0.8,0.5,1.6,0.4,2.4c0,0.7,0,1.4,0.9,1.5c0.5,0.1,1,0,1.2-0.5
		c0.3-0.7-0.3-1.1-0.8-1.4C333.5,236,333.2,235.2,333.3,234.2z M275.8,216.7c-1.5-1.7-3.1-2.2-4.6-2.9c-0.4-0.2-0.9,0-1.1,0.4
		c-0.2,0.5,0.1,0.8,0.5,1C272.2,215.9,273.7,216.4,275.8,216.7z M335.1,190.4c-0.2-0.1-0.4-0.1-0.6-0.2c-0.6,1.8-1.3,3.6-1.9,5.5
		c-0.1,0.3,0,0.6,0.4,0.7c0.4,0.1,0.7-0.2,0.8-0.5C334.3,194.1,335,192.3,335.1,190.4z M338.6,229.5c-0.3,0.2-0.5,0.3-0.6,0.5
		c-0.2,0.4,0,0.7,0.3,0.9c1.3,1,2,2.3,2.7,3.7c0.2,0.4,0.4,0.8,0.9,0.5c0.5-0.3,0.5-0.8,0.2-1.2c-0.4-0.7-0.8-1.6-1.4-2
		C339.8,231.2,339.3,230.3,338.6,229.5z M195.9,141.5c-0.2-0.2-0.4-0.4-0.6-0.6c-1.6-1.1-3.8-1.5-4.5-3.7c-0.1-0.2-0.4-0.3-0.6-0.2
		c-0.4,0.2-0.4,0.6-0.2,0.9C191.4,140,193.3,141.3,195.9,141.5z M331.7,227.6c-0.3-1.5-0.5-2.9-0.9-4.4c-0.1-0.6-0.5-1-1.2-0.8
		c-0.8,0.3-0.7,0.9-0.3,1.5c0.8,1.2,1.5,2.4,1.5,4c0,0.3,0.1,0.7,0.4,0.6C331.7,228.3,331.8,227.9,331.7,227.6z M323.2,216.9
		c0,0.3-0.1,0.8,0.4,0.9c0.3,0.1,0.5-0.2,0.5-0.4c0-1.3,1-2,1.6-3c0.3-0.5,0.6-1-0.1-1.4c-0.6-0.4-1,0-1.4,0.4
		C323.4,214.5,323.3,215.7,323.2,216.9z M330.6,247.5c-0.2-0.6-0.4-1.6-0.7-2.5c-0.1-0.4-0.5-0.8-1-0.6c-0.6,0.1-0.4,0.6-0.3,1
		c0.2,0.9,0.3,1.8,0.5,2.7c0.1,0.5,0.2,1.2,0.9,1.1C330.6,249,330.6,248.3,330.6,247.5z M284.5,193.3c-1.1-0.1-2,0.3-2.8,0.9
		c-0.3,0.2-0.4,0.5-0.2,0.8c0.1,0.2,0.4,0.3,0.6,0.3c1.3-0.1,2.6-0.4,3.8-0.9c0.2-0.1,0.4-0.4,0.4-0.5c0-0.2-0.3-0.4-0.5-0.4
		C285.3,193.4,284.9,193.4,284.5,193.3z M295.7,298.1c-0.7,2.2-0.4,4.2,0.7,6.1C296.7,302.1,296.4,300.1,295.7,298.1z M298.8,477.8
		c0-0.5-2.3-3.1-2.8-3.1c-0.3,0-0.6,0-0.8,0.3c-0.3,0.4-0.1,0.7,0.2,0.9c0.8,0.7,1.6,1.4,2.1,2.4c0.2,0.3,0.5,0.4,0.8,0.2
		C298.7,478.4,298.8,478.2,298.8,477.8z M317.9,229.8c0-0.2-0.2-0.5-0.7-0.6c-0.4-0.1-0.7,0.1-0.8,0.5c-0.3,1.1-0.7,2.2-0.9,3.3
		c-0.1,0.4,0.1,0.7,0.5,0.8c0.3,0.1,0.6-0.1,0.7-0.4C317.1,232.3,317.4,231.2,317.9,229.8z M275.6,165.1c-1.1,0.4-2.5,0.4-3.6,1.2
		c-0.2,0.2-0.5,0.4-0.4,0.7c0.2,0.4,0.5,0.2,0.8,0.2c1.2-0.3,2.4-0.6,3.6-0.9c0.3-0.1,0.8-0.2,0.7-0.7
		C276.6,165,276.1,165.2,275.6,165.1z M225.4,146c-1.5-0.4-2.6,0.2-3.7-0.2c-0.4-0.1-1.2-0.6-1.3,0.2c-0.1,0.8,0.5,1.2,1.3,1.3
		C223,147.5,224,147,225.4,146z M258.3,161.2c2,0.7,3.5,0.7,5,0.5c0.3-0.1,0.8-0.1,0.7-0.6c-0.1-0.4-0.5-0.5-0.8-0.5
		C261.7,160.6,260.2,160.5,258.3,161.2z M314.3,240.5c0.1-0.1,0.3-0.2,0.4-0.3c0.5-1.2,0.9-2.3,1.4-3.5c0.2-0.5,0-0.9-0.5-0.9
		c-0.5-0.1-1,0.2-1,0.8c-0.1,1.1-0.2,2.2-0.7,3.2C313.7,240,313.8,240.4,314.3,240.5z M173.5,143.1c0.5-0.3,1.5,0.5,1.6-0.7
		c0.1-0.9-0.7-1.2-1.4-1.2c-0.9,0-1.9,0.3-1.9,1.2C171.7,143.5,172.8,142.8,173.5,143.1z M236.2,226.1c1.1-0.1,2-0.7,2.2-1.9
		c0.1-0.4-0.2-0.8-0.6-0.7c-1.1,0.4-2.2,0.7-2.6,1.9C235,226.1,235.7,226,236.2,226.1z M245.1,296.6c1.5,1.2,2.9,0.7,4.2,0.5
		c0.3,0,0.6-0.3,0.5-0.6c0-0.3-0.3-0.5-0.6-0.5C247.9,295.9,246.7,296,245.1,296.6z M272.9,135.1c0.7-0.2,1.2-0.5,1.2-1.2
		c0.1-0.9-0.4-1.5-1.3-1.6c-0.5-0.1-1.1,0.1-1,0.7C271.9,133.8,272.2,134.6,272.9,135.1z M238.6,173.3c0.8-0.7,1.7-1.4,2.6-2.2
		c0.2-0.2-0.2-0.5-0.5-0.6c-0.7-0.2-1.1,0.2-1.6,0.6c-0.6,0.4-0.9,1.1-1.1,1.8C237.9,173.1,238.2,173.3,238.6,173.3z M175.7,121.9
		c-0.6,0-0.8,0.4-0.5,0.7c0.6,0.7,1.2,1.3,1.9,1.9c0.4,0.3,0.8,0.1,1.2-0.2c0.3-0.2,0.4-0.6,0.2-0.8
		C177.5,123,176.6,122.5,175.7,121.9z M204.5,118.2c-0.1-0.3-0.4-0.5-0.6-0.3c-0.7,0.7-2.3,0.2-2.5,1.6c0,0.5,0.4,0.9,0.9,0.9
		C202.8,120.5,204.6,118.7,204.5,118.2z M320.7,255.1c0,0.4-0.2,1,0.5,0.9c0.8-0.2,0.8-1.1,1.1-1.7c0.2-0.5,0.5-1.2-0.1-1.6
		c-0.6-0.5-1.2-0.2-1.3,0.6C320.8,253.8,321,254.4,320.7,255.1z M260.2,163.3c-0.2-0.8-0.9-0.9-1.6-0.9c-0.7,0-1.7-0.2-1.7,0.8
		c0.1,1.4,1.6,0.3,2.3,1C259.5,164.5,260,163.9,260.2,163.3z M190.7,114.8c-0.9,0.7-0.7,1.7-1.4,2.3c-0.4,0.3-1,0.8-0.2,1.3
		c0.6,0.4,1.2,0.1,1.6-0.4C191.1,116.9,191.2,116,190.7,114.8z M257.9,230.1c0.6-0.7,1.3-1.3,1.8-2.1c0.2-0.3-0.4-0.8-0.8-0.7
		c-0.9,0.3-1.7,0.9-2,1.8C256.8,229.6,257.3,229.9,257.9,230.1z M267.4,228.6c-0.7,0-0.9,0.5-0.9,1c0,0.7,0.2,1.3,1.1,1.2
		c0.7-0.1,1.6-0.3,1.6-0.9C269.1,229.2,267.9,229.1,267.4,228.6z M244.9,273.5c-0.8,0.1-1.2,0.5-1.2,1.3c0,0.7,0.2,1.3,0.9,1.4
		c0.9,0.1,1.1-0.8,1.2-1.5C245.9,274,245.5,273.6,244.9,273.5z M251.1,276.6c0.8-0.2,1.6,0.3,2.3-0.2c0.1-0.1,0.1-0.4,0-0.5
		c-0.7-0.6-1.5-0.2-2.2-0.2c-0.1,0-0.3,0-0.4,0c-0.8,0.5-2.4-0.9-2.4,0.2C248.4,276.8,250.2,276.1,251.1,276.6z M248,430.7
		c0-0.4,0.1-0.9-0.4-1.1c-0.4-0.1-0.7,0.3-0.8,0.6c-0.3,0.8-1,1.5-0.5,2.5c0.1,0.2,0.5,0.4,0.6,0.3
		C247.6,432.4,247.7,431.5,248,430.7z M214.1,149.2c0-0.4,0.1-0.9-0.4-1.1c-0.7-0.2-0.5,0.5-0.6,0.8c-0.1,0.3-0.3,0.7-0.3,1
		c-0.1,0.6-1.2,1.2-0.3,1.6c0.7,0.3,1.1-0.7,1.4-1.3C214,150,214,149.6,214.1,149.2z M292.3,198c-0.6,0.3-1.4,0.6-1.4,1.3
		c0,0.8,0.8,1.1,1.5,1.3c0.7,0.1,0.8-0.4,0.7-0.9C293.1,198.9,293.1,198.2,292.3,198z M183.8,132.4c-0.4,0.3-1.2,0.4-1.1,1.1
		c0.1,0.9,1.2,0.7,1.8,0.9c0.5,0.2,0.8-0.2,0.7-0.7C185,133,184.7,132.4,183.8,132.4z M345.7,237.1c-0.3-0.8-1-1.3-1.8-1.4
		c-0.5-0.1-0.9,0.3-0.7,0.8c0.2,0.8,1,1.1,1.7,1.4C345.3,238,345.6,237.7,345.7,237.1z M209.9,144.6c0-0.8-0.7-0.9-1.3-1
		c-0.5-0.1-0.8,0.1-0.9,0.6c0,0.8,0.6,1.1,1.2,1.2C209.5,145.6,209.8,145.3,209.9,144.6z M258.9,134.4c0.8-0.3,1-1.1,1.2-1.8
		c0.1-0.4,0-0.9-0.6-0.8c-0.8,0.2-1.3,0.9-1.4,1.7C258,134,258.3,134.3,258.9,134.4z M268.4,160.7c-0.2-0.6-0.6-0.9-1.2-0.8
		c-0.6,0.1-0.9,0.5-1,1.1c0,0.6,0.4,0.9,0.9,0.8C267.8,161.6,268.4,161.4,268.4,160.7z M234.9,307.2c0.3-1.3,0.3-2.3-0.7-3.1
		c-0.1-0.1-0.4,0-0.5,0c-0.5,1,0.1,1.8,0.6,2.6C234.4,306.9,234.5,306.9,234.9,307.2z M262.7,464.6c-0.9,0.9-0.8,1.9-0.7,2.8
		c0,0.3,0.2,0.7,0.5,0.7c0.5,0,0.5-0.4,0.5-0.8C263,466.5,263.3,465.6,262.7,464.6z M255.2,164.8c0-0.4-0.3-0.5-0.6-0.5
		c-0.9,0.2-1.6,0.8-2,1.6c-0.1,0.2,0,0.5,0.3,0.6C253.3,166.7,255.2,165.2,255.2,164.8z M251.3,431.6c0-0.7-0.5-0.6-0.9-0.7
		c-0.8,0-1.1,0.5-1.2,1.3c0,0.4,0,0.8,0.5,0.7C250.4,432.7,250.9,432.2,251.3,431.6z M289.4,181c0-0.4,0-1-0.4-0.9
		c-0.8,0.1-1.1,0.9-1.3,1.6c-0.1,0.5,0.2,0.9,0.7,0.8C289.2,182.4,289.3,181.7,289.4,181z M206.5,204.5c-1.7,0.6-2.8,1.3-3.6,2.4
		C204.2,206.6,205.4,206,206.5,204.5z M337.3,250.6c0.5-1.3,0.6-2.1,0-2.8c-0.2-0.2-0.6-0.2-0.8,0.1
		C336,248.8,336.7,249.5,337.3,250.6z M311.8,244.8c0.8-0.5,1.8-0.9,1.9-2c0-0.1-0.3-0.3-0.4-0.3c-1.1,0.2-1.4,1.1-1.7,2
		C311.6,244.6,311.7,244.7,311.8,244.8z M331.2,253.2c0.1-1.1,0.4-1.9-0.5-2.5c-0.3-0.2-0.7,0-0.7,0.3
		C329.7,251.9,330.3,252.5,331.2,253.2z M285,161.2c0-0.5-0.1-1-0.8-0.8c-0.5,0.1-1,0.3-0.9,0.9c0.1,0.5,0.5,0.9,1,0.9
		C284.9,162.2,284.9,161.7,285,161.2z M268.7,353c-0.7,0.1-0.9,0.5-0.9,1.1c0,0.4,0.1,0.8,0.6,0.8c0.7-0.1,1-0.7,1.1-1.3
		C269.5,353.2,269.1,353,268.7,353z M230,148c-0.5-1-1.2-1.5-2.1-1.5c-0.2,0-0.4,0.3-0.3,0.6C227.9,148.1,228.8,148,230,148z
		 M240.2,272.1c0.4,0,0.6-0.3,0.5-0.6c-0.1-0.7-0.4-1.4-1.1-1.7c-0.4-0.2-0.6,0.2-0.5,0.5C239.2,271,239.6,271.7,240.2,272.1z
		 M260.7,273.3c-0.4,0-0.8,0.1-0.7,0.4c0.2,1,1.3,0.7,1.9,1c0.2,0.1,0.5-0.1,0.4-0.4C262.1,273.6,261.4,273.5,260.7,273.3z
		 M255.2,436.6c-0.1-0.6-0.1-1.3-0.9-1.5c-0.4-0.1-0.5,0.3-0.4,0.6c0.1,0.6,0.1,1.4,0.9,1.6C255.2,437.4,255.2,437,255.2,436.6z
		 M284.5,153.7c-0.6,0.1-1.1,0.3-1.2,1c0,0.3,0.2,0.7,0.5,0.5c0.5-0.3,1.4-0.3,1.4-1.1C285.2,153.7,284.8,153.7,284.5,153.7z
		 M320.9,232.9c1-0.4,1.6-0.7,1.4-1.7c-0.1-0.3-0.4-0.7-0.6-0.5C321,231.2,321,232,320.9,232.9z M259.5,155.9
		c-0.2-0.5-0.6-0.8-1.2-0.8c-0.4,0-0.7,0.3-0.6,0.7c0.1,0.5,0.3,1,1,1C259.2,156.8,259.5,156.5,259.5,155.9z M293.6,169.3
		c-0.8-0.2-1.7-0.8-2.6,0C292,170,292.8,170.2,293.6,169.3z M332.8,220.2c-1.2-0.3-1.9-0.9-2.7-0.3c-0.2,0.1-0.2,0.5,0,0.6
		C331,221,331.7,221,332.8,220.2z M291.3,174.4c-0.1-0.5-0.5-0.9-1-1c-0.4-0.1-0.7,0.2-0.6,0.6c0.1,0.5,0.5,1,1.1,1.1
		C291.2,175.3,291.3,174.9,291.3,174.4z"/>
	<path d="M188.3,209c0.7,0.2,1.6,0.1,1.7,1c0,0.8-0.9,0.9-1.5,0.9c-0.7,0-1.4-0.2-1.5-1C187,209,187.7,209,188.3,209z"/>
	<path d="M264.9,115c0,1.5-0.2,2.6-0.6,3.7c-0.5,1.5-1.2,2.7-3.2,2.4c-1.5-0.2-2.7,0.8-4.1,1.2c-2.9,1-3.8,0.6-4.6-2.4
		c-0.3-1-0.4-2-0.4-3c-0.1-1-0.6-2.3,1.4-2.3c0.4,0,0.8-0.8,1.3-1.2c2.4-1.8,5.4-2,8.2-2.2c0.7-0.1,1.2,0.5,1.5,1.1
		C264.8,113.3,264.9,114.3,264.9,115z M262,119.6c0.9-0.1,1.2-0.8,1.4-1.6c0.1-0.3-0.1-0.7-0.4-0.6c-0.8,0.3-1.4,0.9-1.6,1.7
		C261.2,119.5,261.6,119.6,262,119.6z"/>
	<path d="M271,114.1c1.6-2.2,3.6-2.7,6-1.4c2.5,1.4,5.1,2.7,5,6.2c0,2.1-3,5.2-5.1,5.2c-0.2,0-0.4,0-0.5-0.1
		c-1.1-1.6-3.4-1.6-4.4-3.3c-0.9-1.6-1.2-3.3-1-5C271,115.1,271,114.6,271,114.1L271,114.1z M278.9,115.8c-0.3,0-0.6,0.2-0.5,0.4
		c0.3,0.8,1,1.4,1.7,1.7c0.3,0.2,0.5-0.2,0.5-0.6C280.4,116.5,279.6,116.1,278.9,115.8z"/>
	<path d="M270.9,123.4c0,1.2,0.1,2.1-0.3,3c-0.7,1.9-1.8,2.3-3.4,1.1c-0.6-0.4-0.9-0.5-1.6-0.2c-1.8,0.7-3-0.1-2.6-1.9
		c0.6-2.9,2.2-5.3,4.4-7.2c1.3-1.1,2.1-0.4,2.6,0.9C270.6,120.4,271.1,122,270.9,123.4z"/>
	<path d="M251.1,108.8c-0.2,0.9-0.3,1.9-1,2.6c-1.2,1.2-1.1,2.6-0.5,4c1.6,4,0.2,6.2-4.2,6.5c-0.6,0-1.2-0.1-1.8,0.2
		c-0.4,0.2-0.8,0.9-1.2,0.1c-0.3-0.5,0.2-1,0.7-1.3c0.2-0.2,0.6-0.3,0.8-0.3c1.7-0.1,1.6-1,0.8-2c-0.6-0.8-0.6-1.7-0.4-2.6
		c0.1-0.5,0.3-1.1,0.9-1.2c0.7-0.1,0.6,0.6,0.8,1c0.4,0.9,1.3,1.2,1.9,1c0.7-0.2,0-1,0-1.6c0-0.9,0.1-1.7-1-2.3
		c-0.8-0.4-0.6-1.3-0.1-2.1c0.5-0.9,1-0.5,1.5,0c0.5,0.5,0.7,0,1-0.3c0.4-0.6,0.3-1.3,0.5-1.9c0.1-0.4-0.2-1.2,0.5-1.2
		C251.2,107.5,251.1,108.3,251.1,108.8z"/>
	<path d="M273.8,124.1c1.6,0.1,1.8,1.4,2.1,2.6c0.3,1.4-0.7,2.1-1.7,2.6c-0.6,0.3-0.8-0.4-0.9-0.8c-0.2-1.2-0.4-2.4-0.8-3.5
		C272.1,123.7,273.3,124.4,273.8,124.1z"/>
	<path d="M264.1,106.6c0.8,0,1.4,0,1.9,0.5c0.4,0.4,0.7,1,0.5,1.6c-0.3,0.7-0.9,0.8-1.5,0.6c-1-0.3-2.1-0.6-3.1-0.9
		c-0.3-0.1-0.6-0.3-0.6-0.6c0-0.3,0.3-0.5,0.6-0.6C262.7,106.8,263.5,106.5,264.1,106.6z"/>
	<path d="M257.1,126c-0.9,0.1-1.5-0.1-2-0.5c-0.5-0.4-0.5-1,0.1-1.1c1.2-0.3,2.3-0.9,3.5-0.8c0.8,0.1,1.5,0.4,1.5,1.3
		c0.1,0.9-0.8,0.7-1.3,0.8C258.3,125.8,257.6,125.9,257.1,126z"/>
	<path d="M278.4,108.9c-1.5,1.1-3,1.5-4.6,1.5c-0.5,0-0.8-0.1-1-0.6c-0.2-0.4,0.1-0.7,0.3-1c0.9-1,2-1.3,3.3-0.9
		C277,108.2,277.5,108.5,278.4,108.9z"/>
	<path d="M271,114c-1.3,0.9-2.7,0-4.1,0.3c-0.4,0.1-0.6-0.5-0.3-0.8c0.8-0.8,2-1.2,3-1.3C270.6,112.1,271,113.1,271,114
		C271,114.1,271,114,271,114z"/>
	<path d="M268.4,131.1c-0.7-0.2-1-0.8-1-1.5c0-0.5,0.3-0.8,0.8-0.6c0.7,0.2,1.1,0.7,1.1,1.4C269.3,130.9,268.9,131.1,268.4,131.1z"
		/>
	<path d="M264.3,132.6c-0.1,0.5-0.2,1.1-0.8,1.2c-0.5,0-0.5-0.6-0.5-0.9c-0.1-0.5-0.1-1,0.6-1C264.1,131.7,264.2,132.1,264.3,132.6z
		"/>
	<path d="M295.9,334.3c-0.2,1.4,0.1,2.5,0.6,3.5c0.3,0.6,0.5,1.3-0.3,1.5c-0.9,0.3-1.1-0.6-1-1.1c0.6-2.3-0.5-4.3-0.9-6.5
		c-0.1-0.5-0.2-1.1,0.4-1.2c0.8-0.2,0.7,0.6,0.8,1.1C295.7,332.5,295.8,333.6,295.9,334.3z"/>
	<path d="M278,450.2c0.4,0,0.8,0.2,0.9,0.7c0,0.5-0.3,0.8-0.7,0.8c-0.5,0-0.8-0.2-0.9-0.7C277.2,450.5,277.5,450.3,278,450.2z"/>
	<path d="M289.5,267.8c-0.1,1.6-0.6,3.1-1.7,4.2c-0.5,0.5-1.1,1.1-1.9,0.7c-0.7-0.4-0.5-1.2-0.4-1.8c0-0.3,0.1-0.6,0.2-0.9
		c0.4-1.1-0.1-2.1-1-2.1c-2.3-0.1-2.4-2.2-3.5-3.4c-0.4-0.4-0.6-0.9-0.1-1.4c0.5-0.4,0.9-0.1,1.3,0.2c0.9,0.7,1.9,1.3,2.8,2
		c0.4,0.3,0.9,0.6,1.5,0.3C288.6,264.8,289.5,265.5,289.5,267.8z"/>
	<path d="M282.6,272.6c0,1.4-0.3,2.7-1.4,3.5c-0.8,0.6-1.7,0.8-2.3-0.3c-0.6-1.2-1.1-2.4-1.1-3.8c0-0.7,0.5-1.8,0.9-1.4
		c1.2,1.2,3.4-2.1,3.9,1C282.6,272,282.6,272.3,282.6,272.6z"/>
	<path d="M279.9,269.2c-0.7-0.3-2.1,0-2.1-1.3c0-0.8,0.8-1.1,1.6-1.1c0.9,0,1.9,0.2,2,1.3C281.4,269,280.6,269.1,279.9,269.2z"/>
	<path d="M271.6,221.4c0.8,0.3,1.4,0.9,1.8,1.6c0.2,0.4-0.2,0.7-0.6,0.7c-1-0.1-1.4-0.9-1.7-1.7C271,221.6,271.2,221.4,271.6,221.4z
		"/>
	<path d="M267.9,148c-1.7,0.8-3.3,0.5-5-0.1c-1.2-0.4-1.8-1.2-2.5-1.9c-0.3-0.3-0.3-0.9,0.2-1.1c0.5-0.2,0.6,0.3,0.7,0.6
		c0.3,0.9,0.7,1.4,1.7,0.7c0.1-0.1,0.3-0.1,0.3-0.1c1,2.1,2.7,0.6,3.9,0.6c1,0.1,2.5-0.6,3.1-1.4c0.9-1.2,2.1-1.9,2.9-3.1
		c0.3-0.5,0.8-1.3,1.5-0.7c0.6,0.5,0.6,1.3,0.2,2c-0.6,1.1-1.5,2-2.4,2.6C271.1,147.1,269.4,147.3,267.9,148z"/>
	<path d="M263.8,149.3c1.6,0.1,2.9,0.7,4.4,0.5c0.3-0.1,0.7,0.1,0.6,0.5c-0.3,1-1.1,1.5-2,2c-0.7,0.4-1.3,0.3-1.7-0.4
		c-0.4-0.6-0.7-1-1.5-1.2c-0.5-0.1-1.2-0.3-1-1C262.8,149.1,263.5,149.3,263.8,149.3z"/>
	<path d="M306.2,159c-3.3,1.6-6.4,3.5-10,4.3c-1.7,0.4-3.1-0.7-4.7-1c-0.7-0.1-0.4-0.6,0-0.9c0.6-0.5,1.3-0.7,2.1-0.5
		c3.7,0.6,7.1-0.4,10.4-1.8C304.5,158.9,305.3,158.5,306.2,159z"/>
	<path d="M274.6,362c1,0.2,1.5,0.9,1.5,1.9c0,0.7-0.4,1.3-1.2,1.2c-1-0.2-1.5-1-1.5-2C273.4,362.4,273.8,362,274.6,362z"/>
	<path d="M290.5,195.8c-0.4-0.1-0.9-0.2-0.8-0.6c0.3-1,1.2-1.6,2.2-1.8c0.4-0.1,0.8,0.2,0.7,0.6C292.3,195,291.5,195.6,290.5,195.8z
		"/>
	<path d="M235.3,208.3c0,0.5-0.3,0.8-0.8,0.8c-0.4,0-0.9-0.1-1-0.6c-0.1-0.5,0.2-0.8,0.7-0.9C234.7,207.6,235.1,207.8,235.3,208.3z"
		/>
	<path d="M252.5,253.5c0.9,0.3,1.6,0.8,1.5,1.9c0,0.7-0.3,1.3-1,1.2c-1-0.1-1.8-0.8-1.8-1.9C251.1,253.9,251.7,253.6,252.5,253.5z"
		/>
	<path d="M250.3,268.7c-1.3,0.1-2.1-0.8-2.4-1.8c-0.3-1,0.4-2,1.4-2.2c1-0.3,1.3,0.6,1.3,1.5c0,0.4,0,0.8,0.4,1.2
		c0.3,0.3,0.9,0.3,0.6,0.9C251.4,268.7,250.8,268.7,250.3,268.7z"/>
	<path d="M254.9,247c-0.5-0.2-1.1-0.5-1.2-1.1c-0.1-0.4,0.2-0.7,0.6-0.7c0.8-0.1,1.1,0.4,1.2,1.1C255.6,246.6,255.5,246.9,254.9,247
		z"/>
</g>
</svg>
