<?xml version="1.0" encoding="utf-8"?>
<!-- Generator: Adobe Illustrator 24.3.0, SVG Export Plug-In . SVG Version: 6.00 Build 0)  -->
<svg version="1.1" id="Layer_1" xmlns="http://www.w3.org/2000/svg" xmlns:xlink="http://www.w3.org/1999/xlink" x="0px" y="0px"
	 viewBox="0 0 500 500" style="enable-background:new 0 0 500 500;" xml:space="preserve">
<g>
	<path d="M196.1,281.6c-1-0.9-2-1.3-2.7-2.3c-0.6-0.9-0.7-1.8-0.4-2.7c0.3-0.9,1.2-0.8,2-0.6c1,0.2,1.5-0.3,1.6-1.2
		c0.1-1-0.4-1.7-1.4-1.8c-1.6-0.2-2.4-1.1-2.7-2.6c-0.3-1.4-0.4-2.7,1.7-2.4c1.2,0.2,1.3-1,1.6-1.7c0.4-1-0.4-1.3-1.1-1.4
		c-1.8-0.3-2.2-1.7-2.3-3c-0.2-1.5,1.2-1.6,2.2-2c0.9-0.4,1.9-1,1.8-2.2c-0.2-1.2-1.2-1.3-2.1-1.5c-2.9-0.7-3.9-0.5-6.5,1.1
		c-4.4,2.8-8.8,1.3-10.8-3.8c-0.7-1.9-2-3.8-0.4-6.1c0.8-1.2-0.4-2.3-0.9-3.3c-1.2-2.9,0.1-5.8-0.3-8.6c-0.5-3.3,0.2-6.3,2-9.1
		c0.5-0.8,0.3-1.5,0-2.4c-0.7-1.9-0.5-3.8,0.6-5.6c1.9-3,4.3-5.6,6.2-8.6c1.3-2,1.6-4.7,2.3-7.2c0.3-0.9,0.1-1.9,0.4-2.8
		c0.6-2.6,0.8-4.6-0.6-7.4c-2.1-4.1-2.8-9.1-1-13.9c0.6-1.7,0.6-3.3,0.5-5.1c-0.5-6.2-0.1-12.3,0.1-18.5c0.3-7.2,1-14.6-0.3-21.8
		c-0.4-2-1.2-3.8-2.1-5.5c-1.2-2-1.8-4-0.2-6c1.7-2.2,0.6-5.6,3-7.4c6.7-5,10.1-12.6,15.1-19c4.1-5.2,8.5-10.4,13.4-15
		c1.2-1.1,2.1-2.5,3.5-3.4c1-0.6,1.4-1.8,1.6-3.1c0.8-4.9,2.7-6.6,7.5-6.7c0.9,0,1.7,0,2.6-0.7c1.9-1.4,3.3,0.7,5,1.1
		c2.6,0.7,4.8,2.1,7.6,2.4c2.2,0.2,4.4,1.9,6.4,3.2c3,1.9,6,3.6,9.5,4.6c-0.7,0.1-1.4,0.1-2.1,0.3c-0.5,0.1-1.1,0.3-1,0.9
		c0.1,0.6,0.7,0.7,1.2,0.7c1.1,0,2.1,0.2,3,0.6c0.7,0.3,1.5,0.3,1.6-0.6c0.1-2,1.4-1.4,2.4-1.1c1.2,0.3,2.4,0.6,3.4,1.3
		c1.9,1.3,3.7,1.7,5.8,0.5c0.4-0.2,1.1-0.4,1.5-0.2c2.7,1.4,5.6,0.4,8.4,0.6c2.3,0.2,4.4,1.5,6.8,1.3c0.6-0.1,0.8,0.5,0.9,1.1
		c0.1,0.7-0.4,1.3-1,1.3c-2.3,0-4.5,1.9-6.5,1.1c-5-1.8-10.2,0.2-15.2-1.2c-0.4-0.1-0.9-0.1-1.3-0.3c-1-0.4-2.1-1.4-3.1-0.4
		c-1.1,1.1-0.1,2.4,0.3,3.6c0.6,2.2,1.9,4,3,6c0.8,1.4,0.9,2.9,0.5,4.2c-0.8,2.5-0.7,4.7,0.7,6.9c0.7,1,0.4,1.9-0.6,2.4
		c-1.2,0.6-2.6,0.6-3.2-0.6c-1.1-1.9-2.1-2.7-3.9-0.9c-0.1,0.1-0.2,0.1-0.2,0.1c-3.1-0.6-6.5,0.9-9.2-1.5c-1.8-1.6-4-2.5-6-3.7
		c-1.1-0.6-2.1-1.2-2.6-2.4c-0.3-0.7-0.5-1.6,0.1-2.2c0.7-0.7,1.2,0.1,1.8,0.4c2.9,1.6,4.4-0.9,6.2-2.2c1.5-1,0.8-2.5,0.3-3.9
		c-2.2-6.2-9.3-8.5-15.5-8.4c-6,0.1-8.3,4.2-10.9,7.6c-2.9,3.7-6.1,7-8.9,10.7c-4.4,5.7-9.6,10.7-13.5,16.8
		c-1.3,2.1-1.2,5.3-4.2,6.3c0.3,4.2-4.4,6.3-4.2,10.8c0.2,4-0.4,8,0.2,12c0.3,1.8,0.1,3.7,0,5.6c-0.2,4.8,0.4,9.6,1.3,14.3
		c0.5,3.1,1.4,6.4,3,9.2c0.8,1.5,1.7,3.1,4,1.9c1.2-0.6,3.5,2.1,3.4,4.3c-0.1,2,0.8,3.1,2.3,3.8c1.1,0.5,1.3,1.5,2,2.2
		c0.7,0.7,1.4,1,2.3,0.6c0.9-0.4,0.8-1.2,0.5-2c-0.2-0.6-0.5-1.3-0.1-1.7c2.2-2.3,0.4-3.8-0.9-5.7c-4.9-7.4-4.9-15-0.8-22.9
		c3.2-6.2,8.3-9.8,14.8-11.8c9.7-2.9,24.2,1.6,30.3,10.2c1.5,2.1,1.7,4.7,2.9,6.9c2.9,5,2.4,10,0.2,15.1c-0.5,1-0.6,2.1-0.4,3.3
		c0.3,2.8-1.1,4.9-3.1,6.7c-1.8,1.6-2.8,3.5-2.4,6.1c0.2,1.1,0.8,2.1,0.4,3.3c-0.9,3.2-3,4.4-6.4,2.9c-4.3-1.9-8.7-3.7-13.2-5
		c-0.9-0.3-1.6-1-2.2-1.7c-0.7-1-1.6-1.8-1-3.2c0.3-0.8,0.2-1.6-0.8-1.8c-1-0.1-1.1,0.7-1.5,1.4c-1.5,2.9-2,6.3-4.1,9
		c-1,1.4-0.2,3.2-0.7,4.8c-0.1,0.3,0.5,0.5,0.8,0.4c2.1-0.9,4.1,0.4,6,0.8c2.2,0.5,4.3,0.2,6.2-0.6c3.7-1.5,7,0.2,10.4,0.9
		c-3.8,1.1-7.8-0.2-11.5,0.8c-3.8,1.1-7.5-1-11.2,0.3c2.9,0.9,5.5,2.4,9,1.4c3.8-1.1,8-1.3,12-0.5c0.9,0.2,1.6,0.5,2.3,1.2
		c0.7,0.7,1.5,1.6,2.4,0.6c0.8-0.9-0.2-1.5-0.9-2.1c-0.3-0.3-0.5-0.6-0.9-1.1c1.3-0.4,2.4-0.1,3.3,0.5c3.4,2.2,7.3,2,10.7-0.1
		c2.7-1.6,5.5-3.1,8.5-4.2c3.6-1.3,6.9-3.4,10.3-5.2c3.8-2.1,6.8-4.7,9.6-8.2c5.8-7.2,12-14.1,17.7-21.3
		c5.7-7.1,12.3-13.1,18.6-19.5c0.6-0.6,1.4-1.2,1.6-2c0.7-2.5,2.2-4.1,4.8-4.7c0.8-0.2,1.3-0.9,1.2-1.8c-0.3-2.2-0.5-4.5-1.2-6.7
		c-0.9-3.1-1.6-6.3-3.1-9.2c-0.6-1.2,0.5-1.3,1.3-0.9c2.5,1.3,5.2,2.5,5.8,5.8c0.3,1.6,0.7,3.2,2.2,4.3c1,0.8,0.9,1.9,0.5,3.1
		c-1.2,3.4-0.4,4.5,3.1,5.2c1.4,0.3,2.8,0.9,3.3,2.2c0.8,2.1,2.5,3.2,4.1,4.5c1.2,1,1.9,2.2,2.1,3.7c0.3,2.7,2,4.7,4.3,5.3
		c2.6,0.7,4.1-1.8,5.3-3.7c1-1.5,1.7-3.2,3.1-4.4c1.6-1.5,0.7-3.7,1.5-5.3c1-2,1.9-4,2.9-6c0.4-0.7,1-1.3,1.9-0.9
		c0.8,0.3,0.7,1.1,0.7,1.8c0.1,3.9,0.9,7.9-2.4,11.1c-0.4,0.4-0.7,1.1-0.7,1.6c0,2.7-0.6,4.9-3.6,5.7c3.4,0.4,5.9-0.9,7.4-3.7
		c1-1.8,2.6-2.4,4.2-3.1c0.7-0.3,1.6,0.2,2-1.1c0.3-0.9,1.5-0.4,2.2,0.1c0.7,0.5,0.4,1.1,0.1,1.8c-2.6,4.5-6.3,7.9-10.5,10.8
		c-0.8,0.5-1.6,1.2-2.6,0.7c-2.1-1-3.4,0.2-4.8,1.8c3.1-1.3,5.1,0.7,7.8,2.5c-4,0.2-7.4-1.1-10.9-0.4c1.9,0.1,3.2,3,5.5,1.1
		c1.3,1.6,3.5,0.8,5.1,1.7c0.9,0.5,2,1.9,2.9,0.4c0.9-1.4-1.4-1.1-1.7-2.3c1.4-0.6,2.8-0.2,4.2,0.4c1.5,0.6,2.7,1.9,4.3,2.2
		c0.7,0.1,1.1,0.6,0.9,1.3c-0.1,0.7-0.5,1.3-1.3,1.4c-3.5,0.7-6.9,0.5-9.6-2.2c-0.5-0.5-1.1-1-1.6-0.7c-2.1,1.6-4,0.1-6-0.2
		c-2.1-0.3-2.5,0.7-1.7,2.2c1.2,2,2.1,4.2,3.1,6.3c0.7,1.4,0.6,2.5-0.5,3.4c-1.3,1.1-1.8-0.5-2.4-1.1c-1.6-1.5-3-2.9-3.3-5.5
		c-0.2-1.8-3.1-2.7-4.1-4.7c-1.5-2.9-3.3-5.6-6.7-6.8c-1.1-0.4-0.8-2.2-1.3-3.3c-1.9-3.6-6.5-4.2-9.9-1.9c-5.9,4.1-9,10.6-14.1,15.4
		c-2.9,2.8-5.6,5.8-8.9,8.1c-4.1,2.9-7.1,6.9-9.1,11.5c-1.1,2.5-3.2,4.2-4.6,6.5c-0.4,0.7-1.5,0.6-2.4,0.7
		c-5.2,0.4-10.1,1.9-14.6,4.5c-3,1.7-5.8,4.2-9,4.9c-3.1,0.7-5.5,2.1-8,3.8c-1.9,1.2-3.6,2.6-5,4.4c-2.2,2.8-5.7,3.7-8.5,5.6
		c-0.1,0.1-0.4,0.2-0.5,0.1c-3.4-1.1-4.1,1-5.4,3.6c-1.3,2.6-1.3,4.6-0.2,6.9c0.2,0.4,0.9,1,0.4,1.3c-2.1,1.4-1.2,3.2-1.2,5.2
		c0,3.4-1.4,6.6-1,10.1c0,0.2,0,0.6-0.2,0.7c-3.8,2.3-3,7.8-6.9,10.1c-1.6,1-1.7,2.9-2.6,4.4c-1.2,2-3,3.1-5.3,3
		c-2.6-0.1-4.9-1.4-5.7-3.9c-0.8-2.6-1-5.4-1.4-8.1c-0.3-2.4,0.6-5-1.6-7.1c-2.9-2.8-6.3-4.3-10.2-5.1c-0.7-0.1-1.5,0-1.6,0.9
		c-0.1,0.9,0.5,1.1,1.3,1.2c1.1,0.1,2.5-0.3,2.6,1.4c0,1.5-0.9,2.3-2.4,2.5c-1.6,0.1-1.9,1.7-2.3,2.8c-0.3,0.8,0.9,1.7,2,1.9
		c1,0.1,2,0.1,2,1.5c0,1.3-0.9,1.9-2,2.4c-2.7,1.1-2.9,1.6-1.5,3.6c0.4,0.6,0.8,1,1.4,0.9c1.6-0.3,2.4,0.4,2.3,1.9
		c-0.1,1.6-1.4,2.3-2.8,2.6c-0.4,0.1-1-0.1-1.8-0.3c0.7,1.5,1.5,2.4,2.9,2.4c1.3,0,1.8,0.6,2,1.8c0.2,1.3-0.1,2.2-1.3,2.8
		c-0.7,0.4-1.4,0.7-1.9,1.3c-1.1,1.1-0.9,2.3,0.6,2.4c1.7,0.1,2.5,0.8,2.8,2.4c0.3,1.8,1.3,1.6,2.3,0.6c1.6-1.5,3.2-3.1,4.3-5.1
		c2.3-4.2,6.2-5.4,10.5-3.2c5,2.5,7.8,6.6,9.4,11.9c0.9,3.1,1.3,6,1,9.1c-0.1,0.6,0.1,1.2,0.5,1.7c2.5,3.2,2.2,6.6,0.4,9.9
		c-1,1.9-1.3,3.5,0,5.5c1.1,1.7,1.8,3.7,1.2,5.7c-2.2,7.4,0.2,14.3,2.1,21.3c1.2,4.5,1.9,9.1,2.2,13.7c0.1,0.8-0.3,2,0.8,2.1
		c1.1,0.1,1.1-1,1.3-1.9c0.7-3.7,2.6-6.9,4.2-10.2c1.8-3.6,3.2-7.4,5.1-11c1.7-3.2,0.3-7.7-2.6-9.2c-2.8-1.4-2.9-6.9-0.2-8.7
		c4.9-3.3,8.4-2.3,11.2,2.9c0.7,1.4,1.5,2.7,3.7,2.5c1.8-0.1,3.6,0.7,4.8,2.8c1.2,2.1,3.9,2.9,5.6,4.7c0.9,1,2.1,1.7,2.9,2.9
		c2.3,3.3,6,4.5,9.4,6c2.7,1.2,4.8,2.9,6.7,5.3c1.4,1.8,3.4,2.8,4.2,5.3c0.6,1.8-0.1,2.7-0.6,4.2c-0.6,1.5-0.5,2.8-2.7,2
		c-0.9-0.3-0.9,0.8-0.4,1.4c0.5,0.6,1.2,1,1.6,1.7c0.4,0.6,0.5,1.3,0,1.9c-0.6,0.8-1.1,0.3-1.8-0.1c-0.6-0.4-1.4-1.2-2-0.4
		c-0.5,0.7,0.4,1.3,0.9,1.9c0.5,0.6,1,1.2,1.5,1.7c0.6,0.5,1.4,0.9,0.7,1.9c-0.6,0.8-1.3,1.4-2.4,1.1c-0.1,0-0.2,0-0.2-0.1
		c-3.3-1.6-7.3-2-8.9-6.2c-0.7-1.8-2.8-2.1-4.2-3.1c-4.3-3.1-7.8-6.9-11.3-10.8c-0.8-0.8-1.4-1.8-2.4-2.4c-1.6-1.1-3.4-1.1-4.4,0.9
		c-2.6,5.2-4.9,10.6-5.4,16.3c-0.4,5.1-0.6,10.3,0.1,15.5c0.2,1.3,0.5,2.5,1.1,3.7c1.4,3,1,7-1.4,7.9c-3,1.1-5.3,4-8.8,3.6
		c-5.6-0.7-11.5-0.8-14.6-6.8c-0.8-1.5-1.6-3.1-0.9-4.6c1.8-3.9,1-7.8,0.5-11.7c-1.1-8.7-2.8-17.3-3.6-26.1
		c-0.6-6.3-0.9-12.7-2.2-18.9c-0.1-0.3-0.3-0.6-0.4-1c-1.6,0.5-2.2,1.9-2.7,3c-2.1,5.1-6.3,5.3-10.5,3.9c-2.2-0.7-2.8,0-3.4,1.7
		c-1.1,2.8-4.9,4.1-7.7,3.2c-3.2-1.1-5.6-3.2-7.8-5.6c-0.9-1-5.4-0.4-6.2,0.7c-0.6,0.8-0.1,1.4,0.4,2.1c1.1,1.5,1.4,3.4,0.7,4.9
		c-1.8,3.9-0.9,7.9-0.6,11.8c0.6,8.2,0.9,16.4,2,24.5c0.8,6,1.5,12.2,4,17.8c0.7,1.5,2.6,2.5,3.1,4.1c2.5,8.1,9.3,11,16.2,13.7
		c9.8,3.9,19,8.8,27.8,14.4c1.6,1,3,2.4,4.6,3.4c2.6,1.6,4.8,4,8.3,3.7c0.9-0.1,2,0.5,2.5,1.3c1.9,2.9,4.9,4.9,6.7,7.9
		c2,3.3,4.8,4.1,9,3.3c4.1-0.7,6.1-0.2,7.6,3c1.3,2.8-0.2,7.5-2.5,9.3c-2.7,2.2-5.4,3.1-9,2.5c-4.2-0.7-7.2,2-7.7,6.3
		c-0.3,2.9-2.8,3.9-4.5,5.4c-3.5,3.1-5.1,7-5.8,11.5c-0.4,2.4-2.7,4.7-5.2,4.7c-1.6,0-3.1,0-4.1,1.6c-0.2,0.3-0.5,0.6-0.8,0.6
		c-3.1-0.1-5.5,2.2-8.6,2c-1.7-0.1-3.1-0.3-2.8-2.6c0.1-0.6-0.2-1.2-0.7-1.6c-0.4-0.4-0.9-1-0.5-1.3c2.4-1.7,2.5-5.2,5.4-6.4
		c0.4-0.2,0.8-0.5,1.2-0.5c3.6,0.1,5-2.8,6.7-5c2.2-2.9,4.7-6,5.3-9.3c0.6-3,3.5-5.3,2.5-8.8c-0.3-1.1,1.4-1.7,1.5-3.1
		c0.4-3.8-2.3-6-3.9-8.8c-2.9-5.2-8.7-6.3-13.2-9.3c-5.2-3.4-10.8-6-16.1-9.1c-4.7-2.8-9.6-5.6-14.7-7.8c-1.6-0.7-3.1-0.7-4.8-0.4
		c-2.4,0.4-4.6-0.4-7-0.9c-4.9-1-7.5-4.5-10-8c-1.2-1.6-2.4-3.5-0.8-5.9c2-3,1.5-6.5,1.5-9.8c0-5.4,0.1-10.8-0.3-16.2
		c-0.2-3.3-0.9-6.4-0.9-9.7c0-3.7,0.4-7.4,0-11.2c-0.3-3.5-1.4-6.8-2-10.1c-0.4-1.8-1.9-3.4-2.9-5.1c-0.2-0.4-0.6-0.7-0.7-1.1
		c-0.4-4.1-3.1-8.1-0.7-12.3c0.7-1.3,1.6-2.1,3.2-2.1c1.6,0,4.6-3.8,4.3-5.4c-0.2-0.8-0.7-1.1-1.5-0.9c-7,0.9-11.4-4.2-10.3-11.2
		c0.9-5.4,2.7-10.4,4.5-15.5c1.5-4.2,5.8-5.8,9.8-3.9C191.4,280.3,193.4,282.1,196.1,281.6z M208.6,90.5c-0.7,0-1.3,0.2-1.8,0.8
		c-4,4.5-7.8,9-10.7,14.3c-1.9,3.5-3.2,7.6-7.3,9.3c-1.3,0.5-2.5,1.4-1.7,2.9c0.8,1.6,2.6,1.2,3.6,0.3c2.8-2.2,5.7-4.3,6.9-8.2
		c1.2-4,3.1-7.8,5.6-11.3C205,95.9,207.9,93.9,208.6,90.5c2.2-1.5,3.4-4,5.5-5.6c2.4-1.8,4.1-5,8-4.5c1.1,0.2,2.6-0.9,3.3-2.3
		c-0.7-0.8-2.3,0.6-2.3-1c-0.1-1.3,1-1.6,2.2-1.6c0.6,0,1.2-0.1,1.8-0.2c2-0.3,3.1-2,2.6-4c-0.6-2.3-1.9-3.1-4.2-2.5
		c-2.1,0.6-4,1.4-3.4,4.2c0.1,0.6-0.4,0.9-0.6,1.4c-2.2,4.6-6.6,7.3-9.7,11.2C210.5,87,207.9,87.7,208.6,90.5z M246.3,168.7
		c-2.2-1.4-4.1,0.9-6.3,0.3c-0.8-0.2-1.1,0.8-1,1.5c0.1,0.8,0.6,0.8,1.3,0.4c2-1,4.5-0.4,6,0c2.5,0.6,5.3,2.2,7.3,4.4
		c0.5,0.6,1,1.5,1.8,1.1c0.9-0.4,0.5-1.3,0.5-2.1c0-1.1-0.5-1.5-1.7-1.8c-3.6-1.1-4.5-4.3-2.1-6.8c0.9-0.9,1.3-0.7,1.5,0.4
		c0.1,0.6-0.5,1.6,0.6,1.7c0.7,0.1,1.1-0.7,1.5-1.3c0.2-0.3,0.5-0.7,0.7-1c1,0.2,0.8,1.7,2.3,1.5c-0.7-3-1.6-5.7-3.7-7.9
		c-0.8-0.9-2-1.9-1.4-3.1c0.8-1.7-0.2-2.7-1.1-3.6c-7.8-7-16.5-9.9-27.1-7.1c-8.5,2.2-13,7.7-15.5,15.5c-0.5,1.6-0.5,3.4-0.4,5.1
		c0.2,2.5,3.6,3.9,5.6,2.5c0.5-0.3,0.7-0.8,0.6-1.3c-0.2-0.8-0.7-0.9-1.4-0.7c-0.7,0.2-1.3,0.5-2,0.4c-0.8,0-1.6-0.4-1-1.5
		c1-1.7,2.7-2.3,4.6-2.5c1.7-0.2,1.1,1.1,1.3,1.9c0.2,0.4,0.6,0.8,1,0.7c1.6-0.6,2.8,0,4.1,0.8c0.5,0.3,1.3,0.5,1.6-0.2
		c0.4-0.9-0.4-0.9-1-1.1c-1.6-0.6-3-1.2-1-3.2c-1,0-1.8,0.1-2.5,0c-0.5-0.1-1.4-0.6-0.7-1.2c1.5-1.3,2.5-3.5,5.2-3
		c3.6,0.7,7.3,0.2,11,0.3c0.7,0,1.2-0.2,1.6-0.6c2.9-2.5,2.5-5.4-0.9-7.2c-0.9-0.5-1.9-0.7-2.9-0.9c-1.3-0.3-2.5-0.9-3.2-2.7
		c2.3,0.3,4.4,0.2,6.3,1.1c3.4,1.7,6.7,3.9,10.9,2.6c1-0.3,1.9,0.7,2.8,1.2c0.6,0.4,1,0.9,0.7,1.5c-0.4,0.7-1,0.3-1.6,0.1
		c-4.3-1.9-6.1-1.1-7.4,3.3c-0.6,1.9-1.6,2.9-3.8,2.7c-1.7-0.2-3.4-0.3-5.1,0.4c-0.8,0.3-2,0.4-1.9,1.4c0.1,1.2,1.3,0.8,2.1,0.8
		c3.1-0.3,5.4,0.7,6.8,3.6c0.6,1.1,1.5,1.6,2.8,1.4C244,166.4,245.3,167,246.3,168.7z M253.3,368.8c-0.9-1.2-2.1-0.7-3-1.2
		c-3.8-2-5-5.7-6.2-9.4c-1.1-3.4-1.3-7.1-2.7-10.4c-0.3-0.6-0.5-1.5,0.5-2c0.1,0.3,0.3,0.5,0.4,0.8c0.2,0.6,0.3,1.6,1.2,1.4
		c0.9-0.2,0.6-1.1,0.6-1.8c0-0.7-0.1-1.4-0.3-2c-0.8-2.6-1.2-5.3-1.7-8c-0.6-3-0.7-6.3-2.6-8.8c-2.7-3.7-2.3-8.1-2.5-12
		c-0.2-4.4-0.5-8.8-0.5-13.3c0-1.6-1.3-2.9-3.1-2.9c-1.4,0-2.5,1.2-2.6,2.5c-0.1,1.8-0.2,3.9,0.7,5.3c2,3.2,1.5,6.8,2.3,10.2
		c1.7,7.5,1.3,15.4,2.3,23.1c1,7.8,2.2,15.5,3.4,23.2c0.7,4.2,1.4,8.4-0.7,12.4c-0.4,0.7-0.3,1.4,0.2,2c1,1.2,2,2.4,3.1,3.5
		c0.8,0.8,2,1.3,3.1,0.9c1.2-0.4,0.3-1.5,0.4-2.3c0.1-1.3,1-2,2-2.5c1.2-0.6,2.7-1.1,4-0.9c2,0.3,3.1-0.5,3.4-2.2
		c0.3-2-1.1-2.9-2.7-3.6c-0.7-0.3-1.9,0.3-1.9-0.7c0-1.2,1.3-0.6,2.1-0.8C252.6,369,252.9,368.9,253.3,368.8z M186.2,123.5
		c1.1,0.7,2.3,0,2.7,0.9c0.5,1-0.5,1.5-1.1,2.1c-1.4,1.4-0.8,3-0.5,4.6c0.2,0.8,0.6,1.6,0.6,2.5c-0.1,8.7,0.5,17.4-0.1,26.1
		c-0.1,1.2,1.2,1.9,0.7,3.2c-1.6,4.5-1.2,7,1.1,10.4c0.9,1.4,1.1,3.2,1.5,4.9c0.1,0.6-0.1,1.4-0.7,1.6c-2.3,0.6-2.6,3-4.2,4.3
		c-0.6,0.5-1.1,1.3-0.3,2c0.7,0.6,1.3,1.5,2.4,0.9c2.7-1.3,5.4-2.6,8-4c2.7-1.4,3-3.2,0.9-5.6c-3.9-4.4-4.6-10.1-5.5-15.5
		c-0.8-4.6-0.1-9.4-0.2-14.1c-0.1-3.2,0.9-6.9-0.7-9.4c-1.7-2.5-1.6-4.4-0.6-6.6c1-2.4,0.8-5.6,3.5-7.2c1.2-0.7,1.2-1.6,0.6-2.6
		c-0.6-1-1.5-1.9-2.7-1.1c-1.4,0.8-2.8,0.7-4.2,0.2c-1-0.3-1.8-0.5-2.6,0.5c-0.5,0.6-0.6,1.3-0.4,2
		C184.9,125.1,185.8,123.2,186.2,123.5z M190.7,351.8c-0.1-0.8-0.1-1.6-0.4-2.2c-0.6-1.4-1.6-2.7,1-3.1c0.4-0.1,0.8-1,0.3-1.3
		c-1.6-1.2-1.7-3-2.3-4.7c-0.3-1-1.3-1.6-2.2-1.4c-1.1,0.2-0.8,1.4-0.7,2.2c0.1,1,0.1,2.1,0.5,3c1.4,2.9,0.8,6,0.7,8.9
		c-0.2,4.8,0,9.6,0.6,14.4c0.3,2.6,0.6,5.3,0.7,7.9c0.1,4,0.4,7.9-0.3,11.9c-0.1,0.6-0.3,1.5,0.7,1.6c0.8,0.1,1.1-0.6,1.2-1.4
		c0-0.7-0.1-1.4,0.6-1.9c-0.7,2.4,1.1,5.4-1.4,7.5c-1.1-0.4-0.3-2-1.6-2.2c-0.5,2.5-2.1,4.9,0,7.4c0.7,0.8,1.6,1.6,2.1,0.2
		c0.7-2.3,2.9-3.1,4-4.9c0.6-1,1.3-1,2.1-0.1c0.4,0.5,0.7,1,1.2,1.3c1.3,0.8,2.9,0.9,4.2,0.2c0.9-0.5,1.1-1.9,0.4-2.8
		c-1.2-1.4-2.4-3.1-4-4c-3.4-1.9-3.9-5-4.3-8.2c-0.1-0.9-0.2-2.1,0.3-2.8c2.1-2.5,0.7-4.7-0.6-6.7c-0.8-1.2-1-2-0.3-3.4
		c0.8-1.6,1.4-4.6-0.4-5c-3.2-0.8-2.5-3-3-4.9c-0.3-1.1-0.5-2.1,0.5-3.1c1.4-1.4,1.3,1.5,2.6,0.5c-0.9-1.3,0.2-3.1-0.7-4.5
		C191.1,350.3,191.6,351.4,190.7,351.8z M262.3,438.8c1.5-0.3,3.1-0.5,3.3-1.9c0.2-1.9,1.6-4-0.2-5.6c-1.3-1.2-2.6-3.6-5-0.9
		c-0.9,1.1-2.9,0.5-3.8-0.5c-2.6-2.8-6.1-4.2-9.3-5.9c-4.1-2.1-8.1-4.6-12.2-6.6c-6.5-3.1-12.4-7.3-19.2-9.7
		c-4.8-1.7-9.5-4-12.9-8.2c-0.4-0.5-1-0.8-1.6-0.4c-0.7,0.4-0.5,1-0.3,1.6c0.4,1.3,1.3,2.6,1.2,3.9c-0.2,2.6,1.6,2.7,2.9,2.2
		c3.3-1.3,5.9,0.3,8.6,1.5c6,2.5,11.4,6.2,17.2,9.2c3.5,1.8,6.3,4.6,10.2,6c3.7,1.3,6.7,4.4,9.9,6.8c1.7,1.3,3,3,3.5,5
		c0.5,1.6,1.5,2.2,2.8,2.6C259.1,438.4,260.9,437.8,262.3,438.8z M216.7,232.5c-0.2,1,0,2,0.9,2.7c0.6,0.4,1.6,0.3,1.8-0.3
		c0.9-2.6,4-4.1,3.6-7.4c-0.3-2.4,1.6-4.6,1.2-7c-0.5-2.6,0.2-4.9,0.4-7.3c0.2-2.5,0.8-5.5-1.6-7.4c-3.1-2.4-7.3-3-10.3-5.7
		c-0.5-0.4-1.4-0.3-1.8,0.5c-0.3,0.7,0,1.2,0.6,1.5c1.2,0.6,2,1.6,2.9,2.6c1,1.1,2.8-0.8,3.5,0.7c0.5,1.2-1.2,2.5-0.5,3.9
		c0.7,1.5,0.4,2.7-0.6,3.8c-1.2,1.3-1,2.6-0.3,4.1c0.5,1.1,0.8,2.1,0.2,3.4c-1.3,3.2-1.5,6.4-0.4,9.7
		C216.6,230.9,217.1,231.6,216.7,232.5z M222.2,310.7c-1.6-2-2.9-2.2-4.2,0.1c-0.9,1.6-2.4,2.3-4.3,2.2c-1.5-0.1-3.1,0.1-4.6,0.1
		c-0.9,0-1.7-0.2-2-1.2c-0.9-3.4-4.5-3.9-6.5-6.2c-0.3-0.3-0.8-0.2-1.1,0.2c-0.1,0.2-0.2,0.6-0.1,0.7c2.1,1.4,0.2,4.3,2.1,5.8
		c0.3,0.3,0.4,1.1-0.1,1.4c-0.7,0.5-1.1-0.2-1.4-0.6c-0.4-0.5-0.8-1.1-1.3-1.6c-2-2-4.3-3.4-7.2-3.5c-0.8,0-1.7,0.1-1.8,1.1
		c0,1,1,0.7,1.6,0.7c3.9,0.1,6.4,2,8,5.5c0.8,1.9,2.1,3.5,3.1,5.3c0.2,0.4,0.3,1.1,1,0.9c0.5-0.2,0.7-0.8,0.7-1.3
		c0-0.7-0.2-1.3-0.3-2c-0.4-1.9,0.5-2.8,2.3-3c1.5-0.2,3.3,1.1,4.3-1c0.1-0.3,0.6,0.1,0.8,0.4c1.6,1.6,1.5,6.1-0.2,7.6
		c-0.8,0.7-1.6,1.3-1.3,2.5c0.6,0.1,0.9-0.2,1.2-0.5c2.6-3,5.4-4.9,9.6-3.3c0.6,0.2,1.5,0.2,1.7-0.7c0.2-1-0.6-1.3-1.2-1.8
		c-3.1-2.2-3.2-3.8-0.4-6.5C221,311.7,221.6,311.2,222.2,310.7z M177.2,241c-0.8,3.2,1.1,4.8,2.5,6.3c1.2,1.2,2.5,2.1,2.3,4
		c-0.1,0.5,0.3,1,0.9,1c0.8,0,1.1-0.4,1-1.1c-0.2-0.9,0.3-1.1,1-1c0.4,0,1,0.2,1,0.7c-0.1,1.3-0.9,2.4-1.9,3.2
		c-0.8,0.6-1.8,0.4-2.5-0.5c-0.7-1-1.5-1.9-2.2-2.8c-0.4-0.5-0.9-0.5-1.4-0.3c-0.6,0.3-0.4,0.8-0.1,1.3c0.6,1.1,1.1,2.3,2,3.3
		c2.7,2.7,5.2,2.7,7.6-0.3c2.2-2.8,4.3-5.6,6.4-8.3c1-1.3,2.1-2.3,3.7-2.6c0.9-0.1,1.5-0.7,2.2-1.2c4.4-3.4,8.2-8,14.4-8.6
		c0.6-0.1,1-0.5,0.8-1.1c-0.2-0.7-0.8-1-1.4-0.8c-4.5,1-9.1,1.7-12.9,4.7c-1.6,1.2-3.2,2.5-5.2,2.8c-2.9,0.4-3.5,2.1-3.6,4.5
		c-0.1,1.7-3.1,5.1-4.2,4.6c-2-1.1-4.5-0.8-6.3-2.6C179.8,244.7,178.8,243.1,177.2,241z M195.9,288.5c0.5,1.5-0.4,1.9-0.9,2.5
		c-0.4,0.5-1.6,0.9-0.6,1.8c0.8,0.6,1.4,0,2-0.5c1.7-1.4,1.9-3.4,2.2-5.3c0.1-0.8,0.4-1.4,1.2-1.4c1,0,1,0.7,1.1,1.4
		c0,1.1,0.5,2,1.1,2.9c0.4,0.6,0.8,1.7,1.7,1.1c0.7-0.5,0.2-1.5-0.2-2.1c-0.5-0.8-1.6-1.5,0.1-2.6c-0.1,2.3,1.9,2.8,3.1,3.9
		c2,2,2.8-1,4.3-1.3c0.4-0.1,0.7-0.5,1.1-0.6c0.7-0.2,1.5-0.4,2.1,0c0.3,0.8-1.2,1.2-0.3,2.2c0.8-0.1,1.2-0.8,1.9-1.3
		c0.5-0.4,1-0.8,1.5,0c0.4,0.7,0.2,1.1-0.5,1.4c-0.8,0.3-1.4,0.8-1.6,2c1-0.4,1.8-0.7,2.5-0.9c0.7-0.3,0.9,1.7,1.8,0.5
		c0.5-0.8-0.2-1.6-0.5-2.4c-0.3-0.9-0.6-1.8-0.9-2.7c-0.4-1.4-1.1-2.3-2.8-1.6c-2.1,0.8-4.2,1.5-6.3,2.1c-1.4,0.4-2.9,0.7-3.3-1.8
		c2.2,0.7,4.2-0.3,6.2-0.4c2.4-0.2,1.6-2.1,1.6-3.4c-0.1-1.6-1.3-0.6-2.2-0.7c-6.4-0.5-12.1,5-18.7,2c-1-0.4-2.1,0.6-2.2,1.7
		c-0.1,1.9,1.6-0.2,2.1,0.9c-1.3,0.9,0.5,2.1-0.1,3.3c-0.3,0.5-0.6,1,0.1,1.3c0.4,0.2,1.1,0.2,1.5-0.1
		C194.6,290,195.1,289.3,195.9,288.5z M250.5,187.7c0.2-1.5-1.3-1.4-1.7-2.2c-1.5-2.8-3.7-4.1-7-4.5c-5-0.7-7.4-2.5-7.1-8.1
		c0.1-1.4,1.1-1.9,1.6-2.8c0.6-1,0.6-2-0.1-2.9c-0.5-0.6-0.9-0.1-1.3,0.2c-2.2,1.5-2.7,1.3-3.1-1.4c-0.1-0.5-0.1-1-0.2-1.5
		c-0.1-0.5-0.1-1.1-0.8-1.1c-0.7,0-1.1,0.4-1.2,1.1c-0.1,0.7-0.2,1.4-0.1,2.1c0.5,2.8,0.5,5.4-0.3,8.3c-1,3.4,0.2,4.8,3.3,6.1
		c1.9,0.8,3.7,1.7,5.9,1.8c1.3,0,2.4,0.8,3.4,1.7c3.1,2.6,6,5.2,7.2,9.2c0.2,0.7,0.7,1.3,1.5,1c0.9-0.3,0.7-1.1,0.6-1.8
		c-0.2-1.3-1.1-2.3-2.1-3.2c-0.8-0.8-1.8-1.5-1-2.8C249,186.9,249.4,188,250.5,187.7z M236.7,256.5c-4.4-0.3-6.5-3.3-8.8-5.8
		c-1.5-1.7-2.5-3.9-3.6-5.9c-0.3-0.5-0.3-1.2,0.1-1.7c0.3-0.3,0.7-0.3,0.9-0.1c0.9,1.6,3.1,1.5,4.1,2.9c2.4,3.4,6,3.6,9.6,4
		c0.6,0.1,1.3,0,1.4-0.8c0-0.7-0.4-1.2-1-1.3c-0.7-0.2-1.5-0.3-2.3-0.3c-4.4,0.1-7.4-2.4-9.9-5.5c-1.4-1.6-2.6-3.4-3.9-5.1
		c-0.4-0.6-0.7-1.6-1.7-1.3c-1,0.3-1,1.3-0.9,2.2c0.1,0.7,0.2,1.4,0.5,2c1.1,2.4,2,4.9,2.1,7.6c0.1,4,0.6,8.1,1.3,12
		c0.3,2.1,1.6,3.6,3.1,4.9c1.6,1.4,2.5-0.5,3.4-1.2c1.1-0.9,0-1.3-0.7-1.9c-1.6-1.5-3.1-3-4.2-4.9c-0.7-1.2-0.4-2.5,0.7-3.2
		c1.2-0.7,1.6,0.5,2.2,1.1c0.5,0.5,0.8,1.2,1.4,1.5C232.2,256.6,233.9,258.7,236.7,256.5z M261.2,210.3c2.2-0.6,4.3-1.1,3.8-2.8
		c-0.7-2.4,0.7-1.6,1.7-1.8c2.8-0.8,6.1-0.7,8.1-3.3c1-1.3,2.2-1.8,3.5-2.4c3.2-1.5,6.7-2.8,9.5-4.9c4-3,3.8-3.3,8-0.6
		c0.9,0.6,2,0.7,2.9,0.1c0.5-0.4,0.8-0.9,0.5-1.6c-0.6-1.6-1.1-3.2-1.9-4.8c-1.3-2.5-4.4-3.2-5.7-1.2c-4.9,7.2-12.4,10.5-19.8,14.1
		c-2.3,1.1-4.5,2.5-6.9,3.3C262,205.4,263.3,208.4,261.2,210.3z M189.9,321.6c0.2-1.8-1.3-2.8-2.2-4.1c-0.7-1.1-1.3,0.8-2.2,1
		c-0.7,0.2-1.4,0.5-2,0.1c-2.6-1.7-2.7,0.3-3.3,2c-0.9,2.5,1,4.2,1.2,6.3c0.2,2.7,1.5,4.7,2.9,6.7c0.9,1.4,1.8,2.2,2.3-0.3
		c0.1-0.6,0.4-1.5,1.1-0.9c3,2.5,2.1-0.7,2.3-1.7C190.8,327.7,190.3,324.6,189.9,321.6z M217.3,302.8c0,1.3-1.3,2.2-1.2,3.6
		c0.3,2.3-1.7,2.7-3.1,3.2c-1.5,0.5-2.6-0.8-3.2-2c-1-2-2.4-3.5-4.2-4.7c-1.4-1-3.2-1.8-4-3.6c-0.2-0.5-0.3-1.1-0.9-1
		c-0.7,0-1.1,0.5-1.3,1.1c-0.6,1.6-0.5,3.1,1.2,4c0.5,0.3,1.1,0.4,1.5,0.9c2,2.9,5.1,4.3,7.8,6.3c2.8,2.1,6.5,0.8,7.6-2.6
		c0.9-2.6,2.2-4.8,3.8-7c1.4-1.9,2.9-4,1.4-6.6c-0.7-1.3-1.7-1.5-2.3-0.2C219.1,296.8,217,299.4,217.3,302.8z M323.3,166.4
		c-4.6,0.7-1.2-1.4-1.5-2.9c-2.3,3.4-5.4,5.1-7.9,7.4c-3.2,2.9-5.8,6.4-9.9,8.5c-3.6,1.8-6.4,6.9-4.1,10.5c0.3,0.5,0.2,1.3,1,1.3
		c0.6,0,1.3-0.5,1.3-1.1c-0.1-1.6,1.6-2.9,0.6-4.6c-0.3-0.5-0.1-1,0.6-1c2.7,0.2,4-2.3,4.2-3.7c0.6-2.9,4-2.6,4.6-5
		C317.1,174.4,319.3,169.9,323.3,166.4z M278.3,446.3c1.2-1.1,3.1-0.4,4.2-1.2c2-1.3,1.2-6.6-1-7.7c-0.8-0.4-8.1,0.8-8.7,1.5
		c-0.2,0.2-0.3,0.4-0.3,0.7c-0.4,2-1.7,3.3-3.3,4.4c-1.2,0.8-0.7,1.4,0.3,1.8c0.8,0.3,1.5,0.6,2.5,0.6
		C274,446.4,276,444.9,278.3,446.3z M333.7,143c0-0.9-0.1-1.6-0.8-1.8c-0.7-0.2-1.1,0.4-1.4,0.9c-2.9,4.9-8.3,7.4-11.8,11.7
		c-2.1,2.6-4.8,4.6-6.9,7.2c-3.4,4.3-6.3,8.9-10.3,12.8c-2.5,2.4-4.5,5.2-6.6,7.9c-0.7,0.9-1.2,2.2,0,2.9c1.4,0.8,2.5-0.3,2.8-1.4
		c0.8-3.6,3.2-6,5.4-8.8c4.6-5.7,9.4-11.4,14.1-17.1c1.8-2.2,3.6-4.6,6.2-6.1c1.9-1.1,3.7-2.5,5.4-4
		C331.3,146,332.9,144.7,333.7,143z M226.5,270.8c-0.5,0.1-1.3,0-2.1,0.5c-3.7,2.2-4.9,6.5-8.2,9.1c-0.6,0.5,0,1.5,0.5,2.1
		c0.5,0.6,1.1,0.9,1.8,0.6c0.9-0.3,0.8-1,0.7-1.7c-0.1-1.5,0.7-1.6,2-1.4c1.4,0.2,2.2-0.9,2.8-1.9c0.5-1.1-0.8-1.1-1.3-1.5
		c-1-0.9-0.9-1.6,0.2-2.2c0.8-0.4,1.7-0.5,2.3-1.1c1.4-1.3,2.4-0.7,3.5,0.3c2.3,2,4.1,4.4,5.2,7.2c0.7,2,1.2,4.1,1.8,6.2
		c0.4,1.3,1.7,2.1,2.6,2c1.2-0.2,0.5-1.6,0.4-2.4c-1.2-5.6-3.1-10.9-8.6-13.9C229,272,228.5,270.5,226.5,270.8z M201.6,112
		c7.2-7.4,12.1-16.1,19.5-23.3c-1.4-0.2-1.8,0.3-2.1,0.7c-4,4.6-9.5,7.7-12,13.6c-0.2,0.5-0.9,1.1-1.5,0.7c-0.8-0.5,0-1,0.2-1.5
		c1.8-3.6,4.6-6.4,7.2-9.3c2.2-2.4,5.1-4.2,6.6-8c-3.8,2-5.9,4.9-8.1,7.5c-3,3.6-6.9,6.8-8.2,11.6c-0.1,0.3-0.8,1,0,0.9
		c1.8-0.1,0.8,0.4,0.4,1.1C202.7,107.8,201.4,109.3,201.6,112z M306.3,175.8c8.4-8.1,17.6-14.7,22.7-25.1c-2.4,1.2-5,2.3-6.7,4.2
		c-4.7,5.3-9.1,10.9-13.5,16.5C307.9,172.4,306.3,173.2,306.3,175.8z M185.8,212.8c-1.5,2.4-0.9,4.8,1.3,6.6
		c2.3,1.9,4.9,3.4,7.3,5.2c2.9,2.3,6.4,2.9,9.6,2c2.5-0.7,5-1,7.5-1.2c0.6,0,1.5,0.4,1.7-0.6c0.2-1-0.8-1.1-1.5-1.5
		c-0.6-0.3-1.2-0.1-1.8,0c-3.8,0.2-7.6,0.2-11.2,1.7c-0.5,0.2-0.8,0-0.9-0.6c0-0.7-0.4-0.9-1-1.3
		C192.6,220.5,187.2,218.8,185.8,212.8z M176.8,300.5c0,1.2,0.1,2.8,1.5,2.8c1.5,0,1.2-1.7,1.1-2.7c-0.2-1.9,0.4-3.6,1-5.3
		c1.8-4.8,1.3-11,7.5-13.5c0.5-0.2,0.7-0.8,0.3-1.3c-0.4-0.5-0.8-0.9-1.5-0.9c-2.5,0-5.3,2.3-5.9,4.7c-0.6,2.4-1.3,4.8-1.8,7.2
		C178.4,294.6,176.6,297.3,176.8,300.5z M248.6,476.2c1-0.1,2.1,0.4,2.7-0.6c1.7-2.9,3.5-5.8,4.9-8.9c1.4-3.3,3.3-6,6.4-7.8
		c0.8-0.4,1.2-1.2,1.5-2c0.4-0.9,0-1.7-0.6-2.4c-0.7-0.7-1.4,0-2.1,0.2c-1.4,0.5-1.4,1.9-1.8,2.9c-1.9,4.1-4.8,7.5-6.8,11.5
		c-1.4,2.9-3.5,5.9-7.6,5.9c-0.4,0-0.7,0.2-0.6,0.6c0.1,0.6,0.6,0.9,1.1,0.9C246.6,476.6,247.6,476,248.6,476.2z M223.3,406.5
		c2.1,0.8,3.8,2.2,5.8,3.1c6.8,3.1,12.9,7.4,18.8,11.9c2.8,2.1,5.8,3.9,8.9,5.6c1.5,0.8,2.6,0.5,3.6-1c-0.5-0.2-0.8-0.4-1.2-0.5
		c-3.5-0.7-6.8-1.9-9.5-4.2c-5.6-4.8-11.6-9-18.3-12.2C228.8,408,226.3,406.4,223.3,406.5z M214.6,212.8c0.6-0.1,0.9-0.5,0.9-1
		c0.3-1.8-0.6-2.6-2.2-3.2c-3.2-1.2-6.8-1.2-9.3-4.5c-1.3-1.7-3.5-2.9-5.1-4.7c-0.4-0.4-0.3-1.7-1.3-1.2c-0.8,0.4-1,1.4-0.5,2.3
		c2.5,4.4,6.6,7,11.1,9c1.6,0.7,3.3,0.9,4.5,2.3C213.4,212.2,213.8,212.8,214.6,212.8z M322.7,163.5c3.2-3.2,6.9-5.8,9.4-9.5
		c1.3-1.9,2.5-3.7,5.2-3.5c1.6,0.1,2.2-0.8,1.4-2.4c-0.6-1.2-1.5-2.2-2.9-2.4c-1.4-0.2-2.2,0.9-2.8,1.9c-2.6,4.2-4.2,9.2-8.2,12.5
		C323.9,160.9,322.9,161.9,322.7,163.5z M261,207.4c-3.3,0.3-6.5,0.6-9.8,0.9c-1.4,0.1-2.7,1.6-2.4,3.2c0.5,2.3,2.9,2.4,4.6,3.3
		c1.3,0.6,2.3-0.1,3.2-1c0.3-0.3,0.8-0.8,0.7-1C256.7,209.6,259.2,208.9,261,207.4z M279.5,325.8c-0.8,0-1.5,0.5-1.8,1.4
		c-0.2,1,0.3,1.8,1.2,2.1c1.8,0.5,3.2,1.7,4.9,2.2c3.2,1,6.2,2.6,7.8,5.9c0.2,0.4,0.4,0.9,0.9,0.6c1-0.5,1.4-1.5,1.6-2.5
		c0.2-0.9-0.4-1.4-1.3-1.6c-4.5-1-7.9-3.6-11-6.8C281.2,326.4,280.5,326,279.5,325.8z M242.3,239.7c-1.5,0.3-2.9,0.2-4.3,0.1
		c-5.2-0.5-9.1-3.2-12.6-6.8c-0.6-0.6-1.2-1.5-2.1-0.6c-0.7,0.8,0,1.4,0.5,2c3.6,3.3,7.5,6,12.2,7.4
		C240.4,243.2,241,242.9,242.3,239.7z M196.4,398.7c-1.4,0-2.6,0.4-3.8,0.8c-1.5,0.6-1.3,1.9-1,3.1c0.3,1.1,1.2,1.9,2.3,1.4
		c1.7-0.8,2.3,0.1,3.1,1.2c0.8,1.1,1.9,1.2,2.8,0.1c0.8-1.1,0.5-2.4-0.2-3.4C198.6,400.7,198.4,398.7,196.4,398.7z M203.7,215
		c0.2-0.9,0-1.5-0.7-1.9c-4.1-1.9-7.5-4.7-9.9-8.6c-0.2-0.3-0.7-0.7-1-0.7c-0.7,0.1-0.6,0.7-0.6,1.2c0,1.9,1.3,3,2.4,4.1
		c2.3,2.2,4.4,4.8,7,6.7c0.7,0.5,1.1,1.4,2.1,1C203.9,216.5,203.5,215.5,203.7,215z M179.9,219c-1.5,3.9-0.6,6.5,1.8,8.7
		c2.7,2.5,6,3.9,9.2,5.4c0.9,0.4,1.8,1.2,2.4,0.1c0.7-1.2-0.7-1.5-1.5-1.8c-3.5-1.6-7.2-2.8-9.5-6.3
		C181.3,223.3,180.7,221.4,179.9,219z M197.5,316.5c-0.6-1.8-1.7-3.5-3.9-3.9c-2.1-0.4-4.2-0.4-5.6,1.6c-0.6,0.9-1,2,1.2,1.9
		c1.4-0.1,3.4-0.2,4.2,2c0.3,0.7,1.2,1.6,2.3,1C196.7,318.6,197.3,317.8,197.5,316.5z M212.9,230.1c-0.4-1-1-0.9-1.5-0.8
		c-5.3,0.3-9.8,3.6-15.2,3.6c-0.6,0-1,0.4-1,1c0,0.6,0.3,1,0.8,1.2c0.7,0.3,1.3,0.2,2,0.2C203.4,234.6,207.6,230.9,212.9,230.1z
		 M226.6,226c-0.2,0.2-0.5,0.3-0.5,0.5c-0.2,0.6,0.2,0.9,0.6,1.3c2.9,2.3,6.1,3.7,9.8,4.2c1.5,0.2,3.1,0.2,4.4,1.1
		c0.8,0.5,1.4,0.5,2.1-0.2c0.4-0.4,0.7-0.8,0.5-1.4c-0.3-1-1.2-0.8-1.9-0.9c-4.8-0.8-9.7-0.8-13.8-4
		C227.5,226.3,227,226.2,226.6,226z M221.8,87.3c4.5-2.7,6.8-7.7,11.7-9.7c0.9-0.4,0.8-1.5,0.6-2.3c-0.2-1-1.1-1.3-1.9-1.5
		c-1-0.3-1.4,0.5-1.7,1.2c-1,1.9-2.3,3.6-3.5,5.4C225.3,82.6,222.6,84.1,221.8,87.3z M252,379c-0.5,0-1.2-0.2-1.9-0.2
		c-1.2,0-2.2,0.2-2.6,1.6c-0.4,1.3,0.6,1.8,1.3,2.5c1.2,1.3,2.7,0.8,3.8,0.4c1.4-0.5,3.9-0.4,3.5-2.9c-0.3-2.4-2.4-1.2-3.8-1.5
		C252.3,379,252.2,379,252,379z M252,101.6c1.4-0.1,2.7-0.8,3.5-1.8c0.7-0.9-0.6-1.6-1.3-2.2c-0.6-0.6-0.5-1.2-0.6-1.9
		c-0.1-2.2-0.1-4.3,0.7-6.4c0.2-0.6,0.5-1.2-0.3-1.6c-0.6-0.3-1.2,0.1-1.7,0.5c-0.6,0.4-0.7,1.1-0.7,1.9c-0.1,1.9,1,3.8,0,5.8
		c-0.1,0.2,0.1,0.7,0.4,0.9c2.3,1.6,0.8,2.4-0.6,3.1c-0.5,0.3-1.3,0.3-1.1,1.1C250.5,101.7,251.3,101.5,252,101.6z M230.2,213
		c-0.8-0.1-1.4-0.2-2.1-0.3c-0.4,0-0.9,0.1-1,0.6c-0.1,0.5,0.2,0.9,0.6,1c4,0.8,7.7,3,11.9,3.2c0.7,0,1.5,0,1.5-0.9
		c0-0.8-0.7-0.9-1.3-1c-1.9-0.1-3.7-0.5-5.4-1.5C233.1,213.3,231.7,212.8,230.2,213z M358.7,157.4c-0.1-0.8-0.5-1-1.2-1.1
		c-3.2-0.4-5.4-2.3-7-5c-0.3-0.5-0.4-1.4-1.1-1.3c-0.4,0.1-0.8,0.8-1.1,1.3c-0.4,0.7-0.2,1.4,0.6,1.7c1.2,0.5,1.8,1.5,2.6,2.4
		c1.5,1.5,3.2,2.5,5.2,3.2C357.8,159,358.5,158.6,358.7,157.4z M253.9,462.6c2.5-2,3.5-4.5,4.9-6.8c0.6-0.9,0.2-2-0.2-3
		c-0.2-0.5-0.3-1.4-1-1.4c-0.8,0-1.3,0.8-1.2,1.4c0.4,2.5-0.9,4.4-2.1,6.4C253.8,460.1,253.7,461.1,253.9,462.6z M230.4,207.4
		c-0.9-0.1-1.4-0.2-1.9-0.1c-0.8,0-1.8-0.4-2.4,0.4c-0.4,0.4-0.2,1,0.2,1.4c0.7,0.8,1.7,0.7,2.7,0.6c0.8-0.1,1.5-0.3,2.2-0.7
		c0.3-0.2,1-0.5,1.1-0.4c1.3,1.7,3.4,0.8,5,1.7c0.5,0.3,1.3,0.6,1.6-0.1c0.3-0.7-0.5-1-1-1.3C235.3,207.6,232.7,206.9,230.4,207.4z
		 M238.2,225.6c0.9-0.1,1.6-0.1,2.3-0.2c0.7-0.1,1.6,0.1,1.6-0.8c0-0.9-0.9-0.7-1.6-0.8c-2.2-0.2-4.3-0.4-6.5-0.7
		c-1.9-0.3-3.5-1.4-5.1-2.4c-0.6-0.4-1.5-0.6-1.9,0c-0.6,0.8,0.3,1.3,0.9,1.5C231.5,223.2,234.6,225.3,238.2,225.6z M206.5,276
		c-1.5-0.6-3-0.1-4.4-0.2c-0.2,0-0.7,0.3-0.8,0.5c-0.3,1.8,0.1,3.3,2,4.2c1.5,0.6,2.9,0.5,4-0.6c0.5-0.5,0.8-1.3-0.4-1.4
		c-0.7-0.1-1.6,0.6-2-0.4C204.6,276.8,206.3,277.2,206.5,276z M234.2,236.2c-0.1-0.2-0.1-0.5-0.3-0.7c-2-2.7-5-4.1-7.7-5.9
		c-0.3-0.2-0.7-0.2-0.9,0.2c-0.1,0.3-0.1,0.8,0.1,1c2.4,2.3,4.6,4.9,7.7,6.4C233.9,237.5,234.2,237,234.2,236.2z M209,188.5
		c0,0.7-0.1,0.9,0,1c2.2,3.4,5.6,6,6.3,10.3c0.1,0.7,0.8,1.2,1.6,0.8c0.9-0.4,1.4-1.1,1.1-2.1c-0.3-0.9-0.8-1.8-1.5-2.3
		C213.7,194.1,211.7,191.2,209,188.5z M252.8,85.7c-0.2-0.8-0.8-1.1-1.4-1.5c-2.7-1.5-5.2-3.3-7.3-5.6c-0.6-0.6-1.1-1.1-1.9-0.8
		c-0.5,0.2-1,0.6-0.9,1.1c0.1,0.9,0.9,1.1,1.7,1.4c2.3,0.7,4.3,1.7,5.4,4c0.6,1.2,2,1.5,3.1,2.2C252.2,87,252.7,86.5,252.8,85.7z
		 M201.6,266.1c-0.8,0.1-1.9-0.1-1.9,1.2c0.1,1.6,0.3,3.4,2,4.1c0.8,0.3,2,1,2.6,0c0.7-1.3-0.2-2.8-0.3-4.1
		C203.9,266.2,202.6,266.2,201.6,266.1z M220.3,183.6c-1.1-0.1-1.8,0.8-2,2.1c-0.1,0.9,2.6,3.2,3.8,3.2c1.2,0,1.8-1,1.6-1.9
		C223.5,185,221.6,184.6,220.3,183.6z M253.3,358c0.9-5.3,1.5-10.3,3-15.1C253.5,345.6,251.5,355,253.3,358z M214.6,218.4
		c-0.4-0.8-1-1.3-1.9-1.6c-1.9-0.4-3.8-0.9-5.7-1.4c-1-0.3-1.7-0.2-1.9,1c-0.2,1.2,0.6,1.5,1.5,1.6c2.3,0.1,4.6,0.1,6.8,1.2
		C214,219.4,214.6,219.4,214.6,218.4z M193,303.3c1.1-0.3,2.3-0.5,2.4-1.9c0-1.3-0.5-1.9-1.9-1.1c-0.5,0.3-0.6-0.4-0.8-0.7
		c-0.9-1.2-1.7-1-2.1,0.3c-0.5,1.7-1.6,2.7-2.8,3.8c-0.4,0.3-1,0.6-0.5,1.1c0.5,0.5,0.8-0.1,1.3-0.4c1.2-0.8,1.9-3.7,4-1.1
		C192.5,303.4,192.8,303.3,193,303.3z M201.2,112.6c-2.7,1.3-4.2,3.9-6.9,5.2c-1,0.5-0.1,1.6,0.8,1.9c0.8,0.3,2,2,2.5,0.3
		C198.3,117.3,199.5,114.9,201.2,112.6z M186.3,239.7c-0.2-0.6-0.8-0.6-1.2-0.8c-2.5-1.4-5.9-1.7-6.8-5.3c-0.1-0.5-0.6-0.9-1.2-0.5
		c-0.6,0.4-0.6,1.1-0.3,1.6c0.6,0.8,1.5,1.5,1.9,2.3c1.4,3.1,4.3,2.6,6.8,3.2C186,240.4,186.2,240.1,186.3,239.7z M256.5,94.9
		c0,0.6,0,0.9-0.1,1.2c-0.2,1,0,1.7,1,2.1c0.4,0.2,0.9,0.4,1.2,0c0.7-0.9,0-1.6-0.4-2.3c-1.4-2.5-0.8-5.2-0.5-7.8
		c0.1-0.7,0.8-1.4,0.1-2.1c-0.2-0.2-0.7-0.3-0.9-0.2c-0.8,0.5-0.3,1.4-0.4,2.1C256,90.3,255.9,92.8,256.5,94.9z M263.2,448.3
		c0.7,0.8-0.4,2.5,1.4,2.8c0.7,0.1,3.4-3,3.2-3.9c-0.2-0.9-0.6-2-1.8-1.8C264.5,445.6,263.3,446.3,263.2,448.3z M293.3,351.7
		c-0.1-0.8-0.8-1.2-1.5-1.5c-1-0.4-1.9-0.7-2.2-1.9c-0.2-0.7-0.3-1.7-1.4-1.5c-0.6,0.1-1,0.6-1.2,1.2c-0.3,0.9,0.2,1.5,0.9,1.9
		c1.1,0.7,2.2,1.3,2.7,2.6c0.2,0.5,0.3,1.3,1.1,1.1C292.6,353.5,292.9,352.6,293.3,351.7z M201.2,259.3c2.3,3,2.3,3,4.4,3
		c0.8,0,1.6,0.1,1.7-1c0.1-1-0.3-1.7-1.2-2C204.6,258.9,203,258.2,201.2,259.3z M265.3,94.7c-0.1-0.8-0.4-1.5-0.9-2.1
		c-0.9-1-1.4-2.2-1.8-3.4c-0.3-0.8-0.5-1.9-1.6-1.3c-1.1,0.6-0.2,1.6,0.2,2.2c1.1,1.4,1.7,3,1.6,4.7c0,0.8-0.1,1.7,1,1.7
		C264.7,96.5,265.1,95.6,265.3,94.7z M299.6,346.5c-0.3-1.2-1.8-1.5-2.2-2.7c-0.7-1.8-2.4-2-3.8-2.9c-0.3-0.2-0.7-0.4-0.9,0
		c-0.2,0.2-0.3,0.8-0.1,0.9c1.7,1.7,3.3,3.4,5.1,5C298.1,347.1,299.1,347.2,299.6,346.5z M208.5,200.4c0.5,0,0.9-0.1,1.1-0.5
		c0.3-0.5,0.1-1-0.4-1.3c-1.2-0.9-2.5-1.8-3.7-2.7c-0.7-0.5-1.7-1.6-2.4-0.8c-0.8,1,0.7,1.4,1.3,2c0.9,0.9,1.9,1.7,2.8,2.6
		C207.6,199.9,208,200.4,208.5,200.4z M221.5,178.8c-0.7,0.1-1.8-0.3-2,0.9c-0.1,1,0.5,1.5,1.5,1.7c0.5,0.1,1,0.3,1.3,0.7
		c1,0.9,1.7,0.4,2.3-0.4c0.9-1.1,0.1-1.7-0.7-2.3C223.3,178.7,222.5,178.8,221.5,178.8z M186.2,246.6c1-0.3,2.7-0.1,2.5-1.6
		c-0.3-1.5-2.1-1.8-3.5-1.9c-0.9-0.1-2.1,0.6-1.9,1.5C183.5,245.8,184.8,246.4,186.2,246.6z M374.6,152.7c-0.1-0.5-0.5-1-0.8-0.7
		c-1.4,1.5-3.7,1.8-4.8,3.6c-0.4,0.6-0.4,1.4,0.4,1.8c0.7,0.4,1.3,0.3,1.7-0.5c0.6-1.3,1.7-2.2,2.8-3
		C374.2,153.6,374.6,153.3,374.6,152.7z M241.8,476.4c-1.6,0.8-2.9,2.2-4.1,3.6c-0.2,0.3-0.1,0.8,0.2,0.8c1.4,0,2.5-0.9,3.8-1.4
		c0.5-0.2,0.9-0.5,1.3-0.8c0.5-0.3,0.6-0.8,0.3-1.3C243.1,476.8,242.7,476.3,241.8,476.4z M267.4,441.8c1.6,0,3.7-3.3,3.2-4.7
		c-0.2-0.4-0.5-0.7-0.9-0.8c-0.5,0-0.9,0.3-1,0.7c-0.3,1.4-1.2,2.4-2,3.5C266.1,441.4,266.7,441.7,267.4,441.8z M224.4,315.3
		c-0.3-1.2-0.8-2.3-2.1-2.3c-1.4,0-1.7,1.3-1.9,2.4c-0.2,1.1,0.6,1.9,1.6,1.9C223.4,317.5,223.9,316.3,224.4,315.3z M240.1,296.9
		c-0.4-1.3-1.7-1.3-2.7-1.7c-1-0.4-2-0.1-2.8,0.6c-0.3,0.3-0.2,0.6,0.1,0.8c1.2,0.6,2.4,1.3,3.6,1.7
		C239.3,298.5,240,297.9,240.1,296.9z M234.4,210.7c-0.7,0.2-1.9-0.4-2.1,0.6c-0.2,0.9,1.2,1,1.8,1.5c0.4,0.3,0.9,0.4,1.4,0.5
		c0.8,0.2,1.8,1.5,2.4,0.2c0.5-1-0.7-1.8-1.5-2.4C235.9,210.6,235.1,210.7,234.4,210.7z M208.2,321.4c0.8,0,1.9,0.2,1.9-0.9
		c-0.1-1.7-1.6-2.1-3-2.4c-0.8-0.2-2.1-0.1-1.9,1C205.4,320.5,206.9,321,208.2,321.4z M365.8,149.1c0.8-0.1,1.2-0.7,1.5-1.3
		c0.6-1.5,1.1-3,2.1-4.3c0.4-0.5,0.7-1.2,0-1.6c-0.7-0.4-1.6,0.2-1.6,0.8c0.2,2.1-1.3,3.3-2.3,4.8
		C365,148.1,364.7,148.8,365.8,149.1z M270.3,83c0,0,0.8,0.1,1-0.8c0.1-0.5-0.5-0.9-0.7-0.9c-2.3,0.6-4.3-0.7-6.4-1.1
		c-0.5-0.1-0.9,0-1,0.5c-0.1,0.5,0.3,0.9,0.7,0.9C265.9,81.7,267.6,83,270.3,83z M219,190.8c-0.4-0.9-1.1-1.8-2.2-1.8
		c-1,0-1.9,0.8-1.8,1.8c0.1,1.2,1.2,1.8,2.4,1.8C218.4,192.6,218.7,191.7,219,190.8z M202.7,186.7c0.9,2.3,2.5,3.9,4.3,5.5
		c0.3,0.3,0.9,0.2,1.1-0.2c0.2-0.4,0-0.8-0.3-1.1C206.3,189.3,204.8,187.7,202.7,186.7z M214,237.1c1.5,2,3.6,3.1,6.1,4
		C219.5,237.1,216,238.2,214,237.1z M252.6,464.7c-1.5,1.6-2.7,2.8-3.8,4.1c-0.4,0.4-1,1-0.4,1.5c0.6,0.5,1.8,0.4,2.1-0.2
		C251.1,468.4,252.6,467.1,252.6,464.7z M340.4,142.5c0-1.3-0.9-1.7-1.9-1.7c-1.1,0-2.3,0.4-2.3,1.6c0,1,1.1,1.5,2.1,1.6
		C339.3,144,340.2,143.7,340.4,142.5z M226.6,178.3c-0.9-1.5-0.9-3.7-2.9-4.2c-1.2-0.3-2.1,0.5-2.5,2
		C223.5,175.8,225,177.1,226.6,178.3z M257.5,377.1c0,0.7-0.2,1.6,1,1.7c1.1,0.1,1.9-0.4,2-1.6c0.1-1.1-0.3-2.3-1.5-2.3
		C257.6,374.8,257.7,376.1,257.5,377.1z M299.1,357.6c-1.8-0.9-2.5-2.3-3.7-3.4c-0.3-0.3-0.7-0.5-1.1-0.3c-0.4,0.3-0.6,0.6-0.5,1.1
		C294,356.3,297,358,299.1,357.6z M294.2,347.5c-1.1-1.2-2.2-2.6-3.6-3.7c-0.4-0.3-1.4,0.3-0.8,1c0.9,1.2,1.6,2.7,3,3.5
		C293.4,348.5,293.9,348.5,294.2,347.5z M192.8,218.2c0.7-0.1,1.9,0.1,1.7-0.9c-0.2-1.5-1.7-1.4-2.8-1.5c-0.6,0-1.9-0.3-1.8,0.7
		C190.2,217.9,191.5,218.1,192.8,218.2z M341.9,147.7c1-0.2,1.4-0.9,1.3-1.7c0-1.3-0.9-1.8-2.1-1.7c-0.7,0-1.4,0.4-1.1,1.3
		C340.3,146.6,340.7,147.6,341.9,147.7z M260.1,312.8c-1,0.1-1.5,0.6-1.5,1.5c0,1.1,0.9,1.7,1.7,1.5c0.8-0.2,2.1-0.6,2-1.7
		C262.2,312.8,260.8,313.2,260.1,312.8z M188.2,226.9c1.1-0.4,2.8-0.1,3.2-1.8c0.1-0.6-0.8-0.9-1.4-0.7c-1.2,0.4-2.9,0.3-3.4,1.7
		C186.3,226.8,187.5,226.8,188.2,226.9z M229.8,412.6c2.2,0.6,3.5,3.4,7,3C234.3,413.9,232.4,412.5,229.8,412.6z M265.5,104.1
		c-0.5-0.7-0.9-1.4-0.9-2.4c0-0.6,0-1.3-0.8-1.3c-0.7,0-1.1,0.6-1.1,1.2c-0.2,1.4,0.4,2.5,1.7,3.2C265,105.2,265.5,105,265.5,104.1z
		 M371,138c-0.5-0.5,0.6-2.1-0.6-1.8c-1.1,0.3-1.4,2.1-1.7,3.4c-0.2,0.7,0,1.5,1,1.4C371.5,140.8,370.9,139.3,371,138z M182.3,220.2
		c-0.2,0.8,0,1.4,0.9,1.5c1.1,0.1,1.9-0.8,1.6-1.5c-0.5-1-0.2-2.8-1.5-2.8C182.1,217.5,182.8,219.3,182.3,220.2z M264.8,327.2
		c2.9-0.7,2.1-3,2.2-4.8c0-0.2-0.3-0.5-0.6-0.7c-0.1-0.1-0.6,0.2-0.6,0.3C266.3,323.8,263.8,325.2,264.8,327.2z M276.2,81.7
		c-0.5,0-0.8,0-1,0c-0.6,0.1-1.6-0.4-1.5,0.7c0,0.7,0.9,0.7,1.5,0.6c1.3-0.1,2.6,0,3.8,0.5c0.6,0.2,1,0.1,1.2-0.5
		c0.2-0.7-0.3-0.9-0.9-1C278.2,81.9,277,81.8,276.2,81.7z M235.1,252.7c-0.5-0.8-0.5-2.3-2.1-2.3c-0.7,0-1.3,0.3-1.1,1.1
		c0.3,1.2,1,2.2,2.4,2.4C234.9,254,235.1,253.5,235.1,252.7z M263.1,320.2c0.8-0.1,2.1,0.3,2.1-1.2c0-0.8-0.5-1.5-1.4-1.5
		c-1.3,0-2.1,1-2.3,2.1C261.3,320.5,262.4,320.1,263.1,320.2z M359.7,171c0.6-1.4-0.2-2.3-0.2-3.3c0-0.6-0.2-1.2-0.9-1.3
		c-0.6,0-0.9,0.3-1.2,0.8c-0.4,0.6-0.2,1.1,0.3,1.6C358.2,169.4,358.8,170.1,359.7,171z M232.6,244.7c-0.3-2.9-2.1-3.6-4.5-4.5
		C229,242.6,230.5,243.8,232.6,244.7z M197.5,296.8c1.2,0,2.1-0.5,2.2-1.6c0.1-0.9-0.8-0.5-1.4-0.5c-1,0-2.3,0.1-2.5,1.2
		C195.7,297,196.8,296.7,197.5,296.8z M250.4,97.6c-0.1-0.8-0.6-1.3-1.1-1.1c-1.2,0.4-2.4,1-2.7,2.4c-0.1,0.4,0.2,1,0.7,0.7
		C248.3,99,249.7,98.6,250.4,97.6z M196.6,249.8c-0.1-0.7-0.6-1.4-1.1-1.1c-0.9,0.4-2.1,0.9-2.3,2.1c-0.1,0.6,0.8,1,1.3,0.9
		C195.7,251.7,196.3,250.9,196.6,249.8z M237.7,72.8c-0.4-1-1.2-1.6-2.2-1.8c-0.6-0.1-1,0.4-0.8,1c0.2,1,0.7,2,1.9,2
		C237.2,74,237.6,73.5,237.7,72.8z M262.1,445.7c0-0.6-0.1-1.1-0.6-1c-1.4,0.1-1.9,1.2-2.4,2.3c-0.2,0.5,0,1.2,0.6,1.2
		C261,447.9,261.3,446.4,262.1,445.7z M188.6,203.9c1.9-1.1,0.7-3,1.6-4.2c0.1-0.2-0.6-0.4-1-0.2c-1.7,0.8-0.4,2.3-0.7,3.4
		C188.4,203.2,188.5,203.5,188.6,203.9z M334.8,126.5c-0.1,0.1-0.3,0.3-0.4,0.5c-0.4,1.3,0.2,2.3,1.1,3.1c0.3,0.3,0.8,0.5,1.1,0
		c0.6-1.1-0.5-1.9-0.8-2.8C335.6,127,335.4,126.6,334.8,126.5z M363,158.7c1,0.3,1.4-0.4,2-0.7c0.7-0.3,2.2,0.2,1.8-1
		c-0.4-1.2-1.8-0.3-2.7,0C363.6,157.3,363,157.7,363,158.7z M200.2,195.8c0.5,1.5,0.7,2.4,1,3.3c0.3,0.7,0.9,0.7,1.5,0.4
		c0.7-0.4,0.7-0.9,0.2-1.5C202.2,197.5,201.4,196.8,200.2,195.8z M250.6,461.8c-0.9,1.5-1.9,3-2.8,4.5
		C249.7,465.3,251.3,464.1,250.6,461.8z M344.1,150c-0.1-0.7-0.7-0.9-1.3-0.8c-0.8,0.2-1.6,0.4-1.6,1.4c0,0.8,0.7,1.1,1.5,1
		C343.5,151.4,344,151,344.1,150z M202.8,180.1c-0.2-0.9-0.7-1.3-1.6-1.2c-0.7,0.1-1.2,0.3-1,1.1c0.2,0.7,0.7,1.4,1.6,1.4
		C202.5,181.2,202.8,180.7,202.8,180.1z M377.7,149.8c0.1-0.7-0.1-1.3-0.7-1.1c-0.8,0.1-1.7,0.5-1.9,1.5c-0.1,0.8,0.3,1.4,1.1,1.4
		C377.3,151.5,377.3,150.4,377.7,149.8z M298,340.8c-0.5-0.9-1.2-1.7-2.1-2.3c-0.4-0.2-1-0.2-1,0.4c0,1.1,0.7,1.9,1.8,2.3
		C297,341.3,297.5,341.7,298,340.8z M207.4,270.1c0-1.3,0.5-2.9-0.7-2.8c-1.2,0.1-0.2,1.5-0.2,2.4c0,0.4-0.1,0.8-0.1,1.3
		c-0.1,0.5,0,0.9,0.5,1c0.5,0,0.7-0.4,0.7-0.9C207.5,270.6,207.4,270.2,207.4,270.1z M254.6,177.9c-0.9-0.6-1.4-1.9-2.8-2.2
		c-0.4-0.1-0.7,0.4-0.5,0.7c0.7,1,1.3,2.2,2.7,2.4C254.4,178.9,254.6,178.5,254.6,177.9z M342.5,139.6c-0.7,0.1-1.1,0.4-0.9,1
		c0.3,0.9,1.1,1.5,2,1.9c0.5,0.2,0.9-0.2,0.8-0.7C344.1,140.7,343.5,139.9,342.5,139.6z M298.3,351.9c0.5-0.1,1-0.4,0.9-0.7
		c-0.6-1-1.2-2.1-2-2.8c-0.4-0.3-0.7,0.5-0.7,1C296.5,350.8,297.7,351.2,298.3,351.9z M337.4,133.6c0-0.7-0.1-1.5-1-1.4
		c-0.7,0-1.1,0.5-1,1.2c0.1,0.8,0.4,1.7,1.2,1.8C337.4,135.2,337.2,134.2,337.4,133.6z M261,92.8c-0.1-0.9-0.1-1.8-1.3-1.9
		c-0.6,0-0.8,0.6-0.7,1.1c0.2,0.8,0.3,1.9,1.2,2.1C261,94.4,261,93.5,261,92.8z M254.6,314.6c0.1,0.6-0.3,1.7,0.8,1.4
		c1-0.2,0.8-1.5,1-2.4c0.1-0.5-0.1-1.1-0.7-1C254.4,312.7,254.6,313.7,254.6,314.6z M185,296.4c-0.8,0.5-1.2,0.7-1.4,1
		c-0.7,0.7-0.8,1.5-0.5,2.4c0.1,0.3,0.4,0.6,0.8,0.4c1-0.4,0.6-1.3,0.8-2C184.8,297.8,184.8,297.4,185,296.4z M200.5,291.7
		c-0.1-0.7-0.4-1.3-1.3-1.2c-0.9,0.1-1,0.8-1.1,1.5c-0.1,0.7,0.4,1.1,1.1,1.1C200,292.9,200.5,292.5,200.5,291.7z M220.4,198.5
		c0.8-1.9-0.5-2.6-1.3-3.5c-0.2-0.2-0.8-0.3-0.9,0c-0.5,1.4,0.9,1.8,1.4,2.7C219.7,198,219.9,198.1,220.4,198.5z"/>
	<path d="M242.6,159.9c0.1-2.2,2.4-4.1,4.9-4c3.1,0.2,5.1,1.7,5.1,3.7c-0.1,1.4-3.6,5.8-4.6,5.7C246,165.2,242.5,161.6,242.6,159.9z
		"/>
</g>
</svg>
