<?xml version="1.0" encoding="utf-8"?>
<!-- Generator: Adobe Illustrator 24.3.0, SVG Export Plug-In . SVG Version: 6.00 Build 0)  -->
<svg version="1.1" id="Layer_1" xmlns="http://www.w3.org/2000/svg" xmlns:xlink="http://www.w3.org/1999/xlink" x="0px" y="0px"
	 viewBox="0 0 500 500" style="enable-background:new 0 0 500 500;" xml:space="preserve">
<g>
	<path d="M127.2,266.2c2.6-1.4,5.2-0.6,7.6,0.3c0.9,0.3,1.8,0.9,2.6,0.6c2.5-1.1,5.2-0.8,7.8-1.3c1.7-0.3,3.6-0.6,3.8-2.4
		c0.2-2,0.1-4.5-2-5.8c-2-1.3-2.8-2.9-3-5.1c-0.1-1.7-1-3.1-1.8-4.5c-1-1.7-1.3-3.5-0.4-5.4c0.9-2,0.4-3.3-1.9-3.7
		c-2.5-0.4-3.7-2-4.7-3.9c-0.4-0.8-0.8-1.5-1.5-2.1c-2.5-1.8-2.6-4.7-3.2-7.4c-0.2-0.7,0-1.4,0.8-1.7c0.7-0.2,1.1,0.2,1.6,0.6
		c2.1,2.4,4.1,4.8,6.3,7.1c1.4,1.5,3.3,2.3,4.8,3.6c0.9,0.8,2.5,0.1,3.3-0.8c1.4-1.5,2.9-1.7,4.7-1.2c1.5,0.4,3.2-0.1,4.2-0.8
		c3.1-2.2,6.9-1.9,10.2-3.1c1.4-0.5,2.6-1.3,3.9-1.9c3.1-1.4,6.4-1,9.6-1.6c7.2-1.5,14.1-3.9,21.3-4.7c3.1-0.4,6-1.6,9.2-1.3
		c2,0.2,3.7-0.9,5.5-1.9c9.6-5.4,17.9-12.5,26.2-19.6c1.6-1.4,2.7-3.3,3.3-5.4c0.6-2.2,2.6-3.1,4.6-3.7c3.4-0.9,6.8-1.6,10.2-2.5
		c2.5-0.6,4.8,0.5,7.1,0.8c2.7,0.3,5.3,0.4,7.8-0.8c0.2-0.1,0.5-0.2,0.7-0.2c0.9-0.3,2.2,1.3,2.4,0.2c0.3-1.7,0.2-4.1-0.8-5.3
		c-2.1-2.5-2-5.7-3.7-8.3c-0.4-0.6-0.2-1.9-1.3-1.8c-1.1,0-1.2,1.1-1.3,2c-0.3,3.4-1.3,4.1-4.4,5.4c-3.9,1.6-8.2,2-11.8,4.5
		c-1.3,0.9-2.5,1.3-4,0.1c-1.6-1.3-2.9-2.6-2.6-4.9c0.3-2.2,0.1-4.5-0.9-6.5c-0.7-1.4-2.3-2.1-3.3-3.4c-1-1.4-1.4-2.7-1-4.3
		c0.3-1.3,0.3-2.5-0.4-3.7c-2.6-4.2-2.4-8.6-0.3-13c0.9-2,1.5-4.2,2.3-6.2c1.6-4.1,5-6.5,8.4-8.8c5.9-4,13-5.7,19.6-4.6
		c7.9,1.3,15.1,5.2,18.8,13.3c3.5,7.5,3.2,14.6-0.9,21.7c-0.3,0.6-0.6,1.3-1.1,1.7c-1.3,1.1-1.8,2.2-0.6,3.7
		c0.6,0.7,0.4,1.8,0.4,2.8c0,0.6,0,1.2,0.6,1.6c0.7,0.4,1.3,0.2,1.9-0.3c1.2-1,2.4-2,3.6-3c0.8-0.6,1.2-1.3,1-2.5
		c-0.3-1.9,1.1-3.2,2.2-4.5c0.4-0.4,0.9-0.6,1.4-0.3c2.2,1.3,3-0.3,3.7-1.8c2.2-4.5,3.3-9.3,4-14.3c1.2-8.1,0.5-16.1,1-24.2
		c0.2-3.6,0.5-7.9-3.6-10.4c-0.4-0.3-0.7-0.8-0.6-1.4c0.4-1.5,0.1-2.5-1.7-2.7c-0.8-0.1-1-1-1.1-1.6c-0.9-4.1-3.5-7.4-6.2-10.3
		c-5.7-6.1-10.7-12.8-16.1-19.2c-2.5-2.9-4.8-6-7.7-8.6c-1.8-1.6-3.5-1.4-4.9,0.6c-0.7,1.1-1.4,2.2-2.3,3.1c-3,3.2-2.1,7.1-2,10.8
		c0.1,1.9,4.5,3.5,6.3,2.4c1.1-0.7,2.1-1.5,3.2-2.3c0.5-0.4,0.9-0.6,1.4-0.1c0.4,0.4,1,0.9,0.6,1.5c-1.3,2-1.1,4.9-3.6,6.3
		c-0.2,0.1-0.4,0.4-0.4,0.6c0.6,3.6-2.6,4.6-4.4,6.6c-1.1,1.2-2.4,2.4-4.3,1.7c-1.2-0.4-1.6,0.1-1.5,1.2c0.1,1.1,0,2.1-0.7,3
		c-0.6,0.8-1.4,1.3-2.5,0.9c-0.8-0.3-1.8-0.8-1.6-1.8c0.8-3.1-1.2-5-2.9-6.8c-1.5-1.6-1.9-3.4-1.9-5.4c-0.1-2-0.3-3.9-0.3-5.9
		c0-1.1-0.6-1.6-1.4-2c-0.9-0.5-1.4,0.4-1.8,1c-2.3,3.2-5.3,5.6-9,6.9c-0.9,0.3-1.9,0.9-2.2,1.7c-0.7,2.3-2.6,2.7-4.5,3.4
		c-1.3,0.5-2.7,0.6-3.9,1.4c-0.7,0.5-1.3,0.4-1.8-0.2c-0.6-0.7-0.1-1.3,0.4-1.8c2.3-2.7,5-4.9,8.1-6.7c1.5-0.8,2.6-1.9,3.8-3
		c1.2-1.1,2.3-1.5,2.6,0.7c0.1,0.5,0.2,0.9,0.7,0.9c0.7,0,1.1-0.5,1.4-1c0.2-0.4,0.3-0.8-0.3-1c-1.7-0.6-0.7-1.1-0.1-2
		c2.3-3.5,5.3-6.2,8.2-9.2c3.4-3.5,4.4-8.4,7.3-12.3c0.6-0.9,1.3-1.6,2.1-2.2c0.7-0.5,1.5-1,1.3-2.1c-0.5-2.4,1.6-3.2,2.8-3.2
		c1.6,0,2.4-0.8,3.6-1.4c1.8-0.9,3.6-2,5.8-0.5c0.7,0.5,1.8,0.1,2.8,0.2c2.2,0.3,4.7,1.1,5,3.4c0.8,5.2,4.3,8.3,7.7,11.5
		c5.2,5.1,9.6,10.7,13.9,16.5c3,4,5.9,8.2,8.8,12.3c1.3,1.9,3.7,2.2,4.8,4.2c0.6,1.1,1.3,2,1.2,3.3c-0.1,1.1,0.5,1.9,1.1,2.8
		c1.2,1.9,2,3.9,0.4,6.1c-1.9,2.7-2.7,6-2.9,9.3c-0.5,7.6,0,15.2,0.3,22.7c0.2,3.9,0.5,7.8-0.1,11.6c-0.8,4.6,1.2,8.8,1.2,13.2
		c0,3.2-0.6,6.4-2.1,9.3c-1,1.8-1.7,3.2-0.6,5.5c1.1,2.2,0.8,4.8,1.4,7.3c0.8,3.5,3,6,4.9,8.6c2.4,3.3,4.4,6.4,3.4,10.9
		c-0.5,2.2,1.8,4.2,2.1,6.5c0.2,1.2,0.5,2.3,0,3.5c-1,2.5,1,5.2-0.3,7.8c-1.1,2.1-0.7,4.4-0.6,6.8c0.3,4-1.9,7-5.3,8.7
		c-2.2,1.1-4.6,0.4-6.5-1.2c-0.6-0.5-1-1.1-1.5-1.7c-0.9-1.1-1.8-1.7-2.8-0.1c-0.5,0.8-1.3,0.8-2.1,0.8c-1,0-1.7,0.5-1.9,1.4
		c-0.1,1.1,0.7,1.9,1.6,2c1.5,0.2,2.6,0.7,2.4,2.4c-0.1,1.4-0.7,2.7-2.4,2.9c-0.9,0.1-1.4,0.7-1.2,1.6c0.2,0.9,0.7,1.6,1.6,1.8
		c0.8,0.2,2.3-0.9,2.1,0.8c-0.2,1.4-0.2,3.3-2.2,3.7c-0.4,0.1-0.9,0.1-1.3,0.2c-0.8,0.2-1,0.9-1,1.6c0,0.8,0.4,1.3,1.2,1.4
		c1.1,0.1,2.8-0.5,2.6,1.5c-0.2,1.7-0.4,3.6-2.9,3.6c-0.1,0-0.2,0.2-0.7,0.7c2.3,0.5,4.1-0.6,5.2-1.6c5-4.4,11.1-1,12.9,5.9
		c0.9,3.6,1.9,7.1,3,10.6c1.1,3.5-0.5,10.4-3.3,12.7c-1.7,1.4-3.8,1.4-5.9,0.9c-0.7-0.2-1.5-0.8-2.1,0.1c-0.6,0.8-0.3,1.7,0.4,2.3
		c0.7,0.6,0.8,1.5,1,2.3c0.3,0.9,1,1.6,2.1,1.6c3.2,0.1,5.8,3.8,5,6.9c-0.1,0.4-0.6,0.8-0.6,1.1c0,6.1-4.6,10.6-5.7,16.3
		c-1.1,5.3-1.2,10.5-1.2,15.9c0,5.4-0.7,10.8-0.9,16.3c-0.2,6.1-0.4,12.2,0.3,18.3c0.1,1,0.6,2,1.2,2.9c1.4,2.2,0.6,3.9-1,5.5
		c-0.3,0.3-0.9,0.5-1,0.8c-1.6,4.3-5.1,6-9.3,7.2c-2.2,0.6-4.2,0.7-6.3,0.7c-3.1-0.1-5.7,0.5-8.5,2.3c-3.2,2-6.5,3.8-10,5.3
		c-4,1.8-7.3,4.8-11.4,6.6c-4.6,2.1-8.7,5.2-13.4,7.1c-4.1,1.7-5.8,5.7-8,9.1c-1.7,2.6-2.6,5.3-0.1,7.9c0.4,0.4,0.3,0.9,0.1,1.4
		c-0.4,0.8-0.4,1.6,0.2,2.2c1.2,1.1,1.2,2.6,1.5,4c0.2,1.4,0.6,2.4,1.9,3.3c0.9,0.6,0.9,2.3,1.6,3.5c1.4,2.7,3.4,5,5,7.5
		c0.6,0.9,1.5,1.1,2.5,1.1c2.7,0,4.5,1.3,5.7,3.7c0.5,1.1,1.1,2.2,2.2,2.8c0.6,0.4,0.8,0.9,0.6,1.6c-0.8,4-4.1,5.3-8,3.8
		c-2.8-1.1-5.6-2.1-8.4-3c-1.9-0.6-3.8-0.9-5.4-2.4c-0.9-0.8-1.2-1.5-1.2-2.7c0.1-4.3-2.1-7.6-5-10.4c-1.9-1.8-3.6-3.7-5.3-5.6
		c-0.4-0.4-0.6-0.8-0.5-1.3c0.3-2.9-0.6-4.4-3.4-5.1c-1.7-0.4-3.4-1.1-5.2-0.2c-1.4,0.7-2.5-0.5-3.7-0.8c-4.9-1.4-7.6-5.6-6.6-10.5
		c0.6-2.8,2.4-5,7.1-3.9c3.1,0.7,6.5,0.8,8.6-1.9c2.3-2.8,4.8-5.4,6.9-8.3c1.1-1.5,2.3-2.4,4-2.3c2,0.1,3.5-0.7,5-1.7
		c5.2-3.4,10.1-7.1,15.5-10.2c6.8-4,14-7,21.2-10c4.1-1.7,7.8-4,11.3-6.6c0.7-0.5,1.2-1.1,1.3-1.9c0.3-2.6,1.9-4.6,3.5-6.5
		c2.7-3.2,3.5-7.3,4.2-11.2c1.4-7.1,2.7-14.3,2.6-21.5c-0.1-5.6,1-11,1.4-16.5c0.2-2.3-0.4-4.4-1.1-6.6c-0.6-1.9-0.5-3.8,0.5-5.5
		c0.9-1.7,0.4-2.5-1.4-2.8c-0.8-0.1-1.6-0.7-2.3-1.1c-0.6-0.3-1.2-0.4-1.6,0.3c-1.6,3.4-4.6,5-8,6.2c-3.3,1.2-6.4,0.3-8.1-2.9
		c-0.9-1.7-2-1.9-3.6-1.5c-5.1,1.4-7.7,0.5-10.2-4.1c-1.4-2.5-2.6-5.4-5.8-6.7c-0.9-0.3-1.3-1.7-1.9-2.7c-0.5-0.8-0.7-1.9-2-1.7
		c-1.2,0.2-2.6,0.8-2.8,2c-0.6,4.3-4.2,5.9-7.2,7.9c-1.7,1.2-3,2.5-4.3,4.1c-3,3.8-5.3,8.1-7.9,12c-2.1,3.2-5.1,5.6-7.3,8.7
		c-0.4,0.6-1.3,1.3-0.9,2c0.6,0.9,1.4,0,2.1-0.3c6.8-2.9,13.8-5.2,21-7.3c5.3-1.5,6.6-3.9,5.6-9.3c-0.4-2.1,1.3-3.2,2.6-4.4
		c1.4-1.3,3-1.8,4.8-1c2.3,1.1,4.1,2.8,5.7,4.8c0.5,0.7,0.7,1.3,0.4,2.1c-0.5,1.1-0.9,2.3-1.2,3.4c-0.6,1.7-0.7,3.3,0.8,4.8
		c1.4,1.4,2,3,0.8,4.9c-0.2,0.4-0.3,1.1-0.1,1.5c1.4,3.1,0.8,6.3,0.5,9.4c-0.4,4.5,0.8,8.5,2.4,12.5c1,2.4,0.8,4.8,0.5,7.2
		c-0.1,1.2-0.1,2.1,0.7,2.8c0.9,0.8,1.1,1.7,0.9,2.8c-0.3,2.2-0.8,4.4-0.9,6.7c-0.1,1-0.8,2.2-2.1,2.3c-1.2,0-1.2-1.2-1.8-2
		c-0.5-0.7-0.5-1.4-0.6-2.2c-0.1-0.7,0.2-1.8-1-1.7c-0.9,0.1-0.8,1-0.6,1.7c0.2,0.8-0.1,1.4-0.9,1.6c-0.8,0.2-1.4-0.2-1.6-0.9
		c-0.6-1.6-0.6-4.6-2.9-1c-0.1,0.1-0.4,0.2-0.4,0.2c-1.4-1.4-3.9,0-5.1-2.1c-0.9-1.6-3.1-2.7-2-5.1c0.2-0.4,0.1-0.8,0-1.2
		c-2.3-6.1-1.3-12.4-1-18.7c0-0.1,0-0.2,0.1-0.3c0.9-5.4-0.3-6.8-6-5c-10,3.3-17.5,9.6-24.4,17c-1.3,1.3-1.9,3.2-2.9,4.8
		c-2,3.2-4.6,3.7-7.7,1.5c-0.4-0.3-1-0.7-1.4-0.6c-3.9,1.3-5-2.1-6.8-4.1c-1.3-1.4-2-3.4-2.9-5.2c-1.9-3.7-1.6-7.3,0.7-10.7
		c0.5-0.7,1.1-1.5,1.9-1.7c5.3-1.6,7.8-6.4,10.9-10.2c6.1-7.7,11.9-15.6,19-22.5c4.2-4.1,7-8.9,9.9-13.8c0.3-0.6,0.4-1.3,0.6-2
		c0.9-4.1,3.5-6.9,6.8-9.3c2.1-1.5,3.7-0.8,5.2,0.9c0.8,1,1.5,2.1,2.1,3.2c0.8,1.4,2,1.7,3.3,1.2c1.2-0.5,1.3-1.6,1.2-2.8
		c-0.2-1.4-1.1-1.7-2.3-1.8c-2.7-0.1-4.9-2.4-5.1-5.1c-0.4-6.8,2-12.7,6.5-17.5c2-2.2,4.9-3.3,7.9-3.5c2.8-0.2,4.9,1.5,6.1,3.7
		c1.3,2.1,2.9,3.8,4.5,5.6c1,1.2,2.1,1.3,2.5-0.6c0.3-1.3,0.7-2.3,2.4-2.2c0.8,0.1,1.6,0.1,1.8-1c0.2-1-0.4-1.6-1.3-2
		c-0.4-0.2-0.8-0.4-1.2-0.6c-1-0.4-1.6-1.1-1.4-2.2c0.1-1.1,0.4-2.3,1.8-2.5c1.4-0.2,2.2-1.2,3.4-1.9c-1.8-0.1-3.5-0.2-4.3-2.3
		c-0.6-1.6-0.7-2.7,1.4-2.4c2,0.2,2-1.4,2.5-2.4c0.7-1.3-0.8-1.5-1.5-1.8c-1.2-0.5-2.2-1.2-2.2-2.6c0-1.5,1.3-1.3,2.2-1.6
		c0.9-0.3,1.4-1.1,1.4-2c0-1-0.6-1.8-1.5-2.3c-0.5-0.3-1.2-0.3-1.7-0.5c-0.9-0.4-1.4-1.1-1.4-2c0-1.1,0.8-1.4,1.8-1.5
		c0.9-0.1,2.3,0,2-1.4c-0.3-1.6-1.6-0.6-2.5-0.6c-2.9,0.1-5.1,2-7.4,3.3c-3.1,1.7-3,5.2-3.2,8c-0.3,2.8-1,5.4-1.2,8.2
		c-0.3,3.4-5.6,5.3-8.5,3.5c-1.7-1.1-3-2.3-3.7-4.2c-0.3-0.8-1-1.4-1.5-2c-1.6-1.8-3.9-3.3-3.4-6.3c0.1-0.8-0.5-1.3-1.1-1.6
		c-2.3-1.3-1.4-2.4,0.3-3.2c1.2-0.6,2.1-1.4,3-2.3c0.3-0.3,1-0.7,0.4-1.2c-0.4-0.4-1-0.3-1.4,0.1c-1.2,1.6-1.7,0.6-2.7-0.3
		c-4-3.5-2.5-8.5-3.8-12.7c0-0.1,0-0.4,0.1-0.5c2.3-3,0.2-5.6-0.9-8.2c-0.7-1.9-2.5-2.8-4.1-2.1c-3.4,1.4-6.9,2.4-10.2,4
		c-3.6,1.7-5.8,4.7-9,6.8c-2.8,1.8-5.4,3.9-8.2,5.7c-3.7,2.4-6.5,5.6-8.9,9.3c-0.5,0.8-1,1.7-1.9,1.6c-2.6-0.5-4.9,1.1-7.3,0.9
		c-6.6-0.5-12.5,1.4-18.3,4.3c-3.4,1.7-7.2,2.2-10.8,3.2c-5.6,1.6-11.6,1.4-16.9,4.4c-4.2,2.4-5.3,7.1-2.2,10.7
		c0.4,0.5,1.1,1.2,1,1.7c-0.2,4.2,2.9,7.3,3.8,11c0.8,3.4,4,5,4.7,8.2c0.1,0.5,0.4,0.9,0.6,1.4c0.3,1,0.5,2.1-0.8,2.6
		c-1.2,0.5-2.2,0-2.9-1c-1.3-1.8-2.7-3.6-4.1-5.5c-0.6-0.8-1.4-1.8-2.5-1.4c-1.1,0.4-0.8,1.6-0.7,2.5c0.1,1.5-0.1,2.7-1.4,3.6
		c-1,0.7-1.3,1.9-0.9,3c1,3.3-0.4,6-2.2,8.6c-0.5,0.7-0.9,1.2-1.9,0.9c-0.9-0.3-1.2-0.9-1.1-1.8c0.5-3.1-0.8-6.4,1.3-9.3
		c0.1-0.1,0.1-0.3,0.1-0.5c-0.4-2.9-0.6-5.8,2.1-8c-1.9,0.6-3.5,1.3-4,3.2c-0.5,1.6-1.7,2.5-3.1,2.8c-1.7,0.4-3.3,1-4.7,2.1
		c-2.7,2.2-5.9,1.3-8.9,1.5c-0.8,0.1-1.6-0.3-1.7-1.2c-0.1-0.8,0.5-1.1,1.1-1.5c2.8-2,5.5-3.4,9.1-3.7c1.7-0.2,3.3-2.4,4.9-3.8
		c0.3-0.2,0.3-0.7-0.1-0.8c-0.3-0.1-0.7-0.1-0.9,0.1c-2.1,1.7-4.2,1.7-6.4,0.2c-0.4-0.2-1.1-0.3-1.5-0.1c-4.7,1.8-8.1-1.1-11.7-3.2
		c-0.5-0.3-0.8-0.7-0.7-1.3c0.1-0.3,0.5-0.5,0.7-0.6c0.5-0.2,1.2-0.1,1.3,0.5c0.3,2.3,2.7,1.4,3.8,2.6c0.5,0.6,1.3-0.1,1.6-0.8
		c0.4-0.9-0.3-1.3-1-1.4c-1-0.2-2-0.2-3-0.3C127.2,266.6,127.2,266.4,127.2,266.2z M246.2,155.1c-1.1,1.9,0.2,3.7-0.2,5.3
		c-0.2,0.7-0.6,1.5,0.3,1.8c0.7,0.2,1.2-0.5,1.6-1.1c3.4-4.3,8.8-5.8,14.1-3.7c0.4,0.2,0.8,0.4,1.2,0c0.5-0.4,0.2-1,0-1.4
		c-0.3-0.7-0.8-0.9-1.6-1.2c-2-0.7-4-1-6.8-0.6c1.7-1.8,2.9-2.7,4.6-2.4c1.8,0.3,2.8-0.5,3.4-2c0.3-0.7,0.8-1,1.3-1.5
		c1.4-1.4,3.1-1.6,5-1.6c0.8,0,2,0.3,2.1-0.9c0.2-1.2-0.9-1.2-1.7-1.3c-0.6-0.1-1.2-0.2-1.1-1.4c3.5,1,7.1-0.4,10.6,0
		c0.7,0.1,1.7,0,1.8,0.8c0.2,1.6,1.7,1.4,2.6,2.1c-0.8,1.1-1.8,1.2-2.8,1c-0.5-0.1-1.1,0.3-0.8,0.6c1.9,1.8-0.1,2.1-1.1,2.8
		c-0.4,0.3-1.1,0.3-0.9,1c0.3,0.8,1,0.6,1.5,0.3c1.3-0.8,2.5-1.5,4.1-1c0.2,0.1,0.6-0.2,0.9-0.5c2.2-2.1,3.8-2,5.7,0.1
		c0.3,0.4,0.8,0.7,0.5,1.3c-0.3,0.5-0.8,0.7-1.3,0.6c-0.6-0.1-1.1-0.4-1.7-0.5c-0.7-0.2-1.2,0-1.4,0.8c-0.1,0.6,0.1,1.2,0.7,1.2
		c1.3,0.2,2.6,0.7,3.8-0.1c1.1-0.8,2.1-1.8,1.9-3.4c-1.5-12-7.2-18-18.1-20.2c-9-1.8-17.5,0.8-24.4,7.3c-0.8,0.8-2.4,1.7-1.7,3.1
		c0.7,1.3,0.1,1.9-0.5,2.7c-0.8,1.1-1.9,2.1-2.5,3.3c-1,2-2,4.1-1.4,6.6c0.7-1.8,1.4-2.9,2.9-0.8c0.8,1.1,1.4,0.9,1.5-0.4
		c0-0.5,0-1.1,0.6-1.3c0.8-0.2,1,0.5,1.3,1c0.3,0.5,0.6,1.1,0.9,1.5c0.4,0.6,1.2,1.2,0.3,2c-1.1,1-2,2.6-3.6,2.7
		C246.2,157.7,247.1,156,246.2,155.1z M256.4,286.2c-3.5,7.3-9,13.2-14.3,19c-8.4,9-15.8,18.6-23.4,28.2c-2,2.5-4.1,5.2-7.2,6.5
		c-2.5,1-4.4,5.3-3.5,7.8c0.4,1.1,1,2.5,2.6,1.7c3.2-1.6,5.6-1.4,7.9,1.1c1.3,1.4,2.5,1.5,3.8,0.7c1.6-1,0.9-2.4,0.4-3.7
		c-0.1-0.4-0.4-0.8-0.6-1.1c-0.2-0.4-0.7-0.9-0.1-1.4c0.5-0.4,1.1-0.3,1.6,0.3c0.3,0.4,0.3,1.1,1,0.9c0.3-0.4,0.4-0.7,0-1.1
		c-1.6-2.1-1.9-4.3-1.1-7c1.5-4.7,4.7-8.3,7.1-12.4c0.7-1.2,1.6-2.9,3.5-3.1c-1.9,2.2-2.5,4.9-4.7,7.5c0.9-0.3,1.2-0.4,1.3-0.5
		c5.1-6.1,9.6-12.7,13.9-19.3c0.9-1.4,0.7-3,1.8-4.2c2.7-3.2,4.6-7,8.1-9.5c2.3-1.6,4.3-3.7,6.1-5.9c1.5-1.8,2.5-3.2,4.7-1
		c0.9,0.9,1.7-0.3,2.2-1c0.5-0.8,0-1.5-0.8-1.5c-2.7,0-3.7-2-4.9-3.9c-1.5-2.6-2.5-2.7-4.7-0.7c-0.6,0.5-1.2,1-1.7,1.6
		c-0.6,0.6-1.7,1-1.3,2C254.7,287.3,255.6,285.5,256.4,286.2z M309.4,342.5c-1.2,3.2-0.9,6.2-1.3,9c-0.1,0.4,0.2,0.9,0.7,1
		c2,0.2,0.9,1.2,0.5,1.9c-0.6,1.2-1.4,2.4-2,3.6c-0.6,1.2-0.8,2.4-0.1,3.7c1.8,3.6,1.3,7-1.4,10c-1.7,1.8-3.5,3.5-5.4,5.1
		c-1.2,1.1-0.8,2.1-0.3,3.3c0.4,1.1,1.2,1,2.3,0.9c1.6,0,2.5-0.8,3.2-2c0.5-0.8,1.3-1.2,1.8-0.3c1.1,2,3.9,2.7,4.4,5.2
		c0.1,0.5,0.6,1.1,1.1,0.6c1.1-1.3,2.7-2.6,2.1-4.5c-1.2-4-2-8-2-12.1c0-0.7,0.2-2.1-1.3-1.2c-0.5,0.3-0.8,0.1-1-0.4
		c-0.1-0.5,0-1.3,0.6-1.2c2.2,0.2,1.7-1.4,1.8-2.6c0.2-4.2,0.4-8.4,1.2-12.6c0.8-4,0.7-8.2,0.5-12c-0.2-3.4,0.3-6.6,0.7-9.9
		c0.1-0.6,0.2-1.2,0.2-1.8c-0.1-0.9-0.1-2-1.5-1.9c-1,0.1-1.7,0.4-1.7,1.7c0,1.2,0.2,2.6-1.1,3.5c-1.4,0.9-1.1,2.4-0.2,3.1
		c2.3,1.8,0.5,3.3,0.3,5.3c-1-1.1-0.3-2.4-1.7-2.9c-0.4,1.7-0.4,3.3-0.1,4.9c2.2-1.1,3.2-0.6,3.1,1.5c0,0.5,0,1.1-0.3,1.5
		c-0.6,1.2-0.1,3.5-1.6,3.4C309.2,346.3,310.3,344.1,309.4,342.5z M303.4,165.7c0,0.6-0.1,1.2,0.6,1.5c3.2,1.6,6.4,3.2,9.6,4.8
		c0.7,0.3,1.3,0.2,1.9-0.3c0.5-0.5,1.1-1.3,0.6-1.8c-1.3-1.4-1.7-3.8-3.2-4.4c-2.6-1.1-2-2.5-1.5-4.3c0.2-0.8,0.4-1.7,0.6-2.5
		c0.1-0.4-0.3-1.2,0.6-1.1c1.8,0.3,1.2-1.1,1.5-1.9c1.1-3.5,0-7,0-10.5c-0.1-5.5-0.1-11-0.1-16.6c0-4.3-0.6-8.8,0.9-13
		c0.4-1.2,0.6-2.6-0.5-3.7c-0.5-0.5-1.6-1.1-1-1.8c0.6-0.6,1.7-1.4,2.9-0.8c0.7,0.4,1.2,0.4,1.3-0.5c0.1-0.9-0.4-1.7-1-2.3
		c-0.6-0.6-1.2-0.5-1.8-0.1c-1.3,0.9-2.6,0.6-3.8-0.2c-1.5-1-2.6-0.4-3.4,1c-0.8,1.4-0.6,2.4,1,3c0.5,0.2,1.2,0.8,1.3,1.2
		c0.3,4.2,4.9,8,0.9,12.5c-0.3,0.4-0.4,1.1-0.4,1.7c-0.2,6.3-0.2,12.6-0.5,18.9c-0.3,6.5-0.9,12.9-5.6,18
		C303.6,163.5,303.6,164.6,303.4,165.7z M235.7,418.6c0,4.6,0.8,5.2,5.5,4.4c0.2,0,0.5,0.1,0.8,0.1c2.8,0.4,5-0.8,5.9-3.6
		c0.4-1.1,0.9-2.2,1.7-2.8c4.5-3.3,8.3-7.7,14.1-8.9c0.5-0.1,1-0.5,1.3-0.8c2.5-3,6.4-4,9.4-6.2c4.3-3.1,9.2-5.4,14-7.5
		c2.3-1.1,4.8-3,8-1.4c0.5,0.3,3,0.7,3.2-1.4c0.2-1.7,0.6-3.2,1.2-4.7c0.2-0.5,0.4-1-0.1-1.4c-0.6-0.4-1.2-0.3-1.7,0.1
		c-0.7,0.6-1.4,1.3-2.1,1.9c-1.4,1.5-2.8,2.7-4.7,3.5c-4.2,1.8-8.3,3.7-12.4,5.7c-6.6,3.4-13.1,7.1-19.7,10.7
		c-4.9,2.7-10.1,4.8-14.6,8.2c-1.2,0.9-2.6,2.3-4.3,0.7c-0.9-0.9-2-1.1-3-0.2C237.2,416,235.5,416.6,235.7,418.6z M278.7,210.5
		c-0.7,4.3,1.8,6.6,3.9,9.1c0.5,0.5,0.9,1.1,1.7,0.8c0.7-0.3,1.1-1,1.1-1.7c-0.1-4.6,2.4-9.2-0.3-13.8c-0.5-0.8-0.1-1.5,0.2-2.2
		c0.7-1.6,1.4-3.2-0.3-4.7c-0.5-0.4-0.4-1.1-0.4-1.7c0-1.8,0.3-3.6-0.3-5.4c-0.2-0.6,0.2-1.3,0.7-1c2.6,1.3,3.3-1.5,4.9-2.3
		c0.7-0.4,2-0.8,1.2-2.1c-0.9-1.3-1.9-0.5-2.7,0.2c-2.2,1.9-4.9,3-7.5,3.9c-2.9,1-3.4,2.8-3.6,5.2c-0.1,2,0,4,0.4,5.9
		C278.5,204.2,276.7,207.8,278.7,210.5z M240.2,205c1.5-0.4,2.4-1.2,3.1-2.1c1.5-1.7,3.2-2.4,5.2-1c0.6,0.4,1.3,0.2,2,0.1
		c2.5-0.5,2.8-2.4,3.3-4.5c0.5-1.8,0.7-3.3-0.9-4.3c-1.5-0.9-4,0.2-5,1.8c-2.3,3.8-4.8,7.4-8.9,9.4c-3.8,1.8-6.8,4.9-10.1,7.4
		c-6.1,4.5-12.3,8.5-19.8,10.1c-2.3,0.5-3.2,1.7-2.3,4c0.6,1.7,1.5,3.2,2.8,4.5c0.7,0.6,1,1.9,2.2,1.2c1.1-0.6,1.8-1.6,1.5-3
		c-0.6-3.5-0.1-5,3-6.2c3.2-1.2,5.8-3.3,8.5-5.2c1.7-1.1,2.8-3.3,5.1-3.3c1.6,0,2.5-0.8,3.6-1.7c2.1-1.8,3-4.6,5.7-5.9
		c0.2,0.7-0.9,1.1-0.4,1.6c0.5,0.5,1.1,0.3,1.7,0c1.4-0.7,2.8-1.4,3.8-3.2C243,205.3,241.9,205.8,240.2,205z M308.6,227.2
		c1.9-1.1,1.1-1.6-0.3-1.9c-2.4-0.6-4.6-1.4-6.5-3c-3.9-3-8.7-3.9-13.3-5.2c-0.7-0.2-1.2,0-1.3,0.8c-0.1,0.8,0.1,1.3,1.1,1.3
		c1.8,0,3.2,0.9,4.7,1.8c4.7,2.6,8.2,7,13.2,9.1c0.9,0.4,1.9,1.1,2.4,1.9c1.7,3.1,4.3,5.5,6.2,8.5c0.7,1.1,1.7,1.9,3.2,1.8
		c2.6-0.2,6-3,6.5-5.5c0.1-0.6,0.2-1.3-0.5-1.5c-0.7-0.2-1.2,0.1-1.5,0.7c-0.4,0.9-0.9,1.7-1.6,2.3c-1.8,1.7-4.2,0.9-4.7-1.5
		c-0.2-0.7-0.1-1.3,0.7-1.4c0.6-0.1,1.4-0.1,1.1,0.8c-0.2,0.9-0.1,1.4,0.9,1.3c0.8-0.1,1.2-0.8,1.1-1.5c-0.2-1.4,0.7-2.2,1.5-3.1
		c1-1.2,2-2.4,2.9-3.7c1-1.6,0.5-3.2,0.1-4.9c-0.9,1-0.3,2.2-0.9,3.3c-1.8,3.3-4.5,5-8.1,5.6c-1.7,0.3-4.4-1.1-5-3
		c-0.8-2.4,1.2-1.8,2.4-2.2c0.5-0.2,1.3-0.5,1-1.2c-0.3-0.7-1-0.4-1.6-0.3C311.1,226.8,310.2,227.9,308.6,227.2z M311.8,323.4
		c0.2,0,0.5,0,0.7,0.1c0.4-1.6,0.8-3.3,1.2-4.9c0.1-0.3,0.5-0.7,0.8-0.9c0.6-0.2,0.7,0.4,0.8,0.8c0.5,1.9,1.2,1.3,2.2,0.3
		c3.2-3.2,2.9-7.7,4.6-11.5c0.8-1.7-1.2-4.5-2.4-4c-3.1,1.2-4.4-0.3-5.4-2.9c-0.8-2.2-2.7-2.8-4.8-2.8c-2.5,0.1-4.1,1.7-4.9,3.9
		c-0.5,1.2,0.5,1.9,1.2,2.6c0.8,0.8,1.6,0.2,2.3-0.4c0.9-0.8,1.6-1.6,3-1.8c0.8-0.1,1.5-0.9,2.2,0.1c0.6,0.9,0.5,1.8-0.4,2.5
		c-1.3,1-1.7,2.1-0.7,3.5c0.4,0.5,0.1,1.2-0.1,1.7C310.3,314.4,313.9,318.9,311.8,323.4z M298.7,89.6c0.1-1.2-0.4-2-1-2.9
		c-3.5-5.3-7.7-9.9-12.2-14.2c-0.9-0.9-1.9-3-3-1.9c-0.9,0.9,1.1,2.1,2,3.1c4.1,4.3,8.7,8.3,11.7,13.7c0.3,0.6,1.2,1.2,0.4,1.7
		c-0.8,0.5-1.2-0.5-1.5-1.1c-1.9-3.4-4.5-6-7.3-8.7c-6.2-6-12.2-12-16.6-19.5c-0.7-1.2-1.6-1.3-2.6-0.1c-1.2,1.5-1,2.7,0.9,3.7
		c0.9,0.5,1.9,0.6,2.7,1.5c5.9,6.4,12.1,12.4,17.7,19.2c1.5,1.8,2.4,3.9,4,5.7c3.9,4.4,8,8.8,10.4,14.3c0.3,0.8,0.7,1.5,1.6,1.3
		c0.8-0.1,1.8-0.3,2.2-1.2c0.4-1.1-0.6-1.4-1.3-2C302.4,99,298.9,95.3,298.7,89.6z M288,275.5c-0.9-2.1-0.2-2.4,1.2-2.1
		c1.8,0.3,3,1.7,4.6,2.2c0.4,0.1,0.8,1.1,1.2,0.3c0.6-1.3,2-1.6,2.9-2.5c0.5-0.5,0.4-2,1.4-1.4c1,0.6,0,1.5-0.4,2.2
		c-0.1,0.2-0.3,0.4-0.4,0.7c-0.2,0.5-0.5,1.1,0,1.4c0.6,0.4,0.8-0.3,1.1-0.7c0.7-1.1,1.6-2.1,1.7-3.4c0.1-0.6,0.1-1.3,1-1.3
		c0.7,0,0.9,0.6,1,1.3c0.4,1.8,1.3,3.3,2.1,5c0.4,0.9,1.2,1.4,2.1,0.8c1.1-0.7-0.1-1.2-0.4-1.8c-0.3-0.7-1.8-1-1-2.2
		c1.4,0,1.9,2.7,3,1.4c0.7-0.8,2.7-2.7,0.5-4.3c0.6-0.8,2.2,0.1,1.9-1.4c-0.3-1.3-1.3-1.4-2.4-1.1c-0.7,0.2-1.4,0.3-1.9,0.7
		c-1.3,1.2-2.6,0.6-3.8,0c-0.6-0.3-1.1-0.9-1.8-1c-4-0.6-7.9-1.2-11.8-2.2c-0.7-0.2-1.5-0.2-1.6,0.8c-0.2,2.3,1,3.8,3.4,4.1
		c1,0.2,2,0.2,3.1,0.2c0.7,0,1.5,0.1,1.5,1c-0.1,1.1-1,1-1.8,0.9c-0.5-0.1-0.9-0.5-1.4-0.5c-2.4-0.4-4.6-2.2-6.8-2.2
		c-3.2-0.1-1.6,3.9-3.2,5.4c-0.2,0.2-0.3,0.6-0.3,0.9c0,0.5,0.3,1.1,0.7,0.7c1.3-1.3,2.5,0.2,3.7,0.4c-0.1-1.6-1.6-1.7-2.2-2.6
		C283.7,273.9,285.3,273.7,288,275.5z M251.5,172.7c1,0.6,1.7-1.2,2.4-0.1c0.7,1.1-0.3,1.9-1,2.6c-0.5,0.6-1.1,1.1-1.6,1.7
		c-0.6,0.8-1.3,2-0.1,2.6c1.1,0.5,1.5-0.8,1.8-1.6c0.5-1.4,1-2.6,2-3.8c3.6-4.5,8.4-6.5,13.7-7.8c3.3-0.8,5.1-2.9,4.1-6
		c-1-3.2-0.9-6.2-0.5-9.4c0.1-0.8,0.1-2.1-0.8-2.2c-1.4-0.2-1,1.3-1.3,2.1c-0.1,0.4-0.2,0.8-0.3,1.3c-0.5,2.3-0.9,2.5-2.9,1.1
		c-0.4-0.3-0.8-0.7-1.3-0.3c-0.5,0.3-0.6,0.8-0.5,1.4c0.2,0.7,0.3,1.4,0.8,1.9c2.3,2.4,0.8,5-0.1,7.2c-1.1,2.8-2.7,3-5.3,1.6
		c-0.6,0.5,0.8,2.1-0.8,2C255.6,166.5,253.4,169.1,251.5,172.7z M265.9,241.8c0.9,1.3,2,1.2,2.8,0.7c1.5-1,3.1-1.8,4.4-3.2
		c0.5-0.6,0.9-2,2.1-1.3c1.2,0.8,1.5,1.9,0.7,3.4c-1,2-2.4,3.5-4.2,4.8c-0.6,0.5-1.9,1.1-0.9,1.9c0.9,0.7,1.8,2.6,3.4,1.3
		c1.4-1.3,2.5-2.8,3.1-4.9c1.2-4.3,0.6-8.7,1.5-13c0.6-2.8,1.4-5.6,2.6-8.2c0.5-1.1,0.1-1.9-0.7-2.4c-1-0.6-1.8,0.1-2.3,0.9
		c-0.6,0.9-1.1,1.7-1.7,2.6c-3.3,4.5-6.7,8.9-13.2,8.3c-0.2,0-0.4,0-0.5,0c-0.8,0.3-1.4,0.8-1.3,1.7c0.1,1,1,0.6,1.6,0.6
		c5.3,0.2,8.7-3.4,12.5-6.2c0.4-0.3,0.6-0.9,1.2-0.6c0.7,0.3,0.3,0.8,0.3,1.3c-0.3,2.5-1.8,4.7-3.3,6.5
		C271.9,238.5,269.5,241.1,265.9,241.8z M302.9,285.8c-0.1-0.8-0.2-2.1-1.5-2.4c-1.2-0.3-1.3,0.9-1.6,1.6c-0.5,1-1.2,1.6-2.2,2.1
		c-2.3,1.3-4.3,2.8-5.4,5.3c-0.6,1.3-1.5,2.9-3.2,2.4c-1.6-0.4-2.9-1.6-3.3-3.6c-0.7-3.9-1.6-7.7-3.7-11.1c-0.4-0.7-0.3-1.9-1.5-1.7
		c-1.1,0.1-1.5,1.1-1.8,2c-0.4,1.1-0.1,2.1,0.5,3.2c1.9,3.2,4.2,6.2,5.5,9.8c1.2,3.4,4.9,4.4,7.6,2.1c3.1-2.6,6.7-4.6,9.5-7.4
		C302.5,287.5,302.9,287,302.9,285.8z M175.9,236.9c1.5,2.4,3.3,1.9,5.4,1.5c5.7-1.2,10.2-5.6,16.3-6c2.6-0.1,5.1-2.4,7.7,0.1
		c0.1,0.1,0.3,0.1,0.5,0.1c0.8-0.1,1.9,0.2,2.4-0.6c0.5-0.9-0.3-1.6-0.9-2.2c-2-2.2-7-2.8-10-1.3c-2.1,1.1-4.2,2.6-6.5,3.1
		C185.6,232.7,181.1,235.3,175.9,236.9z M230.3,431.7c1.3-0.2,2.6-0.2,3.1-1.4c0.5-1.2-0.9-1.5-1.5-2.1c-1.2-1.1-2.5-2.1-2.9-3.8
		c-0.2-0.7-0.8-1.2-1.6-1.1c-1.8,0.1-3.6-0.2-5.3-0.9c-1.1-0.4-2.4,0.1-2.8,1.2c-0.7,1.9-1.4,3.9-0.5,6c0.3,0.7,0.6,1,1.4,1.2
		C223.6,431.5,227.2,430.3,230.3,431.7z M315.1,102.1c0-1.1-0.8-1.7-1.5-2c-3-1.4-4.6-4-6.2-6.7c-3.3-5.5-6.4-11.2-11.1-15.7
		c-0.5-0.5-0.8-1.3-1.6-1.1c-0.4,0.1-0.7,0.7-0.9,1.2c-0.4,0.9,0.5,1.1,1,1.5c0.5,0.3,1,0.7,1.4,1.2c3.9,5.1,7.2,10.5,9.1,16.7
		c1.1,3.6,4.2,4.8,7,6.4C313.6,104.4,314.7,103.5,315.1,102.1z M283,266.1c-0.6,1.6-0.2,2.2,0.8,2.1c1.1,0,1.5-1.1,2.1-1.8
		c0.5-0.7,0-1.3-0.5-1.8c-1.9-1.7-3.7-3.6-4.9-5.9c-1-2-5.2-3.4-6.8-2.4c-3.2,2-6.3,4.2-8,7.8c-1.1,2.4-2,4.9-2.4,7.5
		c-0.1,0.8-1,1.9,0.1,2.2c0.9,0.3,2-0.3,2.6-1.2c0.2-0.3,0.2-0.8,0.3-1.2c1.8-4.6,2.5-9.7,7-12.8c0.9-0.6,1.5-1.7,2.6-1.1
		c1.4,0.7,2.7,1.8,4,2.8c0.3,0.2,0,0.7-0.3,0.9c-0.7,0.5-1.9,0.8-1.4,2.1c0.6,1.4,1.8,1.8,3.2,1.7C282.5,265,283.2,265.4,283,266.1z
		 M294.3,300.9c3.2-0.3,4.1,0.6,3.7,3.1c-0.1,0.8-0.5,1.5-0.2,2.3c0.4,0.9,1.3,1.3,1.7,0.3c0.7-2.3,3-3.6,3.5-5.9
		c0.5-2.1,2-3.3,3.6-4.5c1.4-1,3-1.1,4.7-1.1c0.5,0,1.1,0,1.2-0.7c0-0.3-0.1-0.6-0.5-0.8c-3-0.9-8.2,1.5-9.2,3.9
		c-0.4,0.9-0.7,2.2-1.9,1.5c-1.2-0.7-0.4-1.8,0.1-2.6c0.4-0.6,1.3-1.1,0.6-2c-0.8-1-0.5-1.7,0.5-2.3c0.4-0.2,0.7-0.6,0.3-1.1
		c-0.3-0.4-0.8-0.3-1.2-0.1c-0.5,0.3-1,0.7-1.5,1c-2.9,1.7-4.3,5.1-7.4,6.8c-0.7,0.4-0.2,1.5,0.5,1.8
		C293.5,301,294.2,300.9,294.3,300.9z M277.1,63.7c0.5,0.9,1.3,1.3,2.1,1.6c1.3,0.5,3.1,0.6,3.9,1.2c2.9,2,6,3.9,7.9,7
		c0.4,0.7,0.7,1.4,1.5,1.6c0.5,0.2,0.9,1.1,1.5,0.4c0.6-0.7,0-1.3-0.5-1.7c-3-2.8-5.8-5.8-8.6-8.8c-2.3-2.5-4.5-4.8-5.1-8.3
		c-0.4-2.1-2.5-2.4-4.2-3c-1.7-0.6-2.2,1-2.8,2c-1.5,2.5,0,4.8,3.2,4.8c1.3,0,2.5,0.2,2.9,1.6C279.4,63.8,277.5,62.8,277.1,63.7z
		 M292.2,310.6c0.1-0.2,0.3-0.3,0.4-0.5c-0.3-0.4-0.6-0.8-0.9-1.2c-1-1.6-3-3-2-5c0.7-1.4,0.5-3,1.2-4.3c0.6-1.2-0.2-1.5-1-1.4
		c-3,0.5-5.1-0.7-6.6-3.2c-0.8-1.3-1.8-0.5-2.6,0.2c-1.1,1,0.1,1.4,0.6,2c0.8,0.7,1.7,1.5,2.1,2.6c0.9,2.7-1.8,5.1-4.9,4.5
		c-0.5-0.1-1-0.4-1.4,0.1c-0.3,0.3-0.1,0.8,0.3,0.8c2,0.2,3.5,2.3,5.9,1.3c2.3-0.9,4.5-0.5,6.2,1.8
		C290.1,309.1,291.3,309.8,292.2,310.6z M191.3,228.9c-0.5-0.4-0.9-0.3-1.4-0.2c-5.5,1.1-11.1,2.2-16.6,3.3
		c-4.3,0.9-8.9,1.1-12.5,4.2c-0.2,0.2-0.6,0.2-1,0.3c-0.5,0.1-0.9,0.3-0.9,0.8c0,0.5,0.5,0.6,1,0.6c4.4-0.1,8.6-1.2,12.9-2.1
		c5.8-1.2,10.7-4.8,16.6-5.5C190.2,230.1,191,229.9,191.3,228.9z M293.4,208.4c-1.2,0.1-2.5-0.3-3.8,0.4c-0.5,0.3-1.1,0.7-0.9,1.4
		c0.2,0.8,0.9,0.6,1.5,0.5c2.1-0.5,4.4-0.3,6,0.6c2.9,1.7,6.1,1.1,8.5,0.2c4.2-1.7,7.9-4.7,11.2-7.9c0.7-0.7,1.1-1.9,1.5-3
		c0.3-0.8,0.3-1.9-0.8-2.1c-1-0.2-1.3,0.8-1.3,1.6c0,1.4-0.7,2.3-1.7,2.9c-1.6,1.1-3.1,2.4-4.7,3.5c-1.7,1.1-4.4,1-4.9,3.7
		c-0.1,0.5-0.6,0.3-1,0.2C299.8,209.3,296.6,208.7,293.4,208.4z M325.2,286.2c-0.3-1.7-0.3-3.3-0.8-4.9c-1.1-3.3-2.2-6.7-3-10.1
		c-0.8-3.9-2.2-5.6-5.7-6.3c-1.1-0.2-1.6,0.3-2.1,1c-0.8,1.2,0.5,1.2,1,1.6c2.1,1.5,4.7,2.7,5,5.7c0.5,4.7,3.7,8.9,2.9,13.9
		c-0.1,0.8,0,1.6,1,1.8c1.2,0.2,1.4-0.7,1.5-1.6C325.1,287,325.2,286.5,325.2,286.2z M166.1,231.1c1.2,0.1,1.7,0.3,2.2,0.2
		c6.2-1.3,12.4-2.6,18.5-4.2c1.9-0.5,3.9-0.3,5.8-0.8c3.1-0.8,6.2-1.8,9.4-0.5c1.3,0.5,2-0.3,2.2-1.4c0.3-1.3-0.7-1.3-1.6-1.4
		c-1.4-0.1-2.7-0.1-4.1,0.3c-3.1,0.9-6.3,1.5-9.4,2.4c-3.4,1-7,1.3-10.6,1.5C174.4,227.5,170.5,229.2,166.1,231.1z M240,439.4
		c-0.9,0.2-1.2,1-1.6,1.6c-0.5,0.8-0.2,1.3,0.4,2c3.1,3.2,6.4,6.4,8,10.8c0.9,2.5,2.9,4.5,3.8,6.9c0.1,0.3,0.6,0.7,1,0.7
		c1.7,0,3.4-0.3,5,0.4c0.4,0.2,0.8-0.3,0.8-0.8c0.1-0.4-0.2-0.7-0.6-0.7c-3.2,0-4.8-1.7-6.5-4.4c-2.3-3.7-4.3-7.8-7.2-11.2
		c-0.8-0.9-1.4-2.2-1.5-3.5C241.7,440.3,241.1,439.5,240,439.4z M305.2,184.6c-0.1-0.9-0.5-1.3-1-1.6c-0.9-0.4-1,0.3-1.2,0.9
		c-0.2,0.7-0.5,1.2-1,1.8c-2.1,2.3-5.5,3.3-6.9,6.4c-0.2,0.5-1,0.1-1.4,0.2c-2.4,0.4-4.6,1.3-6.7,2.3c-1.1,0.5-1,1.5-0.5,2.4
		c0.4,0.7,0.9,1.1,1.7,0.5c4.1-3,9.2-4.1,13.1-7.6C303,188.4,304.1,186.4,305.2,184.6z M240.2,411.5c2.1,0.6,3.1,2.2,4.8,1
		c2.8-1.8,5.9-3.3,8.5-5.3c6.2-4.8,12.5-9.3,19.7-12.5c1-0.4,2.4-0.7,2.8-2.3c-2.4-0.3-4.1,1.3-5.9,2.2c-5.4,2.9-10.7,5.9-15.4,10.1
		c-2.6,2.3-5.5,5-9.5,5.3C243.9,410.3,242.5,410.9,240.2,411.5z M274.8,339.4c-0.3-0.9-0.5-1.8-0.9-2.7c-0.7-1.2-1.8-0.8-2.7-0.5
		c-0.8,0.2-1.1,0.9-0.6,1.6c1.5,2.4,1.8,5.2,2.6,7.8c0.7,2.2,1.6,4.6,0.8,7c-0.2,0.6-0.8,1.1-0.1,1.6c0.9,0.6,1.8,0,2.7-0.4
		c0.7-0.3,0.7-0.9,0.4-1.7C275.3,348.1,274,343.9,274.8,339.4z M305.7,383.8c-2.6,0-2.7,2.6-3.8,4c-0.8,1-0.6,2.1,0.5,3
		c1.1,0.8,1.9,0.3,2.7-0.5c0.8-0.9,1.6-1.7,3-0.8c0.9,0.6,1.6-0.1,2-1C311.6,385.8,309.7,383.8,305.7,383.8z M259.6,225
		c0.5,2.2,1.8,2.9,3.8,2.5c5.6-1.2,10.5-3.5,14.3-7.9c0.7-0.8,1.9-1.4,0.8-2.5c-1.1-1-1.6,0.5-2.1,1.1
		C272.1,223.5,266.4,225.3,259.6,225z M298,200.4c0.1,0.5-0.3,1.5,0.7,1.8c0.7,0.2,1.3-0.1,1.9-0.6c2.4-2.3,5-4.5,7.3-6.9
		c1.1-1.1,2.2-2.5,2.5-4.2c0.1-0.6,0.2-1.3-0.6-1.5c-0.6-0.2-0.7,0.5-1,1c-2.5,3.7-5.7,6.6-9.8,8.4
		C298.2,198.7,297.8,199.3,298,200.4z M321.8,203.1c-0.2,6.1-3.5,9.6-8.2,12c-1.4,0.7-2.9,1.1-4.3,1.7c-0.7,0.3-1.3,0.7-0.9,1.5
		c0.4,0.8,1.1,0.6,1.8,0.4c2.9-1,5.6-2.5,8.2-4.2C322.4,211.8,323.8,208.3,321.8,203.1z M157.7,239.1c-1.3,0.2-2.4,0.3-3.5,0.6
		c-1.1,0.2-2.3,0.2-2.6,1.7c-0.3,1.4,0.1,2.5,1,3.6c0.7,0.9,1.2,1,1.8-0.1c0.8-1.7,2.4-2.4,4.2-2.7c1.4-0.2,2.9-0.4,4.3-0.7
		c0.7-0.1,1.2-0.6,1.3-1.4c0-0.4-0.4-0.5-0.7-0.5C161.3,240,159.4,239.7,157.7,239.1z M276.1,212.1c-0.3-1.1-1-0.6-1.6-0.3
		c-1.8,0.7-2.9,2.5-4.9,2.7c-3,0.4-6.1,0.9-9.1,1.2c-1.1,0.1-2.4,0.2-2.2,1.5c0.2,1.2,1.4,1.6,2.6,1.4c5-0.9,9.7-2.8,14.1-5.3
		C275.6,213.1,276.1,212.8,276.1,212.1z M270.5,286.2c-0.2,0-0.7,0.5-0.3,1.1c2.1,2.6-0.6,3.8-1.5,5.5c-0.3,0.6-1,1.1-0.5,1.8
		c0.5,0.8,1.3,1,2.3,0.8c1.7-0.3,2.5-1.7,3.5-2.9c0.9-1,1.3-2.1,0.7-3.3C274,287.7,272.8,286.6,270.5,286.2z M216.6,357.2
		c0.9-0.2,2.5-0.4,1.6-2.1c-0.9-1.7-2.2-3.2-3.5-4.7c-0.6-0.8-1.5-0.8-2.3-0.3c-0.7,0.4-1.3,0.8-1.3,1.7
		C211,354.3,213.7,357.1,216.6,357.2z M303.9,220.3c1.7,0.1,2.8,0.1,2.8-1.2c0-1.1-1.1-1.2-1.9-1.2c-1.8-0.1-3.6-0.2-5-1.2
		c-2.1-1.5-4.5-1.1-6.7-1.5c-0.5-0.1-1.1-0.1-1.2,0.6c-0.1,0.5,0.3,0.9,0.7,1C296.7,217.4,300.2,220.3,303.9,220.3z M273.3,198.1
		c-3.9-0.4-7.3,2.8-11.6,3c-0.5,0-1,0.4-0.8,1.1c0.2,0.6,0.7,1.1,1.4,0.9c3.9-1.1,7.9-2.1,11.8-3.2c0.5-0.2,0.9-0.6,0.8-1.2
		C274.8,198,274.3,197.8,273.3,198.1z M308.4,282.2c-1.1,1,0.4,1.7,0.5,3c-1.1-0.4-2.1-0.2-2.3,1.1c-0.1,0.9-0.2,1.7,0.9,2.1
		c1,0.4,2.1,1.1,2.8-0.4c0.5-1,0.9-0.6,1.5,0c0.6,0.7,1.3,1.4,2,2c0.4,0.3,0.9,0.7,1.3,0.2c0.6-0.7,0-1.1-0.5-1.4
		C311.9,287.2,311.2,283.8,308.4,282.2z M164.3,232.3c-1.4-0.9-2.2-0.4-3.1-0.2c-3.5,1-6.4,3.8-10.3,3.4c-0.9-0.1-2.2-0.1-1.9,1.3
		c0.2,1.1,1.3,1.2,2.3,0.9C155.8,236.6,159.9,234.5,164.3,232.3z M263,210.5c4.2-0.1,8-1.5,11.6-3.6c0.5-0.3,1.2-0.7,0.7-1.4
		c-0.3-0.5-0.9-0.1-1.4,0.1c-0.5,0.2-0.9,0.5-1.4,0.7c-3.4,1.9-7.1,2.3-10.8,2.5c-0.7,0-1.7-0.6-1.8,0.6c-0.2,1.2,0.9,1.2,1.8,1.2
		C262.2,210.6,262.6,210.5,263,210.5z M153.3,262.6c0.1-2.6-1.7-4.6-1.8-7.2c0-0.8-1-0.7-1.7-0.8c-0.4,0-0.9-0.1-1.1,0.4
		c-0.4,0.7,0.1,1.1,0.6,1.5c0.6,0.4,0.8,1,1.1,1.6c1.1,2.3,1.4,4.5,0.1,6.9c-0.3,0.6-0.5,1.6,0.5,2c0.9,0.3,1.4-0.3,1.6-1.2
		C152.8,264.8,153,263.7,153.3,262.6z M276.9,215.7c0-0.8-0.3-0.9-1.2-0.6c-3.2,1.1-5.6,3.1-7.6,5.8c-0.4,0.5-1.1,1.1-0.4,1.7
		c0.6,0.6,1.2,0.2,1.8-0.2c2.4-1.8,4.3-4.2,6.9-5.8C276.6,216.4,276.7,215.9,276.9,215.7z M273.8,194.9c0.7-0.2,2,0.4,2.2-1.2
		c0.1-0.7-0.2-1.3-1-1.2c-3.7,0.2-7.5-0.1-11,1.6c-0.6,0.3-1.5,0.6-1.1,1.4c0.4,0.8,1.1,0.3,1.8,0.1c2.8-0.5,5.3-3.1,8.3-0.9
		C273.2,194.9,273.4,194.8,273.8,194.9z M295,261.3c0.5,1.2,2.1,0.8,1.9,1.8c-0.2,1.2-1.2,0.5-1.9,0.5c-0.5,0-0.7,0.4-0.8,0.9
		c0,0.5,0.2,0.8,0.6,1.1c1.3,0.9,4.7,0.2,5.6-1.2c0.6-0.9,0.1-3.4-0.9-3.4C298.1,260.8,296.6,260.5,295,261.3z M245.2,331.1
		c-0.8-0.6-1.7-0.3-2.5,0.1c-3.1,1.6-6.3,3.2-9.1,5.3c-0.6,0.4-2.1,0.7-1.4,1.7c0.7,1,1.7,0,2.5-0.4c3.2-1.7,5.9-4.5,9.6-5.5
		C244.8,332.1,245.2,331.9,245.2,331.1z M291.3,175.8c-2.2,2-4.5,4-6.6,6c-0.6,0.6-0.8,1.5-0.6,2.4c0.2,0.7,0.5,1.3,1.4,1.4
		c0.7,0.1,1.3-0.3,1.4-0.9C287.5,181.3,290,178.9,291.3,175.8z M297,201.1c0-0.8-0.4-1.6-1.2-1.1c-2.3,1.5-4.9,1.5-7.3,2.2
		c-0.9,0.3-1.4,1-1.1,1.8c0.3,0.8,1.5,1.1,2,0.6c1.5-1.5,3.4-1,5.1-1.2C295.8,203.2,297.1,203,297,201.1z M247.6,447.1
		c0.6-0.5,0.7-1.1,0.4-1.5c-1.5-2.3-2.6-4.8-2.5-7.7c0-0.7-0.5-1.4-1.3-1.3c-0.8,0-0.8,0.8-0.9,1.4c-0.3,0.7-0.3,1.5,0,2.3
		C244.2,442.8,245,445.5,247.6,447.1z M261.6,328.4c1.5-0.9,2.8-1,4-1.3c1.4-0.4,1.9,0.1,2.1,1.3c0.1,0.8,0.4,1.7,1.4,1.3
		c1.1-0.4,1.2-1.4,0.9-2.4c-0.4-1.4-3.3-1.2-2.5-3.5c-0.2,0-0.4-0.1-0.5-0.1C265.2,325.1,262.5,325.2,261.6,328.4z M261.6,188.9
		c0,0.3,0.1,0.5,0.1,0.8c5.3-0.8,10.7,3.6,16-0.8C272.3,188.9,266.9,188.9,261.6,188.9z M279.9,174.4c1.2-0.1,3.7-2.7,3.6-3.7
		c-0.1-1-0.4-1.9-1.6-1.9c-1.5,0-3.7,2.3-3.6,3.8C278.4,173.5,278.6,174.4,279.9,174.4z M324.6,217.7c-2.2,3.4-2.3,3.3-6,5.7
		c-0.9,0.6-3.1,0.4-2.7,1.7c0.4,1.3,2-0.2,3.2-0.2C322.3,225.1,325.3,221.1,324.6,217.7z M299.9,251.5c-0.8,0-1.9,0.1-1.7,1
		c0.2,1.4-1.5,2.6-0.4,3.8c0.7,0.7,1.8,0.7,2.6,0.2c1.3-0.9,1.8-2.2,1.6-3.8C301.9,251.4,300.8,251.5,299.9,251.5z M255.5,81.4
		c-0.3,0.2-0.7,0.3-0.8,0.5c-0.2,0.4-0.1,0.9,0.3,1.2c2.6,2.1,3.6,5.1,4.5,8.2c0.2,0.7,0.5,1.4,1.4,1.1c0.6-0.3,0.7-1,0.5-1.5
		c-1.1-3.2-3-6-4.9-8.8C256.2,81.8,255.8,81.7,255.5,81.4z M238.7,433.4c0-1.5-0.7-2.6-2.1-2.9c-1.4-0.3-2.4,0.9-2.4,2.1
		c0,1.7,1.2,3.1,2.7,3.4C238.9,436.3,237.9,434.2,238.7,433.4z M259.9,80.5c-0.7,0-1.2,0.3-1.6,0.8c-0.5,0.8,0.2,1.2,0.6,1.7
		c1.2,1.5,3.9,1.6,4.1,4.2c0,0.7,0.5,1.5,1.4,1.5c0.2,0,0.6-0.4,0.7-0.6c0.2-0.9,0.1-1.9-0.8-2.2c-1.5-0.4-1.8-1.6-2.2-2.8
		C261.7,82,261.2,80.8,259.9,80.5z M275.2,361.3c-0.2,0.8-0.1,1.5,0.7,1.7c0.7,0.1,1.4,0.4,2-0.1c0.8-0.6,0.1-1.1-0.2-1.7
		c-0.6-1.2-0.7-2.4-0.6-3.7c0-0.7,0.1-1.4-0.7-1.7c-0.6-0.2-1.2,0.1-1.6,0.5c-0.6,0.5-0.6,1.2-0.1,1.8
		C275.4,359.1,275.8,360.2,275.2,361.3z M300,244.5c-2-0.1-4.3-0.9-5.4,1.6c-0.5,1,0.6,1.3,1.5,1.6
		C298.8,248.6,299.7,247.1,300,244.5z M268.3,364.7c0.8-1.2,2.1-2.2,0-3.4c-0.9-0.6-0.4-1.8-0.2-2.6c0.2-0.9,0.2-1.7-0.5-2.3
		c-0.6-0.6-1.2-0.4-1.2,0.4C266.5,359.5,265.5,362.5,268.3,364.7z M315.2,231.5c0.5,0,0.9,0,1.4-0.1c1-0.1,1.8-0.6,2.3-1.4
		c0.4-0.6-0.2-1.1-0.6-1.6c-0.8-0.8-1.7-0.7-2.6-0.2c-0.4,0.2-0.8,0.3-1.1,0.6c-0.6,0.5-1.8,0.4-1.6,1.7
		C313.3,231.8,314.4,231.4,315.2,231.5z M304.2,282c0.9-0.1,1.8,0.2,2-0.7c0.2-0.7-0.6-1-1.2-1.2c-1.2-0.5-1.9-1-1.1-2.5
		c0.4-0.8-0.3-1.6-1-2.2c-0.3-0.2-0.6,0-0.9,0.3c-0.5,0.7-0.5,1.4,0,2.2c0.2,0.4,1,0.6,0.5,1.2C300.8,281.8,303.1,281.6,304.2,282z
		 M299.2,179.8c-3,0.7-4.8,2.4-6.6,4.1c-0.3,0.3-0.4,0.8,0,1.2c0.4,0.4,0.9,0.7,1.4,0.3C295.8,183.9,297.9,182.6,299.2,179.8z
		 M282.5,165c0-0.4-0.1-0.6-0.4-0.9c-1.1-0.7-4.3,0.2-4.9,1.4c-0.3,0.7-0.1,1.2,0.4,1.6c1.4,1.1,2.2-0.8,3.5-0.7
		C281.8,166.4,282.3,165.7,282.5,165z M270.8,196.6c-2.8-1.2-5.4-0.7-6.5,0.9c-0.3,0.4-0.7,0.9-0.3,1.4c0.4,0.5,0.9,0.4,1.4,0.1
		C267.1,198.2,268.7,197.5,270.8,196.6z M151.9,284.5c0.7-0.3,0.9-0.9,0.8-1.6c-0.1-1.4-0.1-2.7,0.8-4c0.4-0.6,1-1.5,0-2
		c-0.9-0.4-1.4,0.5-1.7,1.2c-0.8,1.8,0.1,3.9-0.9,5.7C150.8,284.1,151.4,284.5,151.9,284.5z M297,304.7c-0.2-1.2-1-1.7-1.8-1.6
		c-1.4,0.2-2.9,0.8-3.3,2.4c-0.2,1,0.8,1.3,1.5,1.2C295,306.6,296.1,305.7,297,304.7z M266.5,90c-1.4-0.2-2.8-0.3-3.1,1.6
		c-0.2,1,0.7,1.1,1.3,1c1.4-0.2,3.5,0.3,3.9-1.6C268.9,89.4,267.2,90.5,266.5,90z M281.5,300.8c-0.1-1.1-0.7-2.1-1.8-2.2
		c-1.4-0.1-2.2,1.2-2.3,2.3c-0.1,1,0.9,1.5,2,1.6C280.6,302.7,281.2,302,281.5,300.8z M232.5,421.4c-0.7,0.1-1.3,0.7-1.2,1.4
		c0.2,1.5,0.7,3,2.2,3.8c0.5,0.3,1.2,0.5,1.7,0.1c0.7-0.6-0.1-1-0.3-1.5c-0.6-1-1.3-1.8-1.5-2.9
		C233.3,421.9,233.1,421.5,232.5,421.4z M287.4,221.7c-1.5,1.4-3.9,0.8-5.1,2.7c-0.3,0.4-0.5,0.9-0.1,1.4c0.2,0.3,0.6,0.4,0.9,0.2
		c1.6-0.9,3.1-1.7,4.7-2.6c0.4-0.2,0.7-0.6,0.5-1C288.2,222.1,287.8,221.9,287.4,221.7z M146.1,276.3c-0.4-0.9-0.9-1.8-2.1-1.3
		c-1.4,0.6-2.6,1.7-4.1,2.1c-0.2,0.1-0.5,0.5-0.4,0.8c0,0.3,0.4,0.7,0.6,0.7c2-0.3,3.7-1.7,5.8-1.9
		C145.9,276.7,146,276.5,146.1,276.3z M264.2,466.2c0.1-0.2,0.3-0.4,0.4-0.6c-1.2-1.1-2.5-2.3-3.7-3.4c-0.7-0.6-1.3-0.8-1.9,0
		c-0.7,0.9-0.1,1.5,0.6,1.8C261.2,464.8,262.7,465.5,264.2,466.2z M138.6,269.9c0.7-0.1,1.7-0.1,1.6-1.1c-0.1-1.2-1.1-0.8-1.8-0.7
		c-1.4,0.2-2.8,0.9-4.1-0.3c-0.5-0.4-1.2,0-1.4,0.7c-0.2,0.8,0.4,1,1,1C135.5,269.6,137.1,269.4,138.6,269.9z M287.1,175.7
		c-0.6-0.6-0.8-2-2-1.6c-0.9,0.3-2.1,1-2,2.3c0.1,0.8,0.6,1.8,1.6,1.6C285.9,177.7,286.7,177,287.1,175.7z M275.4,163
		c1.4-0.8,2.9-1.2,4.4-1.5c0.5-0.1,1.4,0,1.5-0.7c0.1-0.9-0.8-0.9-1.4-1.2C276.4,158.3,277,162.2,275.4,163z M278.8,369.2
		c-0.1-1.2-0.2-2.2-0.4-3.3c-0.1-0.7-0.4-1.4-1.3-1.2c-0.9,0.2-0.9,1-0.7,1.7c0.5,1.4,1.3,2.6,0.9,4.2c-0.1,0.4,0.2,0.7,0.6,0.6
		c0.2,0,0.5-0.2,0.6-0.4C278.6,370.2,278.7,369.6,278.8,369.2z M319.6,204.9c0.1-1.2-0.3-2.6-1.1-2.5c-1.1,0.2-1.5,1.7-1.7,2.8
		c-0.2,0.9,1,1.4,1.8,1.4C320,206.7,319.5,205.5,319.6,204.9z M260.9,73c-1,1.7-1,3.7-2.5,5c-0.4,0.3-0.2,0.8,0.2,1.1
		c0.4,0.3,0.8,0.3,1.2,0C261,78.4,261.7,74.8,260.9,73z M299.6,171.5c-2.7,1.4-3.8,3.4-5.6,4.7c-0.4,0.3-0.8,0.7-0.3,1.3
		c0.4,0.4,0.9,0.3,1.1,0C296.2,175.5,298.4,174.3,299.6,171.5z M149.1,241.4c-0.2-0.8-0.3-1.7-1.3-1.6c-1.2,0.2-2.1,1-2.1,2.2
		c-0.1,1,0.7,1.6,1.7,1.5C148.5,243.4,148.9,242.4,149.1,241.4z M249.9,451.1c0.3,1.2,0.6,2.4,0.8,3.5c0.2,1,1,1.1,1.8,1.2
		c0.5,0.1,1.1,0,1.3-0.6c0.3-0.8-0.3-1.3-0.8-1.7C251.9,452.6,251,451.9,249.9,451.1z M272.9,359.8c0.2-1-0.8-1.8-0.9-2.8
		c-0.1-0.7-0.5-1.1-1.3-0.8c-0.7,0.3-0.8,1-0.5,1.5c0.6,0.8,0.9,1.6,1,2.6c0.1,0.5,0.4,1.1,1,1C273.1,361.3,273,360.5,272.9,359.8z
		 M222.8,354.5c-0.7,0.8-2.4,0.6-2.4,2.1c0,1,0.9,1.5,1.8,1.4c1.5-0.1,1.5-1.5,1.8-2.5C224.3,354.8,223.7,354.4,222.8,354.5z
		 M308.9,235.8c-0.6-1-1.5-1.9-2.7-2.1c-0.7-0.2-1.5,0.5-1.4,1.1c0.2,1.3,1.2,2,2.6,2.1C308.1,236.9,308.8,236.8,308.9,235.8z
		 M260.3,188.7c-2.7-0.4-4.6-0.5-6.4,0.7c-0.2,0.2-0.4,0.5-0.4,0.8c0,0.4,0.4,0.6,0.8,0.4C255.8,189.8,258,190.3,260.3,188.7z
		 M248.7,78.8c0.7,0.1,1.1-0.2,1.2-0.6c0.4-1.3,1.4-1.9,2.4-2.6c0.5-0.3,0.8-0.8,0.5-1.3c-0.5-0.7-1.2-0.2-1.5,0.1
		c-0.8,1-1.6,2-2.8,2.6c-0.4,0.2-0.5,0.7-0.3,1.1C248.3,78.4,248.5,78.6,248.7,78.8z M262.1,71.8c0.9-1.2,1.7-2.2,2.4-3.3
		c0.4-0.6,0.2-1.1-0.4-1.5c-0.7-0.4-1.1,0-1.3,0.6C262.3,68.9,261.2,70.1,262.1,71.8z M240.9,429.7c-0.7-0.1-1.2,0.2-1,0.7
		c0.5,1.2,0.8,2.7,2.2,3.2c0.6,0.2,1.2-0.3,1.2-1C243.1,431.1,241.8,430.4,240.9,429.7z M312.1,201.4c-0.5-0.7-1.2-0.4-1.9-0.4
		c-1,0-2.1,0-2.8,1c-0.3,0.4-0.1,0.9,0.3,1.1c1.1,0.6,2.3,0.5,3.4-0.2C311.6,202.6,312.1,202.1,312.1,201.4z M313.6,212
		c0.8,0.1,1.7,0.1,1.8-0.7c0.1-0.9-0.9-0.8-1.5-1c-0.9-0.3-1.8-1.1-2.8-0.4c-0.2,0.1-0.4,0.7-0.3,0.8
		C311.5,211.8,312.7,211.7,313.6,212z M267.3,318.8c-0.5,0.2-1.7-0.4-1.6,0.7c0.1,1.1,1.3,1.7,2.4,2c0.9,0.2,1.4-0.5,1.4-1.4
		C269.5,318.6,268.3,318.9,267.3,318.8z M149.3,247.8c0.7-0.2,1.4-0.6,1.2-1.6c-0.2-0.9-0.7-1.6-1.7-1.5c-0.9,0.1-1.5,0.6-1.3,1.5
		C147.6,247.2,148.3,247.7,149.3,247.8z M273.5,225.7c-1.8,0.6-3.4,1.4-4.2,3.1c-0.1,0.3-0.4,0.6,0,0.9c0.3,0.3,0.6,0.2,0.9,0
		C271.8,228.8,272.8,227.4,273.5,225.7z M147.4,274.4c0.7-0.8,1.6-1.7,2.2-2.8c0.3-0.6-0.4-0.9-0.9-0.8c-1.3,0.4-2.1,1.4-2.4,2.7
		C146.2,273.9,146.6,274.3,147.4,274.4z M267.5,57.2c-0.1-0.6-0.4-1.2-1.1-1.1c-0.9,0.2-1.8,0.7-2,1.7c-0.1,0.7,0.5,1.7,1.3,1.6
		C266.9,59.3,267.1,58.1,267.5,57.2z M257.4,91.2c0-1.5-0.7-2.6-1.2-3.8c-0.2-0.4-0.5-0.7-1-0.6c-0.6,0.2-0.8,0.7-0.6,1.2
		C255.1,89.5,255.8,90.5,257.4,91.2z M265.9,400.5c0.1,0.2,0.2,0.4,0.2,0.6c2.1-1.1,4.3-2.1,6.4-3.2
		C269.8,397.6,267.9,399.1,265.9,400.5z M260.3,190.8c-0.6,0.2-1.8-0.2-1.9,1c-0.1,0.8,0.8,1.4,1.5,1.5c1.1,0.1,1.8-0.7,1.9-1.7
		C262,190.8,261.1,190.9,260.3,190.8z M317.7,282c-0.9-0.1-0.8,0.5-0.6,1c0.3,0.9-0.4,2.3,1.2,2.5c0.7,0.1,0.9-0.7,0.9-1.3
		C319,283.2,319,282.2,317.7,282z M252.6,91.5c0.3,0.9,0.1,2.3,1.6,2.5c0.5,0.1,1.2-0.4,1-0.9c-0.4-1.1-0.8-2.3-1.9-2.8
		C252.6,90.1,252.6,90.9,252.6,91.5z M273.1,329.8c-0.7,0.1-0.9,0.5-0.9,1.1c0.1,0.8,0.1,1.5-0.6,2c-0.5,0.4-0.4,1,0.1,1.3
		c0.6,0.4,0.9-0.2,1-0.7c0.1-0.8,0.9-1,1.2-1.6C274.3,330.9,273.9,330.2,273.1,329.8z M258.2,101.9c1.2-0.9,1.1-1.8,0.9-2.7
		c-0.2-0.8-0.6-1.6-1.5-1.4c-1.1,0.3-0.7,1.1-0.4,1.8C257.5,100.3,257.8,101,258.2,101.9z M281.8,183.8c0.6-0.9,1.9-1.4,2-2.8
		c0-0.5-0.4-0.8-0.8-0.7c-1.2,0.4-2,1.3-2,2.6C281,183.5,281.1,183.9,281.8,183.8z M269.5,236.7c0.1-0.4,0-0.9-0.6-0.8
		c-1.2,0.2-1.7,1.1-2,2.1c-0.2,0.5,0,1.1,0.7,1.1C269.2,239.1,269,237.6,269.5,236.7z M138.3,233.2c-0.7-0.7-1-2.1-2.2-2.5
		c-0.6-0.2-0.9,0.5-0.8,1c0.2,1.2,1.2,1.8,2.2,2.3C137.8,234.2,138.2,233.9,138.3,233.2z M247.1,79.8c-2.3,1.9-3.1,3-3.3,4.3
		C246.8,82.4,246.9,82.3,247.1,79.8z M267,87.6c1.3-0.5,2.2,1.5,3.6,0c0.2-0.2,0.3-0.7,0-0.9c-1.2-0.7-2.4-0.8-3.5,0.2
		C267,86.9,267,87.1,267,87.6z M237.8,88.5c-0.1-0.1-0.3-0.5-0.4-0.4c-1.5,0.4-2.5,1.6-3.8,2.5c-0.3,0.2-0.1,0.6,0.2,0.8
		C234.3,91.6,237.8,89.2,237.8,88.5z M145.1,245.4c-0.2-0.8-0.4-1.8-1.3-1.9c-0.8-0.1-0.7,0.8-0.7,1.3c0,1,0.3,1.8,1.3,1.9
		C145,246.8,145.1,246.1,145.1,245.4z M250.2,160.4c-1.2,1-2.6,1.6-3,3.1c-0.1,0.4,0.4,0.6,0.7,0.5c1.3-0.6,2.3-1.4,2.6-2.9
		C250.5,161,250.4,160.9,250.2,160.4z M161.3,271.9c-0.2-0.7,0.1-1.7-1-1.8c-0.8,0-1.7,0.4-1.6,1.2c0,1,1,1.3,1.8,1.6
		C161.4,273.4,161.2,272.5,161.3,271.9z M313.8,187.4c-0.1-1.1,0.2-2.4-1.3-2.7c-0.6-0.1-0.7,0.6-0.5,0.9c0.7,1-0.8,2.9,1.1,3.3
		C314,189.1,313.7,188,313.8,187.4z M143,236.7c-0.9-0.4-1.3-1.8-2.6-1.9c-0.4,0-1,0.3-0.8,0.7c0.6,1.2,1.7,1.8,2.9,2.1
		C142.8,237.7,143.1,237.4,143,236.7z M295.3,257c-0.1-1.5,0.9-2.9,0.2-4.5c-0.1-0.3-0.7-0.3-0.9,0c-0.8,1.5-0.3,2.9,0.1,4.4
		C294.8,257,295,256.9,295.3,257z M251.1,446.6c-0.4,2.3,1,3.6,2.8,4.6C252.9,449.6,252,448.1,251.1,446.6z M153.6,249.1
		c0-0.6-0.3-1.1-0.9-0.9c-0.7,0.2-1.6,0.4-1.8,1.2c-0.1,0.7,0.4,1.2,1.1,1.1C152.8,250.4,153.4,249.9,153.6,249.1z M268.2,313.4
		c0.6,0.8,1.1,1.7,1.5,2c1.4,1,1.5-0.3,1.2-1.2C270.5,313,269.6,312.6,268.2,313.4z M301.4,181.2c-0.7,0.6-1.3,1-1.9,1.5
		c-0.6,0.5-0.9,1.2-0.2,1.8c0.9,0.7,1.4,0,1.7-0.8C301.1,183,302,182.4,301.4,181.2z M229.3,330.7c-0.6,1.7-3,2.4-3.1,5.1
		C227.8,334,229.1,332.7,229.3,330.7z M271.9,367.1c0.6-1,1-1.9,0-2.8c-0.4-0.4-1.1-0.4-1.3,0.1C270,365.6,271.9,365.9,271.9,367.1z
		 M147.7,250.5c-0.2-0.8-0.7-1.4-1.5-1.5c-0.8-0.2-1,0.5-0.9,1.1c0.1,0.8,0.5,1.5,1.5,1.4C147.2,251.5,147.7,251.2,147.7,250.5z
		 M233.8,340.7c-0.1,1.4,0.9,1.9,1.8,2.1c1,0.2,2-0.1,2.4-1.4C236.5,341.1,235,342.3,233.8,340.7z M263.8,349.6
		c1-0.1,0.9-0.9,0.9-1.5c0-0.8-0.3-1.4-1.1-1.4c-0.8,0-0.9,0.9-0.9,1.5C262.7,349,263,349.5,263.8,349.6z"/>
	<path d="M272.4,132.3c-1.6,2.2-3.8,1.7-5.5,2.6c-1.7,0.9-3.8,1.9-3.5,4c0.2,1.9,1.3,3.9,3.7,4.6c-3.4,1.7-5.5,0.9-6.7-2.5
		c-1.3-3.6-3.1-4.4-6.7-3c-0.7,0.3-1.6,1.1-2,0.1c-0.5-1,0.7-1.4,1.4-1.9c0.8-0.5,1.7-0.6,2.5-0.5c3.8,0.6,6.9-0.8,10-2.8
		C267.4,131.6,269.8,132,272.4,132.3z"/>
	<path d="M254.3,141.2c2.1,0,3.9,0.4,4.8,2.6c0.7,1.5,0.4,2.7-0.8,3.7c-0.7,0.6-1.4,1.3-2.1,1.9c-1.3,1.1-2.8,2.7-3.6-0.5
		c-0.2-0.7-1.1-0.8-1.5-1.3c-0.8-1-2.2-1.9-1.6-3.5c0.6-1.7,1.6-2.9,3.5-2.9C253.4,141.2,253.9,141.2,254.3,141.2z"/>
	<path d="M312.5,378c-0.3-0.1-0.4-0.1-0.5-0.2c-1.1-1.1-1-2.4-0.7-3.7c0.1-0.4,0.7-0.3,0.8-0.1C313,375.3,312.9,376.6,312.5,378z"/>
</g>
</svg>
