<?xml version="1.0" encoding="utf-8"?>
<!-- Generator: Adobe Illustrator 24.3.0, SVG Export Plug-In . SVG Version: 6.00 Build 0)  -->
<svg version="1.1" id="Layer_1" xmlns="http://www.w3.org/2000/svg" xmlns:xlink="http://www.w3.org/1999/xlink" x="0px" y="0px"
	 viewBox="0 0 500 500" style="enable-background:new 0 0 500 500;" xml:space="preserve">
<g>
	<path d="M255.7,195.4c-3.2,1.6-5.7,1.3-8.2-0.1c-1.4-0.8-2-2.1-2.1-3.6c-0.1-0.9-0.3-1.5-1.1-1.9c-0.2-0.1-0.5-0.3-0.6-0.5
		c-1.9-3.8-4.3-7.6-3.3-12.1c0.2-0.8,0.1-1.3-0.4-2c-2-2.7-2.3-5.5-0.6-8.4c0.3-0.5,0.4-1,0-1.5c-1.8-2-1.6-4.4-0.7-6.6
		c0.4-1.2,0.2-2.1-0.5-3c-1.3-1.7-2.6-3.5-4-5.1c-1.2-1.5-2.3-3.1-3.2-4.8c-0.2-0.4-0.4-0.9-0.9-0.6c-2.4,1.6-5.2,2.6-7.5,4.5
		c-1.6,1.4-2.5,3.4-3.7,5.1c-2.5,3.7-4.7,5.1-8.7,4.4c-1.6-0.3-2.8-1.1-3-2.7c-0.5-5.4-1.4-10.8,1.5-15.9c0.9-1.6,1.3-3.5,1.4-5.5
		c0.6-7.9,1.3-15.8,3-23.5c1.1-5,0.8-10.1,1.3-15.1c0.2-1.8-0.7-3.6-1.2-5.4c-0.2-0.9-1.3-1-2-1.5c-1.6-1.3-2.6-3.5-5.3-3.5
		c-0.9,0-1.8-1.1-2.6-1.8c-1.6-1.4-3.2-2.7-5.3-3.3c-1.5-0.4-2.1-1.7-2.7-3c-0.9-1.9-1.7-3.8-3.6-5.1c-1.5-1-1.3-3.1,0.3-4
		c1-0.6,1.2-1.3,0.9-2.4c-0.2-0.9-0.3-1.8,0.1-2.7c0.5-1.1,1.2-2,2.6-1.2c1.4,0.7,1.9,0,1.9-1.3c0-2,0.4-3.7,2.9-3.7
		c0.4,0,0.7-0.4,1-0.7c3.3-3.2,7.4-4.4,11.9-4.4c0.5,0,1,0,1.1,0.6c0.1,0.9,0.2,1.7-0.5,2.4c-1,0.9-2.2,1.5-3.6,1.6
		c-0.6,0.1-1.3,0.2-1.3,0.9c0,0.6,0.6,0.8,1.1,1c0.3,0.1,0.7,0.2,1,0.4c0.7,0.3,1.1,0.7,1,1.5c-0.1,0.8-0.6,1.1-1.3,1.3
		c-1.3,0.3-2.5,0.2-3.8,0.2c-1.2,0-1.7,0.4-1.4,1.8c1.1,5.5,5.1,8.5,9.6,11c1,0.6,1.9,1.1,2.8,2c0.6-0.8,0.3-1.4,0.3-2.1
		c0-1.6-0.1-3.3,0.7-4.8c0.3-0.6,0.2-1.2-0.1-1.7c-1.8-3.6,0.1-8.2,1.9-10.3c0.3-0.4,0.7-0.7,1.2-0.5c0.6,0.2,0.4,0.8,0.4,1.3
		c-0.2,2.1,0,4.1,0.5,6.1c0.1,0.4,0.2,0.9,0.1,1.2c-0.6,1.5,0,2.9,0.1,4.3c0.2,3.1,0.8,6.4,0,9.5c-0.3,1.4,0,2.5,0.7,3.6
		c0.8,1.2,1.1,2.4,0.3,3.7c-0.2,0.3-0.2,0.5-0.1,0.9c1.2,8.7,1.1,17.5,0.2,26.2c-0.7,6-2.8,11.8-4.4,17.7c-0.6,2.4-0.8,4.8-0.6,7.2
		c0,0.5,0.1,1.1,0.3,1.6c0.2,1,0.6,1.6,1.7,0.8c0.6-0.5,1.4-0.8,2-1.2c4-2.3,4-2.3,3.9-6.9c0-1.3-0.1-2.7-0.4-4
		c-0.3-1.3,0.1-2.1,1.1-2.8c1.6-1,3.3-2,4.8-3.2c0.4-0.4,1.1-0.5,1.7-0.5c2.1,0,4.1,0.5,6.3,1.8c-2.3,0.5-4.2,0.4-6.2-0.1
		c-0.8-0.2-1.8-0.7-2,0.6c-0.2,1.1,0.6,1.7,1.6,1.8c0.9,0.1,1.8,0.1,2.7,0c6.3-1,12.4-0.7,18.1,2.7c1.1,0.7,2.6,0.7,3.9,0.6
		c0.6,0,1.3,0,1.4-0.8c0.1-1-0.8-1-1.4-1c-5.2,0.3-9.5-3.3-14.8-3.5c1.6-1.9-0.2-4.9,3-5.2c-0.3-0.6-0.7-0.5-1-0.5
		c-3.4,0-5.5-1.8-6.7-4.8c-1.2-3-2.8-5.9-3.9-9c-0.8-2.3-2.3-3.6-4.2-4.6c-2.6-1.4-3.2-2.4-2.8-5.3c0.3-2.2,0-4.2-0.4-6.4
		c-0.9-5.1-0.5-10.4,1-15.4c1.2-3.9,3.8-6.7,7.1-9c4.5-3.1,9.4-4,14.8-2.1c5.2,1.8,9.6,4.7,12.8,9.3c0.5,0.7,0.9,1.4,1.1,2.3
		c1.3,6.8,2.9,13.5,2.7,20.4c-0.1,3.4-0.3,6.7-2.5,9.6c-1.4,1.9-3.2,2.9-5.3,3.4c-0.8,0.2-1.9,0.3-1.8,1.4c0.1,1.1,0.1,2.3,1.7,2.6
		c1.3,0.2,1.1,1.1,0.5,1.9c-0.4,0.6-1.1,1-1.5,1.5c-1.3,1.6-0.7,3.6,1.2,4.1c0.7,0.2,1.5,0.5,1.5,1.3c0.1,0.8-0.6,1.1-1.2,1.4
		c-0.7,0.4-1.7,0.7-1.5,1.8c0.3,1.1,1.3,1.1,2.2,1.1c1.2,0.1,2.4,0.2,3.6,0.2c0.2,0,0.4,0,0.5,0c1.4,0.6,2.7,1.6,4.1-0.1
		c0.2-0.3,1,0,1.3,0.3c0.9,0.7,1.9,1.2,3,1.6c0.7,0.2,1.6,0.8,1.1,1.7c-0.4,0.7-0.4,2.2-2,1.6c-0.4-0.2-0.7,0.1-0.7,0.5
		c0,0.4,0.3,0.4,0.6,0.5c0.8,0.1,1.6,0.3,2.4,0.5c0.9,0.3,2,0.7,2.1,1.6c0.3,2,1.6,3.2,3,4.6c1.1,1.1,1.8,2.7,0.9,4.5
		c-0.3,0.6,0,0.9,0.6,1.2c3,1.3,3.8,3.2,2.7,6.3c-0.3,0.9-0.1,1.3,0.8,1.6c3.4,1.2,3.8,2,3.6,5.6c0,0.9,0.3,1.6,0.8,2.3
		c0.9,1.2,1.7,2.5,2.2,3.9c0.2,0.5,0.5,1.1,0.3,1.6c-1,3.1,0.5,5.6,2,7.9c2.3,3.5,4.6,7.1,8.3,9.5c1,0.7,1.9,1.7,2,2.9
		c0.4,4.1,3,7.2,4.7,10.6c3.1,6.1,6.5,12.1,10.1,17.9c2.2,3.6,5,6.6,7.4,10c1.8,2.6,4.2,2.9,6.9,2.4c2.8-0.5,5.7-1,7.8-3.3
		c1-1.1,2.7-1,4.1-1.1c1.9-0.1,3.9-0.2,5.8-0.2c4.4,0.1,8.5-1,12.6-2.5c0.7-0.3,1.6-0.6,2.2,0.1c0.7,0.7,0.3,1.6-0.2,2.3
		c-0.6,0.9-0.7,1.4,0.4,2.1c1.3,0.8,0.8,2.3-0.9,2.7c-2.3,0.5-4.3,1.7-6.7,1.7c0.1,0.2,0,0.4,0.1,0.4c1,0.5,2.2,0.9,1.8,2.5
		c-0.4,1.5-1.7,1.2-2.8,1.4c-2,0.3-3.9-0.5-5.2-1.6c-2.1-1.6-3.7-0.6-5.4,0.3c-1,0.5-2,1.1-3.1,1.3c-0.3,0.1-0.8,0.2-0.7,0.7
		c0,0.4,0.4,0.5,0.8,0.6c1.4,0.3,2.7,0.9,3.8,1.9c0.6,0.6,1.5,0.6,2,0.2c2-1.5,3.2,0.1,4.3,1.1c1,0.9,2,1.5,3.3,1.7
		c0.9,0.2,2.2,0,2.1,1.4c-0.1,1.4-0.8,2.6-2.5,2.7c-2.6,0.2-5.3,0.1-7.5-1.5c-1.2-0.8-2.4-1.1-3.7-1.2c-1.7-0.1-3.1-0.6-4.6-1.5
		c-2.6-1.4-5.7-1.3-8.6-0.3c-4.1,1.5-7.9,0.8-11.6-1.4c-1-0.6-1.6-1.7-1-2.8c0.7-1.5,0-2.4-0.8-3.4c-3-3.6-5.9-7.4-9-10.9
		c-3.7-4.3-6.3-9.3-8.8-14.3c-0.9-1.8-1.8-3.7-3-5.4c-0.5-0.6-0.9-1.3-1.1-2.1c-0.5-1.8-1-3.3-3-4c-1.4-0.5-1.8-2.1-2-3.6
		c-0.2-1.4-0.3-2.9-0.5-4.3c-0.2-1-0.7-1.2-1.4-0.4c-4.3,4.6-9.8,5.7-15.8,5.2c-2.1-0.2-3.9-1.1-5.8-2c-0.6-0.3-1.1-0.4-1.7-0.4
		c-1.9,0-2.5,0.7-1.9,2.5c0.8,2.2,1.7,4.3,2.2,6.7c0.2,1,0.6,2,0.7,3c0.1,1,0.2,2,0.6,2.8c1.3,2.3,1.5,4.8,1.3,7.4
		c-0.1,0.9,0.1,1.7,0.4,2.5c0.7,2.3,0.7,4.6,0.6,7c0,1.2-1.5,1.9-1.2,3.3c0.6,2.1,0.2,4.3,0.1,6.5c0,1-0.2,1.9-0.7,2.7
		c-1.4,2-0.9,4.2-1,6.7c1.2-0.9,1.5-1.9,1.9-2.9c0.6-1.9,2-2.7,3.9-2.8c4.2-0.2,6.5,2.5,8.6,5.6c2.8,4.2,5.1,8.7,7.4,13.2
		c1.9,3.7,1.9,6.6-0.7,9.3c-1.2,1.3-2.9,1.8-4.6,2.4c-2,0.6-2.1,0.9-0.9,2.6c0.9,1.3,1.2,2.7,0.4,4.3c-0.4,0.7-0.3,1.5-0.3,2.3
		c0.1,1.1,0.5,1.4,1.5,0.9c1.6-0.8,2.7-0.4,3.6,1.1c1.2,2.1,0.9,5.1-0.8,6.9c-1.1,1.1-2.1,2.3-2.3,4c-0.1,0.9-0.8,1.5-1.5,2.2
		c-3.3,3.3-6.9,6.3-8.6,11c-1.7,5-4.9,9.3-7.7,13.9c-3.9,6.5-8.3,12.6-12.8,18.6c-1.4,1.9-2.9,3.7-4.4,5.5
		c-2.4,3.1-4.2,6.4-5.1,10.3c-0.5,2.2-1.3,4.4-3.5,5.7c-0.5,0.3-0.7,0.8-1,1.3c-1.1,2.1-2.7,3.7-4.6,5.1c-1.3,1-2.7,1.6-4.3,0.6
		c-0.8-0.5-1.8-0.5-2.6,0c-1,0.6-2,1.1-3.1,0.2c-0.5-0.4-0.8,0-0.9,0.5c-0.4,1.4-0.7,2.8-1.1,4.2c-0.2,1.1-0.1,2.1,0.6,3.1
		c0.9,1.2,0.8,2.7,0.5,4.2c-0.3,1.3-0.8,2.6-1.4,3.7c-2,3.5-2.6,7.3-2.9,11.3c-0.6,7.9,0,15.8,0.6,23.7c0.5,6,0.5,11.9,1.1,17.9
		c0.2,2.1,0.8,4,1.9,5.8c1,1.7,1.8,3.5,2.2,5.4c0.4,1.8,1.5,2.8,3,3.5c0.5,0.3,1,0.5,1.3,0.9c2.3,2.9,5.9,4.1,8.7,6.3
		c0.3,0.2,0.6,0.4,1,0.4c2.7,0.1,4.8,1.4,6.7,3.1c0.4,0.4,1,0.6,1.7,0.3c1.6-0.7,2.9-1,4.5,0.5c0.9,0.8,2.7,1.4,4.3,1.6
		c1.1,0.2,2.4,0.3,2.5,1.9c0,1.6-1.1,2.2-2.4,2.4c-1.2,0.3-2.5,0.4-3.7,0.7c-0.3,0.1-0.8-0.1-0.9,0.3c-0.1,0.4,0.3,0.6,0.6,0.8
		c0.6,0.4,1.8,0.1,1.6,1.3c-0.2,1.2-1.1,1.7-2.2,1.9c-0.9,0.1-1.8,0.2-2.1,1.3c-0.1,0.2-0.3,0.5-0.5,0.5c-3.1,0.1-5.3,3.4-8.8,2
		c-0.5-0.2-1-0.1-1.5-0.2c-0.3,0.3-0.2,0.5-0.1,0.8c0.3,0.8,1.1,1.6,0.4,2.3c-0.7,0.8-1.7,0.4-2.6,0.1c-1.5-0.4-3-1.3-4.1-2.2
		c-0.9-0.7-1.4-2.4-2-3.6c-0.4-0.9-0.9-1.2-1.7-1.3c-1.8-0.2-3.5-0.6-4.3-2.7c-0.5-1.2-1.8-2-3.1-2.3c-1.5-0.4-2.8-1.3-4.3-1.8
		c-0.6-0.2-1.3-0.4-1.5-0.9c-0.9-1.8-2.9-2.2-4.3-3.4c-0.7-0.6-1.2-0.6-2,0.2c-2.3,2.3-4.7,1.9-6-1.2c-1.4-3.3-1.1-6.6,0.5-9.8
		c0.6-1.2,1.7-1.9,3-2c0.8-0.1,1.6,0,2.3-0.2c1.4-0.4,2.5-1,2.4-2.8c-0.8-11.3-1.8-22.5-3.1-33.7c-0.7-6-0.9-12-1.3-18.1
		c-0.2-2.5-0.3-5-1.2-7.5c-0.6-1.5-1-3.4,1.3-4.2c0.8-0.3,0.5-1,0.2-1.5c-1-2-1.2-4.3-1.7-6.4c-0.5-1.9,0.1-3.8,1.7-5.1
		c0.9-0.8,0.8-1.3,0.1-1.9c-1.3-1.1-1.5-2.4-1.1-4.1c0.4-2.1,0.4-4.3,1.2-6.4c0.8-2.2,2.2-3.8,4.1-4.5c1.7-0.7,2.3-2,2.8-3.3
		c1-2.5,1.6-5,0.7-8c-2.9-9.2-7.7-17.2-14.1-24.3c-0.5-0.5-1-1.1-1.5-1.5c-1.2-0.9-1.9-0.6-2.2,0.9c-1.4,5.8-1.5,11.7-2.3,17.5
		c-0.5,3.4-0.8,6.8-1.8,10.1c-0.4,1.2-1.5,1.4-2.5,1.8c-0.6,0.2-1.1,0.1-1.3,0.9c-0.6,1.8-1.9,1.9-3.3,0.2c-0.7,0.7,0,1.8-0.7,2.5
		c-0.4,0.4-0.7,1.1-1.4,1c-0.6,0-0.9-0.6-1.1-1.1c-0.2-0.6-0.4-1.3-0.6-1.9c-0.1-0.4,0.2-1.1-0.6-1c-0.5,0-1,0.4-1.2,1
		c-0.1,0.6-0.2,1.3-0.3,2c-0.1,0.7-0.4,1.3-1.2,1.4c-0.8,0.1-1.2-0.5-1.4-1.2c-0.5-1.8-0.7-3.8-0.2-5.6c0.8-2.8,1.2-5.6,1.2-8.5
		c0-1.8,0.9-3.8,1.9-5.4c2.1-3.5,2.7-7.4,3.9-11.2c0.9-2.8,1.8-5.5,2.2-8.3c0.1-0.5,0.4-1.1,0.7-1.4c1.3-1.3,1.8-2.9,1.8-4.8
		c0-1.1,0.5-2.1,1.4-2.8c1.1-0.9,1.5-2,1.5-3.3c0-1.9,0.1-3.7,0.1-5.6c0-1.4,0.6-2.5,1.8-3.4c3.6-2.5,7.1-2,9.8,1.3
		c1,1.2,1.4,2.6,0.6,3.9c-1.5,2.4-0.6,4.7,0.6,6.6c1.3,2.3,2.4,4.7,3.6,7.1c2.9,5.9,7.6,10.4,11.6,15.6c0.6-0.7,0.6-1.4,0.8-2
		c2.8-13.2,5.5-26.5,5.1-40.1c-0.1-4.2-0.5-8.3-1.4-12.4c-0.9-3.9,0.8-6.5,3.5-8.7c1.5-1.3,4.4-0.3,5.6,2c0.3,0.5,0.4,1,0.7,1.6
		c1.2-0.7,1.5-1.7,0.9-2.8c-2.3-3.9-2.4-8.4-3.3-12.7c-0.3-1.5-0.9-2.9-1.3-4.3c-1.3-4-1.4-7.8,1.2-11.4c1.8-2.5,3.6-5,5.2-7.7
		c1.8-3.1,8.2-2.2,10,1.2c1.5,2.8,1.8,5.8,1.1,8.8c-0.6,2.4,0,4.2,1.9,5.7c1.1,0.9,1.9,2,2.9,3c0.4,0.4,0.8,1,1.4,0.6
		c0.5-0.3,0.3-1,0.2-1.5c-0.3-1.8-1.6-3.1-2.4-4.6c-0.4-0.9-0.7-1.7-0.2-2.5c0.6-0.9,1.5-0.6,2.3-0.5c0.6,0.1,1.2,0.9,1.7-0.3
		c0.3-1,0.8-1.8-0.3-2.5c-1.2-0.7-1.9-1.8-2.6-2.9c-0.6-1.1-0.4-2,0.2-2.9c0.6-0.8,1.5-0.8,2.3-0.4c1.2,0.6,1.4,0,1.3-1
		c-0.2-1.6-0.3-3.3-2.3-3.9c-1-0.3-1.1-1.2-0.9-2.1c0.1-1,0.7-1.6,1.7-1.5c2,0.1,1.7-1,1.3-2.2c0-0.1-0.2-0.2-0.2-0.3
		c0.1-2.2-1-3.2-3-3.5c-0.6-0.1-1.1-0.6-1-1.3c0.1-0.9,0.9-1.2,1.6-1.5c0.7-0.3,1.9,0.2,1.8-1.2c-0.1-1.3-0.5-2.4-1.9-2.7
		C254.4,198.1,254.6,197.1,255.7,195.4z M270.7,274.4c-1.1,1.5-1.8,2.7-2.7,3.8c-2.5,2.8-6.2,2.8-7.3-0.1c-0.7-1.8-1.6-1.6-3-1.3
		c-7.1,1.5-13.3,0.4-17.6-6.1c-0.2-0.3-0.3-0.6-0.6-0.6c-0.4,0-0.5,0.5-0.6,0.8c-0.4,1.9-0.5,3.8-0.1,5.6c0.7,2.9,0,5.5-1.2,8
		c-1.2,2.6-1.9,5.3-2.2,8.2c-0.3,3.7-0.9,7.3-1.6,10.9c-1.5,7.3-2.4,14.6-4.3,21.8c-0.3,1.1-0.3,2.2,0,3.2c0.6,2.6,1.7,5.1,3,7.3
		c1.2,2,1.8,2,4,1.2c2.6-0.9,4.5-2.6,6.4-4.5c6.2-6.1,11.2-13.2,15.8-20.4c2.1-3.3,4.2-6.7,6.3-10c2.1-3.4,4.1-6.8,3.8-11.1
		c-0.1-1.1,0.3-2.2,1.4-2.8c3.1-1.6,3.7-4.4,3.8-7.5c0-1-0.2-1.7-1-2.4C271.8,277.6,270.9,276.4,270.7,274.4z M248,97.3
		c-0.2-3,0.8-3.4-2.4-4.5c-0.5-0.2-0.8-0.5-1.1-0.9c-0.2-0.3-0.2-0.6,0-0.8c0.3-0.3,0.6-0.1,0.8,0c0.4,0.2,0.8,0.5,1.2,0.8
		c0.6,0.4,1,0.9,1.9,0c0.6-0.7,2-1,2.7,0.5c0.3,0.6,0.6,1.3,1.4,1.2c0.8-0.1,0.9-0.9,0.9-1.6c0.1-1.4,0.7-2.3,2.2-2.4
		c0.9-0.1,1.8,0.3,2.6,0.7c1.3,0.6,3.4-0.2,4-1.4c0.1-0.2,0.2-0.5,0-0.6c-1.3-0.6-2.2-2-4-1.8c-2.9,0.5-2.9,0.3-3.5-2.6
		c-0.5-2.4-0.9-5-2.8-6.7c-1.3-1.2-0.9-2.2,0-3.3c0.2,1.9,2.6,2.2,2.6,4.1c0,0.1,0.2,0.2,0.3,0.2c2.3-0.2,2.8,1.4,3.3,3.1
		c0.2,0.6,0.2,1.8,1.4,0.6c0.4-0.4,0.8,0.1,0.9,0.6c0.1,0.6-0.1,1.2-0.3,1.8c-0.3,0.7-0.3,1.4,0.4,1.9c0.7,0.6,1.1,0.3,1.7-0.2
		c1-0.7,2,0,1.6,0.9c-0.5,1.4,0,2.6,0.1,3.9c0.1,0.4-0.3,0.8,0.3,0.9c0.6,0.1,1.1,0,1.3-0.6c0.1-0.4,0.1-0.8,0.1-1.2
		c0-4.9-0.7-9.7-2.1-14.5c-0.5-1.6-1.2-3.1-2.5-4.2c-4.1-3.4-8.3-6.4-13.8-7c-3.9-0.4-7.7-0.5-10.9,2c-4.2,3.3-6.6,7.6-6.9,13
		c-0.1,1.3-0.7,3.2,2.1,2.1c-1,1.6-1.7,3-2.6,4.3c-0.7,1-0.8,2-0.4,3.1c0.7,1.8,0.8,3.8,0.9,5.7c0,1.2,0.1,2.4,0.2,3.6
		c0,0.6,0.3,1.1,1,1c0.9-0.1,2.2-4,1.4-4.5c-2.9-1.7-1-5-2.4-7.1c-0.1-0.2,0.2-0.7,0.4-0.9c0.9-1.2,1.9-2.2,3.3-2.7
		c2.2-0.9,3.3-0.3,3.7,2.1c0.1,0.4-0.2,1.2,0.4,1.2c2.3,0.2,2.9,2.3,4.2,3.6c0.5,0.5,1.5,1.3,0.7,2.1c-0.7,0.8-1.5,1.6-2.8,1
		c-0.8-0.4-0.8,0.2-0.8,0.7c0,0.3-0.1,0.6-0.5,0.7c-0.3,0-0.5-0.3-0.6-0.6c-0.4-1.1-1.1-2-1.2-3.2c-0.5,2.1-0.5,4.2-0.4,6.3
		c0,1,0.5,1.3,1.4,0.8c1.1-0.6,2.1-1.4,3.2-1.9c0.9-0.4,1.9-0.7,1.9,1c0,0.6,0.1,1.6,1.1,1.3c0.8-0.2,0.7-1,0.5-1.7
		c-0.1-0.3-0.7-0.7-0.1-1c0.5-0.2,0.7,0.3,0.8,0.7c0.3,0.7,0.1,1.9,1.1,1.8c1-0.2,0.2-1.4,0.5-2c0-0.1,0.2-0.1,0.2-0.2
		C247.5,96.2,247.2,97.3,248,97.3z M245.3,257.4c-1.5-2.3-3.5-3.1-5.2-2.1c-1.1,0.6-1.2,1.2-0.5,2.1c0.2,0.3,0.3,0.8,0.1,1
		c-0.8,0.6-0.9,1.6-1.4,2.4c-0.4,0.6-1,1-1.9,0.8c-1-0.3-0.7-0.9-0.3-1.5c0.1-0.1-0.1-0.4-0.2-0.5c-1.7-0.7-2-2.3-2.7-3.7
		c-0.4-0.8-1-0.8-1.8-0.3c-1.9,1.2-2.5,2.8-2.4,5c0.1,3.5,0.9,7,1,10.4c0.2,6.2-0.3,12.4-1.1,18.6c-1.7,11.8-4.1,23.5-6.1,35.3
		c-0.9,5.3-1.7,10.6-3.7,15.6c-1,2.5-1.7,5.3-4,6.8c-3,2-4.8,4.3-4.4,8c0.1,0.4-0.3,0.9-0.5,1.4c-0.4,1.5,0.2,2.6,1.7,3.1
		c1.9,0.6,3.9-0.1,4.6-1.8c1.2-3,3.4-4.8,6.2-6.2c0.4-0.2,1-0.5,0.5-1.1c-1.1-1.6-1-2.1,0.9-3.1c0.5,0.4,0,1.2,0.8,1.7
		c-0.1-1.6-0.2-3-0.3-4.7c-0.4,0.5-0.6,0.8-0.7,1c-0.2,0.3-0.2,0.8-0.7,0.7c-0.5-0.1-0.5-0.6-0.6-1c-0.1-0.5-0.2-1.2,0-1.6
		c0.9-2,0.9-4.1,1.3-6.1c0.1-0.4,0.3-0.8,0.5-1.1c1.9-2.1,2.2-4.9,2.5-7.4c0.5-3.9,1-7.7,1.6-11.6c1.7-10.2,3-20.5,4.5-30.8
		c0.5-3.2,0.7-6.4,0.9-9.6c0-0.4-0.2-1.2,0.5-1.1c0.6,0.1,1.1,0.4,1-0.5c-0.1-0.6,0.6-1.6-0.7-1.8c-0.5,0-0.4-0.5-0.4-0.9
		c0-1.1,0-2.3,0.1-3.4c0.1-0.9,0.5-1.5,1.3-0.4c0.7,1,0.9,0.3,1.2-0.3c0.3-0.6,0.1-1.2-0.1-1.7c-0.8-2.3,0.4-4.3,2.8-4.8
		c0.5-0.1,1,0,1,0.6c0.1,0.9,1.5,0.8,1.5,1.8c0.6-1.1,2.9-0.5,2.5-2.8c-0.2-1.5-0.4-2.8-1.5-3.9c-0.3-0.3-0.7-0.7-0.9-1.1
		c-0.2-0.3-0.3-0.7,0-1c0.3-0.3,0.6,0,1,0.1C243.9,256.3,244.2,257.1,245.3,257.4z M231,345.6c0.3-0.2,0.6-0.4,0.8-0.7
		c0.5-0.4,0.9-0.9,1.6-0.7c0.5,0.1,0.5,0.6,0.5,1c0,0.7-0.1,1.3-0.9,1.6c-0.8,0.2-1.4,0.7-1.3,1.7c0.1,0.9,0.7,1.4,1.6,1.5
		c1,0.1,1.6-0.3,1.9-1.3c0.2-0.6,0.5-1.5,1.3-1.1c1.9,1,2.6-0.5,3.6-1.4c1.5-1.3,1.2-4.1,3.9-4.3c-0.3-1.8,1.5-1.5,2.2-2.2
		c1-1,2-2,2.5-3.5c0.7-2.2,1.4-4.6,4.4-4.7c0.2,0,0.4-0.2,0.6-0.4c0.8-1,1.6-1.9,2-3.3c-0.9,1.1-0.9,1.1-2.1,1.1
		c8.4-8.9,15.1-18.8,20-30.1c-1-0.1-1.3,0.8-2.3,0.7c1.9-2.7,2.8-5.7,4.5-8.3c0.1,0.1,0.3,0.1,0.4,0.2c-0.4,1.5-0.9,2.9-1.3,4.4
		c1.7-2.1,3.1-4.4,3.9-7c0.3-1.1,0.8-2.2,1.7-2.9c0.3-0.2,0.9-1.8,1.3,0.1c0.1,0.3,0.5,0.1,0.8,0c0.4-0.2,0.4-0.6,0.3-0.9
		c-0.2-0.5-0.6-0.9-0.7-1.4c-0.1-0.5-0.3-0.9,0.5-1.4c0.9-0.6,2-1.1,2.7-1.9c0.3-0.3,0.5-1,0.4-1.3c-0.7-1.3-0.4-2.1,1-2.6
		c-1.2,0.1-2.5-0.2-2.5,1.5c0,0.3,0.6,0.7,0.1,1.1c-0.6,0.4-1-0.1-1.4-0.5c-0.9-0.7-0.8-2.1-1.5-2.8c-1.1-1.2-1-2.1,0.1-3.2
		c0.3-0.3,1.1-0.9,0.4-1.8c-0.5-0.8-1.1-1-1.9-0.9c-1.9,0.2-3.5,1.2-5.1,2.2c-1.6,1-1.4,2.4-1,3.9c0.9-0.2,0.7-1.3,1.3-1.5
		c0.8,0.4,0.7,1.2,1.1,1.6c0.6-0.4,0.5-1.4,1.2-1.3c0.6,0,0.6,0.8,0.6,1.2c0,0.7,0.6,1.7-0.8,1.7c-0.3,0-0.4,0.2-0.4,0.4
		c-0.3,1.2-0.7,2.3-0.9,3.5c-0.5,3.3-1.7,6.1-4.3,8.3c-0.5,0.4-0.6,0.9-0.7,1.4c-0.2,3.8-2.1,7.1-3.8,10.3
		c-2.8,5.2-6.5,9.9-9.7,14.9c-4.4,6.6-9.8,12.4-14.7,18.6c-2,2.5-4.6,3.7-7.8,4.1C231.2,339.6,229.9,341.4,231,345.6z M244.3,240.4
		c1-1.4,2.5-1.3,3.3,0c0.6,1,1.1,1.8,2.3,2.4c1.1,0.6,1.1,0.1,1.2-0.6c0.1-0.9,0.1-1.7-1.2-1.8c-0.4,0-0.6-0.3-0.4-0.8
		c0.4-0.8,0.7-1.6,1-2.4c0.7-0.2,0.8,1.2,1.4,0.5c0.5-0.6,0.1-1.4-0.4-2c-0.2-0.2-0.5-0.4-0.8-0.5c-1.5-0.4-1.9-1.6-1.9-2.9
		c-0.1-2.2,0.2-4.5,0.6-6.7c0.7-3.3-1-5.9-4.5-7.2c-2.1-0.8-4.4,0.4-6,3c-0.7,1.2-1.5,2.4-2.5,3.3c-3.2,2.8-3.5,6.4-2.4,10.1
		c0.8,3.1,1.4,6.2,1.9,9.4c0.2,1.4,0.5,2.7,0.8,4.1c0.2,1,0.8,1.6,2.1,1.6c1.9-0.1,3.8,1.5,5.8,0.4c0.4-0.2,0.6,0.5,0.7,0.9
		c0,0.9,0.3,1.5,1.3,1.5c0.4,0,0.7,0.3,0.7,0.7c0.4,2.3,1.7,4.4,1.8,6.8c0.1,2,1.4,3.3,2.3,4.9c0.3,0.6,0.7,1.4,1.4,1.3
		c2.3-0.3,1.4,1.1,1.3,2.3c3,0,6,0.5,9,0.1c-0.4-1-1.1-1.2-1.7-1.4c-1.7-0.5-3.2-1.3-5-1.6c-3.1-0.6-5.2-2.3-5.5-5.6
		c-0.1-0.9-0.4-1.8-0.4-2.7c-0.2-3.7-1.9-6.5-4.7-8.8c-0.8-0.6-1.5-1.3-2.2-1.9c-0.4-0.3-0.7-0.7-1.3-0.3c-1.5,1-2.7,0.4-3.9-0.6
		c-0.5-0.4-1.1-0.7-1.1-1.5c0-0.4,0.3-0.7,0.7-0.7c0.8-0.1,1.6-0.2,2,0.7c0.3,0.7,0.8,1,1.4,0.5c1-0.7,1.7-1.5,1.1-3
		c-1.3-3.4-3.2-6.5-3.7-10.2c-0.1-1-0.4-2.1,0-3c1.3-3,2.1-6.4,6.2-6.9c0.6-0.1,1.2-1,1.5,0.2c0.2,0.9,1.7,2.2-0.2,2.8
		c-1.7,0.6-1.1,1-0.2,1.6c0.6,0.4,0.9,1.1,0.4,1.7c-0.6,0.7-1.1,0-1.5-0.3c-0.4-0.3-0.6-1-1.3-0.9c0,0.7-0.2,1.3,0.6,1.7
		c0.6,0.3,0.7,0.8,0.4,1.3c-0.7,1.2-2.5,1.8-3.1,1.6c-1.6-0.6-1,0.5-1,0.9c0.1,1.4,0.9,2.6,1.9,3.2c1.8,0.9,1.3,1.5,0.1,2.5
		C243.9,238.4,244.2,239.2,244.3,240.4z M277.1,247.7c0.5-0.9,0.9-1.7,1.4-2.4c0.3-0.4,0.8-0.5,1.3-0.3c0.1,0.1,0.2,0.4,0.2,0.4
		c-1.7,1.1,0,2.1,0.1,3.2c0.1,0.9,0.4,1,1.2,0.5c0.7-0.5,3.2,1,2.9,1.6c-0.8,1.5-0.1,1.7,1.2,1.8c0.5,0,0.7,0.6,0.9,1
		c1.1,2.2,0.7,4.4-1.1,6.1c-1.4,1.3-3,2-5,2.6c-1.5,0.4-2.6-0.2-3.9-0.1c-0.6,0-0.8-0.3-0.9-0.9c-0.1-0.7,0.1-1.4,0.5-2
		c0.3-0.5,0.7-1.2-0.4-1.2c-1.5,0-1.3-0.8-0.7-1.6c0.6-0.8,1.4-1.5,2.1-2.3c0.2-0.3,0.5-0.6,0.2-1c-0.2-0.3-0.5-0.3-0.8-0.1
		c-1.3,1.3-1.6,0.3-1.8-0.8c-0.1-0.6-0.3-1.1-1-1.1c-0.7,0-1.1,0.5-1.2,1.2c-0.1,0.4-0.1,0.8-0.1,1.3c0,1.7-0.6,2.9-2,3.8
		c-3.2,2-3.7,5.6-5.2,8.6c-0.7,1.4,0.3,2.4,0.7,3.6c0.1,0.3,0.1,0.7,0.1,1.1c0.2,2.2,0.9,2.6,3,1.7c1-0.4,2-0.9,2.4-1.9
		c1.2-3,3.8-4.3,6.6-5.1c3.4-1,5.9-3.6,9.2-4.7c1.5-0.5,1.9-1.7,1.3-3.3c-0.6-1.7,0.4-3.8-1.4-5.2c-0.1-0.1-0.1-0.3-0.1-0.3
		c0.9-1.4-0.3-2.3-0.9-3.2c-1.1-1.5-2-3.2-2.9-4.8c-1.3-2.5-2.9-4.9-5-6.8c-1.1-1-2.4-1.7-4-1.8c-1.4-0.1-2.5,0.9-2.5,2.3
		c0,0.3,0,0.8,0.2,0.8c1.2-0.5,1.7,0.7,2.5,0.9c0.4,0.1,1.3-0.4,1.2,0.5c0,0.7-0.7,0.9-1.4,0.9c-0.2,0-0.5,0-0.7,0.2
		c-1.6,1.8-1.8,0.4-2.1-0.9c-3.2,2.1-5.1,6.3-4.3,9.6c0.7-0.7,0.9-1.6,1.3-2.4c0.3-0.7,0.8-1.3,1.5-0.6c1.1,1.1,1.5,0.7,1.7-0.5
		c0.1-0.4,0.1-0.8,0.5-0.8c0.5,0,0.7,0.4,0.9,0.8c0.4,0.9,0.6,1.7,0,2.6c-0.2,0.4-0.5,0.8,0,1.1c0.5,0.3,0.9,0,1.1-0.6
		c0.1-0.3,0.1-0.7,0.3-1.1c0.3-0.7,0.6-1.4,1.3-1.6C276.7,246.2,276.4,247.4,277.1,247.7z M251.4,192.2c-0.9,0-2-0.2-3,0.1
		c-0.4,0.1-0.9,0.2-0.9,0.7c-0.1,0.5,0.2,0.8,0.6,1.1c0.5,0.3,1,0.5,1.5,0.6c5,1.5,10.9-1.4,12.7-6.3c0.4-1.3,0.9-2.5,1.6-3.6
		c2.8-4.5,3.7-9.7,4.3-14.8c0.3-2.9,1.4-5.3,3.1-7.6c0.3-0.4,0.6-1,1.3-0.4c0.4,0.4,0.8,0.6,1.2,0c0.4-0.6,0.2-1.2-0.2-1.7
		c-0.4-0.6-0.8-0.2-1.2,0.1c-0.6,0.4-1.3,0.6-1.9,1c-2.6,1.8-3.8,4.7-5.6,7.2c-3.8,5.2-7.2,10.9-14.2,12.7c-2.6,0.6-5.2,1-7.7-0.3
		c-0.3-0.2-0.7-0.4-1-0.1c-0.4,0.4-0.2,0.8,0.1,1.1c1,1.4,2.4,2.4,4.2,2.6c2.2,0.3,4.2-0.3,6.1-1.4c2.6-1.4,4.9-3.3,7.3-5.1
		c1.2-0.9,3.1-1.5,3.5-3.4c0-0.3,0.4-0.5,0.7-0.4c0.5,0.2,0.6,0.6,0.6,1c0.2,2.7-0.2,5.3-2.4,7.3c-2.9,2.7-6.3,4.3-10.3,4.6
		c-0.9,0.1-1.9,0-2.7,0.4c-1.1,0.6-1.9,0.4-2.8-0.2c-0.5-0.4-1.4-0.8-1.8-0.2c-0.4,0.7,0.4,1.3,1.1,1.6c1.4,0.8,3,0.7,4.6,0.8
		c0.7,0.1,1.5-0.3,1.8,0.9c0.2,0.7,3,0.4,3.1-0.3c0.2-2.5,2.5-2.7,3.8-4c0.5-0.5,1.2-0.9,1.8-0.5c0.8,0.5,0.2,1.2-0.1,1.8
		C259,191.1,256,192.5,251.4,192.2z M222.9,435.6c-0.2-0.2-0.2-0.4-0.4-0.5c-1-1.1-1-1.1,0-2c0.3-0.3,0.1-0.6,0-0.8
		c-1-1.7-1-3.8-1.8-5.7c-0.4-0.9-0.9-2.1,0.4-2.9c0.3-0.2,0-0.5-0.2-0.7c-0.9-0.7-0.7-1.7-0.4-2.5c0.4-1.1,0.5-1.9,0.1-3.2
		c-0.6-2-1.2-4.2-1.4-6.3c-0.4-5.5-0.9-10.9-0.1-16.4c0.6-4.5,0.2-9,0.3-13.6c0-1.3,0.1-2.7,0.2-4c0.1-0.6,0.2-1.5,1.1-1.4
		c0.5,0,1,0.5,1.1-0.4c0-0.7,0.3-1.5-0.7-1.8c-2.7-1-4.3-3.3-6.1-5.4c-0.6-0.7-1.1-1.5-1-2.5c0.2-1.6-0.9-1.6-1.9-1.7
		c-1.1-0.1-1.9,0.5-1.9,1.5c0,3.3,0.2,6.6,1.5,9.8c0.3,0.7,1,1.6,1.8,1.2c0.8-0.3,0.2-1.3,0.1-1.9c-0.3-1.1-0.9-2.1-0.3-3.3
		c0.2-0.3,0.3-0.7,0.7-0.8c0.5,0,0.5,0.4,0.6,0.7c0.4,1.4,0.9,2.7,2.3,3.3c0.8,0.4,1,1.3,1.1,2.2c0.1,1.6-0.1,3.1-0.5,4.7
		c-0.7,2.2-0.7,4.4,0,6.6c0.8,2.8,0.7,5.6,0,8.4c-0.2,0.8-0.5,1.5-0.3,2.3c0.9,4.8,0.6,9.6,0.8,14.4c0.3,7.7,0,15.5,0.6,23.2
		c0.1,1,0.2,1.9,0.8,2.8c0.4,0.6,0.6,1.5,1.6,1.2c0.8-0.3,1-1,0.8-1.8C221.4,437,221.6,436,222.9,435.6z M219.6,97.5
		c1.4-2.2,1.1-4.5,0.6-6.8c-0.4-2-1.7-2.2-3.3-0.9c-0.3,0.2-0.6,0.5-0.9,0.6c-1.4,0.7-1.6,3.3-0.2,3.5c1.9,0.3,0.8,1.3,0.7,1.8
		c-0.6,2.7-1.4,5.3-1.2,8c0.2,3.1-0.7,6-1.4,8.9c-1.4,6-1.6,12.2-1.9,18.3c0,0.2,0,0.5,0.1,0.7c0.9,1.5,0.4,2.9,0,4.4
		c-0.3,1.1-0.7,2.2-0.9,3.3c-0.3,1.4-0.7,2.5-1.9,3.6c-1.7,1.4-0.7,6.2,1.3,7.3c0.4,0.2,0.9,0.5,1.3,0.1c0.5-0.4,0.3-0.8,0-1.2
		c-0.5-0.6-0.3-1.1,0.3-1.3c1.9-0.5,1.2-1.8,0.7-2.7c-0.6-1.1-0.7-2.1-0.2-3.3c1.2-2.9,1.7-6,1.9-9.2c0.4-7.9,0.2-15.9,2.9-23.6
		c0.2-0.5,0.7-1.4-0.6-1.2c-0.2,0-0.4-0.2-0.4-0.5c0-0.3,0.3-0.6,0.6-0.6c1.7-0.2,1.1-0.8,0.4-1.6c-0.6-0.7-0.9-1.6,0.1-2.2
		c0.7-0.4,0.2-0.7,0.1-1.2c-0.8-2.2,0.3-3.9,1-5.9C219.5,96.3,219,97,219.6,97.5z M208,151.7c-0.5,3.3,1.4,5.6,4.9,6.2
		c1.7,0.3,4.5-2.1,5.2-4.8c-1,1.1-1.8,2-2.6,2.9c-0.4,0.5-0.9,1-1.7,0.9c-0.3,0-0.6-0.2-0.7-0.4c-0.2-0.2-0.1-0.5,0.2-0.6
		c1.7-0.6,1.9-2.4,2.9-3.6c2.4-2.6,5.4-4.3,8.5-5.8c2.1-1,3.8-2.3,5.2-4.1c-1.8,1.1-3.6,2.2-5.4,3.3c-0.1-0.1-0.2-0.3-0.3-0.4
		c2.7-2.2,5.3-4.4,8.7-5.6c0.3-0.1,1-0.2,1-0.3c0-2,2-2.9,2.5-4.6c0.2-0.7-0.9-1-0.3-1.9c1-1.6,0.4-2.3-1.6-2.4
		c-1.3-0.1-2.6,0.7-3.9-0.3c-0.5-0.4-1.3,0-1.4,0.7c-0.2,1.4-0.6,2.9,0.2,4.1c1.2,1.6,0.4,2.3-0.8,3.2c-2.4,1.7-5.1,3-7.4,4.7
		c-2.8,2.1-4.9,5-6.5,8C213.3,153.5,210.5,154,208,151.7z M324.7,224.7c-0.3,0.9-0.2,1.7-1.2,1.6c-0.8-0.2-1.6-0.6-1.6-1.5
		c-0.1-1.5-0.8-2.7-1.7-3.8c-0.3-0.4-0.6-0.8-0.1-1.2c0.8-0.7,0.3-1.1-0.1-1.7c-3.9-5.4-7.8-10.8-11.4-16.5c-0.4-0.6-0.3-1.6-1-1.8
		c-2.5-0.8-3.3-3.2-4.7-5c-0.5-0.7-1.5-2,0.7-2.1c0.5,0,1.4-0.6,1.3-1.5c-0.1-0.6-0.5-1-1.1-0.9c-1.5,0.4-3.2,0.7-4.3,2
		c-1.1,1.4-0.8,2.7,0.5,3.9c5.7,5.2,9.8,11.5,13.6,18.1c1.7,3,3.6,6,5.3,9.1c1.3,2.4,3.2,4.6,4.2,7.1c0.8,2.2,2,2.3,3.9,2.2
		c-0.4-1.7-1-3.3-0.4-4.8c0.3-0.8,0.2-1.1-0.2-1.6C325.8,225.9,325.3,225.4,324.7,224.7z M277.3,156c-0.2-2.7-0.2-5.6-1.6-8.1
		c-1.3-2.4-2.7-4.8-3.7-7.4c-0.9-2.5-2.3-4.8-4.2-6.7c-1.6-1.6-3.5-2.3-5.6-2.4c-1.1,0-3.1,1.3-2.9,2c0.4,1.1,1.5,1.1,2.4,1
		c2.8-0.1,4.2,1.5,5,3.9c0.5,1.4,1.1,2.7,1.8,3.9c0.9,1.5,1.4,3.2,1.6,4.9c0.2,2.2,0.5,4.3,1.6,6.3c1.3,2.5,2.1,5.1,3.1,7.7
		c0.1,0.4,0,1,0.5,1.1c0.5,0.1,0.8-0.4,1.1-0.9C277.3,159.8,277.2,157.9,277.3,156z M234.4,101.1c-0.4,0.8-0.2,1.2,0,1.5
		c1.2,1.9,2.3,3.9,3.1,6.1c0.7,2,1.7,3.9,2.6,5.9c1.1,2.3,2.7,3.4,4.8,3.2c2.2-0.3,4.1-1.2,5.2-3.2c1.2-2,2.5-3.9,3.7-5.8
		c0.6-0.8,1.2-1.6,0.1-2.7c-0.5-0.4-0.2-1.3,0.1-1.9c1.9-3,2.1-6.6,3.4-9.9c0.4-0.9,0-1.3-0.9-1.6c-1-0.3-1.3,0.4-1.4,1.2
		c-0.1,0.8,0,1.7-0.1,2.5c0,0.6,0,1.4-0.5,1.6c-0.7,0.3-0.9-0.6-1.3-1c-0.3-0.2-0.4-0.9-1-0.6c-0.4,0.2-0.4,0.8-0.3,1.2
		c0.2,1.7,0.4,3.5,0.7,5.2c0.1,0.9,0.2,1.8-0.5,2.6c-1.5,2-3.1,4.1-5.1,5.6c-4.1,3-5.8,2.4-8.1-1.1c-0.6-1-1.2-2.1-1.6-3.2
		C236.6,104.9,235.7,103,234.4,101.1z M218,442.3c-0.4-1.4-0.8-2.9-1-4.5c-0.7-4.8-0.7-9.7-1.6-14.6c-1.9-10.8-3.7-21.7-2.8-32.7
		c0.1-1.9,0.2-3.8,0.7-5.7c1-3.8,0-6-2.8-7.5c-0.3-0.2-0.5-0.6-0.9-0.3c-0.5,0.4-0.2,0.8-0.1,1.3c0.7,2.6,2,5,1.8,7.8
		c-0.1,1.2,0.1,2.4,0.1,3.6c0,9.7,0.7,19.4,2.1,29c1.2,8.6,2.7,17.3,1.3,26.1c-0.1,0.6,0,1.2,0.2,1.8c0.5,1.2,1.5,1.3,2.4,0.4
		c0.9-1,0.7-1.7-0.4-2.5c-0.8-0.5-1.2-1.5-0.7-2.4C216.8,441.2,217.3,442.7,218,442.3z M269.4,254.1c-0.1-1.3-0.4-1.7-1.5-1.1
		c-1,0.6-2.1,1-3.1,0.5c-1.2-0.5-1.4,0-1.5,0.9c-0.1,1.1-0.5,1.8-1.8,2c-1.2,0.2-2.3,0.8-3.1,1.8c-0.8,1.1-2,1.5-3.1,2
		c-0.7,0.3-1.8,0.2-1.9,1.3c-0.1,1,0.8,1.6,1.6,2c1.8,1.1,3.9,1.2,5.8,1.9c1.6,0.5,2.7,0,3.4-1.4c1.5-2.8,3.1-5.6,4.6-8.4
		C269.2,255.2,269.3,254.5,269.4,254.1z M240.6,167.8c-1.1,0.8-1.3,1.7-1.2,2.7c0.1,3.4,2.4,5.9,5.8,6.3c3.9,0.5,7.3-1,10.5-3.1
		c1.8-1.2,3.4-2.5,3.7-4.9c0-0.3,0.3-0.7,0.7-0.6c0.9,0.2,1.2-0.5,1.6-1c2.9-3.6,5.6-7.5,9.6-10.5c-1.8-0.4-2.9,0.4-3.8,1.4
		c-2.6,2.8-5.2,5.7-7.8,8.6c-2.8,3-5.9,5.5-9.8,6.7c-2,0.6-3.9,0.7-5.9-0.4C241.7,172,241.2,170,240.6,167.8z M286.9,162.7
		c1.4,0.5,2,1.7,3,2.3c0.2,0.1,0.4,0.5,0.8,0.3c0.3-0.2,0.2-0.5,0.2-0.8c-0.2-2.7-2.6-4.9-5.3-4.9c-0.5,0-1,0.2-1.4-0.5
		c-0.7-1.3-3-2.2-4.4-2c-1.1,0.2-1.4,0.9-1.3,1.8c0,0.8-0.5,1.8,0.7,2.1c1.5,0.3,2.6,1.2,3.8,2.1c0.6,0.4,1.2,0.9,2,0.6
		c1.1-0.5,1.4,0.2,1.3,1c-0.4,3.9,1.1,7.4,2.5,10.8c0.9,2.2,0.9,4.7,1.8,6.9c0.6-0.2,0.5-0.7,0.5-1c0.5-2.9-0.3-5.5-1.4-8.1
		c-0.2-0.5-0.7-1.2-0.3-1.7c0.6-0.7,1.1,0.4,1.7,0.4C290.6,168.5,287.4,166.3,286.9,162.7z M245.5,139.6c-1.5,0.1-2.3,1.1-3.2,1.8
		c-2.2,1.6-2.2,5.4-0.1,6.9c1.3,0.9,2.8,0.9,4.2,0.4c3.2-1,6.7-1.6,9.5-3.3c1.7-1,2.7-0.9,4.3-0.5c2.3,0.5,4.5-0.8,6.6-1.4
		c0.9-0.3,0.7-1.2,0.3-1.8c-0.5-0.8-1.1-0.3-1.4,0.1c-0.8,1.2-1.7,1.3-2.8,0.4c-0.2-0.2-0.6-0.2-0.9-0.2c-3.1,0.2-6.2,0.6-8.9,2
		c-3.1,1.6-6.2,0.8-9.3,0.3c-0.8-0.1-1.4-0.9-1.4-1.7c-0.1-0.9,0.7-1.2,1.3-1.5C244.2,140.9,245,140.6,245.5,139.6z M240.9,150.5
		c-1.4,1.6-1.5,2.6-0.6,4.2c1.4,2.3,3.5,3.5,6.2,3.2c3.2-0.3,6.1-1.5,8.9-2.9c3-1.5,5.7-3.6,9-4.5c1.2-0.3,2.4-0.8,3.6-1.2
		c0.5-0.2,1.2-0.3,1.1-1c-0.2-0.6-1-0.5-1.4-0.4c-2.2,0.6-4.4,1-6.5,2c-4,1.8-7.8,3.9-12.2,4.8c-2.3,0.5-3.1,0.5-5.2-0.4
		C242.2,153.4,241.1,152.4,240.9,150.5z M223.8,94.5c-0.9,0.4-1,1-1.1,1.6c-0.2,2-0.3,4,0.2,5.9c0.8,3.1,0.6,6.2-0.2,9.3
		c-2.1,8.3-4.8,16.5-5.6,25c-0.1,1-0.2,2.1-0.9,2.7c-2.5,1.7-1.3,4.1-1.3,6.3c0,0.8,0.6,1.1,1.4,1c1.1-0.3,2.2-3.4,1.4-4.2
		c-0.7-0.6-0.7-1.2-0.6-1.9c0.5-2.6,0.9-5.2,1.6-7.8c1.5-5.5,3.2-10.8,4.3-16.4C224.4,108.9,223.3,101.8,223.8,94.5z M225.1,359.1
		c-0.1-1.3-0.4-2.9-1.4-4.2c-0.8-1-1.6-1.4-2.9-0.3c-0.8,0.7-1.4,1.4-1.8,2.4c-1.1,2.2-0.6,5.1-2.9,6.8c-0.5,0.4-0.4,1.4,0.4,1.7
		c1.1,0.4,1.7,1.2,2.3,2.1c0.5,0.7,1.2,0.4,1.1-0.2c-0.2-1.2,0.7-2,0.9-2.9c0.4-1.6,1.4-2.3,3.1-2.2c0.4,0,0.5-0.3,0.7-0.5
		C225,361,225.1,360.2,225.1,359.1z M319.4,228.8c-0.4-1.8-1.3-3.2-2.3-4.5c-2.1-2.7-4.3-5.4-6.5-8c-2.8-3.1-4.5-6.7-6-10.6
		c-1-2.7-2.2-5.3-4.6-7.2c-0.2-0.2-0.5-0.4-0.8-0.2c-0.3,0.2-0.3,0.4-0.1,0.7c1.9,4.5,4.2,8.9,6.8,13c3.6,5.6,7.7,10.8,12.2,15.7
		C318.4,228.2,318.7,228.7,319.4,228.8z M240.9,158.9c-2.1,1.7-2,3.9,0.2,5.2c3,1.8,6.4,2.3,9.8,1.7c3.7-0.6,7.1-1.8,8.7-5.6
		c0.4-0.9,1.3-1.2,2.1-1.6c2.6-1.2,4.8-3.1,7.5-4.3c-2.6-0.3-5.5,0.9-7.4,2.3c-3.5,2.7-6.3,6.3-11.1,7.5c-2.7,0.6-5.1,0.6-7.6-0.3
		c-1.4-0.5-2-1.8-2.1-3.3C241,160,241.3,159.4,240.9,158.9z M215.8,132.3c3.6-10.4,5.4-20.9,3.8-31.9c-0.1,8.4-2,16.4-3.7,24.5
		C215.5,127.4,215.6,129.8,215.8,132.3z M265.4,184.5c2.1,0.5,4.3,0.5,6.3,1.1c3.5,1.1,7,1,10.6,0.2c3.7-0.8,5.6-3,5.9-6.1
		c-0.5-0.1-0.6,0.3-0.8,0.6c-1.7,1.8-3.8,2.9-6.3,3c-4.2,0.1-8.3,0.3-12.5,0.4C267.5,183.8,266.4,183.7,265.4,184.5z M295.7,180.1
		c-0.5,0.5-0.8,1.2-1.3,1.4c-1.9,0.8-1.6,2.1-1,3.6c0.3,0.6,0.7,1.3,0.1,2c-1,1.2,0,1.9,0.8,2.2c1.2,0.5,2.6,1.6,3.7,0.2
		c0.7-0.8,1.4-1.9,1.5-3c0.1-0.7-1.4-0.6-2-1.2c-0.3-0.3-0.6-0.6-0.8-0.9c-0.2-0.3-0.3-0.8,0.2-0.9c3.7-0.6,0.3-1.3,0-1.9
		C296.7,181.1,296.2,180.7,295.7,180.1z M244.8,134.6c-0.7,0-1.4,0.3-1.6,1.3c-0.2,1.1,0.8,1.2,1.6,1.3c1,0.2,2,0.1,3,0.3
		c3.5,0.5,6.9-1,10.4-0.3c1.3,0.3,2.7,0.3,4.1,0.7c0.5,0.1,1.2,0.3,1.4-0.3c0.3-0.7-0.4-1.1-0.9-1.4c-0.6-0.3-1.3-0.4-1.9-0.5
		C255.7,135.1,250.4,135.3,244.8,134.6z M253.8,272.5c1,0,1.9,0,2.9,0c0.6,0,1.4,0.2,1.4-0.9c0-0.9-0.4-1.4-1.3-1.4
		c-3.2-0.2-6.3-0.4-9.4-1.7c-1-0.4-2.3-0.5-2.7,1c-0.4,1.5,0.6,2.2,2,2.5C249.1,272.4,251.4,272.5,253.8,272.5z M270.3,174.3
		c2.6-0.4,5.5-0.8,8.3-1.1c1.8-0.2,3.1-1.2,4.4-2.3c0.5-0.4,1.4-0.9,1.1-1.5c-0.6-0.9-1.2,0.2-1.8,0.4c-0.3,0.1-0.6,0.2-0.9,0.3
		c-3.4,1-6.9,1.7-10.5,1.8c-0.4,0-0.9,0-1.2,0.2c-0.7,0.3-0.8,1-0.8,1.7C269,174.4,269.6,174.3,270.3,174.3z M222.7,458.1
		c-0.2,1.3,0.4,1.7,1.2,2c1.4,0.4,2.6,1.3,3.6,2.3c0.8,0.8,0.5,2.7,2,2.5c1.3-0.1,1.1-2,2-2.8c0.8-0.7,0.3-1-0.5-1.1
		c-2-0.2-3.3-1.3-4.2-3.1c-0.4-0.9-1-1.7-1.8-2.2c-0.5-0.3-1-0.6-1.3,0.1C223.3,456.7,223,457.5,222.7,458.1z M270.7,167.8
		c1.8,0.1,3.5-0.2,5.2-0.3c2.1-0.2,4-0.9,5.5-2.4c0.3-0.3,0.8-0.5,0.6-1.1c-0.3-0.8-2.1-1.4-3-1c-2.3,1-4.5,2.6-7,3.3
		C271.3,166.3,270.8,166.8,270.7,167.8z M213.5,443.3c-1.2,0.4-2.2,0.9-3.3,1.2c-3.3,1-4.1,2.5-3.2,5.9c0.6,0.1,0.9-0.8,1.2-0.6
		c1.8,1,1.7-0.8,2.3-1.5c0.4-0.5,0.8-1.6,1.5-1.1c1.5,1,1.4,0,1.5-1C213.6,445.3,213.5,444.4,213.5,443.3z M331,232.8
		c-1.4,0.1-2.7,1.3-4.3,1.6c-0.5,0.1-0.6,0.7-0.5,1.2c0.1,1.8,1.8,3,3.7,2.3c1.2-0.5,2.2-1.3,2.9-2.3c0.5-0.6,0.6-1.3,0.3-2
		C332.6,232.8,331.9,232.9,331,232.8z M286.4,174.2c-2.5,2.8-5.9,3.4-9.3,3.8c-1.4,0.2-2.7,0.4-4.1,0.6c-0.3,0.1-0.7,0.3-0.7,0.7
		c0,0.4,0.4,0.3,0.7,0.4c4.4,1.9,11.2-1.6,13-4.2C286.3,175.2,286.7,174.9,286.4,174.2z M190.3,311.2c0.1-0.5,0.2-1-0.3-1.2
		c-0.5-0.2-1,0-1.3,0.3c-0.8,0.9-1.1,2-1.3,3.1c-0.5,2.4-1.2,4.7-1.9,7.1c-0.4,1.4-1,2.8-1.6,4.2c-0.3,0.8-0.1,1.7,0.9,1.8
		c1,0.1,0.8-0.9,0.8-1.5c-0.2-3.2,1.4-5.8,2.5-8.5C188.8,314.8,189.9,313.1,190.3,311.2z M252.6,133.3c0.4,0,0.9,0.1,1.3,0
		c0.7-0.1,1.8-0.1,1.8-1c0-0.7-1.1-0.5-1.7-0.6c-2.5-0.2-4.9-0.8-6.6-2.9c-0.5-0.7-1.3-1.4-2.1-0.7c-0.8,0.7-0.1,1.6,0.3,2.2
		C247.4,132.8,249.9,133.4,252.6,133.3z M216.6,416.6c0-8.2-0.7-16.4-1.9-24.5C214.3,400.4,215.5,408.5,216.6,416.6z M237.3,458.4
		c-3.7,0.1-6.1-1.4-7.5-4.6c-0.2-0.4-0.5-1-0.9-0.6c-0.8,0.7-2.5,1-1.9,2.6c0.3,0.9,0.3,2.8,2.2,1.4c0.2-0.1,0.6,0,0.9,0.2
		c1.3,0.6,2.6,1.2,3.8,2C235.5,460.4,236.1,460.3,237.3,458.4z M262.6,205.4c0.4-0.7,0.8-1.2,1.1-1.7c0.7-0.9,0.1-1.6-0.2-2.2
		c-0.4-0.8-1.2-1-2-0.8c-0.8,0.1-1.6,0.3-0.8,1.5c0.9,1.4,0.9,2.9-0.2,4.4c-0.2,0.3-0.5,0.7-0.3,1.3c2-0.6,4.1-1.2,6.1-1.9
		c0.6-0.2,1-0.7,0.8-1.4c-0.2-0.7-0.8-1.1-1.6-1c0.1,0.8,0.7,1.6,0,2.1C264.6,206.1,263.6,205.9,262.6,205.4z M220.8,325.1
		c-3-6.7-7.5-12.3-12.6-17.5C211.7,313.9,217,319,220.8,325.1z M233.4,357.4c1.7,0,4.1-1.6,4.8-3.1c0.5-1,0.1-1.3-0.9-1.2
		c-1.7,0.2-3.3,0.4-4.8,1.4c-0.8,0.6-1.3,1-1.1,2C231.8,357.5,232.7,357.3,233.4,357.4z M199.6,77.3c-0.6,0.2-0.9,0.6-1,1.2
		c0,0.7,0.1,1.4,0.9,1.5c1,0.2,1.9,0.7,2.8,1.3c1.5,1,2.9,2.2,4.2,3.5c0.7,0.7,1.3,0.4,1.8-0.2c0.6-0.7,0.4-1.4-0.4-1.8
		c-1-0.6-2.1-1.1-3.2-1.6c-1.8-0.7-3.4-1.6-4.3-3.3C200.2,77.6,200,77.3,199.6,77.3z M220.1,454.4c-0.1,1,0.2,1.9,1.1,2.3
		c0.9,0.3,0.9-0.9,1.4-1.3c0.3-0.3,0.6-0.8,0.9-1.2c1-1.5,0.4-3.3-1.2-4c-1-0.4-1.7,0-1.9,1C220.3,452.3,220.2,453.3,220.1,454.4z
		 M244.5,171.7c1.9-0.7,3.6-1.8,5.1-3.2c0.2-0.2,0.5-0.6,0.1-0.9c-0.3-0.3-0.7,0-1,0.2c-0.4,0.2-0.6,0.9-1.4,0.6
		c-1.8-0.8-3.4-0.2-4.3,1.4c-0.3,0.5-0.4,1,0,1.5C243.3,171.6,243.8,171.7,244.5,171.7z M261.2,216.8c3.5-0.6,3.5-0.6,3.6-3.4
		c0-1.2-1.4-3.2-2.6-3.5c-0.3-0.1-0.6-0.1-0.8,0.2c-0.2,0.3-0.1,0.6,0.1,0.8C263.3,212.9,262.3,214.8,261.2,216.8z M260.4,219.2
		c2.2,2.1,2.5,4.3,1.5,6.7c-0.2,0.4-0.9,1,0.1,1.2c0.6,0.1,1.7,0.4,1.8-0.6c0-1.3,0.9-2.1,1.5-3.1c-0.6-0.6-2.8-0.3-0.8-1.7
		c0.2-0.2,0.2-0.6,0-0.6C263.1,220.8,262.5,218.9,260.4,219.2z M249.5,107.7c-0.1,0,0.1,0,0.1-0.1c0-1.1,0.4-1.9,1.3-2.6
		c0.2-0.1-0.1-0.8-0.6-1c-0.7-0.2-1.2,0.3-1.4,0.8c-1,2.2-2.8,3.4-4.9,4.3c-1.2,0.5-1.3,1.2-0.7,2.3c0.2,0.3,0.6,0.5,0.7,0.1
		c0.2-1.3,0.8-1.6,2-1c0.2,0.1,0.5-0.1,0.5-0.4c0.1-0.7,0.1-1.2,1-0.6c0.5,0.4,0.4-0.3,0.5-0.6C248,108.2,247.4,106.6,249.5,107.7z
		 M220.2,444.9c1.9-1.2,2.5-0.5,2.6,1.2c0,0.4,0.1,0.9,0.4,1.2c0.5,0.6,1.3,0.6,1.6-0.2c0.4-1,0.5-2.5-0.4-3c-1.6-0.9-1-1.4,0.2-2
		C221.5,441.2,220.9,441.6,220.2,444.9z M249.7,124.4c0.6-1,1.1-2,2.6-1.1c-0.7-1.3-1.1-2.3,0.6-2.2c0.6,0,0.5-0.5,0.7-0.9
		c0.3-0.6-0.3-0.6-0.5-0.9c-1-1-2.4,0.1-3.5-0.7c-0.2-0.2-0.7,0.3-0.7,0.7c-0.1,0.7,0.4,0.7,0.9,0.8c0.4,0,1-0.3,1,0.4
		c0,0.6-0.4,0.5-0.9,0.3c-0.6-0.3-0.7,0.4-0.7,0.7C248.9,122.4,249,123.3,249.7,124.4z M286.3,156.1c0.4-0.6-0.6-1-0.3-1.3
		c1.3-1.6-0.5-1.5-1.1-1.7c-1.6-0.5-3.3-0.8-4.9-1.1c-0.6-0.1-1.5-0.6-1.6,0.5c-0.1,0.9,0.8,1,1.4,1.1
		C282.1,153.9,284.3,154.8,286.3,156.1z M249,468c0.7-0.1,1.7,0.1,1.9-0.8c0.1-0.8-0.9-0.8-1.5-1.1c-0.9-0.5-1.8-1-2.5-1.8
		c-0.3-0.4-0.7-0.7-1.2-0.5c-0.6,0.3-0.6,0.9-0.5,1.4C245.3,466.8,246.9,468,249,468z M262.6,236.5c0.3-1-0.2-1.9,0.4-2.4
		c1.8-1.4,0.3-2.1-0.5-2.7c-0.6-0.5-1.2-0.8-1.9-1.6c0.4,2.4,0.8,4.6-1.1,6.4c-0.3,0.3-0.2,0.6,0.1,0.7c0.3,0.2,0.7,0.2,0.8-0.2
		C260.8,234.9,261.7,235.8,262.6,236.5z M204.3,285.3c0-1.1-3-3.4-4-3.1c-0.7,0.2-1,0.6-0.7,1.5c0.5,1.2,1.2,2,2.5,2.6
		c0.5,0.2,0.8,0.4,1.3,0.3C204,286.4,204.2,285.9,204.3,285.3z M282.1,147.9c-0.2-0.5-0.5-0.9-0.4-1.1c1.1-1.6-0.3-1.6-1.2-1.7
		c-0.8-0.1-1.7,0-2.5,0.1c-0.7,0.1-1.6,0.2-1.6,1.1c0,0.9,0.8,1.1,1.5,1.2C279.3,147.8,280.6,147.8,282.1,147.9z M199.4,72.2
		c0.9,0,1.7-0.2,1.8-1.1c0.1-1.1-0.9-0.9-1.4-0.7c-1.7,0.4-2.7-0.6-3.7-1.7c-0.5-0.6-1-0.7-1.5,0c-0.4,0.6-0.7,1.4,0.1,1.7
		C196.2,71.2,197.9,71.7,199.4,72.2z M349.4,228.4c0.5,0,1,0.1,1.4,0.1c1.1-0.2,0.7-1.1,0.7-1.7c0-0.5-0.4-1-1-0.6
		c-2,1.5-4.5,1.6-6.8,2.2c-0.5,0.1-1,0.3-0.8,0.9c0.2,0.8,0.7,0.4,1.1,0.2C345.8,228.7,347.6,228.5,349.4,228.4z M276.6,138.2
		c-1.1-0.2-1.8,0-2.4,0.5c-0.9,0.6-0.9,1.9,0,2.1c1.5,0.4,3,0.3,4.5,0.1c0.4,0,0.8-0.4,0.7-0.9c-0.1-0.6-0.5-0.6-0.9-0.6
		c-0.4,0-0.7,0.1-1.1,0.1C276.3,139.7,275.5,139.7,276.6,138.2z M205,58.5c-0.1,0-0.2-0.1-0.3-0.1c-1.8-0.2-3.3,1.3-5.2,0.8
		c-0.3-0.1-0.7,0.6-0.6,1.2c0.1,0.8,0.7,1.3,1.5,1.4c0.5,0.1,1.3,0,1.2-0.5c-0.5-1.7,0.9-1,1.4-1.1C204,60,205,60,205,58.5z
		 M236.4,466.2c0-0.9-2.3-3.2-3-3.3c-0.5,0-0.9,0.3-1.2,0.7c-0.4,0.5,0,0.9,0.4,1.2c0.6,0.5,1.2,1,1.4,1.8c0.1,0.4,0.2,1.3,0.7,0.9
		C235.3,467.2,236.3,467,236.4,466.2z M338,234.1c-0.4,0.3-0.8,0.5-1.1,0.7c-0.6,0.4-1.9,0-1.6,1.2c0.3,1,1.4,0.5,2.2,0.6
		c0.3,0,0.7-0.1,0.8-0.2c0.8-0.8,1.5-0.9,2.2,0c0.3,0.3,0.7,0.2,0.9-0.1c0.3-0.4,0.5-0.8,0.4-1.3c0-0.1-0.3-0.3-0.3-0.3
		C340.3,235.3,339.1,235,338,234.1z M240.1,472.9c-0.4-1.9-1.7-2.7-2.1-4c-0.2-0.7-0.5-1.2-1.4-1.1c-0.6,0.1-1,0.4-1.2,0.9
		c-0.3,0.8,0.2,1.3,0.7,1.7C237.3,471.2,238.6,471.9,240.1,472.9z M261.5,223.9c-0.1-0.1-0.1-0.3-0.2-0.5c-0.9-1.9-3-1.1-4.4-2
		c-0.2-0.2-0.4,0.1-0.3,0.2c0.3,1.1,1.1,1.8,1.8,2.7c0.3,0.3,0.6,0.6,0.9,0.8C260.2,225.5,261.6,224.8,261.5,223.9z M253.2,465.2
		c0.2,0,0.8,0.1,1-0.5c0.1-0.3-0.1-0.5-0.3-0.6c-1.2-0.6-2-1.7-3-2.6c-0.4-0.4-0.8-0.5-1.2-0.1c-0.3,0.4-1,0.9-0.5,1.4
		C250.2,464,251.2,465.3,253.2,465.2z M246.3,469.3c-0.4-0.7-1-1.2-1.8-1.4c-0.8-0.2-1.4-0.5-1.8-1.4c-0.2-0.4-0.5-1-1.1-0.6
		c-0.7,0.4-1.1,1.1-1,2c0.1,0.5,0.3,1,0.9,0.9c0.8-0.2,1.4,0.3,2,0.5C244.5,469.5,245.3,469.8,246.3,469.3z M219,447.9
		c-0.8,0.7-1.6,1.3-2.7,1.5c-0.8,0.1-1.6,0.2-1.6,1.3c0,0.6,0.3,1,0.8,1.3c0.9,0.4,1.8,0.2,2.3-0.6C218.4,450.4,219,449.3,219,447.9
		z M344.9,236.5c-0.6,0-0.9,0-1.1,0c-0.5,0.1-0.6,0.5-0.6,1c0,0.5,0,1,0.5,1.3c0.3,0.2,0.7,0.3,0.8,0c0.9-2,2.1-0.5,3.1-0.3
		c0.6,0.1,1.2,0.4,1.9,0.6c0.5,0.1,1.1-0.1,1.1-0.6c0-0.5-0.6-0.5-1-0.5c-1.2,0.1-2.2-0.2-3.2-0.9
		C345.9,236.6,345.2,236.6,344.9,236.5z M202.1,63.7c-0.4,0.2-1,0.3-0.7,0.9c0.2,0.4,0.4,0.8,0.1,1.2c-0.6,0.8-0.2,1.3,0.6,1.6
		c0.7,0.3,1.6,1,2.3,0.4c0.6-0.6-0.4-1.1-0.5-1.7c-0.2-0.6-0.4-1.1-0.6-1.7C203,64,202.6,63.7,202.1,63.7z M253.3,240.4
		c0.2,1.4,0.7,2,1.2,2.6c0.3,0.4,0.7,1.1,1,0.8c0.5-0.4,1.5-0.5,1.5-1.3c-0.1-1.6,0.9-1.1,2-0.6c-0.7-1.1-0.8-2.2-1.7-2.3
		c-1-0.1-0.8,1-1,1.6c-0.4,0.8-0.9,0.9-1.6,0.4C254.4,241.4,254.1,241.1,253.3,240.4z M355.4,227.7c1.4-0.2,2.3-1.4,3.5-1.9
		c0.3-0.1,0.3-0.7,0-1c-0.3-0.4-0.7-0.2-1,0c-1.1,0.7-2.3,1-3.6,1c-0.4,0-0.9,0.1-0.9,0.6c0,0.5,0.3,0.8,0.7,0.9
		C354.6,227.5,355,227.6,355.4,227.7z M247.7,458.8c-0.5-1.3,0.4-1.5,1.2-1.6c0.7-0.1,1.4-0.1,2.1-0.2c0.5,0,1.2,0.1,1.2-0.5
		c0-0.8-0.8-0.5-1.3-0.4c-1.1,0.2-2.1,0.1-3.2-0.1c-0.6-0.1-1.4-0.5-1.8,0.2c-0.4,0.8,0.3,1.3,0.8,1.8
		C247,458.4,247.4,458.6,247.7,458.8z M352,241.7c0.8-1.5,1.4-1.5,2.4-0.8c0.9,0.7,2,1.2,3.1,0.5c0.2-0.1,0.4-0.4,0.5-0.7
		c0-0.4-0.4-0.4-0.7-0.4c-1.2,0.1-2-0.6-3-1C352.3,238.6,351.9,238.9,352,241.7z M182.6,328.8c-0.4,0.9-0.2,1.7-0.2,2.5
		c0.1,0.8-0.4,1.5-0.6,2.2c-0.1,0.2,0,0.6,0.2,0.6c0.4,0,0.9-0.1,1.1-0.4c1-1,1.2-2.4,1.3-3.7C184.5,329.1,183.1,329.6,182.6,328.8z
		 M322.6,233.8c-0.7,0-1.2,0-1.2,0.8c0,0.9,1.5,2.9,2.3,2.7c1.2-0.2,0.9-1.4,1-2.1C324.9,233.6,323.3,234.2,322.6,233.8z
		 M200.1,64.3c0-0.2-0.1-0.5-0.1-0.7c-1.5,0.1-3,0.2-4.6,0.4c-0.5,0.1-1.1,0.2-1.2,0.9c-0.1,0.5-0.1,1,0.4,1.3
		c0.5,0.4,1.1,0.2,1.5-0.1C197.3,65.1,198.5,64.4,200.1,64.3z M270,151.8c-1.9-0.5-3.8-0.6-5.7-0.2c-0.4,0.1-0.7,0.4-0.6,0.8
		c0,0.5,0.5,0.6,0.9,0.7C266.4,153.2,268.3,153.1,270,151.8z M245.1,454c-1.1-1-2.4-1-3.6-1.2c-2-0.4-3.8-1-5.1-2.6
		c-0.3-0.3-0.4-0.9-0.9-0.5c-0.5,0.4,0.1,0.8,0.3,1c2.3,2.4,5.6,2.7,8.6,3.6C244.5,454.5,244.7,454.2,245.1,454z M236.8,350.5
		c1.4,0.2,2.6-1,3.8-0.1c0.1,0,0.4-0.3,0.5-0.4c0.7-0.8,1.3-3.6,0.9-4.9C242.2,348.7,239.1,349.1,236.8,350.5z M242.3,460.4
		c0.5-0.1,0.6,0.3,0.9,0.5c0.6,0.5,1.1,1.1,1.7,1.6c0.4,0.4,0.9,0.3,1.3-0.1c0.3-0.4,0.1-0.7-0.2-0.8c-1.3-0.4-2-1.4-2.8-2.4
		c-0.4-0.5-0.9-0.8-1.5-0.4c-0.5,0.3-0.8,0.7-0.6,1.3C241.3,460.9,241.8,460.8,242.3,460.4z M195.8,305.2c-0.3-1.3,0.8-2.9-1.1-3.6
		c-0.6-0.2-1.3-0.2-1.6,0.7C192.5,304.5,194.1,304.7,195.8,305.2z M233,144c-0.4,2.5,1.7,5.5,4.6,6.9C236.7,148.2,233.9,147,233,144
		z M255.5,230.5c0.8,1.5,1.5,2.4,2.4,3.2c0.4,0.3,0.8,0.7,1.2,0.1c0.4-0.7,0.5-1.5,0.2-2.3c-0.3-0.7-0.9-0.3-1.4-0.2
		C257.1,231.4,256.5,231,255.5,230.5z M222.8,377.6c0.9-2.5,1.4-4.7,1.3-6.9c0-0.4-0.1-0.8-0.5-0.8c-0.8,0.1-1.4,0.7-1.8,1.3
		c-0.3,0.4,0,0.7,0.4,0.8c2,0.5,1.2,1.9,0.9,3C222.9,375.6,222.4,376.2,222.8,377.6z M253.3,459.3c0,0.8,0,1.8,0.9,2
		c1,0.2,0.1-1,0.6-1.3c0.3-0.2,0.5-0.5,0.8-0.7c0.7-0.4,0.6-0.8,0-1.2c-0.5-0.3-0.8-1.1-1.5-0.7
		C253.3,457.7,253.3,458.5,253.3,459.3z M235.8,139.9c1.4,0.2,2.3-0.4,2.9-1.5c0.6-1.3,1.2-2.5,0.2-3.9c-0.3-0.4-0.6-1.2-1.2-0.7
		c-0.7,0.5,0.3,0.6,0.5,1c0.1,0.1,0.2,0.3,0.2,0.5C238.1,137,238.3,139.1,235.8,139.9z M258.8,238.5c1.6,1.3,3.4,2,5.6,1.9
		c0.4,0,1,0,1.1-0.5c0.1-0.6-0.6-0.6-1-0.7C262.6,238.8,260.6,239.3,258.8,238.5z M203.6,299.7c-0.5-0.8,0.1-2.3-1.4-2.8
		c-0.5-0.2-1,0.6-0.8,0.9c0.5,1-0.3,2.6,1.4,3C203.5,300.9,203.7,300.5,203.6,299.7z M181.2,342.3c0.5-1.3,1-2.7,1.5-4
		c0.2-0.5-0.3-0.7-0.8-0.8c-0.6-0.1-1,0.2-1,0.7C180.7,339.5,180.5,340.9,181.2,342.3z M244.2,457.3c0.5,1.9,3.2,4.1,4.4,4
		c0.4,0,0.8-0.2,1.1-0.6c0.2-0.3,0.2-0.7-0.2-0.7C247.3,460.3,246,458.9,244.2,457.3z M235,284.5c1.3-2.2,2.1-5.6,1.9-7.4
		C235.9,278.1,234.9,282,235,284.5z M186.3,342c0.2-1.5,0.7-2.9,1.2-4.2c0.2-0.5,0.2-1.1-0.6-1.2c-0.6-0.1-1.1,0.2-1.1,0.9
		C185.9,339,185.7,340.5,186.3,342z M235.8,91.9c-1.6,1.1-1.9,2.5-2.8,3.5c-0.4,0.4-0.3,1.1,0.3,1.4c0.7,0.5,0.6-0.4,0.9-0.7
		C235.4,95.1,235.2,93.6,235.8,91.9z M259.3,212.6c-0.4,0.4-1.7-0.3-1.5,0.8c0.1,1,1.2,1.5,2.2,1.6c0.9,0.1,1.3-0.7,1.3-1.4
		C261.2,212.4,260.1,212.8,259.3,212.6z M220,65.2c-0.4,2.4,0.5,4.3,0.2,6.2C221.7,67.6,221.5,67.9,220,65.2z M241.7,464
		c-1.2-0.8-2.1-1.6-2.9-2.6c-0.3-0.4-0.8-0.6-1.3-0.3c-0.5,0.3-0.3,0.7-0.2,1.1c0.1,0.4,0,1.1,0.8,0.8c0.7-0.2,1.1,0.3,1.5,0.7
		C240.1,464.2,240.6,464.6,241.7,464z M308.3,208.4c0.3,2.5,2.9,6.4,4.4,7.1C311.1,213,309.7,210.7,308.3,208.4z M215.6,83.7
		c-0.2,0-0.4,0-0.5,0.1c-0.7,0.2-1.3,0.4-1.5,1.2c-0.2,0.6,0.1,1.1,0.6,1.4c0.9,0.6,0.8-0.6,1.3-0.7c0.2-0.1,0.3-0.1,0.5-0.2
		c0.5-0.1,1-0.2,0.9-0.9C216.7,83.8,216.2,83.7,215.6,83.7z M264.7,93.4c0.4-0.1,1.1,0.3,1.5-0.5c0.1-0.1,0-0.4,0-0.5
		c-0.5-0.3-1,0.3-1.5,0.3c-1,0-2.2,0.4-2.1-1.3c0-0.3,0-0.8-0.6-0.6c-0.5,0.2-0.9,0.6-1.2,1c-0.3,0.4,0,0.6,0.4,0.8
		C262.2,93.1,263.3,93.4,264.7,93.4z M273.9,134.7c-0.4-0.4-0.8-0.6-1-0.9c-0.5-0.9-1.7-1.3-2.5-0.6c-0.3,0.3-0.6,0.9-0.1,1
		C271.4,134.5,272.4,135.7,273.9,134.7z M255.6,124.2c-2.2-0.8-3.7,0.7-5.6,1.3C252,125.7,253.9,125.3,255.6,124.2z M186.7,334.8
		c1-1.3,0.6-2.9,0.9-4.4c0-0.3-0.3-0.5-0.6-0.5c-0.5,0-0.6,0.3-0.6,0.7C186.3,331.9,186.1,333.4,186.7,334.8z M221.5,84.2
		c-0.5-1-1.6-1.1-2.5-1.5c-0.3-0.2-0.7,0.1-0.8,0.5c-0.1,0.6,1.7,2,2.5,2C221.1,85.2,221.4,84.8,221.5,84.2z M228.3,451.3
		c-0.1-0.8-0.7-0.9-1.3-0.9c-0.8,0-1.3,0.4-1.2,1.2c0.1,0.6,0.1,1.4,0.9,1.3C227.6,452.9,228,452.2,228.3,451.3z M191,329.3
		c-0.2,0-0.3,0-0.5,0c-0.4,1.1-0.8,2.1-1.1,3.2c-0.1,0.4-0.3,1,0.3,1.2c0.5,0.1,0.7-0.3,0.9-0.7C191,331.7,191.1,330.5,191,329.3z
		 M221.3,59.7c-1,0.9-1.1,2.1-1.2,3.3c-0.1,0.4,0,0.9,0.5,1c0.5,0,0.7-0.4,0.7-0.9C221.4,62,221.3,60.9,221.3,59.7z M257.6,197.8
		c0.8-0.2,1.3-0.6,1.3-1.5c0-0.5-0.1-1.1-0.8-0.9c-0.8,0.2-1.6,0.7-1.7,1.6C256.3,197.6,256.9,197.8,257.6,197.8z M258.5,203.3
		c-0.5,0.3-1.9-0.1-1.8,0.8c0.1,1,1.4,0.7,2.3,0.9c0.6,0.1,1.1-0.2,1.1-0.9C260.1,203,259.3,203.4,258.5,203.3z M212.5,85.8
		c-0.2-0.6,0-1.5-1-1.5c-0.6,0-1.1,0.6-1.1,1.3c0.1,0.7,0.3,1.5,1.2,1.6C212.3,87.2,212.6,86.6,212.5,85.8z M191.1,315.3
		c1.1-1,1.6-2.1,1.9-3.2c0.1-0.3,0.1-0.8-0.3-0.9c-0.4-0.2-0.7,0.2-0.8,0.5C191.5,312.7,191,313.7,191.1,315.3z M269.3,129
		c-1.1-0.2-2.2-0.1-3.2,0.2c-0.3,0.1-0.7,0.3-0.6,0.8c0.1,0.4,0.5,0.5,0.9,0.5C267.6,130.6,268.3,129.6,269.3,129z M188.8,322.7
		c-0.2,0-0.3-0.1-0.5-0.1c-0.4,1-0.8,2-1.2,3.1c-0.1,0.4-0.2,0.9,0.3,1c0.6,0.2,0.9-0.3,1-0.8C188.6,324.9,188.7,323.8,188.8,322.7z
		 M344.9,226.5c1.1-0.1,2.1-0.3,3.2-0.4c0.5-0.1,0.9-0.3,1.1-0.8c0.1-0.3-0.1-0.6-0.3-0.7c-0.4-0.2-0.9,0-1.2,0.2
		C346.8,225.5,345.8,225.8,344.9,226.5z M213.7,53.7c-1,0.8-2,0.4-3,0c-0.5-0.2-1,0-1.1,0.6c-0.1,0.5,0.3,0.7,0.8,0.7
		C211.6,55.1,212.9,55.1,213.7,53.7z M220.2,458c-0.4-0.9-0.7-1.8-1.1-2.7c-0.2-0.4-0.4-0.8-0.9-0.6c-0.5,0.2-0.5,0.7-0.3,1.1
		C218.1,456.9,219,457.6,220.2,458z M241.9,98.8c-0.2-0.7-0.5-1.3-1.2-1.4c-0.9,0-0.8,0.8-1,1.4c-0.1,0.5,0,1,0.7,0.9
		C241.1,99.7,241.8,99.6,241.9,98.8z M240.2,456.2c-0.5,0.2-1.5-0.2-1.4,0.6c0.1,0.5,0.2,1.6,1.1,1.5c0.7-0.1,1.6-0.6,1.6-1.4
		C241.6,456,240.7,456.4,240.2,456.2z M243.3,129.7c-1-1.9-1.9-2.2-4.2-1.5C240.5,128.9,241.7,129.7,243.3,129.7z M203.3,57.3
		c1.2-0.7,2.2-0.9,3.3-1.1c0.5-0.1,1.5-0.3,1.1-1.1c-0.4-0.8-0.8,0.2-1.3,0.3c-0.5,0.1-0.9,0.2-1.4,0.3
		C204.3,55.8,203.5,55.9,203.3,57.3z M203.9,74.9c-0.8-0.8-0.9-2.1-2.1-2.4c-0.3-0.1-0.7,0.4-0.6,0.8c0.2,1.2,1.2,1.5,2.2,1.8
		C203.4,75.1,203.5,75,203.9,74.9z M215.8,386.1c-0.1,1.8,0.1,3.5,0.9,5C217,389.4,216.6,387.7,215.8,386.1z M221.9,78.6
		c-0.1-0.6,0-1.6-0.9-1.6c-0.7,0-0.7,0.9-0.6,1.4c0,0.6-0.2,1.5,0.8,1.5C221.8,79.9,221.9,79.3,221.9,78.6z M204.1,303
		c-0.4-0.6-0.9-1-1.5-0.9c-0.7,0.1-1.2,0.4-1.2,1.1c0,0.6,0.5,1.1,1,1C203.1,303.9,203.6,303.4,204.1,303z M222.2,74.1
		c-0.1-0.7-0.6-0.8-1.1-0.7c-0.7,0.1-1.5,0.2-1.6,1.1c0,0.3,0.5,0.9,0.6,0.7C220.8,74.7,221.8,74.9,222.2,74.1z M337.5,232.7
		c0.6-0.1,1.5,0,1.4-0.9c0-0.7-0.7-0.7-1.2-0.6c-0.6,0.1-1.6-0.1-1.6,0.9C336.1,232.8,336.9,232.6,337.5,232.7z M209.5,59.9
		c-0.5-0.9-1.1-1.1-1.7-1.2c-0.5,0-0.8,0.1-1,0.6c-0.1,0.3-0.2,0.7,0,1c0.3,0.4,0.6,0,0.9-0.1C208.3,60.2,208.8,60.1,209.5,59.9z
		 M248.9,180.1c1.3,0.2,2.2-0.2,3-0.7c0.4-0.3,0.6-0.6,0.3-1.1c-0.3-0.4-0.7-0.4-1.1-0.1C250.5,178.8,249.8,179.3,248.9,180.1z
		 M364.7,225.1c-1.1-0.4-2.3-0.6-3.4-0.2c-0.2,0.1-0.3,0.5-0.1,0.6c1.1,0.7,2.2,0.4,3.3-0.2C364.6,225.4,364.6,225.3,364.7,225.1z
		 M244.3,245.2c0.4-0.3,0.6-0.4,0.8-0.5c1-0.5,0.5-1.3,0.4-2c-0.1-0.3-0.3-0.7-0.6-0.5c-0.7,0.3-0.6,1.1-0.7,1.7
		C244.2,244.2,244.3,244.6,244.3,245.2z M229.6,348.7c-0.7,2-0.3,2.5,1.8,2.3C231.1,350.1,230.5,349.3,229.6,348.7z M193,332.1
		c0.5-1.3,1.3-2.5,0.4-4.2C192.6,329.5,193,330.8,193,332.1z M189.5,339.3c0.5-1,0.8-1.6,1.1-2.2c0.2-0.4,0.2-0.7-0.2-0.9
		c-0.5-0.2-0.8,0-1,0.5C189.2,337.4,189.2,338.2,189.5,339.3z M227.8,127.8c1.4,0.4,2.1,0.2,2.9,0c0.3-0.1,0.8-0.2,0.8-0.6
		c0-0.5-0.5-0.6-0.9-0.6C229.4,126.3,229.1,127.5,227.8,127.8z M279.5,290.8c1-0.5,1.6-1.2,2-2c0.2-0.4,0.2-0.9-0.2-1.1
		c-0.6-0.3-0.7,0.2-0.8,0.6C280.4,289.1,279.5,289.6,279.5,290.8z M249.2,162.6c1-0.9,0.8-1.9,0.5-2.9c-0.1-0.2-0.4-0.3-0.6-0.1
		c-0.6,0.8-0.4,1.7-0.3,2.6C248.9,162.3,249.1,162.4,249.2,162.6z M209.3,312.1c-0.6-1.7-1.1-2.9-2.6-3.8
		C207.1,310,207.9,310.9,209.3,312.1z M198.5,295.6c0.3,0.8,1.1,0.7,1.2,0.5c0.4-0.9,0.5-1.9,0.8-2.9c-0.2,0-0.4-0.1-0.4-0.1
		C199.5,294,199.5,295.1,198.5,295.6z M244,178.1c-0.5,0-1.1-0.2-1,0.4c0.1,0.7,0.7,1,1.4,1.1c0.5,0,1.2,0,1.2-0.5
		C245.6,178,244.5,178.4,244,178.1z M331.9,231.7c0.5,0,1.1,0.2,1.1-0.6c0-0.6-0.3-1-1-1c-0.6,0.1-1.4,0.1-1.4,0.8
		C330.6,231.7,331.4,231.5,331.9,231.7z M250.8,246.2c-0.8,0.5-1.9,0.5-2.4,1.4c0,0.1,0.4,0.5,0.6,0.5
		C250.2,248.1,250.5,247.3,250.8,246.2z M261.3,162c-0.6,0.1-1.3-0.1-1.3,0.8c0,0.4,0.2,0.9,0.7,0.9c0.7-0.1,1.2-0.6,1.4-1.2
		C262.2,161.9,261.6,162,261.3,162z M258.9,198.6c1.5,0.1,2.7-0.1,3.3-1c0.4-0.5-0.5-1-1-1.5C261.2,197.4,261.2,197.4,258.9,198.6z
		 M209.7,454.8c0.7-0.1,1.3-0.3,1.5-1c0.1-0.4-0.2-0.8-0.6-0.6c-0.6,0.2-1.4,0.5-1.7,1C208.6,454.5,209.2,454.8,209.7,454.8z
		 M340.3,229.3c-1.4-0.5-2.4-0.5-3.9-0.1C337.8,229.8,338.8,230,340.3,229.3z M267.6,217c-1.4-0.1-2.4-0.4-3.5,0.4
		C265.3,218,266.3,218,267.6,217z M229.6,447.9c-0.2,1.3-0.4,2.2,0.6,2.7c0.1,0.1,0.6,0,0.6-0.2
		C231.2,449.4,230.3,448.8,229.6,447.9z M194.6,334.3c-0.6,0.2-0.6,0.7-0.6,1.2c0,0.4-0.2,1.2,0.4,1.2c0.6,0,0.6-0.8,0.7-1.3
		C195.1,335,195.1,334.6,194.6,334.3z"/>
	<path d="M243.7,91.2c-1.1-0.4-1.7-0.9-2-1.8c-0.1-0.2-0.4-0.5-0.2-0.6c2.1-0.9,0.2-1.7-0.1-2.5c-0.2-0.6-0.9-1.2-0.2-1.9
		c0.5-0.5-0.1-0.7-0.2-1.1c-0.9-2.2-0.4-3.5,1.9-4.1c2-0.6,4.1-0.7,6.1-0.4c1.7,0.2,2.5,1.6,2.9,3.1c0.5,2.1,0.2,4.1-1.4,5.7
		c-1.1,1.1-2.5,1.5-4.1,1.5C245.1,89.1,243.1,88.3,243.7,91.2z"/>
	<path d="M237.4,80c-0.1,0.6-0.1,1.9-0.9,1.6c-0.8-0.3-2.3-0.2-2.3-1.6c0-1.2,1.2-1.3,2.2-1.4C237.4,78.5,237.3,79.3,237.4,80z"/>
	<path d="M249.3,74.1c-0.3,0.9-0.4,1.4-0.5,1.9c-0.1,0.4-0.4,0.9-0.7,0.7c-1.3-1.1-2.9-0.2-4.7-1C245.5,75.1,247.2,74.7,249.3,74.1z
		"/>
	<path d="M235.2,72.8c0.2-0.6,0.3-1.4,1.1-1.4c0.5,0,0.6,0.5,0.5,1c-0.2,0.7-0.3,1.6-1.2,1.6C235.1,74,235.3,73.2,235.2,72.8z"/>
	<path d="M213.9,357.4c-0.6,0-1.1-0.1-1.1-0.8c0-1.6-0.1-3.1,0.2-4.7c0.1-0.6,0.4-1.1,0.9-1.5c0.3-0.2,0.6-0.5,1-0.2
		c0.3,0.2,0.2,0.6,0.1,0.8c-0.6,1.6-0.7,3.2,0.3,4.8C215.8,356.8,215.1,357.4,213.9,357.4z"/>
	<path d="M274.8,261.9c0.1,1.6-0.3,1.9-2,1.1c-1-0.5-1.7-0.9-2.6,0.1c-0.6,0.6-1,0-0.9-0.7c0.2-1.2,1-2.2,1.6-3.2
		c0.2-0.3,0.6-0.4,1-0.2c0.3,0.2,0.6,0.5,0.8,0.4C275.5,258.6,274.4,261,274.8,261.9z"/>
	<path d="M233.7,133c-0.3,1-0.4,2.2-1.8,2.2c-0.7,0-0.8-0.7-0.6-1.2c0.3-1,0.3-2.3,1.7-2.4C233.7,131.5,233.7,132.3,233.7,133z"/>
	<path d="M248.6,111.7c-0.4,1.7-1.7,2.6-2.3,3.8c-0.3,0.6-1,0-1.3-0.4c-0.5-0.7-0.5-1.4,0.3-1.9
		C246.3,112.7,247.4,112.3,248.6,111.7z"/>
</g>
</svg>
