<?xml version="1.0" encoding="UTF-8"?><svg id="a" xmlns="http://www.w3.org/2000/svg" width="595.276" height="841.89" viewBox="0 0 595.276 841.89"><path d="M245.447,689.778c-25.142,0-45.454-16.161-58.544-28.316-.658-.61-1.991-1.559-3.402-2.562-10.12-7.195-31.178-22.169-22.787-59.47,6.854-30.472,16.203-54.378,29.419-75.234,2.53-3.993,5.392-7.951,8.16-11.779,7.032-9.725,13.673-18.909,15.235-28.412,6.249-38.014,24.585-56.492,56.056-56.492,7.17,0,15.263.979,24.053,2.91,4.307.946,9.171,1.406,14.872,1.406,5.833,0,11.974-.478,17.912-.94,3.722-.29,7.571-.589,11.354-.774,7.248-.354,12.713-.573,17.559-.573,11.882,0,21.086,1.3,27.385,7.642,9.193,9.257,9.489,26.106,9.255,60.304-.001.206-.014.412-.036.616-9.876,89.561-47.645,149.681-115.465,183.796-10.395,5.229-20.833,7.88-31.023,7.88h-.002Z" fill="#fb8dff" stroke-width="0"/><path d="M269.583,433.512c6.865,0,14.449.943,22.767,2.771,5.238,1.151,10.656,1.546,16.16,1.546,9.767,0,19.803-1.245,29.559-1.722,6.623-.323,12.333-.566,17.266-.566,29.695,0,31.003,8.812,30.64,61.904-7.521,68.202-33.132,139.322-112.198,179.093-10.017,5.039-19.42,7.24-28.33,7.24-20.262,0-37.962-11.392-54.461-26.713-6.362-5.907-33.244-17.085-24.418-56.318,5.847-25.994,14.292-50.708,28.634-73.339,8.776-13.85,21.77-27.354,24.248-42.429,5.859-35.642,22.002-51.468,50.134-51.466M269.584,421.512s0,0,0,0c-17.427,0-31.547,5.364-41.97,15.946-10.108,10.263-16.652,25.17-20.006,45.573-1.333,8.106-7.571,16.734-14.176,25.869-2.821,3.901-5.738,7.935-8.367,12.084-13.597,21.457-23.195,45.965-30.205,77.129-3.934,17.486-2.199,32.728,5.154,45.304,6.151,10.518,14.827,16.687,20.01,20.373,1.011.719,2.395,1.703,2.798,2.071,13.83,12.842,35.371,29.917,62.624,29.917,11.137,0,22.483-2.867,33.722-8.521,38.443-19.337,68.066-47.537,88.047-83.816,16.106-29.242,26.143-63.484,30.686-104.682.045-.41.069-.821.072-1.233.246-35.884-.119-53.619-10.998-64.572-3.832-3.858-8.66-6.434-14.761-7.874-4.51-1.065-9.716-1.54-16.881-1.54-4.969,0-10.514.222-17.852.581-3.87.189-7.762.492-11.527.785-6.093.474-11.847.922-17.447.922-5.262,0-9.706-.414-13.584-1.266-9.34-2.052-17.63-3.05-25.341-3.05h0Z" fill="#231f20" stroke-width="0"/><path d="M292.352,436.958c-66.478,0-134.378-9.2-207.58-28.125-28.137-7.273-61.415-24.537-60.16-65.474,1.175-38.343,35.303-48.084,60.223-55.196,44.047-12.573,77.27-40.314,101.565-84.807,13.014-23.832,25.645-40.503,39.75-52.464,17.904-15.182,37.946-22.562,61.271-22.562,6.107,0,12.514.529,19.044,1.571,26.07,4.16,48.556,17.741,61.691,37.261,30.391,45.162,144.145,88.733,172.945,97.929l1.62.515c10.461,3.311,13.232,4.531,29.212,19.478,2.402,2.248,3.785,5.421,3.793,8.707,0,0,.003,1.244.001,1.303-1.474,56.394-37.469,97.703-101.353,116.32-58.166,16.949-119.411,25.545-182.02,25.545h-.004Z" fill="#2aff55" stroke-width="0"/><path d="M287.421,134.33c5.728,0,11.758.484,18.098,1.496,24.024,3.834,45.354,16.4,57.659,34.686,33.337,49.541,158.405,94.645,176.098,100.295,10.8,3.449,12.148,3.309,28.558,18.658,1.201,1.123,1.888,2.697,1.892,4.341l.003,1.129c-1.353,51.78-33.024,92.064-97.034,110.717-59.992,17.482-120.168,25.306-180.345,25.306-68.789,0-137.578-10.224-206.078-27.933-29.617-7.656-56.75-24.091-55.665-59.481,1.013-33.04,28.83-41.892,55.873-49.611,47.814-13.648,81.388-44.121,105.184-87.701,21.569-39.499,48.818-71.901,95.756-71.901M287.421,122.33c-56.383,0-86.419,41.765-106.288,78.15-23.485,43.01-55.524,69.804-97.946,81.913-15.08,4.304-29.584,8.845-41.276,17.012-14.888,10.4-22.726,25.126-23.297,43.77-.61,19.897,6.188,36.502,20.204,49.353,10.706,9.816,25.661,17.256,44.452,22.114,73.7,19.053,142.091,28.315,209.082,28.315,63.182,0,124.989-8.675,183.702-25.785,66.596-19.407,104.124-62.707,105.672-121.924.003-.116.004-.231.004-.347l-.003-1.129c-.015-4.935-2.09-9.699-5.695-13.071-16.232-15.182-19.64-17.064-31.501-20.817l-1.604-.509c-26.658-8.513-140.663-52.274-169.793-95.563-14.061-20.895-38.016-35.415-65.724-39.837-6.841-1.092-13.567-1.646-19.989-1.646h0Z" fill="#231f20" stroke-width="0"/><path d="M404.687,363.738c-.732,5.522-6.513,16.553-19.244,22.887-13.687,6.81-26.621,2.444-35.207-7.711-11.252-13.309-21.717-12.633-36.824-7.512-33.98,11.521-63.625,1.04-88.331-23.822-2.998-3.017-2.831-9.178-4.131-13.882,3.712-.547,8.141-2.699,11.033-1.408q82.263,36.72,139.867-29.882c2.053-2.374,4.716-4.221,7.095-6.313.447,2.686,2.181,6.101,1.138,7.944-8.945,15.796-1.588,22.654,13.029,28.125,9.651,3.612,12.859,13.156,11.574,31.575ZM391.514,375.51c-2.704-3.052-5.213-6.308-8.148-9.12-9.248-8.86-18.043-19.903-33.103-12.308-5.642,2.846-6.478,8.172-1.946,13.182,9.974,11.026,20.7,19.593,36.494,10.17,1.926-1.149,4.387-1.401,6.499-2.227,2.281-7.081,5.713-14.024,6.585-21.275,1.494-12.423-7.805-17.124-17.709-19.996-5.517-1.599-12.81-3.029-15.271,3.893-4.111,11.565,8.844,9.635,13.516,14.117,7.086,6.798,11.903,13.924,13.084,23.564Z" stroke-width="0"/><path d="M337.083,260.206c-3.874,11.974-3.186,29.386-20.6,29.952-12.243.398-16.271-12.725-15.108-23.622,1.515-14.197,8.44-27.117,24.442-27.266,11.839-.11,10.305,11.825,11.266,20.937Z" stroke-width="0"/><path d="M280.918,280.704c-1.904,7.199,2.41,21.197-11.969,19.395-12.921-1.62-18.246-13.256-18.165-26.244.066-10.691,4.018-19.013,16.192-17.938,14.757,1.304,13.991,13.033,13.942,24.787Z" stroke-width="0"/></svg>