<?xml version="1.0" encoding="UTF-8"?><svg id="a" xmlns="http://www.w3.org/2000/svg" width="595.276" height="841.89" viewBox="0 0 595.276 841.89"><path d="M130.563,728.15c-3.545,0-7.256-.878-11.029-2.608-21.434-9.832-23.687-31.408-23.517-46.782.425-38.464,10.557-77.512,30.977-119.374,15.532-31.845,14.376-56.845-3.866-83.595-7.648-11.216-16.504-21.931-25.067-32.293-17.594-21.287-35.786-43.299-45.801-71.894-.423-1.208-.888-2.433-1.357-3.67-3.193-8.424-7.567-19.961.576-30.848,5.425-7.253,12.885-10.779,22.807-10.779,3.769,0,7.592.471,11.185.951,16.414,2.198,31.64,8.504,46.364,14.602,16.545,6.853,32.173,13.324,49.224,14.379,1.209.074,2.224.11,3.103.11,4.635,0,6.792-.323,9.329-7.994,2.874-8.687,5.75-17.563,8.531-26.148,11.327-34.963,23.04-71.116,37.996-105.023,17.984-40.771,33.369-45.998,44.763-45.998,12.295,0,25.505,7.415,42.819,24.039.079.07.155.143.229.218.384.384.714.817.981,1.29.943,1.669,1.992,3.495,3.085,5.354,3.859,6.565,7.258,17.105,10.257,26.404,1.294,4.013,2.517,7.803,3.626,10.808.076.205.14.415.193.627l.249.982c6.194,24.049,11.844,48.62,17.308,72.383,3.085,13.416,6.275,27.289,9.522,40.893.069.289.197.645.393,1.089.202.444.365.981.456,1.534l2.237,14.011,20.097,1.825c.24.003.481.02.725.053.479.063.958.127,1.438.163,4.162.303,8.517.45,13.31.45,10.55,0,21.575-.742,32.237-1.459,10.879-.731,22.128-1.488,33.118-1.488,27.343,0,47.197,4.845,64.374,15.707.832.525,1.243.971,3.524,3.44.815.882,1.83,1.98,2.243,2.39.406.402.752.86,1.028,1.36h0c9.019,14.888,11.864,27.347,8.723,38.118-4.826,16.548-22.128,25.039-40.446,34.029l-2.999,1.474c-25.326,12.489-51.929,20.021-77.657,27.303l-4.411,1.25c-19.917,5.65-32.909,14.902-38.616,27.5-6.154,13.585-4.082,31.396,6.158,52.938,3.297,6.937,6.763,13.962,10.114,20.756,8.401,17.032,17.089,34.646,24.117,52.821.461,1.192.957,2.425,1.465,3.69,5.261,13.097,13.211,32.889-3.763,46.043-9.38,7.268-19.156,10.953-29.055,10.953h0c-11.484,0-22.489-4.935-32.709-14.665-36.42-34.675-67.166-62.944-96.757-88.966-11.059-9.726-20.319-14.452-28.309-14.452-10.57,0-20.539,8.588-31.372,27.027-5.442,9.263-10.41,19.223-15.215,28.854-10.394,20.836-21.141,42.381-37.843,59.673-1.499,1.551-2.97,3.256-4.527,5.062-6.261,7.258-13.357,15.483-24.565,15.483Z" fill="#ceff2a" stroke-width="0"/><path d="M284.781,177.185c10.988,0,23.445,7.732,38.787,22.487.006.006.013.007.018.012.958,1.697,2.025,3.553,3.136,5.444,5.114,8.701,9.719,26.211,13.427,36.25.079.317.163.651.26,1.024,9.67,37.544,17.803,75.469,26.805,113.174.173.724.434,1.423.736,2.11.014.032.024.066.03.101l2.913,18.243c.032.2.196.353.398.372l24.927,2.263-.05-.022c.595.078,1.191.155,1.789.198,4.54.331,9.126.467,13.751.467,21.516,0,43.789-2.947,65.353-2.947s42.472,2.955,61.168,14.779c.309.195,3.647,3.927,4.75,5.02.005.009.005.018.01.027,24.074,39.529-3.53,51.206-32.134,65.312-26.239,12.94-53.57,20.365-81.051,28.161-45.164,12.813-57.66,43.722-36.239,88.786,11.548,24.294,24.33,48.018,34.054,73.165,5.111,13.217,14.372,31.397-.378,42.826-8.143,6.31-16.716,9.697-25.381,9.697-9.566,0-19.243-4.129-28.572-13.011-31.837-30.312-64.043-60.205-96.932-89.126-12.138-10.674-22.66-15.947-32.271-15.947-13.306,0-24.866,10.11-36.546,29.988-17.198,29.271-28.495,62.855-52.2,87.397-7.527,7.792-14.005,18.714-24.776,18.714-2.573,0-5.392-.624-8.528-2.062-16.705-7.663-20.21-23.9-20.018-41.262.462-41.864,12.674-80.531,30.37-116.811,15.413-31.599,16.386-59.269-4.301-89.605-23.374-34.277-55.66-61.381-70.163-102.79-3.231-9.226-8.779-19.395-1.639-28.94,4.953-6.622,11.185-8.373,18.003-8.373,3.348,0,6.839.423,10.387.898,33.343,4.465,62.021,26.921,96.015,29.021,1.231.076,2.386.123,3.474.123,7.489,0,11.748-2.204,15.025-12.11,14.534-43.935,27.823-88.7,46.32-130.635,12.718-28.832,24.704-42.422,39.273-42.42M284.782,165.185c-10.683,0-20.502,4.809-29.185,14.296-7.153,7.816-14.045,19.357-21.069,35.281-15.081,34.188-26.842,70.491-38.216,105.599-2.778,8.575-5.651,17.441-8.518,26.11-.748,2.261-1.343,3.324-1.634,3.759-.331.054-.95.119-1.998.119-.754,0-1.649-.033-2.733-.1-16.051-.992-31.23-7.278-47.3-13.933-15.08-6.245-30.673-12.703-47.863-15.005-3.792-.508-7.841-1.004-11.979-1.004-11.944,0-20.976,4.312-27.612,13.185-10.118,13.526-4.861,27.394-1.382,36.57.471,1.242.915,2.414,1.304,3.524,10.369,29.608,28.909,52.04,46.839,73.734,8.867,10.729,17.243,20.863,24.735,31.85,8.798,12.902,13.249,25.302,13.607,37.908.339,11.961-2.989,24.939-10.177,39.675-20.818,42.679-31.148,82.566-31.583,121.939-.13,11.814,1.32,21.012,4.566,28.945,4.364,10.668,11.917,18.526,22.449,23.357,4.564,2.094,9.116,3.155,13.531,3.155,13.956,0,22.714-10.152,29.108-17.564,1.501-1.74,2.918-3.383,4.299-4.812,17.344-17.956,28.301-39.921,38.897-61.163,4.979-9.981,9.681-19.408,15.019-28.492,9.515-16.195,18.085-24.067,26.199-24.067,6.377,0,14.569,4.36,24.346,12.958,29.539,25.975,60.229,54.194,96.582,88.805,11.374,10.829,23.771,16.32,36.846,16.32,11.262,0,22.274-4.109,32.731-12.211,6.383-4.947,13.731-14.013,12.486-29.117-.715-8.682-4.106-17.122-6.83-23.904-.498-1.241-.984-2.45-1.436-3.619-7.125-18.426-15.872-36.16-24.332-53.311-3.342-6.775-6.797-13.781-10.076-20.678-9.447-19.873-11.503-35.984-6.112-47.886,4.944-10.915,16.648-19.058,34.788-24.204l4.387-1.243c25.994-7.357,52.873-14.965,78.696-27.7.998-.492,1.995-.981,2.988-1.469,18.68-9.168,37.996-18.647,43.563-37.735,3.634-12.462.593-26.472-9.297-42.819-.542-.955-1.212-1.831-1.993-2.604-.32-.316-1.41-1.497-2.062-2.202-2.475-2.679-3.222-3.487-4.72-4.435-23.314-14.745-48.363-16.636-67.581-16.636-11.191,0-22.541.763-33.518,1.502-11.049.743-21.486,1.445-31.835,1.445-4.648,0-8.861-.142-12.879-.435-.285-.021-.753-.082-1.094-.127-.383-.051-.765-.082-1.144-.096l-15.265-1.386-1.496-9.369c-.164-1.03-.461-2.045-.882-3.01-.047-.106-.074-.173-.089-.212-3.232-13.539-6.409-27.357-9.482-40.721-5.473-23.802-11.133-48.415-17.347-72.543-.089-.343-.165-.648-.238-.938-.106-.424-.235-.842-.386-1.252-1.066-2.887-2.27-6.62-3.545-10.572-3.094-9.594-6.601-20.467-10.794-27.602-1.021-1.737-2.041-3.508-3.033-5.264-.624-1.105-1.42-2.104-2.356-2.96-18.48-17.728-32.952-25.637-46.897-25.639h0Z" fill="#231f20" stroke-width="0"/><path d="M247.927,417.253c3.443-9.18,3.21-23.655,16.124-25.836,7.528-1.272,11.781,7.558,10.97,15.836-1.143,11.662-4.921,22.506-17.393,24.393-8.424,1.275-8.839-6.27-9.7-14.394Z" stroke-width="0"/><path d="M304.82,424.63c1.36-9.642,3.853-18.295,12.908-17.563,8.945.722,13.017,9.049,12.859,18.456-.159,9.463-4.241,17.507-13.764,17.135-10.54-.412-9.629-11.388-12.003-18.027Z" stroke-width="0"/><path d="M280.383,514.635c-5.536.07-11.701-1.931-9.057-6.051,9.784-15.246,27.234-14.302,41.415-20.34,1.163-.495,5.354,4.124,5.319,4.179-9.502,14.757-25.855,15.094-37.677,22.212Z" stroke-width="0"/></svg>