<?xml version="1.0" encoding="UTF-8"?><svg id="a" xmlns="http://www.w3.org/2000/svg" width="595.276" height="841.89" viewBox="0 0 595.276 841.89"><path d="M244.308,735.46c-.852,0-1.727-.073-2.603-.218-8.904-1.474-12.128-17.965-12.904-22.984-5.996-38.76,3.422-75.376,12.53-110.787,3.155-12.27,6.419-24.957,8.954-37.456.354-1.744.801-3.541,1.232-5.278,2.879-11.57,2.863-15.607-2.835-18.327-.974-.465-1.846-.7-2.592-.7-2.823,0-5.97,3.888-9.013,7.647-1.735,2.144-3.529,4.36-5.544,6.243-20.788,19.431-35.88,43.971-50.475,67.702-8.047,13.085-16.367,26.614-25.619,39.3-1.163,1.595-2.367,3.288-3.611,5.038-10.968,15.42-24.617,34.61-42.729,34.61-5.492,0-10.906-1.823-16.092-5.419-6.236-4.323-9.945-9.71-11.023-16.011-2.255-13.173,7.65-26.888,16.391-38.987,2.778-3.849,5.403-7.482,7.442-10.812,6.353-10.378,14.035-19.949,21.465-29.205,4.302-5.36,8.751-10.902,12.827-16.47.603-.824,1.059-2.013,1.464-3.375-.57-.042-1.119-.068-1.639-.068-.953,0-1.705.087-2.299.265-8.037,2.41-16.184,5.099-24.062,7.699-9.734,3.212-19.8,6.534-29.877,9.407-.982.28-2.025.423-3.101.423-3.353,0-6.516-1.369-9.307-2.576-1.254-.542-2.438-1.055-3.432-1.356-1.965-.597-3.489-2.157-4.038-4.137-.55-1.979-.048-4.102,1.328-5.626.725-.803,1.477-1.821,2.271-2.899,2.188-2.966,4.667-6.327,8.63-8.04,39.622-17.129,61.358-48.53,68.404-98.823,4.799-34.244,11.562-68.714,18.104-102.049,2.425-12.357,4.933-25.136,7.301-37.707.031-.161.068-.322.111-.481l4.242-15.411c.035-.125.073-.249.115-.371,13.577-39.188,28.417-72.096,45.368-100.602.166-.278.354-.543.562-.791l10.972-13.074c.276-.329.587-.628.927-.891,3.125-2.414,6.229-4.855,9.332-7.297,21.251-16.715,43.226-33.999,71.446-42.021,10.691-3.039,21.468-4.517,32.946-4.517,15.818,0,32.271,2.747,53.349,8.908.189.055.376.12.56.193l10.768,4.34c.262.106.517.23.762.372,44.93,25.993,93.411,59.243,99.955,125.14,4.992,50.269-3.641,97.314-24.964,136.053-17.334,31.493-23.066,62.356-17.523,94.354,4.611,26.624,17.019,54.59,39.045,88.013,12.017,18.234,22.17,35.291,31.041,52.144,2.635,5.006,1.936,10.847,1.319,15.999-.238,1.994-.464,3.878-.487,5.541-.027,2.014-1.064,3.879-2.76,4.967-.981.629-2.108.949-3.239.949-.824,0-1.65-.17-2.427-.513-1.54-.681-3.092-1.338-4.644-1.995-3.455-1.464-7.029-2.979-10.514-4.766-41.968-21.527-68.631-58.059-94.415-93.388-3.334-4.567-6.781-9.29-10.198-13.894-3.937-5.302-8.208-10.208-12.767-10.208-1.121,0-2.289.276-3.568.844-3.731,1.657-6.633,4.989-2.635,18.045,5.398,17.625,11.562,35.397,17.522,52.584,5.434,15.669,11.053,31.871,16.109,48.001.56,1.785,1.27,3.784,2.022,5.9,4.21,11.842,11.256,31.661-5.333,38.28-2.995,1.195-6.06,1.801-9.108,1.801-7.48,0-14.862-3.678-21.348-10.637-4.837-5.191-9.268-12.337-12.476-20.123-9.355-22.71-18.166-46.039-26.686-68.601-5.636-14.925-11.464-30.358-17.386-45.44-4.14-10.541-7.392-15.894-13.679-15.894-.201,0-.404.005-.611.015-5.239.261-7.014,3.984-9.388,14.341-.19.828-.376,1.639-.564,2.419-10.76,44.459-26.655,88.331-48.594,134.122-.365.761-.729,1.56-1.1,2.374-2.936,6.448-7.373,16.191-17.613,16.191Z" fill="#2aff55" stroke-width="0"/><path d="M345.88,155.028c17.477,0,34.578,3.672,51.666,8.667l10.768,4.34c47.687,27.589,90.892,59.143,96.989,120.539,4.602,46.347-2.237,92.575-24.249,132.565-38.465,69.881-17.272,129.327,21.767,188.563,11.02,16.721,21.422,33.931,30.741,51.636,2.574,4.891.23,12.37.143,18.662-4.955-2.192-10.033-4.144-14.846-6.613-46.056-23.625-73.028-65.774-102.534-105.518-4.549-6.128-10.152-12.632-17.583-12.632-1.879,0-3.877.417-6.003,1.36-11.188,4.967-8.362,17.37-5.938,25.286,10.354,33.804,23.066,66.881,33.643,100.622,3.823,12.196,13.478,31.512.191,36.813-2.365.944-4.663,1.374-6.885,1.374-12.787,0-23.007-14.26-28.274-27.045-15.507-37.64-29.152-76.043-44.035-113.948-3.537-9.008-8.036-19.702-19.264-19.702-.298,0-.602.008-.909.023-11.747.585-13.415,12.783-15.486,21.341-11.165,46.135-27.712,90.235-48.173,132.941-3.03,6.324-6.004,15.159-13.302,15.159-.518,0-1.059-.045-1.622-.138-3.618-.599-6.941-11.425-7.955-17.982-7.866-50.846,11.629-97.781,21.435-146.133,2.128-10.494,8.141-23.99-4.898-30.214-1.874-.894-3.587-1.285-5.175-1.285-8.064,0-12.857,10.088-18.655,15.507-32.916,30.766-50.845,72.201-76.844,107.851-10.614,14.553-24.604,37.182-41.492,37.182-4.059,0-8.287-1.308-12.674-4.349-22.22-15.404,3.494-39.755,14.508-57.747,9.806-16.02,22.862-30.027,34.017-45.263,2.449-3.344,2.926-8.131,4.311-12.254-3.064-.095-6.29-.734-9.325-.734-1.393,0-2.745.134-4.023.518-18.041,5.41-35.757,11.921-53.861,17.083-.466.133-.952.192-1.456.192-3.315,0-7.365-2.571-10.994-3.673,2.912-3.224,5.202-7.886,8.829-9.454,45.524-19.679,65.299-55.919,71.965-103.496,6.551-46.759,16.606-93.027,25.358-139.478l4.243-15.412c11.961-34.525,26.147-68.04,44.855-99.499l10.972-13.075c24.454-18.895,47.681-39.462,78.75-48.294,10.617-3.018,21.025-4.288,31.304-4.288M345.88,143.028c-12.04,0-23.353,1.552-34.586,4.745-29.358,8.345-51.805,26-73.512,43.074-3.046,2.396-6.196,4.873-9.294,7.267-.68.526-1.302,1.123-1.855,1.782l-10.972,13.075c-.416.496-.791,1.024-1.122,1.58-17.16,28.857-32.167,62.125-45.88,101.704-.085.245-.162.493-.231.743l-4.243,15.412c-.087.318-.162.639-.223.963-2.364,12.548-4.869,25.314-7.292,37.66-6.557,33.414-13.337,67.966-18.158,102.374-3.296,23.524-9.694,42.263-19.558,57.289-10.66,16.237-25.473,28.293-45.285,36.857-5.45,2.356-8.703,6.767-11.079,9.988-.704.955-1.37,1.857-1.895,2.438-2.753,3.049-3.756,7.294-2.657,11.252,1.099,3.958,4.145,7.079,8.076,8.273.667.203,1.748.67,2.792,1.122,3.161,1.367,7.095,3.069,11.689,3.069,1.632,0,3.229-.219,4.746-.652,10.196-2.907,20.322-6.249,30.114-9.48,4.073-1.344,8.217-2.712,12.376-4.051-1.742,2.202-3.497,4.389-5.228,6.545-7.547,9.403-15.352,19.125-21.905,29.83-1.919,3.135-4.479,6.68-7.19,10.433-9.431,13.057-20.12,27.856-17.439,43.512,1.361,7.948,5.909,14.654,13.519,19.929,6.21,4.305,12.774,6.487,19.511,6.487,21.207,0,36.472-21.462,47.617-37.132,1.252-1.761,2.435-3.424,3.57-4.979,9.391-12.877,17.775-26.51,25.883-39.693,15.048-24.47,29.262-47.582,49.46-66.461,2.319-2.167,4.246-4.548,6.11-6.851,1.294-1.598,3.33-4.114,4.619-5.177.604.314.848.544.906.605.693,1.624-.835,7.767-1.572,10.728-.448,1.801-.911,3.662-1.291,5.535-2.504,12.348-5.748,24.959-8.885,37.155-9.259,35.997-18.833,73.219-12.648,113.197.697,4.503,2.074,9.649,3.685,13.765,1.229,3.141,4.971,12.7,14.17,14.222,1.198.198,2.403.299,3.581.299,14.103,0,19.939-12.819,23.075-19.706.354-.779.701-1.542,1.049-2.268,22.122-46.171,38.154-90.429,49.014-135.303.194-.803.386-1.637.581-2.489.63-2.749,1.934-8.435,3.25-9.612.076-.021.259-.061.589-.078.106-.005.21-.008.312-.008,2.503,0,4.545,3.05,8.094,12.088,5.909,15.048,11.731,30.464,17.361,45.374,8.535,22.6,17.36,45.969,26.749,68.759,8.893,21.587,23.611,34.474,39.369,34.474,3.814,0,7.626-.75,11.332-2.228,9.896-3.948,15.089-12.926,14.249-24.63-.522-7.272-3.159-14.688-5.485-21.232-.733-2.062-1.425-4.01-1.951-5.687-5.083-16.213-10.716-32.457-16.163-48.165-5.943-17.138-12.089-34.859-17.457-52.382-2.512-8.202-1.538-10.17-1.417-10.37h0s.186-.184.75-.434c.685-.304,1.041-.328,1.134-.328.509,0,2.586.562,7.948,7.785,3.403,4.583,6.842,9.295,10.167,13.852,26.199,35.896,53.289,73.013,96.526,95.191,3.678,1.887,7.352,3.443,10.905,4.949,1.583.671,3.079,1.304,4.563,1.961,1.552.687,3.206,1.026,4.854,1.026,2.264,0,4.516-.64,6.478-1.898,3.391-2.175,5.465-5.906,5.521-9.935.019-1.347.226-3.079.445-4.913.685-5.723,1.536-12.847-1.968-19.505-8.967-17.035-19.219-34.257-31.341-52.65-21.557-32.71-33.677-59.953-38.143-85.735-5.301-30.603.217-60.186,16.869-90.438,21.911-39.806,30.79-88.058,25.677-139.538-6.824-68.72-56.704-103.001-102.921-129.74-.49-.283-.999-.532-1.524-.743l-10.768-4.34c-.366-.147-.74-.277-1.119-.388-21.647-6.328-38.62-9.149-55.033-9.149h0Z" fill="#231f20" stroke-width="0"/><path d="M239.266,342.42c1.143-7.362.987-16.645,4.172-24.589,5.472-13.646,12.993-27.013,26.888-33.629,4.979-2.371,2.509,1.798.625,4.095-6.329,7.716-14.128,14.885-18.067,23.731-4.644,10.429-7.078,22.276-8.125,33.722-.714,7.805,2.591,15.978,4.099,23.986,2.381-5.3,4.048-11.103,7.336-15.763,3.56-5.047,7.686-11.814,15.617-8.214,6.605,2.998,5.648,9.462,5.039,15.498-.299,2.955.354,6.006.577,9.014,1.916-2.13,4.343-3.983,5.668-6.432,11.366-21.017,23.818-42.041,4.159-65.116-1.209-1.419-1.573-3.559-2.33-5.363,2.019,1.079,4.571,1.693,5.975,3.306,16.607,19.1,13.124,39.695,1.853,59.045-8.678,14.899-12.943,41.362-34.25,36.957-22.385-4.628-15.385-30.921-19.235-50.25Z" stroke-width="0"/><path d="M340.843,396.91c-18.312-22.925-10.671-80.223,12.975-96.704,9.523-6.637,18.534-6.675,26.688,2.558,20.293,22.979,3.344,90.24-25.148,99.457-6.409,2.073-11.568.264-14.989-5.767,25.609,1.52,53.217-47.683,43.016-76.808-2.745-7.837-5.729-17.011-15.265-17.298-8.445-.254-15.117,5.767-19.103,13.589-13.205,25.916-21.026,52.41-8.174,80.971Z" stroke-width="0"/><path d="M245.13,454.141c3.264-7.418,5.112-13.687,8.604-18.843,2.415-3.565,7.099-5.593,10.769-8.308-1.963,3.578-3.616,7.375-5.954,10.688-4.959,7.025-10.705,16.303-3.547,22.132,7.907,6.439,8.978-7.539,14.847-9.749,4.876-1.836,14.94-23.788,13.458,3.115-.045.827,3.938,2.959,5.612,2.58,3.856-.873,4.989-8.981,10.936-4.166.226.183-2.749,4.569-4.451,6.832-4.133,5.494-8.709,10.313-16.019,4.814-3.79-2.851-6.42-9.6-11.886-1.607-2.894,4.233-2.234,14.886-10.219,10.735-5.613-2.918-8.124-11.799-12.149-18.222Z" stroke-width="0"/><path d="M341.014,377.27c1.164-5.788.341-13.588,8.631-14.402,1.955-.192,6.928,6.944,6.409,10.016-.971,5.747-3.88,14.415-7.909,15.666-6.749,2.096-6.103-6.138-7.131-11.281Z" stroke-width="0"/></svg>