<?xml version="1.0" encoding="UTF-8"?><svg id="a" xmlns="http://www.w3.org/2000/svg" width="595.276" height="841.89" viewBox="0 0 595.276 841.89"><path d="M292.622,519.397c-29.914,0-56.707-10.354-75.441-29.149-18.641-18.702-28.443-44.116-28.349-73.495.15-46.288,25.216-100.127,58.536-102.895,5.384-.447,10.929-.674,16.482-.674,24.664,0,49.462,4.317,71.712,12.484,17.796,6.532,31.91,18.526,41.948,35.647,8.407,14.338,13.984,32.362,16.577,53.571,3.297,26.979-3.287,51.208-19.04,70.065-16.939,20.277-43.43,32.43-74.591,34.218-2.621.15-5.255.227-7.831.227h-.004Z" fill="#2aff55" stroke-width="0"/><path d="M263.852,319.184c23.537,0,47.905,4.138,69.643,12.117,35.276,12.949,50.086,47.079,54.637,84.314,6.638,54.315-30.071,94.24-88.018,97.564-2.529.145-5.025.217-7.492.217-57.692,0-97.975-39.245-97.789-96.624.145-44.625,24.096-94.531,53.033-96.935,5.258-.437,10.6-.654,15.986-.654M263.852,307.184c-5.719,0-11.431.234-16.98.695-17.86,1.484-34.534,15.342-46.948,39.021-10.785,20.571-17.014,46.024-17.091,69.834-.05,15.439,2.558,30.009,7.751,43.304,5.126,13.123,12.645,24.713,22.349,34.448,19.869,19.933,48.169,30.911,79.689,30.911,2.692,0,5.444-.08,8.179-.237,32.835-1.884,60.839-14.797,78.852-36.362,8.258-9.885,14.212-21.283,17.697-33.878,3.532-12.766,4.438-26.48,2.693-40.76-2.692-22.028-8.532-40.828-17.356-55.878-10.761-18.353-25.92-31.221-45.057-38.245-22.905-8.408-48.417-12.852-73.778-12.852h0Z" fill="#231f20" stroke-width="0"/><path d="M337.78,684.008c-36.112,0-73.296-35.724-79.571-76.449-2.24-14.539-2.484-29.447-2.721-43.865-.027-1.72-.057-3.453-.088-5.195-7.039,36.661-20.901,66.23-42.142,90.032l-.913,1.024c-13.172,14.773-28.101,31.518-48.299,31.518-6.702,0-13.571-1.903-20.415-5.657-27.405-15.033-38.322-45.115-29.95-82.535,9.297-41.554,25.53-70.789,50.353-90.071-15.577,4.301-31.03,6.471-46.158,6.471-10.015,0-20.108-.948-30-2.818-23.135-4.374-42.193-20.915-50.981-44.245-9.477-25.161-5.498-52.51,10.643-73.16,21.751-27.825,52.949-43.784,85.596-43.784,20.88,0,41.457,6.521,59.507,18.858,6.564,4.486,8.855,10.355,7.005,17.943-12.462,51.075-1.078,88.126,34.8,113.269,17.42,12.209,35.14,18.143,54.172,18.142,22.215-.002,46.259-8.286,73.506-25.326,1.842-1.152,3.748-1.693,5.283-2.127,21.63-22.591,27.29-58.242,15.106-95.734-10.325-31.774-31.713-56.222-52.011-59.451-17.082-2.718-27.356-7.89-32.335-16.278-6.477-10.913-1.856-23.897,2.611-36.455,1.039-2.918,2.112-5.936,3.025-8.867,5.153-16.554,11.707-32.216,19.479-46.551,15.906-29.345,37.412-59.344,76.308-59.344,5.152,0,10.574.537,16.113,1.597.868.166,1.689.522,2.404,1.043.377.273.863.615,1.434,1.016,3.226,2.265,9.231,6.48,13.79,11.304,3.688,3.9,7.068,8.617,9.785,12.407l.794,1.106c.259.359.477.746.65,1.153,14.896,34.979,16.817,65.805,5.875,94.234-5.794,15.056-14.72,28.004-24.572,39.308,7.264-5.233,14.484-10.452,21.599-15.594l12.743-9.206c.481-.349,1.013-.623,1.575-.814,2.554-.871,5.166-1.818,7.692-2.734,5.824-2.111,11.847-4.295,18.051-5.89,9.436-2.425,20.525-4.904,31.228-4.904,16.116,0,28.923,5.498,39.15,16.81,17.466,19.317,21.42,44.635,12.089,77.4-5.055,17.747-17.717,27.187-29.963,36.314-2.281,1.701-4.642,3.46-6.872,5.223-.642.507-1.381.877-2.171,1.089-15.791,4.219-31.486,5.084-50.193,5.084h-.003c-3.109,0-6.222-.021-9.334-.043-3.085-.021-6.171-.042-9.254-.042-8.29,0-17.922.144-27.46,1.146,2.929,2.378,5.898,4.729,8.802,7.025,6.278,4.97,12.771,10.107,18.926,15.581,32.694,29.076,61.256,63.256,48.965,116.02-.244,1.049-.767,2.013-1.513,2.791-2.004,2.09-3.983,4.199-5.963,6.308-1.973,2.103-3.946,4.204-5.942,6.288-.513.535-1.119.971-1.79,1.284-8.277,3.873-16.734,5.836-25.138,5.836-14.375,0-29.001-5.774-43.472-17.163-8.351-6.572-18.051-18.489-27.432-30.014-2.462-3.025-4.857-5.969-7.16-8.73.831,4.206,1.714,8.42,2.574,12.527,2.993,14.29,6.089,29.066,7.137,44.136,3.428,49.25-19.741,85.924-57.653,91.258-2.382.335-4.839.505-7.301.505Z" fill="#e17fff" stroke-width="0"/><path d="M399.59,169.35c4.712,0,9.703.48,14.986,1.49,2.484,1.808,9.461,6.369,14.395,11.59,3.766,3.985,7.346,9.112,10.069,12.897,31.518,74.015-3.303,115.922-38.275,148.017-2.492,2.287-3.593,6.225-5.341,9.395,2.27-.589,4.936-.571,6.748-1.86,20.589-14.651,41.051-29.499,61.545-44.295,8.424-2.872,16.719-6.287,25.3-8.492,9.913-2.548,20.01-4.716,29.735-4.716,12.606,0,24.583,3.646,34.699,14.834,18.433,20.386,18.105,45.973,10.768,71.732-5.408,18.989-21.13,27.684-34.784,38.473-16.057,4.291-32.334,4.881-48.647,4.881-6.196,0-12.396-.085-18.592-.085-10.31,0-20.608.236-30.843,1.493-.046-.044-.092-.087-.138-.131-5.508-1.581-11.015-3.161-16.523-4.742,4.034,3.949,7.844,8.19,12.146,11.791,10.446,8.741,21.461,16.771,31.643,25.825,32.47,28.876,58.588,60.89,47.109,110.176-4.002,4.174-7.908,8.421-11.907,12.597-7.779,3.64-15.311,5.271-22.594,5.271-14.229,0-27.502-6.23-39.761-15.878-12.197-9.599-28.611-32.77-40.898-46.188-6.004-9.415-12.007-18.83-18.011-28.246,4.607,12.519,9.381,25.201,13.974,37.707,3.789,20.037,8.951,39.549,10.358,59.776,3.242,46.59-18.465,80.111-52.504,84.9-2.135.3-4.293.447-6.465.447-32.283,0-67.623-32.308-73.641-71.363-3.282-21.298-2.156-43.324-3.264-65.007-.22-4.312-1.558-12.265-2.35-12.265h0c-7.221.038-5.816,7.121-6.379,11.477-5.03,38.916-17.291,74.469-43.363,103.686-12.94,14.501-26.804,30.537-44.736,30.537-5.439,0-11.254-1.476-17.529-4.918-28.353-15.553-33.631-46.24-26.98-75.964,9.479-42.366,28.026-79.899,69.075-99.444,2.096-.998,3.27-4.106,4.874-6.232-3.219.377-6.694.061-9.617,1.238-21.563,8.677-43.553,13.527-65.992,13.527-9.547,0-19.178-.879-28.887-2.714-46.741-8.838-67.066-68.998-36.725-107.814,21.287-27.233,50.844-41.482,80.868-41.48,19.197.001,38.589,5.828,56.121,17.812,4.612,3.152,5.814,6.432,4.561,11.568-11.72,48.04-4.167,90.625,37.186,119.605,19.305,13.529,38.535,19.227,57.615,19.227,25.925,0,51.566-10.528,76.687-26.239,1.569-.981,3.51-1.316,5.304-1.907,52.635-52.715,9.752-158.637-39.163-166.418-44.533-7.084-29.228-30.396-21.913-53.891,4.88-15.674,11.253-31.138,19.025-45.476,16.565-30.558,36.534-56.207,71.034-56.203M399.583,157.35c-18.803,0-35.712,6.634-50.26,19.719-10.978,9.874-20.636,23.063-31.316,42.765-7.958,14.681-14.665,30.705-19.934,47.627-.877,2.817-1.93,5.778-2.949,8.64-4.702,13.215-10.031,28.193-2.118,41.527,5.958,10.04,17.573,16.123,36.552,19.142,18.162,2.889,37.591,25.662,47.248,55.38,5.404,16.628,7.161,33.562,5.082,48.971-2.125,15.752-8.091,29.064-17.743,39.615-1.54.484-3.346,1.172-5.205,2.335-26.267,16.427-49.27,24.413-70.324,24.413-17.76,0-34.353-5.578-50.728-17.054-33.619-23.56-44.222-58.539-32.415-106.934,2.443-10.016-.824-18.425-9.448-24.32-19.05-13.02-40.797-19.903-62.892-19.904-34.504-.002-67.426,16.797-90.323,46.09-8.807,11.267-14.425,24.766-16.246,39.036-1.709,13.397-.079,27.206,4.715,39.934,9.532,25.306,30.272,43.259,55.481,48.026,10.26,1.94,20.729,2.923,31.116,2.923,8.753,0,17.607-.7,26.522-2.093-4.451,5.01-8.545,10.432-12.272,16.258-10.763,16.826-18.712,37.147-24.3,62.126-3.992,17.841-3.788,34.92.588,49.39,5.214,17.239,16.394,30.972,32.331,39.715,7.738,4.245,15.578,6.397,23.3,6.397,22.887,0,38.765-17.809,52.775-33.522l.914-1.025c14.19-15.902,25.192-34.255,33.156-55.418.353,3.792.804,7.585,1.386,11.366,3.275,21.25,14.128,41.562,30.561,57.194,16.262,15.469,36.287,24.342,54.941,24.342,2.741,0,5.478-.189,8.137-.563,20.153-2.835,37.459-14.301,48.729-32.285,10.964-17.496,15.831-40.087,14.074-65.331-.8-11.496-2.737-22.717-4.923-33.664,6.901,8.25,13.77,15.889,20.108,20.877,15.554,12.241,31.429,18.448,47.182,18.448,9.288,0,18.601-2.154,27.68-6.401,1.342-.628,2.556-1.499,3.581-2.569,2.011-2.099,4.01-4.23,5.945-6.29,1.952-2.079,3.97-4.229,5.958-6.302,1.492-1.556,2.537-3.484,3.026-5.583,5.962-25.597,3.315-48.807-8.092-70.958-10.87-21.107-28.545-38.293-42.729-50.907-5.173-4.601-10.535-8.934-15.81-13.124,4.023-.118,7.917-.146,11.55-.146,3.07,0,6.142.021,9.214.042,3.127.021,6.253.043,9.379.043,19.182,0,35.322-.899,51.745-5.288,1.581-.422,3.058-1.163,4.342-2.178,2.164-1.709,4.385-3.365,6.737-5.118,12.439-9.272,26.537-19.781,32.148-39.483,4.508-15.829,6.036-29.714,4.67-42.447-1.666-15.528-7.748-29.195-18.078-40.619-11.271-12.466-25.94-18.786-43.6-18.786-11.37,0-22.921,2.575-32.721,5.093-6.484,1.666-12.645,3.9-18.603,6.061-2.615.948-5.084,1.844-7.583,2.696-1.126.384-2.188.933-3.152,1.629-1.993,1.439-3.986,2.878-5.978,4.318,1.962-3.788,3.749-7.719,5.322-11.806,5.446-14.15,7.878-29.189,7.228-44.701-.711-16.986-5.147-35.167-13.183-54.039-.347-.814-.782-1.588-1.299-2.306l-.783-1.091c-2.824-3.939-6.338-8.843-10.307-13.041-4.972-5.261-11.299-9.703-14.698-12.089-.539-.378-.999-.7-1.354-.959-1.43-1.041-3.072-1.753-4.809-2.085-5.907-1.13-11.708-1.703-17.239-1.704h-.008Z" fill="#231f20" stroke-width="0"/><path d="M202.904,365.291c-.176,0-.352-.008-.528-.023-2.155-.189-4.041-1.525-4.936-3.496-1.216-2.676-6.134-7.478-10.891-12.121-3.274-3.196-6.66-6.502-9.901-10.056-29.137-31.948-44.277-66.991-46.284-107.133-2.011-40.221,20.65-78.411,52.712-88.834,7.468-2.428,14.699-3.659,21.494-3.659,29.851,0,48.252,23.256,62.315,46.005,23.132,37.418,27.43,80.382,31.585,121.932l.111,1.106c.304,3.044.384,7.449-2.428,10.556-1.178,1.301-3.308,2.852-6.771,2.852-2.331,0-4.673-.717-6.938-1.41l-.701-.214c-7.422-2.248-14.454-3.388-20.9-3.388-21.747,0-37.884,12.583-49.33,38.47-1.251,2.828-2.416,4.993-3.667,6.812-1.125,1.637-2.979,2.602-4.943,2.602Z" fill="#e17fff" stroke-width="0"/><path d="M204.57,145.968c26.01,0,42.72,19.716,57.213,43.16,22.602,36.562,26.641,78.62,30.829,120.48.53,5.3-.852,6.81-3.227,6.81-1.607,0-3.668-.691-5.899-1.366-8.088-2.45-15.629-3.646-22.64-3.646-24.702,0-42.794,14.853-54.818,42.043-1.048,2.37-2.061,4.295-3.124,5.841-2.634-5.801-13.188-14.274-21.822-23.74-27.121-29.737-42.694-62.774-44.725-103.389-1.878-37.569,18.842-73.162,48.575-82.829,7.103-2.309,13.619-3.365,19.638-3.365M204.57,133.968h0c-7.425,0-15.28,1.329-23.348,3.952-17.159,5.578-32.355,18.471-42.789,36.302-10.092,17.248-15.086,38.037-14.061,58.538,2.08,41.59,17.73,77.858,47.844,110.876,3.358,3.682,6.962,7.2,10.142,10.304,3.647,3.56,8.637,8.432,9.635,10.344,1.795,3.922,5.558,6.579,9.856,6.959.354.031.706.047,1.057.047,3.927,0,7.635-1.928,9.886-5.201,1.467-2.133,2.805-4.607,4.211-7.787,10.383-23.481,24.724-34.895,43.843-34.896,5.857,0,12.303,1.053,19.161,3.13l.684.209c2.562.784,5.465,1.673,8.693,1.673,4.419,0,8.403-1.714,11.219-4.826,4.923-5.44,4.19-12.77,3.948-15.179l-.11-1.101c-4.223-42.229-8.59-85.896-32.452-124.494-14.933-24.155-34.62-48.848-67.419-48.85h0Z" fill="#231f20" stroke-width="0"/><path d="M277.016,397.242c-.939,7.169-.114,15.532-8.824,15.942-9.165.432-12.73-6.92-12.802-15.327-.065-7.661.606-17.611,9.724-17.994,10.207-.429,9.799,10.528,11.902,17.378Z" stroke-width="0"/><path d="M299.644,488.403c-11.261-1.647-18.768-8.032-17.397-18.317,2.298-17.247,17.551-19.183,30.411-21.642,6.859-1.311,9.209,5.85,8.298,11.649-2.138,13.602-6.342,26.128-21.312,28.31ZM305.513,456.179c-7.412,2.182-16.087,4.563-16.969,15.224-.521,6.291,4.398,11.403,10.096,10.897,9.663-.859,13.687-9.201,15.626-18.057,1.354-6.185-2.769-7.994-8.753-8.063Z" stroke-width="0"/><path d="M314.759,390.835c-.766,7.695-2.082,15.453-10.637,16.256-6.392.6-8.046-5.248-6.861-10.782,1.661-7.758,2.545-18.128,11.669-18.868,6.615-.536,4.545,8.577,5.829,13.394Z" stroke-width="0"/></svg>